<svg width="36" height="36" viewBox="0 0 36 36" fill="none" xmlns="http://www.w3.org/2000/svg">
<rect width="36" height="36" fill="#6F6F6F"/>
<path d="M24.335 24.339H21.67V20.162C21.67 19.166 21.65 17.884 20.28 17.884C18.891 17.884 18.679 18.968 18.679 20.089V24.339H16.013V15.75H18.573V16.92H18.608C18.966 16.246 19.836 15.533 21.136 15.533C23.836 15.533 24.336 17.311 24.336 19.624V24.339H24.335ZM13.003 14.575C12.7996 14.5753 12.5981 14.5354 12.4101 14.4576C12.2221 14.3798 12.0513 14.2657 11.9075 14.1218C11.7636 13.9779 11.6497 13.8071 11.572 13.619C11.4944 13.431 11.4546 13.2294 11.455 13.026C11.4552 12.7198 11.5462 12.4206 11.7164 12.1661C11.8867 11.9117 12.1286 11.7134 12.4115 11.5965C12.6945 11.4795 13.0057 11.449 13.306 11.5089C13.6062 11.5689 13.882 11.7165 14.0983 11.9331C14.3147 12.1497 14.4619 12.4257 14.5215 12.726C14.581 13.0263 14.5501 13.3375 14.4328 13.6203C14.3154 13.9031 14.1169 14.1447 13.8622 14.3147C13.6075 14.4846 13.3082 14.5752 13.002 14.575H13.003ZM14.339 24.339H11.666V15.75H14.34V24.339H14.339ZM25.67 9H10.329C9.593 9 9 9.58 9 10.297V25.703C9 26.42 9.594 27 10.328 27H25.666C26.4 27 27 26.42 27 25.703V10.297C27 9.58 26.4 9 25.666 9H25.669H25.67Z" fill="#CDCDCD"/>
</svg>
