<svg width="36" height="36" viewBox="0 0 36 36" fill="none" xmlns="http://www.w3.org/2000/svg">
<rect width="36" height="36" fill="#6F6F6F"/>
<path d="M28.1623 11.6559C27.3989 11.9936 26.5893 12.2154 25.7603 12.3139C26.634 11.7914 27.288 10.9689 27.6003 9.99993C26.7803 10.4879 25.8813 10.8299 24.9443 11.0149C24.3149 10.3415 23.4807 9.89489 22.5713 9.74451C21.6618 9.59413 20.7282 9.74842 19.9156 10.1834C19.1029 10.6183 18.4567 11.3096 18.0774 12.1497C17.6981 12.9898 17.607 13.9317 17.8183 14.8289C16.1554 14.7456 14.5286 14.3135 13.0436 13.5606C11.5585 12.8077 10.2484 11.751 9.1983 10.4589C8.82659 11.0974 8.63125 11.8232 8.6323 12.5619C8.6323 14.0119 9.3703 15.2929 10.4923 16.0429C9.82831 16.022 9.17893 15.8427 8.5983 15.5199V15.5719C8.5985 16.5376 8.93267 17.4735 9.54414 18.221C10.1556 18.9684 11.0068 19.4814 11.9533 19.6729C11.3369 19.84 10.6906 19.8646 10.0633 19.7449C10.3302 20.5762 10.8503 21.3031 11.5509 21.824C12.2515 22.3449 13.0974 22.6337 13.9703 22.6499C13.1028 23.3313 12.1095 23.8349 11.0472 24.1321C9.98488 24.4293 8.87442 24.5142 7.7793 24.3819C9.69099 25.6114 11.9164 26.264 14.1893 26.2619C21.8823 26.2619 26.0893 19.8889 26.0893 14.3619C26.0893 14.1819 26.0843 13.9999 26.0763 13.8219C26.8952 13.2301 27.6019 12.4969 28.1633 11.6569L28.1623 11.6559Z" fill="#CDCDCD"/>
</svg>
