<svg width="49" height="59" viewBox="0 0 49 59" fill="none" xmlns="http://www.w3.org/2000/svg">
<path d="M12.8406 44.9468L12.4254 46.5435C7.701 42.0721 6.66863 38.6627 3.55856 38.9701C3.62343 38.9534 4.18502 38.7447 2.20925 37.6287C0.124134 36.4494 1.17689 34.8136 1.17689 34.8136C2.80606 31.2384 2.35753 31.2925 2.40572 29.7293C2.39906 29.3866 2.49057 29.0491 2.66932 28.7571C2.84808 28.4651 3.10657 28.2309 3.41399 28.0824C4.68805 34.57 7.99082 40.4787 12.8406 44.9468V44.9468Z" fill="#ECD844" stroke="black" stroke-width="0.293061" stroke-miterlimit="10"/>
<path d="M47.2276 35.7377C47.2026 35.8486 47.1717 35.9581 47.1349 36.0656C46.7695 37.1143 46.0789 38.0175 45.1647 38.6422C44.6735 38.2696 43.9711 38.0833 42.9702 38.2119C40.4662 38.5528 38.5998 42.7559 35.7066 46.3888L35.4082 44.1159C39.7444 39.8 42.7112 34.2894 43.934 28.2799C44.3789 28.1737 46.3083 27.939 45.8987 31.9185C45.8931 31.9185 47.6909 33.8281 47.2276 35.7377Z" fill="#ECD844" stroke="black" stroke-width="0.293061" stroke-miterlimit="10"/>
<path d="M46.2656 42.0404C46.1377 43.0286 45.9583 44.0093 45.7281 44.9785C45.6873 45.1387 45.6428 45.2877 45.5983 45.4182C45.413 45.9324 45.2277 46.1988 45.0293 45.8709C44.3287 44.7009 41.2483 48.2519 40.8739 48.6804C39.0205 50.808 37.6193 52.8741 35.2432 54.5062C29.9572 58.1373 22.8529 59.4638 16.7792 57.161C12.5645 55.5644 9.50817 52.3171 6.32766 49.2542C5.59926 48.5537 4.8653 47.8644 4.10354 47.2048C4.00901 47.1229 1.09355 44.889 1.08984 45.2896V39.7656C2.05919 39.2961 2.85617 39.0409 3.55306 38.972C6.66314 38.6646 7.6955 42.0647 12.4199 46.5434C18.2045 52.0246 23.3812 53.7404 30.0999 50.9719C32.4037 50.0236 34.1923 48.2854 35.701 46.3888C38.5942 42.7558 40.4606 38.5528 42.9646 38.2118L43.0851 38.1969C43.317 38.1705 43.5507 38.163 43.7838 38.1746C44.2783 38.1896 44.7571 38.3524 45.1591 38.6422C46.5455 39.6781 46.2656 42.0404 46.2656 42.0404Z" fill="#ECD844" stroke="black" stroke-width="0.293061" stroke-miterlimit="10"/>
<path d="M47.3035 48.9766C47.049 49.3068 46.7241 49.5755 46.3526 49.7628C45.9812 49.9501 45.5727 50.0514 45.1572 50.0591H45.0349H44.9997C43.0165 50.0907 40.8721 48.6804 40.8721 48.6804L40.9314 48.6133C41.354 48.1271 43.1166 46.1411 44.2305 45.7163C44.5808 45.5821 44.8662 45.6026 45.0275 45.8709C45.0757 45.9548 45.1257 45.9995 45.1758 46.0088C45.2647 46.0311 45.35 45.9529 45.4297 45.8038C45.8856 44.9841 46.2637 42.0405 46.2637 42.0405C46.1488 45.3567 49.3238 46.3628 47.3035 48.9766Z" fill="#ECD844" stroke="black" stroke-width="0.293061" stroke-miterlimit="10"/>
<path d="M6.32666 49.2598L3.55762 48.7344L4.11365 47.2086C4.86429 47.8681 5.59825 48.5574 6.32666 49.2598Z" fill="black" stroke="black" stroke-width="0.293061" stroke-miterlimit="10"/>
<path d="M4.10772 47.2086C2.49894 46.2547 1.09403 48.2389 1.09403 48.2389C0.67143 47.562 0.447266 46.779 0.447266 45.9799C0.447266 45.1808 0.67143 44.3978 1.09403 43.7209V45.3008C1.09588 44.8928 4.0132 47.1248 4.10772 47.2086Z" fill="black" stroke="black" stroke-width="0.293061" stroke-miterlimit="10"/>
<path d="M6.82597 44.9192L7.17855 45.1327L7.11231 44.383C7.33289 44.4085 7.53773 44.3194 7.65969 44.1158C7.83943 43.8158 7.71609 43.4725 7.38916 43.2746L6.7759 42.9033L5.90287 44.3604L6.19348 44.5363L6.47079 44.0735L6.76994 44.2546L6.82597 44.9192ZM6.90474 43.3492L7.21671 43.5381C7.37697 43.6351 7.45681 43.8032 7.37336 43.9425C7.28991 44.0817 7.10479 44.0894 6.94453 43.9924L6.63256 43.8035L6.90474 43.3492Z" fill="black"/>
<path d="M10.2544 45.7827L10.4615 45.5461L9.52693 44.7194L8.40915 45.9962L9.34374 46.8229L9.55086 46.5863L8.87047 45.9844L9.11047 45.7103L9.71608 46.246L9.9232 46.0094L9.31759 45.4737L9.57402 45.1808L10.2544 45.7827Z" fill="black"/>
<path d="M11.0778 48.0846C10.8648 47.8597 10.871 47.5357 11.1129 47.3043C11.3547 47.0729 11.677 47.0826 11.8899 47.3075C12.0617 47.4889 12.0756 47.7106 11.9381 47.9287L12.1786 48.1826C12.4375 47.8276 12.4163 47.4019 12.1191 47.0882C11.7825 46.7327 11.2476 46.6983 10.8758 47.054C10.5041 47.4098 10.512 47.9485 10.8486 48.304C11.1457 48.6177 11.5676 48.66 11.9331 48.4175L11.6926 48.1635C11.4692 48.2909 11.2496 48.266 11.0778 48.0846Z" fill="black"/>
<path d="M14.5121 49.6329L13.4543 48.5696L13.2314 48.7936L13.6401 49.2044L12.6601 50.1894L12.9007 50.4312L13.8806 49.4462L14.2893 49.8569L14.5121 49.6329Z" fill="black"/>
<path d="M15.9811 51.4152L16.1823 51.1733L15.2262 50.3697L14.14 51.6755L15.0961 52.4791L15.2974 52.2372L14.6014 51.6522L14.8346 51.3718L15.4541 51.8925L15.6554 51.6505L15.0358 51.1298L15.285 50.8302L15.9811 51.4152Z" fill="black"/>
<path d="M18.2703 52.6524C17.9331 52.4621 17.6067 52.5189 17.4485 52.8025C17.3206 53.0315 17.3662 53.2522 17.6282 53.4746L17.842 53.6554C17.985 53.7733 17.9842 53.8618 17.9477 53.9272C17.8892 54.0319 17.7628 54.038 17.5996 53.946C17.3951 53.8306 17.3116 53.6573 17.3742 53.489L17.0804 53.3233C16.9244 53.654 17.0694 53.9939 17.4349 54.2001C17.783 54.3964 18.1159 54.3433 18.273 54.062C18.4093 53.8177 18.3061 53.6132 18.0496 53.3911L17.895 53.258C17.7694 53.1499 17.7167 53.0599 17.7764 52.953C17.8445 52.8309 17.9865 52.8278 18.1496 52.9198C18.3367 53.0254 18.3763 53.1595 18.3191 53.308L18.6129 53.4736C18.7899 53.0745 18.5205 52.7935 18.2703 52.6524Z" fill="black"/>
<path d="M20.2818 55.487L20.6263 55.5986L20.4459 53.7548L20.1441 53.6571L18.9248 55.0478L19.2717 55.1601L19.5085 54.8796L20.2523 55.1204L20.2818 55.487ZM19.7171 54.6295L20.1696 54.0933L20.2257 54.7941L19.7171 54.6295Z" fill="black"/>
<path d="M22.6739 54.2921L22.0214 54.2416L21.8914 55.9351L22.2301 55.9614L22.2665 55.4882L22.5304 55.5087C22.9663 55.5424 23.2743 55.3158 23.3033 54.9372C23.3306 54.5811 23.0798 54.3236 22.6739 54.2921ZM22.5917 55.2002L22.2903 55.1769L22.3362 54.5791L22.6375 54.6025C22.8492 54.6189 22.9824 54.7445 22.9696 54.9113C22.9551 55.1006 22.8034 55.2166 22.5917 55.2002Z" fill="black"/>
<path d="M25.4098 54.5866L25.3763 54.2736L24.1346 54.4079L24.3154 56.0968L25.5571 55.9625L25.5236 55.6496L24.6196 55.7473L24.5808 55.3847L25.3854 55.2977L25.352 54.9848L24.5473 55.0718L24.5059 54.6843L25.4098 54.5866Z" fill="black"/>
<path d="M27.7403 55.4776L28.1358 55.3534L27.5303 54.9037C27.6969 54.7539 27.7671 54.5396 27.6962 54.3117C27.5918 53.9759 27.2523 53.8402 26.8856 53.9554L26.1977 54.1715L26.7049 55.8029L27.0309 55.7005L26.8698 55.1823L27.2053 55.0769L27.7403 55.4776ZM26.6177 54.3714L26.9676 54.2615C27.1474 54.205 27.3266 54.2567 27.375 54.4126C27.4235 54.5686 27.3055 54.7136 27.1257 54.7701L26.7758 54.88L26.6177 54.3714Z" fill="black"/>
<path d="M29.7033 53.1843L29.5546 52.9069L28.4563 53.5014L29.2583 54.9987L30.3567 54.4042L30.2081 54.1268L29.4085 54.5595L29.2362 54.2381L29.948 53.8528L29.7994 53.5754L29.0876 53.9606L28.9036 53.6171L29.7033 53.1843Z" fill="black"/>
<path d="M32.2022 51.3262L31.9951 51.0896L31.0736 51.9048L32.1914 53.1816L32.4456 52.9567L32.0297 52.4816L32.6129 51.9658L32.4058 51.7292L31.8226 52.2451L31.535 51.9165L32.2022 51.3262Z" fill="black"/>
<path d="M33.331 49.7776C32.9742 50.1129 32.952 50.6685 33.2854 51.027C33.6188 51.3855 34.1718 51.4006 34.5286 51.0654C34.8854 50.7301 34.9076 50.1745 34.5742 49.816C34.2408 49.4575 33.6878 49.4424 33.331 49.7776ZM34.3125 50.8331C34.0868 51.0452 33.7475 51.0178 33.5366 50.791C33.3257 50.5642 33.3213 50.222 33.5471 50.0099C33.7728 49.7978 34.1121 49.8252 34.323 50.052C34.5339 50.2788 34.5383 50.621 34.3125 50.8331Z" fill="black"/>
<path d="M36.3739 47.1677L37.0187 48.0547L35.625 47.7179L35.4217 47.8672L36.4205 49.2411L36.6943 49.0399L36.0671 48.1772L37.4351 48.4957L37.6465 48.3404L36.6477 46.9666L36.3739 47.1677Z" fill="black"/>
<path d="M38.8073 45.5475C38.467 45.7341 38.3412 46.0429 38.4964 46.329C38.6218 46.5601 38.8326 46.6387 39.16 46.5335L39.4266 46.4473C39.6024 46.388 39.6768 46.4358 39.7126 46.5018C39.7699 46.6074 39.7077 46.7186 39.5431 46.8089C39.3367 46.922 39.1458 46.901 39.0369 46.758L38.7405 46.9205C38.9368 47.2298 39.3012 47.287 39.67 47.0848C40.0213 46.8922 40.1537 46.5797 39.9997 46.2958C39.8659 46.0493 39.6381 46.0286 39.3139 46.1293L39.1191 46.1904C38.9609 46.24 38.8568 46.2371 38.7983 46.1293C38.7314 46.006 38.8043 45.8832 38.969 45.793C39.1578 45.6894 39.2922 45.7271 39.3872 45.8549L39.6836 45.6924C39.4407 45.3287 39.0598 45.4091 38.8073 45.5475Z" fill="black"/>
<path d="M45.5916 46.9776C44.8743 47.4098 43.2136 49.122 45.1579 50.061H44.9873C43.1802 50.033 41.2805 48.8481 40.9209 48.6096C41.3435 48.1234 43.1061 46.1374 44.22 45.7126C44.5703 45.5784 44.8558 45.5989 45.017 45.8672C45.0652 45.951 45.1152 45.9958 45.1653 46.0051C45.2542 46.0274 45.3395 45.9492 45.4192 45.8001C45.7176 46.1355 46.0716 46.687 45.5916 46.9776Z" fill="black"/>
<path d="M46.2653 42.0405C46.1374 43.0286 45.958 44.0093 45.7278 44.9785C45.5398 44.8465 45.3136 44.7809 45.0846 44.7922C45.0846 44.7922 44.6398 44.7345 45.0031 43.4471C45.3663 42.1597 44.8604 42.2063 44.5879 41.8095C44.3154 41.4126 44.6138 40.5705 44.6138 40.5705C44.6138 40.5705 43.9466 40.3842 44.0226 39.4285C44.0356 38.9997 43.9559 38.5732 43.7891 38.1783C44.2835 38.1934 44.7623 38.3562 45.1643 38.646C46.5451 39.6781 46.2653 42.0405 46.2653 42.0405Z" fill="black" stroke="black" stroke-width="0.293061" stroke-miterlimit="10"/>
<path d="M3.53996 35.4117C3.12609 35.5587 2.74462 35.7852 2.41677 36.0787C1.73841 36.7605 2.40009 37.707 2.40009 37.707C-1.51994 34.3386 3.53996 35.4117 3.53996 35.4117L4.85219 33.1238L5.32852 34.3069L4.10711 36.332L3.53996 35.4117" fill="black"/>
<path d="M3.53996 35.4117C3.12609 35.5587 2.74462 35.7852 2.41677 36.0787C1.73841 36.7605 2.40009 37.707 2.40009 37.707C-1.51994 34.3386 3.53996 35.4117 3.53996 35.4117ZM3.53996 35.4117L4.85219 33.1238L5.32852 34.3069L4.10711 36.332L3.53996 35.4117" stroke="black" stroke-width="0.293061" stroke-miterlimit="10"/>
<path d="M6.80952 37.312L6.0459 38.1746L6.80952 39.1825L7.51568 38.5081L6.80952 37.312Z" fill="black" stroke="black" stroke-width="0.293061" stroke-miterlimit="10"/>
<path d="M47.2284 35.7377C47.2034 35.8486 47.1725 35.958 47.1357 36.0656C45.8383 30.6813 44.0534 36.768 44.0534 36.768L42.2871 33.7498C43.0012 31.9845 43.5509 30.1565 43.9293 28.2892C44.3741 28.183 46.3035 27.9482 45.8939 31.9277C45.8939 31.9184 47.6917 33.8281 47.2284 35.7377Z" fill="#ECD844" stroke="black" stroke-width="0.293061" stroke-miterlimit="10"/>
<path d="M46.288 37.312L45.4688 35.7657" stroke="black" stroke-width="0.293061" stroke-miterlimit="10"/>
<path d="M40.8722 36.7606L42.2864 37.312L41.356 38.169L40.0215 38.2473L40.8722 36.7606Z" fill="black" stroke="black" stroke-width="0.293061" stroke-miterlimit="10"/>
<path d="M37.5527 41.6958L38.9947 41.6306" stroke="black" stroke-width="0.293061" stroke-miterlimit="10"/>
<path d="M36.8691 42.6199H38.3945" stroke="black" stroke-width="0.293061" stroke-miterlimit="10"/>
<path d="M35.8496 43.6613H37.6864" stroke="black" stroke-width="0.293061" stroke-miterlimit="10"/>
<path d="M12.8411 44.9468L10.5576 44.6394" stroke="black" stroke-width="0.293061" stroke-miterlimit="10"/>
<path d="M11.0867 43.1937L9.06641 42.9348" stroke="black" stroke-width="0.293061" stroke-miterlimit="10"/>
<path d="M9.88868 41.8169L8.01855 41.6865" stroke="black" stroke-width="0.293061" stroke-miterlimit="10"/>
<path d="M44.6409 0.641418V23.8756C44.5443 25.2061 44.3635 26.5291 44.0997 27.8365C43.0445 32.9944 40.7003 37.7975 37.2882 41.7932C33.876 45.7889 29.5082 48.8457 24.596 50.6757C24.3828 50.754 24.1678 50.8285 23.9528 50.9049C23.7378 50.8285 23.5228 50.754 23.3116 50.6757C17.7616 48.6172 12.9193 44.9947 9.36437 40.2417C5.8094 35.4887 3.69235 29.8067 3.2666 23.8756V0.641418H44.6409Z" fill="white"/>
<path d="M44.9112 0.315369V23.8495C44.5062 29.4195 42.6297 34.7799 39.4755 39.3774C36.3212 43.9749 32.0036 47.6431 26.9681 50.0032V50.0032C26.1933 50.3646 25.4025 50.6962 24.5957 50.998C24.3807 51.0782 24.1638 51.1527 23.9451 51.2309C23.7264 51.1527 23.5114 51.0782 23.2946 50.998C22.3876 50.659 21.5004 50.2808 20.633 49.8634C15.6725 47.4741 11.4281 43.8097 8.32954 39.2411C5.23102 34.6726 3.38841 29.3622 2.98828 23.8477V0.315369H44.9112Z" stroke="black" stroke-width="0.317102" stroke-miterlimit="10"/>
<path d="M21.1282 27.7601C21.397 29.1686 21.4451 30.4001 21.2709 31.1974C20.6871 33.8802 19.2914 34.9347 20.5518 37.7629C20.5889 37.8486 20.6278 37.9343 20.6704 38.02C20.6704 38.02 21.2709 39.231 20.2404 41.9939C20.2404 41.9939 19.7808 42.9254 20.815 45.6082C20.9052 46.4403 20.9275 47.2783 20.8817 48.114C16.2819 45.8982 12.3461 42.5 9.47284 38.2636C6.59957 34.0272 4.89081 29.1029 4.51953 23.9893V5.66608C6.34146 6.47651 9.16981 8.1514 8.63787 10.5697C8.28016 12.1998 8.62119 13.3903 9.56459 14.4374C10.6118 15.6092 12.4096 16.6041 14.808 17.8374L15.086 17.979C15.3284 18.1021 15.563 18.2403 15.7884 18.3926C16.7322 19.0416 17.5543 19.8533 18.2165 20.7904C18.2212 20.7963 18.2255 20.8025 18.2294 20.809C18.4778 21.1518 18.7113 21.5095 18.9319 21.8747C18.9504 21.9064 18.9689 21.938 18.9856 21.9697C19.171 22.292 19.3563 22.6255 19.5231 22.9627C19.5528 23.0279 19.5861 23.095 19.6195 23.1621C20.314 24.6246 20.8215 26.1695 21.1301 27.7601H21.1282Z" fill="#090B0E" stroke="black" stroke-width="0.786458" stroke-miterlimit="10"/>
<path d="M26.1467 16.3396L25.726 16.85L25.131 17.5804L23.8651 19.1286L23.5278 19.5384C23.5278 19.5384 23.1942 18.9497 22.6493 18.1095L22.5529 17.9641C22.4714 17.8412 22.3861 17.7126 22.2953 17.5804C22.1618 17.381 22.0173 17.1723 21.8671 16.96C21.717 16.7476 21.5836 16.5613 21.4297 16.3601C21.1795 16.0266 20.9145 15.6893 20.6402 15.3577C19.5948 14.102 18.3975 12.9562 17.2854 12.5929C16.9009 12.4673 16.5363 12.2865 16.203 12.0564C14.4052 10.7988 14.294 8.49608 14.294 8.49608C14.1086 5.20778 11.2636 2.69078 9.77344 1.75366H38.2219C37.7103 2.07411 37.1524 2.95161 35.9978 3.58505C33.4344 4.99725 33.8014 6.59389 33.4345 9.17423C33.3615 9.74489 33.1658 10.2928 32.8612 10.7798C32.5565 11.2669 32.15 11.6815 31.67 11.9949C30.9064 12.5315 30.0297 12.8761 29.2846 13.2227C28.243 13.7033 27.3867 14.6889 26.9215 15.3093C26.6768 15.6353 26.5378 15.8682 26.5378 15.8682L26.1467 16.3396Z" fill="#090B0F" stroke="black" stroke-width="0.786458" stroke-miterlimit="10"/>
<path d="M43.3852 5.73315V23.9911C43.011 29.1554 41.2724 34.1257 38.3488 38.3889C35.4252 42.6522 31.4226 46.0538 26.7543 48.2426C26.7802 48.1271 26.8117 47.9873 26.8451 47.8234C27.1509 46.3516 26.4188 44.142 26.4188 44.142C26.2334 40.645 28.0665 40.645 26.7228 38.1299C26.4404 37.6162 26.2107 37.075 26.037 36.5146C25.6163 35.1341 25.9295 34.51 25.9295 34.51C26.8747 32.8112 27.1775 30.8262 26.7821 28.9208L26.8395 27.9706L27.0397 24.6898L27.0879 23.8905C27.0879 23.8905 27.3956 23.5589 27.9052 23.0298L28.1351 22.7895C28.376 22.5398 28.6466 22.2604 28.9487 21.9548L29.034 21.871C29.3398 21.5617 29.6697 21.2319 30.0182 20.891C30.6205 20.3004 31.2767 19.6744 31.9402 19.0708C32.3998 18.6497 32.8669 18.2399 33.321 17.8579C34.0335 17.2416 34.7919 16.6811 35.5896 16.1812C35.6656 16.1346 35.7397 16.0936 35.812 16.0526C38.8016 14.3964 39.2909 13.7201 39.2909 10.2865C39.2909 6.85285 43.3852 5.73315 43.3852 5.73315Z" fill="#090B0F" stroke="black" stroke-width="0.786458" stroke-miterlimit="10"/>
<path d="M14.5503 8.87239C15.9544 9.82723 17.1444 11.0666 18.044 12.5109C19.4119 14.7913 19.9104 14.456 19.9104 14.456C19.9104 14.456 16.6465 8.47555 17.2285 8.04891C17.8105 7.62227 20.0754 13.3419 20.4535 13.0326C20.8316 12.7233 20.5721 11.9408 20.5721 11.9408L20.6592 8.66559C20.6592 8.66559 19.7677 6.45786 19.9345 6.48208C20.1013 6.5063 21.6805 8.35632 21.6805 8.35632L22.0512 11.8216C22.0512 11.8216 22.4052 12.8183 22.5942 12.4159C22.7833 12.0135 23.3504 6.22125 23.3504 6.22125L24.4124 12.2967L24.7201 12.5109C24.7201 12.5109 25.404 12.2669 25.2632 10.3479L26.2788 8.68981L26.5383 6.36843L27.1759 9.3307L26.2788 10.7299L26.1361 12.3917L26.4679 12.701L30.197 6.8137L28.5289 12.8891L29.072 13.4592C29.3469 12.9042 29.5685 12.324 29.7337 11.7266C30.0395 10.6591 31.4796 9.85235 31.4796 9.85235L32.4712 8.07127L32.3767 10.1374L31.4166 12.2632L31.4351 13.5356C31.4351 13.5356 34.4414 11.3801 35.1661 10.1206C35.8908 8.86121 33.4035 13.8151 32.8993 14.1244C32.3952 14.4336 38.4597 12.2482 38.4597 12.2482L34.3172 15.244C34.3172 15.244 35.1198 16.9506 35.7036 16.9208C36.2874 16.891 39.3512 15.9688 39.3512 15.9688C39.3512 15.9688 38.4967 17.8747 35.37 18.4876C35.37 18.4876 34.5063 19.1323 35.4256 19.6632C36.3449 20.1942 39.9646 19.0764 39.9646 19.0764L37.8035 20.7084L35.1587 20.8481C35.1587 20.8481 34.7676 21.6045 35.1309 21.7443C35.4942 21.884 39.7256 22.4709 40.2816 23.367C40.8376 24.2631 35.9093 22.7801 35.2421 23.367C34.5748 23.9539 34.6008 24.2352 34.8807 24.4308C35.1605 24.6264 35.9649 23.8719 37.3587 25.2151C38.5091 25.1841 39.6333 25.5636 40.5318 26.2864C41.9515 27.4825 35.5275 25.9697 35.5275 25.9697C35.5275 25.9697 34.9993 26.1933 35.3885 26.6143C35.7777 27.0354 39.6755 29.0493 39.6755 29.0493C39.6755 29.0493 35.0085 27.5589 34.3358 28.5724C33.663 29.5859 37.6163 32.2985 37.6163 32.2985C37.6163 32.2985 33.1811 29.6511 32.4582 29.7945C31.7354 29.938 35.2977 34.6106 35.2977 34.6106C35.2977 34.6106 30.5084 29.5803 30.008 30.1895C29.5075 30.7987 30.9532 32.7643 30.9532 32.7643L31.0644 33.856L33.0699 36.2072C33.0699 36.2072 27.9766 31.0838 27.6411 31.2254C27.3057 31.367 30.5362 38.7261 30.5362 38.7261C30.5362 38.7261 29.5798 37.4536 28.5827 36.2202C27.5855 34.9869 26.5439 33.7983 26.3882 33.9399C26.0657 34.2361 28.5586 38.7261 28.5586 38.7261L25.9137 36.6767L24.1882 41.3567L24.0214 36.85L18.9263 38.7261L19.9549 34.6106L16.3351 38.5938C16.3351 38.5938 19.2877 31.8756 19.1153 31.7917C18.9429 31.7079 14.2964 36.6059 14.2964 36.6059C14.2964 36.6059 17.7493 31.3446 17.3026 30.8304C16.856 30.3162 11.7701 34.3087 11.7701 34.3087L15.4177 29.5784L8.55996 32.4624L12.0815 28.3637C12.0815 28.3637 9.51448 28.1998 7.37005 28.8723C5.22562 29.5449 11.379 26.2771 11.379 26.2771C11.379 26.2771 8.28936 25.3456 6.61941 25.625C4.94946 25.9045 11.6867 24.0302 11.6867 24.0302C11.6867 24.0302 6.86777 22.1541 6.35252 22.1541C5.83726 22.1541 11.6033 21.5393 11.6033 21.5393C10.0223 20.2236 8.23718 19.1776 6.31915 18.4429C3.18684 17.258 11.3234 19.0969 11.3234 19.0969C11.3234 19.0969 11.6941 18.1653 7.82785 15.3707C3.96158 12.5761 13.9664 16.7196 13.9664 16.7196L11.203 11.6502L16.691 14.2585L14.5503 8.87239Z" fill="#EDD250"/>
<path d="M44.1161 1.13141V5.73317C44.1161 5.73317 39.2972 6.83796 39.2972 10.2753C39.2972 13.7127 38.8079 14.3852 35.8183 16.0415C35.746 16.0825 35.6718 16.1235 35.5958 16.17C34.7982 16.6699 34.0397 17.2305 33.3272 17.8468C32.8713 18.2194 32.4005 18.6386 31.9464 19.0596C31.2829 19.6633 30.6268 20.2893 30.0244 20.8798C29.676 21.2208 29.346 21.5505 29.0402 21.8598L28.955 21.9436C28.6529 22.2492 28.3823 22.5286 28.1413 22.7783L27.9115 23.0186C27.4018 23.5477 27.0941 23.8794 27.0941 23.8794L27.0459 24.6786L26.8402 27.9744L26.7827 28.9245C27.1782 30.83 26.8754 32.8149 25.9302 34.5137C25.9302 34.5137 25.6169 35.1378 26.0377 36.5184C26.2114 37.0787 26.4411 37.6199 26.7234 38.1336C28.0672 40.6488 26.236 40.6488 26.4195 44.1457C26.4195 44.1457 27.1516 46.3553 26.8458 47.8271C26.8124 47.9911 26.7902 48.6543 26.7642 48.7698L26.7401 49.1983C26.0228 49.5337 25.2907 49.843 24.5419 50.1206C24.3418 50.1951 24.1416 50.264 23.9377 50.3367C23.7357 50.264 23.5355 50.1951 23.3353 50.1206C22.4939 49.8057 21.6672 49.4573 20.8666 49.0679C20.9537 47.8774 20.8147 45.6138 20.8147 45.6138C19.7804 42.9329 20.2401 41.9995 20.2401 41.9995C21.2706 39.2366 20.6701 38.0256 20.6701 38.0256C20.6275 37.9399 20.5885 37.8542 20.5515 37.7685C19.2911 34.9404 20.6868 33.8859 21.2706 31.2031C21.4448 30.4057 21.3966 29.1742 21.1279 27.7657C20.8193 26.1751 20.3118 24.6302 19.6173 23.1677C19.584 23.1006 19.5506 23.0335 19.521 22.9683C19.3542 22.6311 19.1744 22.2976 18.9835 21.9753C18.9668 21.9436 18.9483 21.912 18.9297 21.8803C18.7092 21.5077 18.4756 21.1574 18.2273 20.8146C18.2234 20.8081 18.219 20.8019 18.2143 20.796C17.5521 19.859 16.7301 19.0472 15.7863 18.3982C15.5609 18.2459 15.3263 18.1077 15.0838 17.9846L14.8058 17.8431C12.4075 16.6097 10.6096 15.6074 9.56243 14.443C8.62088 13.3959 8.27985 12.2073 8.63571 10.5753C9.16765 8.15328 5.69986 6.47653 3.87793 5.67168V1.31958L9.16394 1.39224C10.6467 2.32377 14.1089 5.20778 14.2924 8.49608C14.2924 8.49608 14.4036 10.7988 16.2015 12.0564C16.5348 12.2866 16.8993 12.4673 17.2839 12.593C18.3959 12.9562 19.5932 14.102 20.6386 15.3577C20.9129 15.6894 21.1779 16.0266 21.4282 16.3601C21.582 16.5613 21.7266 16.7625 21.8656 16.96C22.0046 17.1574 22.1603 17.381 22.2937 17.5804C22.3845 17.7126 22.4698 17.8412 22.5513 17.9642L22.6477 18.1095C23.1926 18.9497 23.5262 19.5384 23.5262 19.5384L23.8636 19.1286L25.1295 17.5804L25.7244 16.85L26.1452 16.3396L26.5381 15.857C26.5381 15.857 26.6771 15.6316 26.9217 15.2981C27.387 14.6777 28.2433 13.6922 29.2849 13.2115C30.0263 12.865 30.9066 12.5203 31.6703 11.9837C32.1503 11.6703 32.5568 11.2557 32.8614 10.7687C33.1661 10.2816 33.3618 9.73372 33.4347 9.16306C33.8054 6.58645 33.4347 4.98981 35.998 3.57388C37.1509 2.94044 38.0368 1.48725 38.5558 1.16681L44.1161 1.13141Z" fill="#0075B3" stroke="white" stroke-width="0.635348" stroke-miterlimit="10"/>
<path d="M44.0088 29.4052C44.0088 29.4052 44.3331 31.3129 44.6408 32.047C44.9485 32.781 45.827 33.8448 45.827 33.8448C45.827 33.8448 46.6036 33.6828 47.1355 36.0656C47.1355 36.0656 47.7768 34.4298 45.8937 31.9184C45.8937 31.9184 46.7241 28.4792 44.4258 28.2352L44.0088 29.4052Z" fill="#090B0F"/>
<path d="M2.77111 39.339V40.3097C2.77111 40.3097 2.22435 39.611 1.95189 40.3097C1.67944 41.0083 1.95189 44.0209 1.95189 44.0209L1.09375 44.9971V40.0973C1.09375 40.0973 1.62198 38.7317 2.77111 39.339Z" fill="#03070E"/>
<path d="M2.77148 39.3372L3.26635 46.3888" stroke="black" stroke-width="0.131649" stroke-miterlimit="10"/>
<path d="M3.55763 29.3456L3.12207 30.8006L3.88013 30.9534L3.40194 33.4201L4.50288 32.1495L3.55763 29.3456Z" fill="black" stroke="black" stroke-width="0.131649" stroke-miterlimit="10"/>
<path d="M37.6643 19.0149V32.6152H27.0997L25.9876 31.1248C23.7635 33.3605 21.354 31.1248 21.354 31.1248L20.0566 32.6152H10.2334V20.319C10.9651 20.2246 11.6831 20.0432 12.3723 19.7787V30.9403L20.9852 30.3814C20.9852 30.3814 23.7654 32.2445 25.9895 30.5677L35.2567 30.9403V19.0764C35.6274 19.1677 35.6274 19.0149 35.6274 19.0149H37.6643Z" fill="#DABB7F" stroke="black" stroke-width="0.345721" stroke-miterlimit="10"/>
<path d="M35.2536 19.0764V30.9422L25.9864 30.5696C23.7622 32.2463 20.9821 30.3833 20.9821 30.3833L12.3691 30.9422V19.7769C13.6832 19.2701 14.3115 18.6404 14.3115 18.6404C14.3616 18.6013 14.4116 18.5566 14.4561 18.5212V27.8607C16.3896 28.1274 18.3527 27.6626 19.9645 26.5566C21.1174 25.7852 22.0126 25.7796 22.6669 26.033C23.2535 26.2884 23.7383 26.7337 24.044 27.298C24.044 27.298 25.5267 24.6898 28.8629 26.9254C32.1991 29.1611 33.4965 28.6022 33.4965 28.6022V18.2268C34.0123 18.5615 34.5637 18.8371 35.1405 19.0484C35.1868 19.0596 35.2202 19.0708 35.2536 19.0764Z" fill="#F44B49" stroke="black" stroke-width="0.345721" stroke-miterlimit="10"/>
<path d="M35.2527 19.0428V19.0764C35.2193 19.0764 35.186 19.0596 35.1396 19.0484L35.2527 19.0428Z" fill="#F44B49" stroke="black" stroke-width="0.345721" stroke-miterlimit="10"/>
<path d="M33.4956 18.2287V28.6115C33.4956 28.6115 32.1982 29.1704 28.862 26.9347C25.5258 24.6991 24.043 27.3074 24.043 27.3074C23.7374 26.7431 23.2535 26.2974 22.6678 26.0405C22.0116 25.7871 21.1146 25.7945 19.9636 26.564C18.3524 27.67 16.3899 28.1347 14.457 27.8681V18.5193C20.4826 13.4779 23.9503 16.4103 23.9503 16.4103C23.9503 16.4103 27.4719 14.1746 31.5495 16.9692C32.3427 17.5132 32.9803 17.9231 33.4956 18.2287Z" fill="white" stroke="black" stroke-width="0.345721" stroke-miterlimit="10"/>
<path d="M29.1421 24.7233H25.3166H22.3029H18.4756" stroke="#020202" stroke-width="0.212928" stroke-miterlimit="10"/>
<path d="M21.5039 23.2608V24.7233" stroke="#020202" stroke-width="0.212928" stroke-miterlimit="10"/>
<path d="M23.0635 21.6418V24.7494" stroke="#020202" stroke-width="0.212928" stroke-miterlimit="10"/>
<path d="M24.5693 19.8663V24.7494" stroke="#020202" stroke-width="0.212928" stroke-miterlimit="10"/>
<path d="M26.1279 17.2543V24.7494" stroke="#020202" stroke-width="0.212928" stroke-miterlimit="10"/>
<path d="M26.6182 18.5771L27.8136 17.7704L28.5698 18.8715" stroke="#020202" stroke-width="0.212928" stroke-miterlimit="10"/>
<path d="M20.0303 23.1006C21.0211 23.3419 22.055 23.3419 23.0458 23.1006C23.568 22.9738 24.0714 22.779 24.5434 22.5212C25.4142 22.0508 26.1627 21.3811 26.7285 20.5662C27.2942 19.7512 27.6612 18.8139 27.7999 17.83" stroke="#020202" stroke-width="0.212928" stroke-miterlimit="10"/>
</svg>
