<svg width="242" height="61" viewBox="0 0 242 61" fill="none" xmlns="http://www.w3.org/2000/svg">
<path d="M12.8934 46.1375L12.4765 47.7408C7.73246 43.2509 6.69582 39.8273 3.57284 40.136C3.63798 40.1192 4.2019 39.9097 2.21794 38.7891C0.124164 37.6048 1.18129 35.9623 1.18129 35.9623C2.81722 32.3722 2.36683 32.4265 2.41522 30.8569C2.40853 30.5127 2.50042 30.1738 2.67992 29.8806C2.85942 29.5874 3.11897 29.3522 3.42767 29.2031C4.70702 35.7176 8.02349 41.6509 12.8934 46.1375Z" fill="#ECD844" stroke="black" stroke-width="0.294278" stroke-miterlimit="10"/>
<path d="M47.4229 36.8901C47.3978 37.0014 47.3667 37.1113 47.3298 37.2193C46.9629 38.2724 46.2694 39.1793 45.3514 39.8066C44.8582 39.4325 44.1529 39.2454 43.1479 39.3745C40.6335 39.7168 38.7593 43.9373 35.8541 47.5854L35.5544 45.303C39.9086 40.9692 42.8878 35.4358 44.1156 29.4013C44.5623 29.2947 46.4998 29.0589 46.0884 33.055C46.0829 33.055 47.8882 34.9725 47.4229 36.8901Z" fill="#ECD844" stroke="black" stroke-width="0.294278" stroke-miterlimit="10"/>
<path d="M46.4571 43.2192C46.3287 44.2114 46.1485 45.1962 45.9173 46.1694C45.8764 46.3303 45.8317 46.48 45.7871 46.611C45.6009 47.1273 45.4148 47.3948 45.2157 47.0656C44.5122 45.8907 41.419 49.4564 41.043 49.8867C39.1819 52.0232 37.7749 54.0979 35.3889 55.7367C30.081 59.3828 22.9473 60.7148 16.8483 58.4025C12.6161 56.7993 9.54713 53.5385 6.35343 50.4629C5.622 49.7595 4.88499 49.0673 4.12007 48.405C4.02515 48.3227 1.09759 46.0797 1.09387 46.4819V40.935C2.06724 40.4635 2.86753 40.2072 3.56731 40.138C6.69029 39.8293 7.72694 43.2435 12.471 47.7409C18.2795 53.2448 23.4777 54.9678 30.2243 52.1878C32.5377 51.2355 34.3337 49.4901 35.8486 47.5856C38.7538 43.9376 40.628 39.7171 43.1424 39.3747L43.2634 39.3598C43.4963 39.3332 43.7309 39.3257 43.965 39.3373C44.4615 39.3524 44.9423 39.5159 45.346 39.8069C46.7381 40.8471 46.4571 43.2192 46.4571 43.2192Z" fill="#ECD844" stroke="black" stroke-width="0.294278" stroke-miterlimit="10"/>
<path d="M47.4993 50.1847C47.2437 50.5162 46.9174 50.786 46.5444 50.9741C46.1715 51.1622 45.7613 51.2639 45.3441 51.2716H45.2212H45.1859C43.1945 51.3034 41.0411 49.8872 41.0411 49.8872L41.1007 49.8199C41.525 49.3316 43.295 47.3373 44.4135 46.9108C44.7653 46.7761 45.0519 46.7967 45.2138 47.0661C45.2622 47.1503 45.3124 47.1952 45.3627 47.2045C45.452 47.227 45.5376 47.1484 45.6177 46.9987C46.0755 46.1756 46.4552 43.2197 46.4552 43.2197C46.3398 46.5497 49.5279 47.56 47.4993 50.1847Z" fill="#ECD844" stroke="black" stroke-width="0.294278" stroke-miterlimit="10"/>
<path d="M6.35157 50.4689L3.57104 49.9414L4.12938 48.4092C4.88314 49.0714 5.62015 49.7636 6.35157 50.4689Z" fill="black" stroke="black" stroke-width="0.294278" stroke-miterlimit="10"/>
<path d="M4.12377 48.4084C2.50831 47.4505 1.09757 49.4429 1.09757 49.4429C0.673215 48.7632 0.44812 47.977 0.44812 47.1746C0.44812 46.3721 0.673215 45.5859 1.09757 44.9062V46.4927C1.09943 46.083 4.02885 48.3242 4.12377 48.4084Z" fill="black" stroke="black" stroke-width="0.294278" stroke-miterlimit="10"/>
<path d="M6.85813 46.1021L7.21217 46.3164L7.14566 45.5637C7.36716 45.5893 7.57284 45.4998 7.69531 45.2954C7.8758 44.9941 7.75194 44.6494 7.42366 44.4506L6.80785 44.0778L5.9312 45.5409L6.22302 45.7176L6.50148 45.2528L6.80187 45.4347L6.85813 46.1021ZM6.93722 44.5256L7.25049 44.7153C7.41142 44.8127 7.49159 44.9814 7.40779 45.1213C7.324 45.2611 7.13811 45.2688 6.97718 45.1714L6.66392 44.9817L6.93722 44.5256Z" fill="black"/>
<path d="M10.3017 46.9701L10.5096 46.7326L9.57117 45.9024L8.44875 47.1845L9.38722 48.0146L9.5952 47.7771L8.91199 47.1727L9.15298 46.8975L9.76111 47.4354L9.96909 47.1978L9.36096 46.6599L9.61846 46.3658L10.3017 46.9701Z" fill="black"/>
<path d="M11.1293 49.2819C10.9154 49.0561 10.9217 48.7308 11.1645 48.4984C11.4073 48.266 11.7309 48.2758 11.9448 48.5016C12.1173 48.6837 12.1313 48.9064 11.9932 49.1253L12.2346 49.3803C12.4947 49.0238 12.4733 48.5964 12.175 48.2814C11.8369 47.9244 11.2998 47.8898 10.9265 48.2471C10.5532 48.6043 10.5611 49.1452 10.8991 49.5022C11.1975 49.8172 11.6212 49.8597 11.9881 49.6161L11.7467 49.3612C11.5223 49.4891 11.3018 49.4641 11.1293 49.2819Z" fill="black"/>
<path d="M14.5774 50.8363L13.5152 49.7686L13.2914 49.9935L13.7017 50.406L12.7176 51.3951L12.9592 51.6379L13.9433 50.6488L14.3536 51.0612L14.5774 50.8363Z" fill="black"/>
<path d="M16.0517 52.6255L16.2538 52.3825L15.2937 51.5756L14.203 52.8869L15.163 53.6938L15.3651 53.4508L14.6662 52.8634L14.9004 52.5819L15.5225 53.1047L15.7246 52.8618L15.1025 52.3389L15.3527 52.0381L16.0517 52.6255Z" fill="black"/>
<path d="M18.3499 53.8672C18.0112 53.6762 17.6835 53.7332 17.5246 54.018C17.3962 54.2479 17.4419 54.4696 17.7051 54.6929L17.9197 54.8744C18.0633 54.9928 18.0625 55.0817 18.0259 55.1474C17.9672 55.2525 17.8402 55.2586 17.6764 55.1662C17.471 55.0504 17.3872 54.8764 17.45 54.7073L17.155 54.541C16.9984 54.873 17.1439 55.2143 17.5109 55.4214C17.8605 55.6185 18.1948 55.5652 18.3525 55.2827C18.4894 55.0374 18.3858 54.832 18.1282 54.609L17.973 54.4754C17.8469 54.3668 17.7939 54.2764 17.8538 54.1691C17.9223 54.0465 18.0648 54.0434 18.2287 54.1358C18.4165 54.2418 18.4562 54.3765 18.3989 54.5255L18.6938 54.6919C18.8716 54.2911 18.6011 54.0089 18.3499 53.8672Z" fill="black"/>
<path d="M20.3681 56.7131L20.7142 56.8251L20.5329 54.9737L20.2299 54.8756L19.0055 56.2721L19.3539 56.3848L19.5916 56.1032L20.3386 56.345L20.3681 56.7131ZM19.8012 55.8521L20.2555 55.3137L20.3118 56.0174L19.8012 55.8521Z" fill="black"/>
<path d="M22.7681 55.5132L22.1129 55.4624L21.9824 57.163L22.3225 57.1893L22.3589 56.7142L22.624 56.7347C23.0617 56.7687 23.3709 56.541 23.4001 56.1609C23.4275 55.8033 23.1757 55.5448 22.7681 55.5132ZM22.6855 56.425L22.3829 56.4016L22.429 55.8013L22.7316 55.8248C22.9441 55.8413 23.0778 55.9674 23.065 56.1349C23.0504 56.325 22.8981 56.4415 22.6855 56.425Z" fill="black"/>
<path d="M25.5142 55.8087L25.4806 55.4945L24.2337 55.6293L24.4152 57.3252L25.6621 57.1904L25.6284 56.8762L24.7207 56.9743L24.6818 56.6102L25.4897 56.5228L25.4561 56.2086L24.6481 56.2959L24.6065 55.9069L25.5142 55.8087Z" fill="black"/>
<path d="M27.8524 56.7041L28.2495 56.5794L27.6415 56.1278C27.8087 55.9774 27.8792 55.7623 27.8081 55.5334C27.7032 55.1961 27.3624 55.0599 26.9941 55.1756L26.3034 55.3926L26.8126 57.0307L27.14 56.9279L26.9782 56.4076L27.3151 56.3017L27.8524 56.7041ZM26.7251 55.5933L27.0764 55.4829C27.257 55.4262 27.4369 55.4781 27.4856 55.6347C27.5342 55.7913 27.4157 55.9369 27.2352 55.9937L26.8838 56.104L26.7251 55.5933Z" fill="black"/>
<path d="M29.8222 54.4015L29.673 54.1229L28.57 54.7199L29.3754 56.2234L30.4783 55.6264L30.3291 55.3478L29.5262 55.7824L29.3533 55.4596L30.068 55.0728L29.9187 54.7942L29.204 55.181L29.0193 54.8361L29.8222 54.4015Z" fill="black"/>
<path d="M32.3295 52.5363L32.1216 52.2987L31.1962 53.1172L32.3187 54.3993L32.5739 54.1735L32.1563 53.6965L32.7419 53.1785L32.5339 52.941L31.9483 53.459L31.6595 53.129L32.3295 52.5363Z" fill="black"/>
<path d="M33.4632 50.9818C33.105 51.3184 33.0826 51.8763 33.4174 52.2363C33.7522 52.5963 34.3075 52.6115 34.6658 52.2748C35.024 51.9382 35.0464 51.3803 34.7116 51.0203C34.3768 50.6603 33.8215 50.6451 33.4632 50.9818ZM34.4488 52.0416C34.2222 52.2546 33.8815 52.2271 33.6697 51.9993C33.4579 51.7716 33.4535 51.428 33.6802 51.215C33.9068 51.0021 34.2475 51.0296 34.4593 51.2573C34.6711 51.4851 34.6755 51.8286 34.4488 52.0416Z" fill="black"/>
<path d="M36.5192 48.3605L37.1667 49.2511L35.7672 48.9129L35.563 49.0629L36.566 50.4424L36.8409 50.2405L36.2111 49.3742L37.5848 49.694L37.7971 49.5381L36.7941 48.1585L36.5192 48.3605Z" fill="black"/>
<path d="M38.9643 46.7329C38.6226 46.9202 38.4962 47.2304 38.6521 47.5177C38.778 47.7497 38.9897 47.8286 39.3185 47.7229L39.5862 47.6364C39.7627 47.5768 39.8373 47.6248 39.8733 47.6911C39.9309 47.7972 39.8684 47.9088 39.7031 47.9995C39.4959 48.1131 39.3042 48.092 39.1948 47.9484L38.8972 48.1116C39.0943 48.4222 39.4602 48.4796 39.8306 48.2765C40.1833 48.0831 40.3163 47.7694 40.1616 47.4843C40.0273 47.2368 39.7986 47.216 39.473 47.3171L39.2774 47.3784C39.1185 47.4282 39.014 47.4254 38.9552 47.3171C38.8881 47.1933 38.9613 47.07 39.1267 46.9793C39.3163 46.8754 39.4512 46.9132 39.5466 47.0416L39.8442 46.8784C39.6003 46.5132 39.2178 46.5939 38.9643 46.7329Z" fill="black"/>
<path d="M45.7795 48.1776C45.0593 48.6117 43.3917 50.3309 45.344 51.2738H45.1728C43.3582 51.2457 41.4505 50.0559 41.0895 49.8164C41.5138 49.3282 43.2837 47.3339 44.4023 46.9074C44.754 46.7727 45.0407 46.7933 45.2026 47.0626C45.251 47.1468 45.3012 47.1917 45.3515 47.2011C45.4408 47.2235 45.5264 47.145 45.6064 46.9953C45.9061 47.332 46.2616 47.8858 45.7795 48.1776Z" fill="black"/>
<path d="M46.457 43.2199C46.3286 44.2122 46.1485 45.1969 45.9173 46.1702C45.7286 46.0376 45.5015 45.9718 45.2715 45.9831C45.2715 45.9831 44.8248 45.9251 45.1896 44.6324C45.5544 43.3397 45.0463 43.3864 44.7727 42.988C44.4991 42.5895 44.7988 41.7439 44.7988 41.7439C44.7988 41.7439 44.1288 41.5568 44.2051 40.5971C44.2181 40.1665 44.1381 39.7383 43.9706 39.3418C44.4671 39.3569 44.9479 39.5204 45.3515 39.8114C46.7381 40.8478 46.457 43.2199 46.457 43.2199Z" fill="black" stroke="black" stroke-width="0.294278" stroke-miterlimit="10"/>
<path d="M3.55428 36.563C3.1387 36.7106 2.75564 36.9381 2.42643 37.2327C1.74526 37.9174 2.40969 38.8678 2.40969 38.8678C-1.52661 35.4854 3.55428 36.563 3.55428 36.563L4.87196 34.2656L5.35027 35.4536L4.12379 37.4871L3.55428 36.563Z" fill="black"/>
<path d="M3.55428 36.563C3.1387 36.7106 2.75564 36.9381 2.42643 37.2327C1.74526 37.9174 2.40969 38.8678 2.40969 38.8678C-1.52661 35.4854 3.55428 36.563 3.55428 36.563ZM3.55428 36.563L4.87196 34.2656L5.35027 35.4536L4.12379 37.4871L3.55428 36.563" stroke="black" stroke-width="0.294278" stroke-miterlimit="10"/>
<path d="M6.83734 38.4717L6.07056 39.3379L6.83734 40.35L7.54643 39.6727L6.83734 38.4717Z" fill="black" stroke="black" stroke-width="0.294278" stroke-miterlimit="10"/>
<path d="M47.4228 36.8905C47.3977 37.0018 47.3667 37.1118 47.3298 37.2197C46.027 31.8132 44.2347 37.925 44.2347 37.925L42.4611 34.8944C43.1781 33.1217 43.7301 31.2861 44.11 29.4111C44.5567 29.3044 46.4941 29.0687 46.0828 33.0647C46.0828 33.0554 47.8881 34.9729 47.4228 36.8905Z" fill="#ECD844" stroke="black" stroke-width="0.294278" stroke-miterlimit="10"/>
<path d="M46.4794 38.4707L45.6567 36.918" stroke="black" stroke-width="0.294278" stroke-miterlimit="10"/>
<path d="M41.041 37.918L42.4611 38.4717L41.5268 39.3323L40.1868 39.4109L41.041 37.918Z" fill="black" stroke="black" stroke-width="0.294278" stroke-miterlimit="10"/>
<path d="M37.7079 42.8741L39.1559 42.8086" stroke="black" stroke-width="0.294278" stroke-miterlimit="10"/>
<path d="M37.021 43.8008H38.5527" stroke="black" stroke-width="0.294278" stroke-miterlimit="10"/>
<path d="M35.9974 44.8467H37.8418" stroke="black" stroke-width="0.294278" stroke-miterlimit="10"/>
<path d="M12.8934 46.1378L10.6005 45.8291" stroke="black" stroke-width="0.294278" stroke-miterlimit="10"/>
<path d="M11.1309 44.3772L9.10229 44.1172" stroke="black" stroke-width="0.294278" stroke-miterlimit="10"/>
<path d="M9.92866 42.9942L8.05078 42.8633" stroke="black" stroke-width="0.294278" stroke-miterlimit="10"/>
<path d="M44.8248 1.64844V24.9791C44.7277 26.3151 44.5462 27.6435 44.2814 28.9564C43.2217 34.1357 40.8679 38.9587 37.4416 42.9709C34.0153 46.9832 29.6293 50.0527 24.6967 51.8904C24.4827 51.9689 24.2668 52.0438 24.0509 52.1205C23.835 52.0438 23.6191 51.9689 23.4069 51.8904C17.8339 49.8233 12.9716 46.1857 9.40188 41.413C5.83216 36.6403 3.70632 30.9347 3.27881 24.9791V1.64844H44.8248Z" fill="white"/>
<path d="M45.0964 1.32129V24.9531C44.6897 30.5462 42.8054 35.9288 39.6381 40.5454C36.4708 45.162 32.1352 48.8454 27.0788 51.2153V51.2153C26.3009 51.5782 25.5068 51.9112 24.6966 52.2143C24.4807 52.2947 24.2629 52.3695 24.0433 52.4481C23.8237 52.3695 23.6078 52.2947 23.3901 52.2143C22.4793 51.8738 21.5885 51.494 20.7175 51.075C15.7363 48.6757 11.4743 44.996 8.36294 40.4086C5.25156 35.8211 3.4013 30.4887 2.99951 24.9512V1.32129H45.0964Z" stroke="black" stroke-width="0.318417" stroke-miterlimit="10"/>
<path d="M21.2146 28.88C21.4844 30.2944 21.5328 31.5309 21.3579 32.3316C20.7716 35.0256 19.3702 36.0845 20.6358 38.9243C20.673 39.0104 20.7121 39.0964 20.7549 39.1825C20.7549 39.1825 21.3579 40.3985 20.3231 43.1729C20.3231 43.1729 19.8615 44.1083 20.9 46.8022C20.9906 47.6377 21.013 48.4792 20.967 49.3184C16.3481 47.0934 12.396 43.6811 9.51085 39.4271C6.62566 35.1731 4.90981 30.2284 4.53699 25.0936V6.69434C6.36648 7.50813 9.20656 9.18997 8.67242 11.6183C8.31322 13.2552 8.65567 14.4506 9.60298 15.502C10.6545 16.6787 12.4598 17.6777 14.8681 18.9162L15.1473 19.0584C15.3907 19.182 15.6263 19.3207 15.8527 19.4737C16.8004 20.1253 17.6258 20.9405 18.2907 21.8814C18.2955 21.8873 18.2999 21.8936 18.3038 21.9001C18.5532 22.2443 18.7877 22.6035 19.0091 22.9702C19.0277 23.002 19.0464 23.0338 19.0631 23.0656C19.2492 23.3893 19.4353 23.7241 19.6028 24.0628C19.6326 24.1282 19.6661 24.1956 19.6996 24.2629C20.3969 25.7315 20.9066 27.2829 21.2164 28.88H21.2146Z" fill="#090B0E" stroke="black" stroke-width="0.789721" stroke-miterlimit="10"/>
<path d="M26.2545 17.412L25.832 17.9246L25.2346 18.658L23.9634 20.2126L23.6247 20.6242C23.6247 20.6242 23.2897 20.033 22.7425 19.1893L22.6457 19.0434C22.5638 18.9199 22.4782 18.7908 22.387 18.658C22.253 18.4578 22.1079 18.2483 21.9571 18.035C21.8064 17.8217 21.6724 17.6347 21.5179 17.4326C21.2666 17.0977 21.0005 16.7591 20.725 16.4261C19.6754 15.1652 18.4731 14.0147 17.3564 13.6499C16.9702 13.5237 16.6042 13.3422 16.2695 13.1111C14.4642 11.8483 14.3525 9.53602 14.3525 9.53602C14.1664 6.23407 11.3096 3.70663 9.81323 2.76562H38.3797C37.8661 3.0874 37.3059 3.96854 36.1464 4.60461C33.5724 6.02267 33.9409 7.62594 33.5724 10.217C33.4991 10.79 33.3027 11.3402 32.9967 11.8293C32.6908 12.3183 32.2826 12.7347 31.8006 13.0494C31.0338 13.5881 30.1535 13.9342 29.4054 14.2822C28.3594 14.7649 27.4996 15.7545 27.0324 16.3775C26.7867 16.7049 26.6472 16.9387 26.6472 16.9387L26.2545 17.412Z" fill="#090B0F" stroke="black" stroke-width="0.789721" stroke-miterlimit="10"/>
<path d="M43.5648 6.76172V25.0955C43.189 30.2812 41.4432 35.2721 38.5075 39.553C35.5718 43.8339 31.5526 47.2496 26.8648 49.4475C26.8909 49.3316 26.9225 49.1912 26.956 49.0266C27.2631 47.5487 26.528 45.3299 26.528 45.3299C26.3419 41.8185 28.1825 41.8185 26.8332 39.2929C26.5497 38.777 26.319 38.2336 26.1446 37.6709C25.7221 36.2847 26.0366 35.6579 26.0366 35.6579C26.9858 33.9521 27.2898 31.9589 26.8928 30.0456L26.9505 29.0915L27.1515 25.797L27.1998 24.9944C27.1998 24.9944 27.5088 24.6614 28.0206 24.1301L28.2514 23.8888C28.4933 23.6381 28.7651 23.3575 29.0684 23.0507L29.154 22.9665C29.4611 22.656 29.7924 22.3248 30.1423 21.9825C30.7472 21.3894 31.406 20.7608 32.0723 20.1547C32.5338 19.7319 33.0028 19.3203 33.4588 18.9368C34.1743 18.3179 34.9358 17.7551 35.7368 17.2531C35.8132 17.2063 35.8876 17.1652 35.9602 17.124C38.9622 15.4609 39.4535 14.7818 39.4535 11.3339C39.4535 7.88606 43.5648 6.76172 43.5648 6.76172Z" fill="#090B0F" stroke="black" stroke-width="0.789721" stroke-miterlimit="10"/>
<path d="M14.6093 9.91311C16.0192 10.8719 17.2142 12.1164 18.1175 13.5668C19.491 15.8566 19.9917 15.5199 19.9917 15.5199C19.9917 15.5199 16.7142 9.51463 17.2986 9.08622C17.883 8.65781 20.1573 14.4011 20.537 14.0906C20.9166 13.78 20.6561 12.9943 20.6561 12.9943L20.7436 9.70545C20.7436 9.70545 19.8483 7.48857 20.0158 7.51289C20.1833 7.53721 21.769 9.3949 21.769 9.3949L22.1413 12.8746C22.1413 12.8746 22.4967 13.8754 22.6866 13.4714C22.8764 13.0673 23.4459 7.25098 23.4459 7.25098L24.5123 13.3516L24.8213 13.5668C24.8213 13.5668 25.508 13.3217 25.3666 11.3948L26.3865 9.72977L26.6471 7.39877L27.2873 10.3733L26.3865 11.7783L26.2432 13.447L26.5763 13.7576L30.3209 7.84589L28.6459 13.9465L29.1912 14.519C29.4673 13.9616 29.6898 13.3791 29.8556 12.7792C30.1627 11.7072 31.6088 10.8971 31.6088 10.8971L32.6045 9.10867L32.5096 11.1834L31.5455 13.3179L31.5642 14.5957C31.5642 14.5957 34.5829 12.4312 35.3106 11.1665C36.0383 9.90189 33.5407 14.8763 33.0345 15.1869C32.5282 15.4974 38.6178 13.303 38.6178 13.303L34.4582 16.3112C34.4582 16.3112 35.2641 18.0249 35.8503 17.9949C36.4366 17.965 39.5131 17.0389 39.5131 17.0389C39.5131 17.0389 38.6551 18.9528 35.5153 19.5683C35.5153 19.5683 34.6481 20.2156 35.5712 20.7487C36.4943 21.2819 40.1291 20.1594 40.1291 20.1594L37.959 21.7982L35.3032 21.9385C35.3032 21.9385 34.9105 22.6981 35.2753 22.8384C35.64 22.9787 39.889 23.568 40.4473 24.4679C41.0057 25.3677 36.0569 23.8786 35.3869 24.4679C34.7169 25.0572 34.743 25.3396 35.024 25.5361C35.305 25.7325 36.1128 24.9748 37.5123 26.3237C38.6675 26.2925 39.7963 26.6736 40.6986 27.3994C42.1242 28.6004 35.6735 27.0814 35.6735 27.0814C35.6735 27.0814 35.1431 27.3058 35.534 27.7286C35.9248 28.1514 39.8387 30.1738 39.8387 30.1738C39.8387 30.1738 35.1524 28.6771 34.4768 29.6948C33.8012 30.7126 37.771 33.4364 37.771 33.4364C37.771 33.4364 33.3173 30.778 32.5915 30.9221C31.8657 31.0661 35.4428 35.7581 35.4428 35.7581C35.4428 35.7581 30.6336 30.7069 30.1311 31.3187C29.6286 31.9304 31.0803 33.9041 31.0803 33.9041L31.1919 35.0004L33.2057 37.3613C33.2057 37.3613 28.0913 32.2167 27.7544 32.3589C27.4176 32.501 30.6615 39.8907 30.6615 39.8907C30.6615 39.8907 29.7012 38.6129 28.6999 37.3744C27.6986 36.136 26.6526 34.9424 26.4963 35.0846C26.1725 35.382 28.6757 39.8907 28.6757 39.8907L26.0199 37.8328L24.2871 42.5322L24.1196 38.0068L19.0034 39.8907L20.0363 35.7581L16.4015 39.7578C16.4015 39.7578 19.3663 33.0118 19.1932 32.9276C19.0201 32.8434 14.3543 37.7617 14.3543 37.7617C14.3543 37.7617 17.8216 32.4786 17.373 31.9622C16.9245 31.4459 11.8176 35.455 11.8176 35.455L15.4803 30.7051L8.59409 33.6011L12.1302 29.4853C12.1302 29.4853 9.55257 29.3207 7.39924 29.996C5.24591 30.6714 11.4249 27.39 11.4249 27.39C11.4249 27.39 8.32237 26.4546 6.64549 26.7353C4.96861 27.0159 11.7338 25.1339 11.7338 25.1339C11.7338 25.1339 6.89488 23.25 6.37748 23.25C5.86009 23.25 11.6501 22.6326 11.6501 22.6326C10.0625 21.3114 8.26996 20.2611 6.34398 19.5234C3.19867 18.3335 11.369 20.18 11.369 20.18C11.369 20.18 11.7413 19.2446 7.85894 16.4384C3.97662 13.6322 14.023 17.7929 14.023 17.7929L11.2481 12.7025L16.7589 15.3216L14.6093 9.91311Z" fill="#EDD250"/>
<path d="M44.2981 2.14062V6.76148C44.2981 6.76148 39.4591 7.87086 39.4591 11.3225C39.4591 14.7741 38.9678 15.4494 35.9658 17.1126C35.8932 17.1537 35.8188 17.1949 35.7425 17.2416C34.9415 17.7436 34.1799 18.3065 33.4644 18.9254C33.0066 19.2995 32.5339 19.7204 32.0779 20.1432C31.4116 20.7494 30.7528 21.378 30.1479 21.971C29.798 22.3134 29.4667 22.6445 29.1597 22.955L29.074 23.0392C28.7707 23.346 28.4989 23.6267 28.257 23.8773L28.0262 24.1187C27.5144 24.65 27.2055 24.983 27.2055 24.983L27.1571 25.7855L26.9505 29.095L26.8928 30.0491C27.2899 31.9624 26.9858 33.9556 26.0367 35.6614C26.0367 35.6614 25.7221 36.2882 26.1446 37.6744C26.319 38.2371 26.5498 38.7805 26.8332 39.2964C28.1826 41.822 26.3438 41.822 26.528 45.3334C26.528 45.3334 27.2632 47.5522 26.9561 49.0301C26.9226 49.1947 26.9002 49.8607 26.8742 49.9767L26.85 50.407C26.1297 50.7438 25.3946 51.0543 24.6427 51.3331C24.4417 51.4079 24.2407 51.4771 24.036 51.5501C23.8331 51.4771 23.6321 51.4079 23.4311 51.3331C22.5861 51.0169 21.7561 50.6671 20.9521 50.2761C21.0395 49.0806 20.9 46.8076 20.9 46.8076C19.8614 44.1155 20.323 43.1783 20.323 43.1783C21.3578 40.4039 20.7548 39.1879 20.7548 39.1879C20.712 39.1018 20.6729 39.0158 20.6357 38.9297C19.3701 36.0899 20.7715 35.031 21.3578 32.337C21.5327 31.5364 21.4844 30.2998 21.2145 28.8854C20.9046 27.2883 20.395 25.7369 19.6977 24.2683C19.6642 24.201 19.6307 24.1336 19.6009 24.0682C19.4334 23.7295 19.2529 23.3947 19.0612 23.071C19.0444 23.0392 19.0258 23.0074 19.0072 22.9756C18.7857 22.6015 18.5512 22.2498 18.3018 21.9055C18.2979 21.899 18.2936 21.8927 18.2888 21.8868C17.6239 20.9459 16.7984 20.1307 15.8507 19.4791C15.6244 19.3261 15.3888 19.1874 15.1453 19.0638L14.8662 18.9216C12.4579 17.6832 10.6526 16.6767 9.60103 15.5074C8.65558 14.456 8.31313 13.2625 8.67047 11.6237C9.20461 9.19163 5.72244 7.50792 3.89294 6.69974V2.32957L9.20089 2.40254C10.6898 3.33793 14.1664 6.23391 14.3506 9.53586C14.3506 9.53586 14.4623 11.8482 16.2676 13.1109C16.6023 13.3421 16.9683 13.5235 17.3545 13.6497C18.4712 14.0145 19.6735 15.1651 20.7231 16.426C20.9986 16.759 21.2647 17.0976 21.516 17.4325C21.6705 17.6345 21.8156 17.8366 21.9552 18.0349C22.0948 18.2332 22.2511 18.4577 22.3851 18.6578C22.4763 18.7907 22.5619 18.9197 22.6438 19.0432L22.7406 19.1891C23.2878 20.0329 23.6228 20.624 23.6228 20.624L23.9615 20.2125L25.2327 18.6578L25.8301 17.9245L26.2526 17.4119L26.6471 16.9274C26.6471 16.9274 26.7867 16.701 27.0324 16.3661C27.4995 15.7431 28.3594 14.7535 29.4053 14.2708C30.1498 13.9229 31.0338 13.5768 31.8006 13.038C32.2826 12.7233 32.6908 12.307 32.9967 11.8179C33.3027 11.3288 33.4991 10.7786 33.5724 10.2056C33.9446 7.6183 33.5724 6.01503 36.1463 4.59323C37.304 3.95716 38.1936 2.49795 38.7147 2.17617L44.2981 2.14062Z" fill="#0075B3" stroke="white" stroke-width="0.637985" stroke-miterlimit="10"/>
<path d="M44.1902 30.5313C44.1902 30.5313 44.5159 32.447 44.8248 33.1841C45.1338 33.9212 46.016 34.9894 46.016 34.9894C46.016 34.9894 46.7958 34.8266 47.3299 37.2194C47.3299 37.2194 47.9739 35.5768 46.083 33.055C46.083 33.055 46.9167 29.6015 44.6089 29.3564L44.1902 30.5313Z" fill="#090B0F"/>
<path d="M2.78186 40.5069V41.4816C2.78186 41.4816 2.23282 40.7801 1.95924 41.4816C1.68565 42.1831 1.95924 45.2082 1.95924 45.2082L1.09753 46.1885V41.2683C1.09753 41.2683 1.62796 39.897 2.78186 40.5069Z" fill="#03070E"/>
<path d="M2.78186 40.5049L3.27878 47.5858" stroke="black" stroke-width="0.132195" stroke-miterlimit="10"/>
<path d="M3.57091 30.4717L3.13354 31.9328L3.89475 32.0862L3.41458 34.5631L4.52009 33.2872L3.57091 30.4717Z" fill="black" stroke="black" stroke-width="0.132195" stroke-miterlimit="10"/>
<path d="M37.8195 20.0986V33.7554H27.2111L26.0944 32.2588C23.861 34.5037 21.4416 32.2588 21.4416 32.2588L20.1388 33.7554H10.2748V21.4082C11.0095 21.3134 11.7305 21.1312 12.4225 20.8657V32.0736L21.0712 31.5123C21.0712 31.5123 23.8629 33.3831 26.0962 31.6994L35.4019 32.0736V20.1604C35.7741 20.252 35.7741 20.0986 35.7741 20.0986H37.8195Z" fill="#DABB7F" stroke="black" stroke-width="0.347156" stroke-miterlimit="10"/>
<path d="M35.3982 20.1597V32.0748L26.0926 31.7006C23.8592 33.3843 21.0675 31.5135 21.0675 31.5135L12.4188 32.0748V20.8631C13.7384 20.3543 14.3693 19.722 14.3693 19.722C14.4195 19.6827 14.4698 19.6378 14.5145 19.6022V28.9805C16.456 29.2483 18.4272 28.7816 20.0457 27.6709C21.2034 26.8964 22.1023 26.8908 22.7593 27.1453C23.3483 27.4016 23.8351 27.8488 24.1421 28.4155C24.1421 28.4155 25.631 25.7964 28.981 28.0414C32.3311 30.2863 33.6338 29.7251 33.6338 29.7251V19.3066C34.1517 19.6428 34.7055 19.9195 35.2847 20.1317C35.3312 20.1429 35.3647 20.1541 35.3982 20.1597Z" fill="#F44B49" stroke="black" stroke-width="0.347156" stroke-miterlimit="10"/>
<path d="M35.3973 20.126V20.1594C35.364 20.1594 35.3308 20.1427 35.2847 20.1315L35.3973 20.126Z" fill="#F44B49" stroke="black" stroke-width="0.347156" stroke-miterlimit="10"/>
<path d="M33.6338 19.3083V29.7342C33.6338 29.7342 32.331 30.2954 28.9809 28.0505C25.6309 25.8055 24.142 28.4246 24.142 28.4246C23.8352 27.8581 23.3492 27.4104 22.761 27.1525C22.1022 26.8981 21.2014 26.9055 20.0457 27.6782C18.4278 28.7887 16.4572 29.2554 14.5162 28.9877V19.6001C20.5668 14.5378 24.0489 17.4824 24.0489 17.4824C24.0489 17.4824 27.5851 15.2374 31.6796 18.0436C32.4761 18.5899 33.1164 19.0015 33.6338 19.3083Z" fill="white" stroke="black" stroke-width="0.347156" stroke-miterlimit="10"/>
<path d="M29.2621 25.8301H25.4207H22.3945H18.5513" stroke="#020202" stroke-width="0.213811" stroke-miterlimit="10"/>
<path d="M21.5923 24.3613V25.8299" stroke="#020202" stroke-width="0.213811" stroke-miterlimit="10"/>
<path d="M23.1575 22.7363V25.8568" stroke="#020202" stroke-width="0.213811" stroke-miterlimit="10"/>
<path d="M24.6705 20.9531V25.8565" stroke="#020202" stroke-width="0.213811" stroke-miterlimit="10"/>
<path d="M26.2358 18.3301V25.8563" stroke="#020202" stroke-width="0.213811" stroke-miterlimit="10"/>
<path d="M26.7272 19.6587L27.9276 18.8486L28.6869 19.9543" stroke="#020202" stroke-width="0.213811" stroke-miterlimit="10"/>
<path d="M20.1127 24.2007C21.1076 24.443 22.1458 24.443 23.1407 24.2007C23.6651 24.0734 24.1706 23.8778 24.6445 23.6189C25.519 23.1465 26.2706 22.474 26.8387 21.6557C27.4067 20.8374 27.7753 19.8962 27.9145 18.9082" stroke="#020202" stroke-width="0.213811" stroke-miterlimit="10"/>
<path d="M75.3262 26.4978C78.1398 26.4978 79.5102 25.04 79.5102 22.0806V18.3048C79.5102 17.0948 79.9184 16.3951 80.2974 16.1472V16.1181H76.7986V16.1472C77.1193 16.3951 77.5421 17.1094 77.5421 18.3048V22.241C77.5421 24.107 76.9007 24.9671 75.4866 24.9671C73.8975 24.9671 73.2998 24.2236 73.2998 22.241V18.3048C73.2998 17.0948 73.708 16.3951 74.0433 16.1472V16.1181H70.5008V16.1472C70.8652 16.3951 71.288 17.1094 71.288 18.3048V22.0806C71.288 25.0546 72.7313 26.4978 75.3262 26.4978ZM81.6844 26.25H85.052V26.2208C84.6729 25.973 84.3085 25.2733 84.3085 24.0633V21.5849C84.3085 20.5353 84.2793 19.5877 84.0461 18.2028H84.1044C84.5417 19.544 84.9208 20.4041 85.6205 21.5266L87.6761 24.8651C87.9676 25.3316 88.2446 25.8564 88.405 26.25H91.481V26.2208C91.102 25.973 90.6938 25.2587 90.6938 24.0633V18.3048C90.6938 17.1094 91.102 16.3951 91.481 16.1472V16.1181H88.1134V16.1472C88.4925 16.3951 88.8569 17.0948 88.8569 18.3048V20.9289C88.8569 21.7453 88.8861 22.7658 89.0902 23.932H89.0319C88.5945 22.8095 88.128 21.7745 87.6907 21.0455L85.5914 17.5176C85.1103 16.7158 85.0228 16.4096 84.9937 16.1181H81.6844V16.1472C82.2238 16.5117 82.4716 17.4447 82.4716 18.2319V24.0633C82.4716 25.2587 82.0488 25.973 81.6844 26.2208V26.25ZM93.2018 26.25H96.7881V26.2208C96.4091 25.973 96.0009 25.2733 96.0009 24.0633V18.3048C96.0009 17.1094 96.4236 16.3951 96.7881 16.1472V16.1181H93.2018V16.1472C93.5809 16.3951 93.9891 17.0948 93.9891 18.3048V24.0633C93.9891 25.2587 93.5663 25.973 93.2018 26.2208V26.25ZM100.932 26.25H104.65V26.2208C104.373 25.9439 104.168 25.2295 104.518 24.209L106.705 17.9695C106.997 17.124 107.419 16.4534 107.93 16.1472V16.1181H104.81V16.1472C105.043 16.4242 105.072 16.9928 104.883 17.5759L103.658 21.2351C103.425 21.9202 103.09 23.1594 102.9 24.2382H102.842C102.696 23.174 102.317 21.9348 102.084 21.2496L100.801 17.5467C100.611 16.9928 100.713 16.4242 100.947 16.1472V16.1181H97.5353V16.1472C98.1331 16.5846 98.5996 17.3718 98.862 18.1007L101.063 24.209C101.428 25.2149 101.209 25.9439 100.932 26.2208V26.25ZM115.952 23.451C115.325 24.3402 114.305 24.8213 113.022 24.8213H111.433V21.5412H112.774C113.591 21.5412 114.115 21.8036 114.363 22.4596H114.392L114.815 20.0105C114.159 20.098 113.751 20.1125 112.541 20.1125H111.433V17.5467H113.357C114.494 17.5467 115.296 17.9112 115.646 18.6255L115.675 18.611L115.427 16.0014C115.107 16.0743 114.465 16.1181 113.882 16.1181H108.649V16.1472C109.028 16.3951 109.436 17.0948 109.436 18.3048V24.0633C109.436 25.2587 109.013 25.973 108.649 26.2208V26.25H113.795C114.655 26.25 115.034 26.2792 115.573 26.3666L115.981 23.4655L115.952 23.451ZM124.592 24.2819L123.236 22.0806C124.46 21.687 125.218 20.7394 125.218 19.1941C125.218 17.2989 123.863 16.1181 121.53 16.1181H117.39V16.1472C117.769 16.3951 118.177 17.0948 118.177 18.2465V24.0633C118.177 25.2587 117.769 25.973 117.39 26.2208V26.25H120.903V26.2208C120.583 25.973 120.174 25.2733 120.174 24.1216V17.5613L121.195 17.5467C122.449 17.5322 123.148 18.2028 123.148 19.267C123.148 20.5645 122.449 21.0747 121.195 21.0747H120.495L122.755 24.938C123.075 25.4773 123.309 25.9876 123.498 26.5561L126.487 26.0167V25.9876C125.787 25.7543 125.146 25.1712 124.592 24.2819ZM129.946 26.4687C132.308 26.4395 133.504 25.1129 133.504 23.4947C133.504 21.308 131.958 20.6665 130.661 20.1271C129.713 19.7335 128.897 19.3982 128.897 18.5527C128.897 17.8092 129.465 17.4301 130.573 17.4301C131.419 17.4301 132.25 17.6634 132.877 18.6255H132.906L132.716 16.2347C131.871 16.016 131.186 15.9286 130.428 15.9286C128.168 15.9286 126.929 17.2552 126.929 18.6984C126.929 20.7248 128.343 21.3225 129.611 21.8473C130.602 22.2555 131.492 22.6346 131.492 23.6405C131.492 24.4277 130.982 24.9234 129.801 24.9525C128.605 24.9817 127.658 24.5589 126.783 23.4218L126.754 23.4364L127.002 25.8855C127.658 26.2792 128.766 26.4833 129.946 26.4687ZM134.901 26.25H138.487V26.2208C138.108 25.973 137.7 25.2733 137.7 24.0633V18.3048C137.7 17.1094 138.123 16.3951 138.487 16.1472V16.1181H134.901V16.1472C135.28 16.3951 135.688 17.0948 135.688 18.3048V24.0633C135.688 25.2587 135.265 25.973 134.901 26.2208V26.25ZM147.442 16.0014C146.771 16.0889 146.159 16.1181 145.445 16.1181H141.888C141.173 16.1181 140.561 16.0889 139.89 16.0014L139.643 18.6693L139.672 18.6839C140.007 18.1007 140.692 17.6051 141.567 17.6051H142.675V23.9466C142.675 25.1858 142.208 25.973 141.786 26.2208V26.25H145.561V26.2208C145.08 25.973 144.672 25.2004 144.672 23.9466V17.6051H145.766C146.64 17.6051 147.325 18.1007 147.661 18.6839L147.69 18.6693L147.442 16.0014ZM154.784 16.1181V16.1472C154.93 16.5408 154.741 17.1531 154.464 17.6342L153.356 19.5731C153.21 19.8355 153.035 20.098 152.889 20.5207H152.831C152.685 20.1125 152.539 19.8355 152.379 19.5731L151.257 17.6342C150.98 17.1531 150.79 16.5408 150.921 16.1472V16.1181H147.816V16.1472C148.181 16.4242 148.632 17.0365 148.997 17.6342L151.796 22.2555V23.9466C151.796 25.1858 151.329 25.973 150.907 26.2208V26.25H154.682V26.2208C154.201 25.973 153.793 25.2004 153.793 23.9466V22.1827L156.548 17.6342C156.928 17.0219 157.35 16.4242 157.715 16.1472V16.1181H154.784ZM166.907 26.5416C170.158 26.5416 172.331 24.3257 172.331 21.0747C172.331 17.9404 170.246 15.8265 167.126 15.8265C163.759 15.8265 161.718 17.9987 161.718 21.2788C161.718 24.2673 163.642 26.5416 166.907 26.5416ZM167.053 25.0254C164.969 25.0254 163.89 23.5239 163.89 21.133C163.89 18.8588 165.056 17.3427 166.98 17.3427C168.963 17.3427 170.158 18.7567 170.158 21.2205C170.158 23.553 168.846 25.0254 167.053 25.0254ZM180.617 16.0014C180.136 16.0889 179.611 16.1181 178.736 16.1181H173.853V16.1472C174.261 16.3805 174.625 16.8761 174.625 18.3048V24.0633C174.625 25.2587 174.203 25.973 173.838 26.2208V26.25H177.41V26.2208C177.031 25.973 176.623 25.2733 176.623 24.0633V21.7453H178.008C178.736 21.7453 179.407 22.1681 179.597 22.7949H179.626L180.092 20.1708C179.655 20.2583 178.955 20.2875 177.905 20.2875H176.623V17.5759H178.255C179.392 17.5759 180.325 17.882 180.85 18.7422L180.879 18.7276L180.617 16.0014ZM185.882 26.25H189.469V26.2208C189.09 25.973 188.681 25.2733 188.681 24.0633V18.3048C188.681 17.1094 189.104 16.3951 189.469 16.1472V16.1181H185.882V16.1472C186.261 16.3951 186.67 17.0948 186.67 18.3048V24.0633C186.67 25.2587 186.247 25.973 185.882 26.2208V26.25ZM196.805 20.856V20.8123C197.651 20.6811 198.482 19.7772 198.482 18.6693C198.482 16.9345 197.374 16.1181 195.187 16.1181H191.163V16.1472C191.63 16.468 192.024 17.1823 192.024 18.3777V23.9758C192.024 25.2878 191.528 25.9439 191.163 26.2208V26.25H195.595C197.578 26.25 199.007 25.1566 199.007 23.2614C199.007 22.0806 198.015 21.0018 196.805 20.856ZM195.07 17.5467C195.931 17.5467 196.426 17.9404 196.426 18.7713C196.426 19.7043 195.916 20.1708 195.07 20.1708H194.021V17.5467H195.07ZM195.304 24.8213H194.021V21.5849H195.304C196.397 21.5849 196.922 22.2264 196.922 23.1886C196.922 24.1507 196.397 24.8213 195.304 24.8213ZM208.246 23.8592L206.103 17.8529C205.797 16.9928 206.089 16.3951 206.366 16.1472V16.1181H202.503V16.1472C202.78 16.3805 203.057 16.9928 202.765 17.8529L200.68 23.8592C200.287 24.9817 199.66 25.871 199.266 26.2208V26.25H202.328V26.2208C202.124 26.0313 201.978 25.4336 202.357 24.4277L202.488 24.0778H206.249L206.38 24.4277C206.745 25.4336 206.628 26.0313 206.38 26.2208V26.25H209.675V26.2208C209.267 25.8855 208.64 24.9817 208.246 23.8592ZM204.325 18.057H204.383C204.529 19.1795 204.893 20.1563 205.229 21.1039L205.768 22.6492H202.969L203.509 21.1039C203.844 20.1563 204.194 19.1795 204.325 18.057ZM210.27 26.25H214.264C217.865 26.25 219.571 24.3694 219.571 21.1767C219.571 17.9987 217.559 16.1181 214.497 16.1181H210.27V16.1472C210.649 16.3951 211.057 17.226 211.057 18.3048V24.0633C211.057 25.2587 210.634 25.973 210.27 26.2208V26.25ZM213.054 24.8067V17.5613H214.337C216.422 17.5613 217.413 18.713 217.413 21.1767C217.413 23.5239 216.363 24.8067 214.41 24.8067H213.054ZM228.619 23.8592L226.476 17.8529C226.17 16.9928 226.462 16.3951 226.738 16.1472V16.1181H222.875V16.1472C223.152 16.3805 223.429 16.9928 223.138 17.8529L221.053 23.8592C220.659 24.9817 220.032 25.871 219.639 26.2208V26.25H222.7V26.2208C222.496 26.0313 222.35 25.4336 222.729 24.4277L222.861 24.0778H226.622L226.753 24.4277C227.118 25.4336 227.001 26.0313 226.753 26.2208V26.25H230.048V26.2208C229.64 25.8855 229.013 24.9817 228.619 23.8592ZM224.698 18.057H224.756C224.902 19.1795 225.266 20.1563 225.601 21.1039L226.141 22.6492H223.342L223.881 21.1039C224.216 20.1563 224.566 19.1795 224.698 18.057ZM230.642 26.25H234.01V26.2208C233.631 25.973 233.266 25.2733 233.266 24.0633V21.5849C233.266 20.5353 233.237 19.5877 233.004 18.2028H233.062C233.5 19.544 233.879 20.4041 234.578 21.5266L236.634 24.8651C236.926 25.3316 237.203 25.8564 237.363 26.25H240.439V26.2208C240.06 25.973 239.652 25.2587 239.652 24.0633V18.3048C239.652 17.1094 240.06 16.3951 240.439 16.1472V16.1181H237.071V16.1472C237.45 16.3951 237.815 17.0948 237.815 18.3048V20.9289C237.815 21.7453 237.844 22.7658 238.048 23.932H237.99C237.552 22.8095 237.086 21.7745 236.649 21.0455L234.549 17.5176C234.068 16.7158 233.981 16.4096 233.952 16.1181H230.642V16.1472C231.182 16.5117 231.43 17.4447 231.43 18.2319V24.0633C231.43 25.2587 231.007 25.973 230.642 26.2208V26.25Z" fill="white"/>
<path d="M78.1398 41.451C77.5129 42.3402 76.4925 42.8213 75.2096 42.8213H73.6205V39.5412H74.9617C75.7781 39.5412 76.3029 39.8036 76.5508 40.4596H76.5799L77.0027 38.0105C76.3467 38.098 75.9385 38.1125 74.7285 38.1125H73.6205V35.5467H75.5449C76.682 35.5467 77.4838 35.9112 77.8337 36.6255L77.8628 36.611L77.615 34.0014C77.2943 34.0743 76.6528 34.1181 76.0697 34.1181H70.8361V34.1472C71.2151 34.3951 71.6233 35.0948 71.6233 36.3048V42.0633C71.6233 43.2587 71.2005 43.973 70.8361 44.2208V44.25H75.9822C76.8423 44.25 77.2214 44.2792 77.7608 44.3666L78.169 41.4655L78.1398 41.451ZM84.2625 44.4687C85.4871 44.4687 86.6242 44.1771 87.3677 43.9147L87.7175 41.3052L87.6884 41.2906C86.9303 42.2819 85.9827 42.9234 84.4083 42.9234C82.3819 42.9234 81.3031 41.3343 81.3031 39.1039C81.3031 36.8588 82.5422 35.4447 84.5978 35.4447C85.7203 35.4447 86.7845 35.882 87.3822 36.8151L87.4114 36.8005L87.1781 34.2784C86.3326 34.0306 85.5454 33.914 84.6124 33.914C81.2885 33.914 79.1309 35.9695 79.1309 39.2496C79.1309 42.2382 81.1136 44.4687 84.2625 44.4687ZM93.7454 44.5416C96.9964 44.5416 99.1686 42.3257 99.1686 39.0747C99.1686 35.9404 97.0839 33.8265 93.9641 33.8265C90.5965 33.8265 88.5556 35.9987 88.5556 39.2788C88.5556 42.2673 90.4799 44.5416 93.7454 44.5416ZM93.8912 43.0254C91.8065 43.0254 90.7277 41.5239 90.7277 39.133C90.7277 36.8588 91.894 35.3427 93.8183 35.3427C95.801 35.3427 96.9964 36.7567 96.9964 39.2205C96.9964 41.553 95.6844 43.0254 93.8912 43.0254ZM100.676 44.25H104.044V44.2208C103.665 43.973 103.3 43.2733 103.3 42.0633V39.5849C103.3 38.5353 103.271 37.5877 103.038 36.2028H103.096C103.533 37.544 103.912 38.4041 104.612 39.5266L106.668 42.8651C106.959 43.3316 107.236 43.8564 107.397 44.25H110.473V44.2208C110.094 43.973 109.685 43.2587 109.685 42.0633V36.3048C109.685 35.1094 110.094 34.3951 110.473 34.1472V34.1181H107.105V34.1472C107.484 34.3951 107.849 35.0948 107.849 36.3048V38.9289C107.849 39.7453 107.878 40.7658 108.082 41.932H108.024C107.586 40.8095 107.12 39.7745 106.682 39.0455L104.583 35.5176C104.102 34.7158 104.014 34.4096 103.985 34.1181H100.676V34.1472C101.215 34.5117 101.463 35.4447 101.463 36.2319V42.0633C101.463 43.2587 101.041 43.973 100.676 44.2208V44.25ZM117.165 44.5416C120.416 44.5416 122.588 42.3257 122.588 39.0747C122.588 35.9404 120.503 33.8265 117.383 33.8265C114.016 33.8265 111.975 35.9987 111.975 39.2788C111.975 42.2673 113.899 44.5416 117.165 44.5416ZM117.31 43.0254C115.226 43.0254 114.147 41.5239 114.147 39.133C114.147 36.8588 115.313 35.3427 117.238 35.3427C119.22 35.3427 120.416 36.7567 120.416 39.2205C120.416 41.553 119.104 43.0254 117.31 43.0254ZM123.645 44.25H126.852L126.867 44.2208C126.59 43.973 126.342 43.3316 126.386 42.4131L126.546 39.3954C126.575 38.7686 126.575 37.9813 126.459 36.888H126.517C126.794 37.9084 127.1 38.5936 127.567 39.3517L129.301 42.1216C129.841 42.9817 129.987 43.5648 130.03 43.871H130.147C130.176 43.5648 130.307 42.9817 130.832 42.107L132.45 39.3663C132.931 38.5499 133.267 37.8647 133.573 36.888H133.631C133.5 37.9522 133.485 38.7102 133.544 39.3954L133.777 42.4131C133.85 43.3316 133.573 43.973 133.296 44.2208L133.311 44.25H136.649L136.664 44.2208C136.139 43.696 135.862 42.8067 135.803 42.107L135.351 36.4506C135.293 35.6488 135.541 34.5117 136.197 34.1472L136.182 34.1181H132.815C132.99 34.3367 132.961 34.7595 132.596 35.401L131.168 37.923C130.686 38.7686 130.307 39.4392 130.089 40.3284H130.03C129.899 39.4975 129.578 38.7102 129.127 37.923L127.683 35.4447C127.304 34.7887 127.275 34.3367 127.45 34.1181H124.112L124.097 34.1472C124.753 34.5408 124.943 35.6488 124.884 36.4506L124.505 42.107C124.432 43.1275 124.097 43.7106 123.631 44.2208L123.645 44.25ZM137.99 44.25H141.577V44.2208C141.198 43.973 140.789 43.2733 140.789 42.0633V36.3048C140.789 35.1094 141.212 34.3951 141.577 34.1472V34.1181H137.99V34.1472C138.369 34.3951 138.778 35.0948 138.778 36.3048V42.0633C138.778 43.2587 138.355 43.973 137.99 44.2208V44.25ZM148.213 44.4687C149.438 44.4687 150.575 44.1771 151.319 43.9147L151.668 41.3052L151.639 41.2906C150.881 42.2819 149.934 42.9234 148.359 42.9234C146.333 42.9234 145.254 41.3343 145.254 39.1039C145.254 36.8588 146.493 35.4447 148.549 35.4447C149.671 35.4447 150.735 35.882 151.333 36.8151L151.362 36.8005L151.129 34.2784C150.284 34.0306 149.496 33.914 148.563 33.914C145.239 33.914 143.082 35.9695 143.082 39.2496C143.082 42.2382 145.065 44.4687 148.213 44.4687ZM155.914 44.4687C158.276 44.4395 159.471 43.1129 159.471 41.4947C159.471 39.308 157.926 38.6665 156.628 38.1271C155.681 37.7335 154.864 37.3982 154.864 36.5527C154.864 35.8092 155.433 35.4301 156.541 35.4301C157.386 35.4301 158.217 35.6634 158.844 36.6255H158.873L158.684 34.2347C157.838 34.016 157.153 33.9286 156.395 33.9286C154.136 33.9286 152.896 35.2552 152.896 36.6984C152.896 38.7248 154.31 39.3225 155.579 39.8473C156.57 40.2555 157.459 40.6346 157.459 41.6405C157.459 42.4277 156.949 42.9234 155.768 42.9525C154.573 42.9817 153.625 42.5589 152.751 41.4218L152.721 41.4364L152.969 43.8855C153.625 44.2792 154.733 44.4833 155.914 44.4687ZM172.342 41.8592L170.199 35.8529C169.893 34.9928 170.184 34.3951 170.461 34.1472V34.1181H166.598V34.1472C166.875 34.3805 167.152 34.9928 166.86 35.8529L164.776 41.8592C164.382 42.9817 163.755 43.871 163.361 44.2208V44.25H166.423V44.2208C166.219 44.0313 166.073 43.4336 166.452 42.4277L166.583 42.0778H170.344L170.476 42.4277C170.84 43.4336 170.723 44.0313 170.476 44.2208V44.25H173.77V44.2208C173.362 43.8855 172.735 42.9817 172.342 41.8592ZM168.42 36.057H168.478C168.624 37.1795 168.989 38.1563 169.324 39.1039L169.863 40.6492H167.064L167.604 39.1039C167.939 38.1563 168.289 37.1795 168.42 36.057ZM181.158 44.3666L181.537 41.4947L181.508 41.4801C180.881 42.3548 179.861 42.7922 178.593 42.7922H177.149V36.3048C177.149 35.1094 177.572 34.3951 177.937 34.1472V34.1181H174.365V34.1472C174.744 34.3951 175.152 35.0948 175.152 36.2465V42.0633C175.152 43.2587 174.729 43.973 174.365 44.2208V44.25H179.54C180.211 44.25 180.604 44.2646 181.158 44.3666ZM186.771 44.4978C189.584 44.4978 190.955 43.04 190.955 40.0806V36.3048C190.955 35.0948 191.363 34.3951 191.742 34.1472V34.1181H188.243V34.1472C188.564 34.3951 188.986 35.1094 188.986 36.3048V40.241C188.986 42.107 188.345 42.9671 186.931 42.9671C185.342 42.9671 184.744 42.2236 184.744 40.241V36.3048C184.744 35.0948 185.152 34.3951 185.488 34.1472V34.1181H181.945V34.1472C182.31 34.3951 182.732 35.1094 182.732 36.3048V40.0806C182.732 43.0546 184.176 44.4978 186.771 44.4978ZM192.664 44.25H195.872L195.886 44.2208C195.609 43.973 195.361 43.3316 195.405 42.4131L195.565 39.3954C195.595 38.7686 195.595 37.9813 195.478 36.888H195.536C195.813 37.9084 196.119 38.5936 196.586 39.3517L198.321 42.1216C198.86 42.9817 199.006 43.5648 199.05 43.871H199.166C199.195 43.5648 199.327 42.9817 199.851 42.107L201.47 39.3663C201.951 38.5499 202.286 37.8647 202.592 36.888H202.65C202.519 37.9522 202.505 38.7102 202.563 39.3954L202.796 42.4131C202.869 43.3316 202.592 43.973 202.315 44.2208L202.33 44.25H205.668L205.683 44.2208C205.158 43.696 204.881 42.8067 204.823 42.107L204.371 36.4506C204.312 35.6488 204.56 34.5117 205.216 34.1472L205.202 34.1181H201.834C202.009 34.3367 201.98 34.7595 201.615 35.401L200.187 37.923C199.706 38.7686 199.327 39.4392 199.108 40.3284H199.05C198.918 39.4975 198.598 38.7102 198.146 37.923L196.703 35.4447C196.323 34.7887 196.294 34.3367 196.469 34.1181H193.131L193.116 34.1472C193.772 34.5408 193.962 35.6488 193.903 36.4506L193.524 42.107C193.452 43.1275 193.116 43.7106 192.65 44.2208L192.664 44.25ZM207.009 44.25H210.377V44.2208C209.998 43.973 209.634 43.2733 209.634 42.0633V39.5849C209.634 38.5353 209.604 37.5877 209.371 36.2028H209.429C209.867 37.544 210.246 38.4041 210.946 39.5266L213.001 42.8651C213.293 43.3316 213.57 43.8564 213.73 44.25H216.806V44.2208C216.427 43.973 216.019 43.2587 216.019 42.0633V36.3048C216.019 35.1094 216.427 34.3951 216.806 34.1472V34.1181H213.439V34.1472C213.818 34.3951 214.182 35.0948 214.182 36.3048V38.9289C214.182 39.7453 214.211 40.7658 214.415 41.932H214.357C213.92 40.8095 213.453 39.7745 213.016 39.0455L210.916 35.5176C210.435 34.7158 210.348 34.4096 210.319 34.1181H207.009V34.1472C207.549 34.5117 207.797 35.4447 207.797 36.2319V42.0633C207.797 43.2587 207.374 43.973 207.009 44.2208V44.25ZM218.527 44.25H222.113V44.2208C221.734 43.973 221.326 43.2733 221.326 42.0633V36.3048C221.326 35.1094 221.749 34.3951 222.113 34.1472V34.1181H218.527V34.1472C218.906 34.3951 219.314 35.0948 219.314 36.3048V42.0633C219.314 43.2587 218.891 43.973 218.527 44.2208V44.25Z" fill="white"/>
</svg>
