<svg width="487" height="420" viewBox="0 0 487 420" fill="none" xmlns="http://www.w3.org/2000/svg">
<line x1="194.312" y1="2.18557e-08" x2="194.312" y2="420" stroke="url(#paint0_linear_576_64939)"/>
<line x1="277.75" y1="2.18557e-08" x2="277.75" y2="420" stroke="url(#paint1_linear_576_64939)"/>
<line x1="361.188" y1="2.18557e-08" x2="361.187" y2="420" stroke="url(#paint2_linear_576_64939)"/>
<line x1="444.625" y1="2.18557e-08" x2="444.625" y2="420" stroke="url(#paint3_linear_576_64939)"/>
<line x1="110.875" y1="2.18557e-08" x2="110.875" y2="420" stroke="url(#paint4_linear_576_64939)"/>
<line x1="487" y1="43.5" x2="-4.37114e-08" y2="43.5" stroke="url(#paint5_linear_576_64939)"/>
<line x1="487" y1="127.5" x2="-4.37114e-08" y2="127.5" stroke="url(#paint6_linear_576_64939)"/>
<line x1="487" y1="210.5" x2="-4.37114e-08" y2="210.5" stroke="url(#paint7_linear_576_64939)"/>
<line x1="487" y1="293.5" x2="-4.37114e-08" y2="293.5" stroke="url(#paint8_linear_576_64939)"/>
<line x1="487" y1="377.5" x2="-4.37114e-08" y2="377.5" stroke="url(#paint9_linear_576_64939)"/>
<defs>
<linearGradient id="paint0_linear_576_64939" x1="193.812" y1="0" x2="193.812" y2="420" gradientUnits="userSpaceOnUse">
<stop stop-color="white" stop-opacity="0.83"/>
<stop offset="1" stop-color="#7D7D7D" stop-opacity="0"/>
</linearGradient>
<linearGradient id="paint1_linear_576_64939" x1="277.25" y1="0" x2="277.249" y2="420" gradientUnits="userSpaceOnUse">
<stop stop-color="white" stop-opacity="0.83"/>
<stop offset="1" stop-color="#7D7D7D" stop-opacity="0"/>
</linearGradient>
<linearGradient id="paint2_linear_576_64939" x1="360.688" y1="0" x2="360.687" y2="420" gradientUnits="userSpaceOnUse">
<stop stop-color="white" stop-opacity="0.83"/>
<stop offset="1" stop-color="#7D7D7D" stop-opacity="0"/>
</linearGradient>
<linearGradient id="paint3_linear_576_64939" x1="444.125" y1="0" x2="444.124" y2="420" gradientUnits="userSpaceOnUse">
<stop stop-color="white" stop-opacity="0.83"/>
<stop offset="1" stop-color="#7D7D7D" stop-opacity="0"/>
</linearGradient>
<linearGradient id="paint4_linear_576_64939" x1="110.375" y1="0" x2="110.374" y2="420" gradientUnits="userSpaceOnUse">
<stop stop-color="white" stop-opacity="0.83"/>
<stop offset="1" stop-color="#7D7D7D" stop-opacity="0"/>
</linearGradient>
<linearGradient id="paint5_linear_576_64939" x1="487" y1="43" x2="-0.000261244" y2="42.9987" gradientUnits="userSpaceOnUse">
<stop stop-color="white" stop-opacity="0.83"/>
<stop offset="1" stop-color="#7D7D7D" stop-opacity="0"/>
</linearGradient>
<linearGradient id="paint6_linear_576_64939" x1="487" y1="127" x2="-0.000261244" y2="126.999" gradientUnits="userSpaceOnUse">
<stop stop-color="white" stop-opacity="0.83"/>
<stop offset="1" stop-color="#7D7D7D" stop-opacity="0"/>
</linearGradient>
<linearGradient id="paint7_linear_576_64939" x1="487" y1="210" x2="-0.000261244" y2="209.999" gradientUnits="userSpaceOnUse">
<stop stop-color="white" stop-opacity="0.83"/>
<stop offset="1" stop-color="#7D7D7D" stop-opacity="0"/>
</linearGradient>
<linearGradient id="paint8_linear_576_64939" x1="487" y1="293" x2="-0.000261244" y2="292.999" gradientUnits="userSpaceOnUse">
<stop stop-color="white" stop-opacity="0.83"/>
<stop offset="1" stop-color="#7D7D7D" stop-opacity="0"/>
</linearGradient>
<linearGradient id="paint9_linear_576_64939" x1="487" y1="377" x2="-0.000261244" y2="376.999" gradientUnits="userSpaceOnUse">
<stop stop-color="white" stop-opacity="0.83"/>
<stop offset="1" stop-color="#7D7D7D" stop-opacity="0"/>
</linearGradient>
</defs>
</svg>
