<svg width="332" height="83" viewBox="0 0 332 83" fill="none" xmlns="http://www.w3.org/2000/svg">
<path d="M17.6884 63.2961L17.1165 65.4956C10.6082 59.3359 9.18601 54.6391 4.90159 55.0626C4.99096 55.0395 5.7646 54.7521 3.0428 53.2147C0.170352 51.5901 1.62062 49.3367 1.62062 49.3367C3.86496 44.4115 3.24706 44.4859 3.31345 42.3326C3.30428 41.8604 3.43033 41.3954 3.67659 40.9932C3.92285 40.5909 4.27893 40.2683 4.70244 40.0637C6.45757 49.001 11.0074 57.1408 17.6884 63.2961Z" fill="#ECD844" stroke="black" stroke-width="0.40372" stroke-miterlimit="10"/>
<path d="M65.0595 50.6097C65.0251 50.7625 64.9825 50.9132 64.9319 51.0614C64.4285 52.5061 63.4771 53.7503 62.2177 54.6109C61.5411 54.0976 60.5734 53.841 59.1946 54.018C55.7451 54.4877 53.174 60.2778 49.1883 65.2826L48.7772 62.1514C54.7508 56.2059 58.8378 48.6145 60.5223 40.3358C61.1351 40.1895 63.7931 39.8662 63.2288 45.3483C63.2212 45.3483 65.6978 47.979 65.0595 50.6097Z" fill="#ECD844" stroke="black" stroke-width="0.40372" stroke-miterlimit="10"/>
<path d="M63.7344 59.2923C63.5583 60.6535 63.3111 62.0045 62.994 63.3397C62.9378 63.5604 62.8765 63.7657 62.8152 63.9454C62.5599 64.6538 62.3046 65.0208 62.0314 64.5691C61.0662 62.9573 56.8227 67.8491 56.3069 68.4394C53.7536 71.3704 51.8233 74.2167 48.55 76.465C41.268 81.4672 31.4813 83.2945 23.1142 80.1223C17.308 77.9228 13.0976 73.4493 8.7162 69.2299C7.71276 68.2649 6.70165 67.3153 5.65225 66.4067C5.52204 66.2938 1.50572 63.2165 1.50061 63.7683V56.1585C2.83598 55.5118 3.93389 55.1601 4.89393 55.0652C9.17834 54.6417 10.6005 59.3256 17.1088 65.4956C25.0777 73.0463 32.209 75.4101 41.4646 71.5962C44.6384 70.2899 47.1023 67.8953 49.1807 65.2826C53.1664 60.2778 55.7375 54.4877 59.187 54.018L59.353 53.9975C59.6725 53.9611 59.9944 53.9508 60.3156 53.9667C60.9967 53.9874 61.6563 54.2117 62.2101 54.6109C64.12 56.0379 63.7344 59.2923 63.7344 59.2923Z" fill="#ECD844" stroke="black" stroke-width="0.40372" stroke-miterlimit="10"/>
<path d="M65.1642 68.8475C64.8136 69.3024 64.366 69.6724 63.8543 69.9305C63.3426 70.1885 62.7799 70.328 62.2075 70.3387H62.039H61.9905C59.2585 70.3823 56.3043 68.4394 56.3043 68.4394L56.386 68.347C56.9682 67.6771 59.3964 64.9412 60.9309 64.3561C61.4135 64.1713 61.8067 64.1995 62.0288 64.5691C62.0952 64.6846 62.1641 64.7462 62.2331 64.759C62.3556 64.7898 62.4731 64.682 62.5829 64.4767C63.211 63.3474 63.7318 59.2923 63.7318 59.2923C63.5735 63.8607 67.9473 65.2466 65.1642 68.8475Z" fill="#ECD844" stroke="black" stroke-width="0.40372" stroke-miterlimit="10"/>
<path d="M8.71366 69.2376L4.89905 68.5138L5.66503 66.4118C6.69911 67.3204 7.71022 68.27 8.71366 69.2376Z" fill="black" stroke="black" stroke-width="0.40372" stroke-miterlimit="10"/>
<path d="M5.65737 66.4119C3.44112 65.0978 1.50572 67.8311 1.50572 67.8311C0.923554 66.8987 0.614746 65.8201 0.614746 64.7192C0.614746 63.6183 0.923554 62.5398 1.50572 61.6073V63.7837C1.50828 63.2216 5.52715 66.2964 5.65737 66.4119Z" fill="black" stroke="black" stroke-width="0.40372" stroke-miterlimit="10"/>
<path d="M9.27709 63.468L9.76279 63.7621L9.67154 62.7294C9.97542 62.7645 10.2576 62.6417 10.4256 62.3613C10.6732 61.948 10.5033 61.4751 10.0529 61.2024L9.20811 60.691L8.00543 62.6982L8.40577 62.9405L8.7878 62.3029L9.19991 62.5524L9.27709 63.468ZM9.38559 61.3052L9.81537 61.5654C10.0361 61.6991 10.1461 61.9306 10.0312 62.1225C9.91621 62.3143 9.66119 62.3249 9.44042 62.1912L9.01064 61.931L9.38559 61.3052Z" fill="black"/>
<path d="M13.9642 64.6318L14.2495 64.3058L12.962 63.167L11.4222 64.9259L12.7097 66.0647L12.995 65.7388L12.0577 64.9097L12.3883 64.5321L13.2226 65.2701L13.5079 64.9442L12.6736 64.2062L13.0269 63.8027L13.9642 64.6318Z" fill="black"/>
<path d="M15.0832 67.7879C14.7898 67.4781 14.7984 67.0318 15.1316 66.713C15.4647 66.3942 15.9086 66.4076 16.202 66.7174C16.4387 66.9672 16.4578 67.2727 16.2684 67.5731L16.5996 67.9229C16.9564 67.4339 16.9271 66.8475 16.5178 66.4152C16.054 65.9255 15.3172 65.8781 14.805 66.3682C14.2929 66.8583 14.3037 67.6004 14.7675 68.0901C15.1768 68.5223 15.758 68.5805 16.2615 68.2464L15.9302 67.8966C15.6225 68.0721 15.3199 68.0378 15.0832 67.7879Z" fill="black"/>
<path d="M19.8182 69.9251L18.3609 68.4603L18.0539 68.769L18.6168 69.3348L17.2668 70.6918L17.5982 71.0249L18.9482 69.6679L19.5111 70.2337L19.8182 69.9251Z" fill="black"/>
<path d="M21.8576 72.3951L22.1348 72.0618L20.8177 70.9548L19.3213 72.7537L20.6385 73.8607L20.9157 73.5274L19.9569 72.7215L20.2781 72.3353L21.1316 73.0526L21.4089 72.7193L20.5554 72.0019L20.8987 71.5892L21.8576 72.3951Z" fill="black"/>
<path d="M25.0495 74.1249C24.5849 73.8629 24.1353 73.9411 23.9172 74.3317C23.7411 74.6472 23.8039 74.9513 24.1649 75.2576L24.4593 75.5067C24.6563 75.6692 24.6553 75.791 24.605 75.8812C24.5244 76.0254 24.3503 76.0338 24.1255 75.907C23.8438 75.7481 23.7288 75.5094 23.8149 75.2775L23.4103 75.0492C23.1953 75.5048 23.395 75.973 23.8986 76.2571C24.3781 76.5276 24.8367 76.4544 25.0531 76.0668C25.2409 75.7303 25.0987 75.4486 24.7454 75.1426L24.5324 74.9593C24.3594 74.8103 24.2868 74.6864 24.369 74.5391C24.4629 74.3709 24.6584 74.3666 24.8832 74.4934C25.1409 74.6388 25.1954 74.8236 25.1167 75.0281L25.5213 75.2563C25.7652 74.7065 25.3941 74.3194 25.0495 74.1249Z" fill="black"/>
<path d="M27.8649 78.0493L28.3396 78.203L28.091 75.6631L27.6753 75.5285L25.9956 77.4442L26.4736 77.599L26.7997 77.2126L27.8244 77.5443L27.8649 78.0493ZM27.0871 76.868L27.7104 76.1294L27.7877 77.0948L27.0871 76.868Z" fill="black"/>
<path d="M31.2161 76.4142L30.3172 76.3445L30.1382 78.6776L30.6048 78.7137L30.6548 78.0618L31.0185 78.09C31.6189 78.1366 32.0432 77.8243 32.0832 77.3028C32.1208 76.8122 31.7753 76.4575 31.2161 76.4142ZM31.1029 77.6651L30.6877 77.633L30.7509 76.8095L31.166 76.8417C31.4576 76.8643 31.6411 77.0373 31.6235 77.2672C31.6035 77.5279 31.3945 77.6877 31.1029 77.6651Z" fill="black"/>
<path d="M35.0303 76.8191L34.9842 76.388L33.2736 76.573L33.5226 78.8996L35.2332 78.7146L35.187 78.2835L33.9417 78.4182L33.8883 77.9186L34.9967 77.7988L34.9506 77.3677L33.8421 77.4875L33.785 76.9538L35.0303 76.8191Z" fill="black"/>
<path d="M38.2869 78.037L38.8318 77.8659L37.9976 77.2464C38.2271 77.0401 38.3238 76.7449 38.2262 76.4309C38.0823 75.9682 37.6147 75.7813 37.1095 75.94L36.1618 76.2377L36.8605 78.4851L37.3096 78.344L37.0876 77.6302L37.5499 77.4849L38.2869 78.037ZM36.7404 76.5131L37.2224 76.3616C37.4701 76.2839 37.7169 76.3551 37.7837 76.5699C37.8505 76.7847 37.6879 76.9845 37.4403 77.0623L36.9582 77.2137L36.7404 76.5131Z" fill="black"/>
<path d="M41.0342 74.8598L40.8295 74.4776L39.3164 75.2966L40.4212 77.3592L41.9344 76.5403L41.7296 76.1581L40.6281 76.7543L40.3909 76.3114L41.3714 75.7807L41.1666 75.3985L40.1861 75.9292L39.9327 75.456L41.0342 74.8598Z" fill="black"/>
<path d="M44.5217 72.2685L44.2364 71.9426L42.967 73.0655L44.5068 74.8244L44.857 74.5146L44.2841 73.8602L45.0875 73.1495L44.8022 72.8236L43.9988 73.5343L43.6025 73.0816L44.5217 72.2685Z" fill="black"/>
<path d="M46.0829 70.1302C45.5914 70.5921 45.5607 71.3575 46.02 71.8513C46.4793 72.3452 47.2411 72.366 47.7326 71.9042C48.2241 71.4423 48.2548 70.6769 47.7955 70.183C47.3362 69.6892 46.5744 69.6684 46.0829 70.1302ZM47.435 71.5842C47.1241 71.8763 46.6567 71.8386 46.3661 71.5262C46.0755 71.2137 46.0695 70.7424 46.3805 70.4502C46.6915 70.158 47.1588 70.1958 47.4494 70.5082C47.74 70.8207 47.746 71.292 47.435 71.5842Z" fill="black"/>
<path d="M50.2514 66.5536L51.1398 67.7754L49.2198 67.3115L48.9397 67.5172L50.3157 69.4098L50.6929 69.1327L49.8288 67.9443L51.7134 68.383L52.0046 68.1691L50.6286 66.2765L50.2514 66.5536Z" fill="black"/>
<path d="M53.5775 64.3387C53.1087 64.5958 52.9353 65.0212 53.1492 65.4154C53.3219 65.7337 53.6123 65.842 54.0633 65.697L54.4306 65.5782C54.6728 65.4966 54.7752 65.5624 54.8245 65.6533C54.9035 65.7988 54.8179 65.952 54.591 66.0764C54.3067 66.2322 54.0438 66.2033 53.8937 66.0063L53.4854 66.2302C53.7558 66.6562 54.2578 66.7351 54.7659 66.4565C55.2498 66.1911 55.4322 65.7607 55.22 65.3696C55.0357 65.03 54.722 65.0015 54.2753 65.1402L54.007 65.2243C53.789 65.2927 53.6456 65.2887 53.565 65.1402C53.4729 64.9704 53.5734 64.8012 53.8002 64.6768C54.0603 64.5342 54.2454 64.5861 54.3763 64.7622L54.7846 64.5383C54.45 64.0374 53.9253 64.148 53.5775 64.3387Z" fill="black"/>
<path d="M62.805 66.0936C61.8169 66.689 59.5291 69.0477 62.2075 70.3412H61.9726C59.4832 70.3027 56.8661 68.6704 56.3707 68.3419C56.9529 67.672 59.381 64.9361 60.9156 64.3509C61.3981 64.1661 61.7914 64.1944 62.0135 64.564C62.0799 64.6794 62.1488 64.741 62.2178 64.7539C62.3403 64.7847 62.4578 64.6769 62.5676 64.4716C62.9786 64.9335 63.4663 65.6932 62.805 66.0936Z" fill="black"/>
<path d="M63.7344 59.2923C63.5583 60.6535 63.3111 62.0045 62.994 63.3397C62.7351 63.1578 62.4235 63.0675 62.108 63.0831C62.108 63.0831 61.4952 63.0035 61.9956 61.23C62.4961 59.4565 61.799 59.5207 61.4237 58.974C61.0484 58.4274 61.4595 57.2673 61.4595 57.2673C61.4595 57.2673 60.5403 57.0106 60.645 55.694C60.6629 55.1033 60.5531 54.5158 60.3232 53.9718C61.0044 53.9926 61.664 54.2169 62.2178 54.6161C64.12 56.0379 63.7344 59.2923 63.7344 59.2923Z" fill="black" stroke="black" stroke-width="0.40372" stroke-miterlimit="10"/>
<path d="M4.87609 50.1605C4.30595 50.3631 3.78044 50.6751 3.32879 51.0793C2.39429 52.0187 3.30581 53.3225 3.30581 53.3225C-2.09439 48.6822 4.87609 50.1605 4.87609 50.1605L6.68381 47.0088L7.34001 48.6385L5.65739 51.4284L4.87609 50.1605Z" fill="black"/>
<path d="M4.87609 50.1605C4.30595 50.3631 3.78044 50.6751 3.32879 51.0793C2.39429 52.0187 3.30581 53.3225 3.30581 53.3225C-2.09439 48.6822 4.87609 50.1605 4.87609 50.1605ZM4.87609 50.1605L6.68381 47.0088L7.34001 48.6385L5.65739 51.4284L4.87609 50.1605" stroke="black" stroke-width="0.40372" stroke-miterlimit="10"/>
<path d="M9.38008 52.7784L8.32812 53.9667L9.38008 55.3552L10.3529 54.4261L9.38008 52.7784Z" fill="black" stroke="black" stroke-width="0.40372" stroke-miterlimit="10"/>
<path d="M65.0595 50.6097C65.0251 50.7624 64.9825 50.9132 64.9318 51.0614C63.1445 43.6441 60.6857 52.0289 60.6857 52.0289L58.2524 47.8712C59.2361 45.4393 59.9934 42.921 60.5147 40.3486C61.1274 40.2023 63.7854 39.879 63.2211 45.3611C63.2211 45.3482 65.6978 47.979 65.0595 50.6097Z" fill="#ECD844" stroke="black" stroke-width="0.40372" stroke-miterlimit="10"/>
<path d="M63.765 52.7784L62.6365 50.6482" stroke="black" stroke-width="0.40372" stroke-miterlimit="10"/>
<path d="M56.3043 52.0187L58.2524 52.7784L56.9707 53.959L55.1323 54.0668L56.3043 52.0187Z" fill="black" stroke="black" stroke-width="0.40372" stroke-miterlimit="10"/>
<path d="M51.7314 58.8174L53.7179 58.7276" stroke="black" stroke-width="0.40372" stroke-miterlimit="10"/>
<path d="M50.7892 60.0905H52.8905" stroke="black" stroke-width="0.40372" stroke-miterlimit="10"/>
<path d="M49.3849 61.5252H51.9152" stroke="black" stroke-width="0.40372" stroke-miterlimit="10"/>
<path d="M17.6885 63.2961L14.5428 62.8726" stroke="black" stroke-width="0.40372" stroke-miterlimit="10"/>
<path d="M15.2705 60.881L12.4874 60.5242" stroke="black" stroke-width="0.40372" stroke-miterlimit="10"/>
<path d="M13.6211 58.9843L11.0448 58.8046" stroke="black" stroke-width="0.40372" stroke-miterlimit="10"/>
<path d="M61.4952 2.26122V34.2685C61.362 36.1014 61.113 37.9239 60.7496 39.725C59.2959 46.8305 56.0666 53.4472 51.3661 58.9516C46.6655 64.456 40.6484 68.6671 33.8814 71.1882C33.5878 71.296 33.2916 71.3986 32.9954 71.5039C32.6992 71.3986 32.403 71.296 32.112 71.1882C24.4664 68.3524 17.7957 63.362 12.8984 56.8143C8.00112 50.2666 5.08468 42.4391 4.49817 34.2685V2.26122H61.4952Z" fill="white"/>
<path d="M61.8679 1.81207V34.2326C61.3099 41.9057 58.7248 49.2901 54.3796 55.6237C50.0344 61.9572 44.0864 67.0104 37.1495 70.2616V70.2616C36.0823 70.7596 34.9929 71.2164 33.8813 71.6322C33.5851 71.7425 33.2864 71.8452 32.9851 71.953C32.6838 71.8452 32.3877 71.7425 32.0889 71.6322C30.8395 71.1651 29.6173 70.6441 28.4224 70.0692C21.5888 66.7776 15.7417 61.7295 11.4732 55.4359C7.2047 49.1424 4.66633 41.8268 4.11511 34.23V1.81207H61.8679Z" stroke="black" stroke-width="0.436837" stroke-miterlimit="10"/>
<path d="M29.1042 39.6197C29.4745 41.56 29.5409 43.2565 29.3008 44.355C28.4966 48.0508 26.5739 49.5035 28.3102 53.3995C28.3612 53.5175 28.4149 53.6356 28.4736 53.7537C28.4736 53.7537 29.3008 55.4219 27.8812 59.2281C27.8812 59.2281 27.248 60.5114 28.6727 64.2072C28.797 65.3534 28.8277 66.5079 28.7647 67.6592C22.428 64.6066 17.0061 59.9254 13.0479 54.0893C9.0897 48.2533 6.73571 41.4696 6.22424 34.4251V9.18316C8.73412 10.2996 12.6304 12.6069 11.8976 15.9383C11.4049 18.184 11.8747 19.824 13.1743 21.2664C14.6169 22.8808 17.0936 24.2513 20.3975 25.9504L20.7805 26.1454C21.1145 26.315 21.4377 26.5053 21.7482 26.7152C23.0484 27.6091 24.1808 28.7275 25.093 30.0183C25.0996 30.0264 25.1056 30.035 25.1109 30.044C25.453 30.5162 25.7748 31.009 26.0786 31.512C26.1041 31.5557 26.1297 31.5993 26.1526 31.6429C26.408 32.087 26.6633 32.5464 26.8931 33.0109C26.934 33.1007 26.9799 33.1931 27.0259 33.2855C27.9825 35.3002 28.6817 37.4286 29.1068 39.6197H29.1042Z" fill="#090B0E" stroke="black" stroke-width="1.08342" stroke-miterlimit="10"/>
<path d="M36.0185 23.8869L35.4389 24.5901L34.6193 25.5962L32.8754 27.729L32.4107 28.2936C32.4107 28.2936 31.9511 27.4826 31.2005 26.3251L31.0677 26.1249C30.9553 25.9555 30.8379 25.7784 30.7128 25.5962C30.5289 25.3216 30.3298 25.0341 30.123 24.7415C29.9161 24.4489 29.7323 24.1923 29.5204 23.9151C29.1757 23.4557 28.8106 22.9912 28.4327 22.5343C26.9926 20.8045 25.3432 19.226 23.8112 18.7256C23.2815 18.5524 22.7793 18.3035 22.3201 17.9864C19.8434 16.254 19.6902 13.0817 19.6902 13.0817C19.4349 8.55181 15.5156 5.08441 13.4628 3.79344H52.6532C51.9485 4.23489 51.1799 5.44373 49.5892 6.31635C46.058 8.26179 46.5636 10.4613 46.058 14.016C45.9575 14.8021 45.688 15.5569 45.2683 16.2278C44.8485 16.8988 44.2886 17.47 43.6273 17.9017C42.5753 18.6409 41.3676 19.1157 40.3412 19.5931C38.9063 20.2552 37.7266 21.6129 37.0858 22.4676C36.7487 22.9167 36.5572 23.2375 36.5572 23.2375L36.0185 23.8869Z" fill="#090B0F" stroke="black" stroke-width="1.08342" stroke-miterlimit="10"/>
<path d="M59.7666 9.27557V34.4277C59.2511 41.5419 56.856 48.389 52.8285 54.262C48.801 60.1349 43.287 64.821 36.8559 67.8363C36.8917 67.6772 36.9351 67.4847 36.9811 67.2588C37.4023 65.2312 36.3938 62.1873 36.3938 62.1873C36.1385 57.3699 38.6637 57.3699 36.8125 53.9051C36.4236 53.1974 36.1071 52.4518 35.8678 51.6799C35.2882 49.7781 35.7197 48.9183 35.7197 48.9183C37.0219 46.5781 37.439 43.8436 36.8942 41.2187L36.9734 39.9098L37.2492 35.3901L37.3155 34.2891C37.3155 34.2891 37.7394 33.8322 38.4415 33.1033L38.7581 32.7722C39.0901 32.4283 39.4629 32.0433 39.879 31.6224L39.9965 31.5069C40.4178 31.0809 40.8723 30.6266 41.3523 30.1569C42.1821 29.3433 43.086 28.481 44 27.6494C44.6333 27.0694 45.2767 26.5047 45.9022 25.9786C46.8838 25.1296 47.9286 24.3573 49.0275 23.6687C49.1321 23.6046 49.2343 23.5481 49.3339 23.4916C53.4523 21.21 54.1264 20.2783 54.1264 15.5482C54.1264 10.8181 59.7666 9.27557 59.7666 9.27557Z" fill="#090B0F" stroke="black" stroke-width="1.08342" stroke-miterlimit="10"/>
<path d="M20.0425 13.6002C21.9769 14.9156 23.6162 16.6229 24.8555 18.6126C26.7398 21.7541 27.4266 21.2921 27.4266 21.2921C27.4266 21.2921 22.9303 13.0535 23.732 12.4658C24.5338 11.878 27.6539 19.7573 28.1748 19.3313C28.6956 18.9052 28.3382 17.8273 28.3382 17.8273L28.4582 13.3153C28.4582 13.3153 27.23 10.2739 27.4598 10.3073C27.6896 10.3407 29.865 12.8892 29.865 12.8892L30.3757 17.663C30.3757 17.663 30.8634 19.0361 31.1238 18.4817C31.3842 17.9274 32.1655 9.94799 32.1655 9.94799L33.6286 18.3175L34.0524 18.6126C34.0524 18.6126 34.9946 18.2764 34.8005 15.6329L36.1997 13.3487L36.5572 10.1507L37.4355 14.2315L36.1997 16.159L36.0031 18.4484L36.4602 18.8744L41.5974 10.7641L39.2994 19.1336L40.0475 19.919C40.4263 19.1544 40.7316 18.3551 40.9591 17.5321C41.3804 16.0615 43.3643 14.9502 43.3643 14.9502L44.7303 12.4966L44.6 15.3429L43.2774 18.2713L43.303 20.0242C43.303 20.0242 47.4444 17.0547 48.4427 15.3198C49.4411 13.5848 46.0146 20.4092 45.3201 20.8352C44.6256 21.2613 52.9799 18.2507 52.9799 18.2507L47.2733 22.3777C47.2733 22.3777 48.3789 24.7287 49.1832 24.6876C49.9875 24.6466 54.2081 23.3761 54.2081 23.3761C54.2081 23.3761 53.031 26.0017 48.7236 26.8461C48.7236 26.8461 47.5338 27.7341 48.8002 28.4656C50.0666 29.197 55.0532 27.6571 55.0532 27.6571L52.0761 29.9054L48.4325 30.0979C48.4325 30.0979 47.8938 31.1399 48.3942 31.3324C48.8947 31.5249 54.7238 32.3333 55.4898 33.5678C56.2558 34.8024 49.4666 32.7594 48.5474 33.5678C47.6283 34.3763 47.664 34.7639 48.0495 35.0333C48.4351 35.3028 49.5432 34.2634 51.4633 36.1139C53.0481 36.071 54.5967 36.5939 55.8345 37.5896C57.7903 39.2373 48.9406 37.1533 48.9406 37.1533C48.9406 37.1533 48.2129 37.4613 48.7491 38.0413C49.2853 38.6214 54.6549 41.3958 54.6549 41.3958C54.6549 41.3958 48.2257 39.3426 47.2989 40.7388C46.372 42.1349 51.8182 45.8718 51.8182 45.8718C51.8182 45.8718 45.7082 42.2248 44.7124 42.4224C43.7166 42.62 48.624 49.0569 48.624 49.0569C48.624 49.0569 42.0263 42.1273 41.3369 42.9665C40.6476 43.8058 42.6391 46.5135 42.6391 46.5135L42.7923 48.0175L45.555 51.2564C45.555 51.2564 38.5385 44.1985 38.0764 44.3935C37.6143 44.5886 42.0646 54.7264 42.0646 54.7264C42.0646 54.7264 40.7471 52.9734 39.3735 51.2744C37.9998 49.5754 36.5649 47.9379 36.3504 48.1329C35.9061 48.541 39.3403 54.7264 39.3403 54.7264L35.6967 51.9032L33.3196 58.3503L33.0898 52.1419L26.0708 54.7264L27.4879 49.0569L22.5014 54.5442C22.5014 54.5442 26.5687 45.2892 26.3313 45.1737C26.0938 45.0582 19.6927 51.8057 19.6927 51.8057C19.6927 51.8057 24.4495 44.5578 23.8342 43.8494C23.2188 43.141 16.2126 48.6411 16.2126 48.6411L21.2375 42.1247L11.7903 46.0977L16.6416 40.4513C16.6416 40.4513 13.1053 40.2254 10.1511 41.152C7.19695 42.0785 15.6739 37.5768 15.6739 37.5768C15.6739 37.5768 11.4175 36.2935 9.11703 36.6785C6.81652 37.0635 16.0977 34.4815 16.0977 34.4815C16.0977 34.4815 9.45917 31.897 8.74935 31.897C8.03954 31.897 15.9828 31.0501 15.9828 31.0501C13.8048 29.2375 11.3456 27.7965 8.70339 26.7845C4.38834 25.1522 15.5973 27.6853 15.5973 27.6853C15.5973 27.6853 16.1079 26.4021 10.7818 22.5523C5.45561 18.7025 19.2383 24.4104 19.2383 24.4104L15.4313 17.4269L22.9916 21.02L20.0425 13.6002Z" fill="#EDD250"/>
<path d="M60.7725 2.9362V9.27555C60.7725 9.27555 54.134 10.7975 54.134 15.5328C54.134 20.268 53.4599 21.1946 49.3415 23.4762C49.2419 23.5327 49.1398 23.5891 49.0351 23.6533C47.9362 24.3419 46.8914 25.1141 45.9099 25.9632C45.2818 26.4765 44.6332 27.054 44.0077 27.634C43.0936 28.4656 42.1897 29.3279 41.3599 30.1415C40.8799 30.6112 40.4254 31.0655 40.0041 31.4915L39.8867 31.607C39.4705 32.0279 39.0977 32.4129 38.7658 32.7568L38.4492 33.0879C37.747 33.8168 37.3232 34.2736 37.3232 34.2736L37.2568 35.3747L36.9734 39.9149L36.8942 41.2238C37.439 43.8488 37.0219 46.5832 35.7197 48.9234C35.7197 48.9234 35.2882 49.7832 35.8678 51.685C36.1071 52.457 36.4236 53.2025 36.8125 53.9102C38.6636 57.3751 36.141 57.3751 36.3938 62.1924C36.3938 62.1924 37.4023 65.2364 36.981 67.2639C36.9351 67.4898 36.9044 68.4035 36.8687 68.5626L36.8355 69.1529C35.8474 69.6149 34.8388 70.0409 33.8073 70.4233C33.5315 70.526 33.2558 70.621 32.9749 70.7211C32.6966 70.621 32.4209 70.526 32.1451 70.4233C30.9859 69.9896 29.8471 69.5097 28.7441 68.9732C28.8641 67.3332 28.6726 64.2149 28.6726 64.2149C27.2479 60.5216 27.8811 59.2358 27.8811 59.2358C29.3007 55.4296 28.4735 53.7614 28.4735 53.7614C28.4148 53.6433 28.3611 53.5252 28.3101 53.4072C26.5738 49.5112 28.4965 48.0585 29.3007 44.3627C29.5407 43.2642 29.4744 41.5677 29.1041 39.6274C28.6791 37.4363 27.9799 35.3079 27.0232 33.2932C26.9772 33.2008 26.9313 33.1084 26.8904 33.0186C26.6606 32.5541 26.413 32.0947 26.15 31.6506C26.127 31.607 26.1015 31.5634 26.0759 31.5197C25.7721 31.0064 25.4504 30.5239 25.1082 30.0517C25.1029 30.0427 25.0969 30.0341 25.0904 30.026C24.1781 28.7352 23.0457 27.6168 21.7456 26.7229C21.4351 26.513 21.1119 26.3227 20.7779 26.1531L20.3949 25.9581C17.0909 24.259 14.6142 22.8782 13.1716 21.2741C11.8746 19.8317 11.4048 18.1943 11.895 15.946C12.6278 12.6095 7.85058 10.2996 5.3407 9.19086V3.19542L12.6227 3.29552C14.6653 4.57879 19.4348 8.55179 19.6876 13.0817C19.6876 13.0817 19.8408 16.254 22.3175 17.9864C22.7767 18.3035 23.2789 18.5524 23.8086 18.7256C25.3406 19.226 26.99 20.8044 28.4301 22.5343C28.808 22.9911 29.1731 23.4557 29.5178 23.9151C29.7297 24.1923 29.9288 24.4695 30.1203 24.7415C30.3118 25.0136 30.5263 25.3216 30.7102 25.5962C30.8353 25.7784 30.9527 25.9555 31.0651 26.1249L31.1978 26.3251C31.9485 27.4826 32.4081 28.2936 32.4081 28.2936L32.8728 27.729L34.6167 25.5962L35.4363 24.5901L36.0159 23.8869L36.5572 23.2221C36.5572 23.2221 36.7487 22.9116 37.0857 22.4522C37.7266 21.5975 38.9062 20.2398 40.3412 19.5776C41.3625 19.1003 42.5753 18.6255 43.6272 17.8863C44.2885 17.4546 44.8485 16.8834 45.2682 16.2124C45.6879 15.5414 45.9574 14.7867 46.058 14.0006C46.5686 10.451 46.058 8.2515 49.5892 6.30094C51.1773 5.42831 52.3978 3.42641 53.1127 2.98497L60.7725 2.9362Z" fill="#0075B3" stroke="white" stroke-width="0.875251" stroke-miterlimit="10"/>
<path d="M60.6245 41.886C60.6245 41.886 61.0713 44.5141 61.4952 45.5253C61.919 46.5366 63.1293 48.0021 63.1293 48.0021C63.1293 48.0021 64.1991 47.7788 64.9319 51.0614C64.9319 51.0614 65.8153 48.808 63.2212 45.3483C63.2212 45.3483 64.3651 40.6104 61.199 40.2742L60.6245 41.886Z" fill="#090B0F"/>
<path d="M3.81646 55.5708V56.9079C3.81646 56.9079 3.06324 55.9455 2.68791 56.9079C2.31258 57.8704 2.68791 62.0205 2.68791 62.0205L1.50574 63.3653V56.6154C1.50574 56.6154 2.23342 54.7341 3.81646 55.5708Z" fill="#03070E"/>
<path d="M3.81641 55.5682L4.49813 65.2826" stroke="black" stroke-width="0.181358" stroke-miterlimit="10"/>
<path d="M4.89897 41.8039L4.29895 43.8083L5.34324 44.0188L4.6845 47.4169L6.20115 45.6665L4.89897 41.8039Z" fill="black" stroke="black" stroke-width="0.181358" stroke-miterlimit="10"/>
<path d="M51.8846 27.5724V46.3081H37.3309L35.7989 44.2549C32.7349 47.3348 29.4157 44.2549 29.4157 44.2549L27.6284 46.3081H14.0959V29.369C15.1039 29.2389 16.093 28.9891 17.0424 28.6247V44.0008L28.9076 43.2309C28.9076 43.2309 32.7375 45.7974 35.8014 43.4875L48.5679 44.0008V27.6571C49.0785 27.7829 49.0785 27.5724 49.0785 27.5724H51.8846Z" fill="#DABB7F" stroke="black" stroke-width="0.476263" stroke-miterlimit="10"/>
<path d="M48.5628 27.6571V44.0034L35.7964 43.4901C32.7324 45.8 28.9025 43.2334 28.9025 43.2334L17.0374 44.0034V28.6221C18.8476 27.924 19.7132 27.0565 19.7132 27.0565C19.7821 27.0026 19.8511 26.941 19.9124 26.8923V39.7583C22.5759 40.1258 25.2803 39.4855 27.5007 37.9618C29.0889 36.8992 30.3221 36.8915 31.2234 37.2406C32.0316 37.5923 32.6994 38.2058 33.1205 38.9832C33.1205 38.9832 35.1631 35.3901 39.759 38.4699C44.355 41.5498 46.1423 40.7798 46.1423 40.7798V26.4868C46.8528 26.9479 47.6124 27.3275 48.407 27.6186C48.4709 27.634 48.5168 27.6494 48.5628 27.6571Z" fill="#F44B49" stroke="black" stroke-width="0.476263" stroke-miterlimit="10"/>
<path d="M48.5629 27.6109V27.6571C48.5169 27.6571 48.4709 27.634 48.4071 27.6186L48.5629 27.6109Z" fill="#F44B49" stroke="black" stroke-width="0.476263" stroke-miterlimit="10"/>
<path d="M46.1423 26.4893V40.7927C46.1423 40.7927 44.355 41.5626 39.7591 38.4828C35.1631 35.4029 33.1205 38.9961 33.1205 38.9961C32.6996 38.2188 32.0329 37.6047 31.226 37.2508C30.3221 36.9018 29.0863 36.9121 27.5007 37.972C25.2812 39.4956 22.5777 40.1359 19.9149 39.7686V26.8897C28.2157 19.9447 32.9928 23.9844 32.9928 23.9844C32.9928 23.9844 37.8441 20.9046 43.4613 24.7544C44.5541 25.5038 45.4325 26.0684 46.1423 26.4893Z" fill="white" stroke="black" stroke-width="0.476263" stroke-miterlimit="10"/>
<path d="M40.1446 35.4363H34.8746H30.723H25.4504" stroke="#020202" stroke-width="0.293328" stroke-miterlimit="10"/>
<path d="M29.6226 33.4215V35.4363" stroke="#020202" stroke-width="0.293328" stroke-miterlimit="10"/>
<path d="M31.7698 31.1912V35.4722" stroke="#020202" stroke-width="0.293328" stroke-miterlimit="10"/>
<path d="M33.8456 28.7453V35.4722" stroke="#020202" stroke-width="0.293328" stroke-miterlimit="10"/>
<path d="M35.9929 25.147V35.4722" stroke="#020202" stroke-width="0.293328" stroke-miterlimit="10"/>
<path d="M36.667 26.9693L38.3139 25.858L39.3556 27.3748" stroke="#020202" stroke-width="0.293328" stroke-miterlimit="10"/>
<path d="M27.5927 33.2008C28.9576 33.5332 30.3819 33.5332 31.7468 33.2008C32.4662 33.0262 33.1597 32.7578 33.8099 32.4026C35.0096 31.7546 36.0407 30.832 36.82 29.7094C37.5993 28.5867 38.105 27.2955 38.296 25.9401" stroke="#020202" stroke-width="0.293328" stroke-miterlimit="10"/>
<path d="M103.34 35.84C107.2 35.84 109.08 33.84 109.08 29.78V24.6C109.08 22.94 109.64 21.98 110.16 21.64V21.6H105.36V21.64C105.8 21.98 106.38 22.96 106.38 24.6V30C106.38 32.56 105.5 33.74 103.56 33.74C101.38 33.74 100.56 32.72 100.56 30V24.6C100.56 22.94 101.12 21.98 101.58 21.64V21.6H96.72V21.64C97.22 21.98 97.8 22.96 97.8 24.6V29.78C97.8 33.86 99.78 35.84 103.34 35.84ZM112.063 35.5H116.683V35.46C116.163 35.12 115.663 34.16 115.663 32.5V29.1C115.663 27.66 115.623 26.36 115.303 24.46H115.383C115.983 26.3 116.503 27.48 117.463 29.02L120.283 33.6C120.683 34.24 121.063 34.96 121.283 35.5H125.503V35.46C124.983 35.12 124.423 34.14 124.423 32.5V24.6C124.423 22.96 124.983 21.98 125.503 21.64V21.6H120.883V21.64C121.403 21.98 121.903 22.94 121.903 24.6V28.2C121.903 29.32 121.943 30.72 122.223 32.32H122.143C121.543 30.78 120.903 29.36 120.303 28.36L117.423 23.52C116.763 22.42 116.643 22 116.603 21.6H112.063V21.64C112.803 22.14 113.143 23.42 113.143 24.5V32.5C113.143 34.14 112.563 35.12 112.063 35.46V35.5ZM127.864 35.5H132.784V35.46C132.264 35.12 131.704 34.16 131.704 32.5V24.6C131.704 22.96 132.284 21.98 132.784 21.64V21.6H127.864V21.64C128.384 21.98 128.944 22.94 128.944 24.6V32.5C128.944 34.14 128.364 35.12 127.864 35.46V35.5ZM138.469 35.5H143.569V35.46C143.189 35.08 142.909 34.1 143.389 32.7L146.389 24.14C146.789 22.98 147.369 22.06 148.069 21.64V21.6H143.789V21.64C144.109 22.02 144.149 22.8 143.889 23.6L142.209 28.62C141.889 29.56 141.429 31.26 141.169 32.74H141.089C140.889 31.28 140.369 29.58 140.049 28.64L138.289 23.56C138.029 22.8 138.169 22.02 138.489 21.64V21.6H133.809V21.64C134.629 22.24 135.269 23.32 135.629 24.32L138.649 32.7C139.149 34.08 138.849 35.08 138.469 35.46V35.5ZM159.075 31.66C158.215 32.88 156.815 33.54 155.055 33.54H152.875V29.04H154.715C155.835 29.04 156.555 29.4 156.895 30.3H156.935L157.515 26.94C156.615 27.06 156.055 27.08 154.395 27.08H152.875V23.56H155.515C157.075 23.56 158.175 24.06 158.655 25.04L158.695 25.02L158.355 21.44C157.915 21.54 157.035 21.6 156.235 21.6H149.055V21.64C149.575 21.98 150.135 22.94 150.135 24.6V32.5C150.135 34.14 149.555 35.12 149.055 35.46V35.5H156.115C157.295 35.5 157.815 35.54 158.555 35.66L159.115 31.68L159.075 31.66ZM170.927 32.8L169.067 29.78C170.747 29.24 171.787 27.94 171.787 25.82C171.787 23.22 169.927 21.6 166.727 21.6H161.047V21.64C161.567 21.98 162.127 22.94 162.127 24.52V32.5C162.127 34.14 161.567 35.12 161.047 35.46V35.5H165.867V35.46C165.427 35.12 164.867 34.16 164.867 32.58V23.58L166.267 23.56C167.987 23.54 168.947 24.46 168.947 25.92C168.947 27.7 167.987 28.4 166.267 28.4H165.307L168.407 33.7C168.847 34.44 169.167 35.14 169.427 35.92L173.527 35.18V35.14C172.567 34.82 171.687 34.02 170.927 32.8ZM178.274 35.8C181.514 35.76 183.154 33.94 183.154 31.72C183.154 28.72 181.034 27.84 179.254 27.1C177.954 26.56 176.834 26.1 176.834 24.94C176.834 23.92 177.614 23.4 179.134 23.4C180.294 23.4 181.434 23.72 182.294 25.04H182.334L182.074 21.76C180.914 21.46 179.974 21.34 178.934 21.34C175.834 21.34 174.134 23.16 174.134 25.14C174.134 27.92 176.074 28.74 177.814 29.46C179.174 30.02 180.394 30.54 180.394 31.92C180.394 33 179.694 33.68 178.074 33.72C176.434 33.76 175.134 33.18 173.934 31.62L173.894 31.64L174.234 35C175.134 35.54 176.654 35.82 178.274 35.8ZM185.071 35.5H189.991V35.46C189.471 35.12 188.911 34.16 188.911 32.5V24.6C188.911 22.96 189.491 21.98 189.991 21.64V21.6H185.071V21.64C185.591 21.98 186.151 22.94 186.151 24.6V32.5C186.151 34.14 185.571 35.12 185.071 35.46V35.5ZM202.276 21.44C201.356 21.56 200.516 21.6 199.536 21.6H194.656C193.676 21.6 192.836 21.56 191.916 21.44L191.576 25.1L191.616 25.12C192.076 24.32 193.016 23.64 194.216 23.64H195.736V32.34C195.736 34.04 195.096 35.12 194.516 35.46V35.5H199.696V35.46C199.036 35.12 198.476 34.06 198.476 32.34V23.64H199.976C201.176 23.64 202.116 24.32 202.576 25.12L202.616 25.1L202.276 21.44ZM212.349 21.6V21.64C212.549 22.18 212.289 23.02 211.909 23.68L210.389 26.34C210.189 26.7 209.949 27.06 209.749 27.64H209.669C209.469 27.08 209.269 26.7 209.049 26.34L207.509 23.68C207.129 23.02 206.869 22.18 207.049 21.64V21.6H202.789V21.64C203.289 22.02 203.909 22.86 204.409 23.68L208.249 30.02V32.34C208.249 34.04 207.609 35.12 207.029 35.46V35.5H212.209V35.46C211.549 35.12 210.989 34.06 210.989 32.34V29.92L214.769 23.68C215.289 22.84 215.869 22.02 216.369 21.64V21.6H212.349ZM228.98 35.9C233.44 35.9 236.42 32.86 236.42 28.4C236.42 24.1 233.56 21.2 229.28 21.2C224.66 21.2 221.86 24.18 221.86 28.68C221.86 32.78 224.5 35.9 228.98 35.9ZM229.18 33.82C226.32 33.82 224.84 31.76 224.84 28.48C224.84 25.36 226.44 23.28 229.08 23.28C231.8 23.28 233.44 25.22 233.44 28.6C233.44 31.8 231.64 33.82 229.18 33.82ZM247.789 21.44C247.129 21.56 246.409 21.6 245.209 21.6H238.509V21.64C239.069 21.96 239.569 22.64 239.569 24.6V32.5C239.569 34.14 238.989 35.12 238.489 35.46V35.5H243.389V35.46C242.869 35.12 242.309 34.16 242.309 32.5V29.32H244.209C245.209 29.32 246.129 29.9 246.389 30.76H246.429L247.069 27.16C246.469 27.28 245.509 27.32 244.069 27.32H242.309V23.6H244.549C246.109 23.6 247.389 24.02 248.109 25.2L248.149 25.18L247.789 21.44ZM255.012 35.5H259.932V35.46C259.412 35.12 258.852 34.16 258.852 32.5V24.6C258.852 22.96 259.432 21.98 259.932 21.64V21.6H255.012V21.64C255.532 21.98 256.092 22.94 256.092 24.6V32.5C256.092 34.14 255.512 35.12 255.012 35.46V35.5ZM269.997 28.1V28.04C271.157 27.86 272.297 26.62 272.297 25.1C272.297 22.72 270.777 21.6 267.777 21.6H262.257V21.64C262.897 22.08 263.437 23.06 263.437 24.7V32.38C263.437 34.18 262.757 35.08 262.257 35.46V35.5H268.337C271.057 35.5 273.017 34 273.017 31.4C273.017 29.78 271.657 28.3 269.997 28.1ZM267.617 23.56C268.797 23.56 269.477 24.1 269.477 25.24C269.477 26.52 268.777 27.16 267.617 27.16H266.177V23.56H267.617ZM267.937 33.54H266.177V29.1H267.937C269.437 29.1 270.157 29.98 270.157 31.3C270.157 32.62 269.437 33.54 267.937 33.54ZM285.693 32.22L282.753 23.98C282.333 22.8 282.733 21.98 283.113 21.64V21.6H277.813V21.64C278.193 21.96 278.573 22.8 278.173 23.98L275.313 32.22C274.773 33.76 273.913 34.98 273.373 35.46V35.5H277.573V35.46C277.293 35.2 277.093 34.38 277.613 33L277.793 32.52H282.953L283.133 33C283.633 34.38 283.473 35.2 283.133 35.46V35.5H287.653V35.46C287.093 35 286.233 33.76 285.693 32.22ZM280.313 24.26H280.393C280.593 25.8 281.093 27.14 281.553 28.44L282.293 30.56H278.453L279.193 28.44C279.653 27.14 280.133 25.8 280.313 24.26ZM288.469 35.5H293.949C298.889 35.5 301.229 32.92 301.229 28.54C301.229 24.18 298.469 21.6 294.269 21.6H288.469V21.64C288.989 21.98 289.549 23.12 289.549 24.6V32.5C289.549 34.14 288.969 35.12 288.469 35.46V35.5ZM292.289 33.52V23.58H294.049C296.909 23.58 298.269 25.16 298.269 28.54C298.269 31.76 296.829 33.52 294.149 33.52H292.289ZM313.643 32.22L310.703 23.98C310.283 22.8 310.683 21.98 311.063 21.64V21.6H305.763V21.64C306.143 21.96 306.523 22.8 306.123 23.98L303.263 32.22C302.723 33.76 301.863 34.98 301.323 35.46V35.5H305.523V35.46C305.243 35.2 305.043 34.38 305.563 33L305.743 32.52H310.903L311.083 33C311.583 34.38 311.423 35.2 311.083 35.46V35.5H315.603V35.46C315.043 35 314.183 33.76 313.643 32.22ZM308.263 24.26H308.343C308.543 25.8 309.043 27.14 309.503 28.44L310.243 30.56H306.403L307.143 28.44C307.603 27.14 308.083 25.8 308.263 24.26ZM316.418 35.5H321.038V35.46C320.518 35.12 320.018 34.16 320.018 32.5V29.1C320.018 27.66 319.978 26.36 319.658 24.46H319.738C320.338 26.3 320.858 27.48 321.818 29.02L324.638 33.6C325.038 34.24 325.418 34.96 325.638 35.5H329.858V35.46C329.338 35.12 328.778 34.14 328.778 32.5V24.6C328.778 22.96 329.338 21.98 329.858 21.64V21.6H325.238V21.64C325.758 21.98 326.258 22.94 326.258 24.6V28.2C326.258 29.32 326.298 30.72 326.578 32.32H326.498C325.898 30.78 325.258 29.36 324.658 28.36L321.778 23.52C321.118 22.42 320.998 22 320.958 21.6H316.418V21.64C317.158 22.14 317.498 23.42 317.498 24.5V32.5C317.498 34.14 316.918 35.12 316.418 35.46V35.5Z" fill="black"/>
<path d="M107.2 56.66C106.34 57.88 104.94 58.54 103.18 58.54H101V54.04H102.84C103.96 54.04 104.68 54.4 105.02 55.3H105.06L105.64 51.94C104.74 52.06 104.18 52.08 102.52 52.08H101V48.56H103.64C105.2 48.56 106.3 49.06 106.78 50.04L106.82 50.02L106.48 46.44C106.04 46.54 105.16 46.6 104.36 46.6H97.18V46.64C97.7 46.98 98.26 47.94 98.26 49.6V57.5C98.26 59.14 97.68 60.12 97.18 60.46V60.5H104.24C105.42 60.5 105.94 60.54 106.68 60.66L107.24 56.68L107.2 56.66ZM115.6 60.8C117.28 60.8 118.84 60.4 119.86 60.04L120.34 56.46L120.3 56.44C119.26 57.8 117.96 58.68 115.8 58.68C113.02 58.68 111.54 56.5 111.54 53.44C111.54 50.36 113.24 48.42 116.06 48.42C117.6 48.42 119.06 49.02 119.88 50.3L119.92 50.28L119.6 46.82C118.44 46.48 117.36 46.32 116.08 46.32C111.52 46.32 108.56 49.14 108.56 53.64C108.56 57.74 111.28 60.8 115.6 60.8ZM128.609 60.9C133.069 60.9 136.049 57.86 136.049 53.4C136.049 49.1 133.189 46.2 128.909 46.2C124.289 46.2 121.489 49.18 121.489 53.68C121.489 57.78 124.129 60.9 128.609 60.9ZM128.809 58.82C125.949 58.82 124.469 56.76 124.469 53.48C124.469 50.36 126.069 48.28 128.709 48.28C131.429 48.28 133.069 50.22 133.069 53.6C133.069 56.8 131.269 58.82 128.809 58.82ZM138.118 60.5H142.738V60.46C142.217 60.12 141.718 59.16 141.718 57.5V54.1C141.718 52.66 141.678 51.36 141.358 49.46H141.438C142.038 51.3 142.558 52.48 143.518 54.02L146.338 58.6C146.738 59.24 147.118 59.96 147.338 60.5H151.558V60.46C151.038 60.12 150.478 59.14 150.478 57.5V49.6C150.478 47.96 151.038 46.98 151.558 46.64V46.6H146.938V46.64C147.458 46.98 147.957 47.94 147.957 49.6V53.2C147.957 54.32 147.998 55.72 148.278 57.32H148.198C147.598 55.78 146.958 54.36 146.358 53.36L143.478 48.52C142.817 47.42 142.698 47 142.658 46.6H138.118V46.64C138.858 47.14 139.198 48.42 139.198 49.5V57.5C139.198 59.14 138.618 60.12 138.118 60.46V60.5ZM160.738 60.9C165.198 60.9 168.178 57.86 168.178 53.4C168.178 49.1 165.318 46.2 161.038 46.2C156.418 46.2 153.618 49.18 153.618 53.68C153.618 57.78 156.258 60.9 160.738 60.9ZM160.938 58.82C158.078 58.82 156.598 56.76 156.598 53.48C156.598 50.36 158.198 48.28 160.838 48.28C163.558 48.28 165.198 50.22 165.198 53.6C165.198 56.8 163.398 58.82 160.938 58.82ZM169.629 60.5H174.029L174.049 60.46C173.669 60.12 173.329 59.24 173.389 57.98L173.609 53.84C173.649 52.98 173.649 51.9 173.489 50.4H173.569C173.949 51.8 174.369 52.74 175.009 53.78L177.389 57.58C178.129 58.76 178.329 59.56 178.389 59.98H178.549C178.589 59.56 178.769 58.76 179.489 57.56L181.709 53.8C182.369 52.68 182.829 51.74 183.249 50.4H183.329C183.149 51.86 183.129 52.9 183.209 53.84L183.529 57.98C183.629 59.24 183.249 60.12 182.869 60.46L182.889 60.5H187.469L187.489 60.46C186.769 59.74 186.389 58.52 186.309 57.56L185.689 49.8C185.609 48.7 185.949 47.14 186.849 46.64L186.829 46.6H182.209C182.449 46.9 182.409 47.48 181.909 48.36L179.949 51.82C179.289 52.98 178.769 53.9 178.469 55.12H178.389C178.209 53.98 177.769 52.9 177.149 51.82L175.169 48.42C174.649 47.52 174.609 46.9 174.849 46.6H170.269L170.249 46.64C171.149 47.18 171.409 48.7 171.329 49.8L170.809 57.56C170.709 58.96 170.249 59.76 169.609 60.46L169.629 60.5ZM189.309 60.5H194.229V60.46C193.709 60.12 193.149 59.16 193.149 57.5V49.6C193.149 47.96 193.729 46.98 194.229 46.64V46.6H189.309V46.64C189.829 46.98 190.389 47.94 190.389 49.6V57.5C190.389 59.14 189.809 60.12 189.309 60.46V60.5ZM203.334 60.8C205.014 60.8 206.574 60.4 207.594 60.04L208.074 56.46L208.034 56.44C206.994 57.8 205.694 58.68 203.534 58.68C200.754 58.68 199.274 56.5 199.274 53.44C199.274 50.36 200.974 48.42 203.794 48.42C205.334 48.42 206.794 49.02 207.614 50.3L207.654 50.28L207.334 46.82C206.174 46.48 205.094 46.32 203.814 46.32C199.254 46.32 196.294 49.14 196.294 53.64C196.294 57.74 199.014 60.8 203.334 60.8ZM213.899 60.8C217.139 60.76 218.779 58.94 218.779 56.72C218.779 53.72 216.659 52.84 214.879 52.1C213.579 51.56 212.459 51.1 212.459 49.94C212.459 48.92 213.239 48.4 214.759 48.4C215.919 48.4 217.059 48.72 217.919 50.04H217.959L217.699 46.76C216.539 46.46 215.599 46.34 214.559 46.34C211.459 46.34 209.759 48.16 209.759 50.14C209.759 52.92 211.699 53.74 213.439 54.46C214.799 55.02 216.019 55.54 216.019 56.92C216.019 58 215.319 58.68 213.699 58.72C212.059 58.76 210.759 58.18 209.559 56.62L209.519 56.64L209.859 60C210.759 60.54 212.279 60.82 213.899 60.8ZM236.436 57.22L233.496 48.98C233.076 47.8 233.476 46.98 233.856 46.64V46.6H228.556V46.64C228.936 46.96 229.316 47.8 228.916 48.98L226.056 57.22C225.516 58.76 224.656 59.98 224.116 60.46V60.5H228.316V60.46C228.036 60.2 227.836 59.38 228.356 58L228.536 57.52H233.696L233.876 58C234.376 59.38 234.216 60.2 233.876 60.46V60.5H238.396V60.46C237.836 60 236.976 58.76 236.436 57.22ZM231.056 49.26H231.136C231.336 50.8 231.836 52.14 232.296 53.44L233.036 55.56H229.196L229.936 53.44C230.396 52.14 230.876 50.8 231.056 49.26ZM248.531 60.66L249.051 56.72L249.011 56.7C248.151 57.9 246.751 58.5 245.011 58.5H243.031V49.6C243.031 47.96 243.611 46.98 244.111 46.64V46.6H239.211V46.64C239.731 46.98 240.291 47.94 240.291 49.52V57.5C240.291 59.14 239.711 60.12 239.211 60.46V60.5H246.311C247.231 60.5 247.771 60.52 248.531 60.66ZM256.231 60.84C260.091 60.84 261.971 58.84 261.971 54.78V49.6C261.971 47.94 262.531 46.98 263.051 46.64V46.6H258.251V46.64C258.691 46.98 259.271 47.96 259.271 49.6V55C259.271 57.56 258.391 58.74 256.451 58.74C254.271 58.74 253.451 57.72 253.451 55V49.6C253.451 47.94 254.011 46.98 254.471 46.64V46.6H249.611V46.64C250.111 46.98 250.691 47.96 250.691 49.6V54.78C250.691 58.86 252.671 60.84 256.231 60.84ZM264.316 60.5H268.716L268.736 60.46C268.356 60.12 268.016 59.24 268.076 57.98L268.296 53.84C268.336 52.98 268.336 51.9 268.176 50.4H268.256C268.636 51.8 269.056 52.74 269.696 53.78L272.076 57.58C272.816 58.76 273.016 59.56 273.076 59.98H273.236C273.276 59.56 273.456 58.76 274.176 57.56L276.396 53.8C277.056 52.68 277.516 51.74 277.936 50.4H278.016C277.836 51.86 277.816 52.9 277.896 53.84L278.216 57.98C278.316 59.24 277.936 60.12 277.556 60.46L277.576 60.5H282.156L282.176 60.46C281.456 59.74 281.076 58.52 280.996 57.56L280.376 49.8C280.296 48.7 280.636 47.14 281.536 46.64L281.516 46.6H276.896C277.136 46.9 277.096 47.48 276.596 48.36L274.636 51.82C273.976 52.98 273.456 53.9 273.156 55.12H273.076C272.896 53.98 272.456 52.9 271.836 51.82L269.856 48.42C269.336 47.52 269.296 46.9 269.536 46.6H264.956L264.936 46.64C265.836 47.18 266.096 48.7 266.016 49.8L265.496 57.56C265.396 58.96 264.936 59.76 264.296 60.46L264.316 60.5ZM283.996 60.5H288.616V60.46C288.096 60.12 287.596 59.16 287.596 57.5V54.1C287.596 52.66 287.556 51.36 287.236 49.46H287.316C287.916 51.3 288.436 52.48 289.396 54.02L292.216 58.6C292.616 59.24 292.996 59.96 293.216 60.5H297.436V60.46C296.916 60.12 296.356 59.14 296.356 57.5V49.6C296.356 47.96 296.916 46.98 297.436 46.64V46.6H292.816V46.64C293.336 46.98 293.836 47.94 293.836 49.6V53.2C293.836 54.32 293.876 55.72 294.156 57.32H294.076C293.476 55.78 292.836 54.36 292.236 53.36L289.356 48.52C288.696 47.42 288.576 47 288.536 46.6H283.996V46.64C284.736 47.14 285.076 48.42 285.076 49.5V57.5C285.076 59.14 284.496 60.12 283.996 60.46V60.5ZM299.797 60.5H304.717V60.46C304.197 60.12 303.637 59.16 303.637 57.5V49.6C303.637 47.96 304.217 46.98 304.717 46.64V46.6H299.797V46.64C300.317 46.98 300.877 47.94 300.877 49.6V57.5C300.877 59.14 300.297 60.12 299.797 60.46V60.5Z" fill="black"/>
</svg>
