<svg width="271" height="81" viewBox="0 0 271 81" fill="none" xmlns="http://www.w3.org/2000/svg">
<g filter="url(#filter0_b_264_88)">
<rect width="271" height="80.25" rx="8" fill="url(#paint0_linear_264_88)"/>
<path d="M22.8406 55.9468L22.4254 57.5435C17.701 53.0721 16.6686 49.6627 13.5586 49.9701C13.6234 49.9534 14.185 49.7447 12.2093 48.6287C10.1241 47.4494 11.1769 45.8136 11.1769 45.8136C12.8061 42.2384 12.3575 42.2925 12.4057 40.7293C12.3991 40.3866 12.4906 40.0491 12.6693 39.7571C12.8481 39.4651 13.1066 39.2309 13.414 39.0824C14.688 45.57 17.9908 51.4787 22.8406 55.9468Z" fill="#ECD844" stroke="black" stroke-width="0.293061" stroke-miterlimit="10"/>
<path d="M57.2276 46.7377C57.2026 46.8486 57.1717 46.9581 57.1349 47.0656C56.7695 48.1143 56.0789 49.0175 55.1647 49.6422C54.6735 49.2696 53.9711 49.0833 52.9702 49.2119C50.4662 49.5528 48.5998 53.7559 45.7066 57.3888L45.4082 55.1159C49.7444 50.8 52.7112 45.2894 53.934 39.2799C54.3789 39.1737 56.3083 38.939 55.8987 42.9185C55.8931 42.9185 57.6909 44.8281 57.2276 46.7377Z" fill="#ECD844" stroke="black" stroke-width="0.293061" stroke-miterlimit="10"/>
<path d="M56.2656 53.0405C56.1377 54.0286 55.9583 55.0093 55.7281 55.9785C55.6873 56.1387 55.6428 56.2878 55.5983 56.4182C55.413 56.9324 55.2277 57.1988 55.0293 56.8709C54.3287 55.7009 51.2483 59.2519 50.8739 59.6804C49.0205 61.808 47.6193 63.8742 45.2432 65.5062C39.9572 69.1373 32.8529 70.4638 26.7792 68.1611C22.5645 66.5644 19.5082 63.3171 16.3277 60.2542C15.5993 59.5537 14.8653 58.8644 14.1035 58.2049C14.009 58.1229 11.0936 55.8891 11.0898 56.2896V50.7657C12.0592 50.2962 12.8562 50.0409 13.5531 49.972C16.6631 49.6646 17.6955 53.0647 22.4199 57.5435C28.2045 63.0246 33.3812 64.7405 40.0999 61.972C42.4037 61.0237 44.1923 59.2854 45.701 57.3888C48.5942 53.7559 50.4606 49.5528 52.9646 49.2119L53.0851 49.197C53.317 49.1705 53.5507 49.163 53.7838 49.1746C54.2783 49.1897 54.7571 49.3525 55.1591 49.6422C56.5455 50.6781 56.2656 53.0405 56.2656 53.0405Z" fill="#ECD844" stroke="black" stroke-width="0.293061" stroke-miterlimit="10"/>
<path d="M57.3035 59.9766C57.049 60.3068 56.7241 60.5755 56.3526 60.7628C55.9812 60.9501 55.5727 61.0514 55.1572 61.0591H55.0349H54.9997C53.0165 61.0907 50.8721 59.6804 50.8721 59.6804L50.9314 59.6133C51.354 59.1271 53.1166 57.1411 54.2305 56.7163C54.5808 56.5821 54.8662 56.6026 55.0275 56.8709C55.0757 56.9548 55.1257 56.9995 55.1758 57.0088C55.2647 57.0311 55.35 56.9529 55.4297 56.8038C55.8856 55.9841 56.2637 53.0405 56.2637 53.0405C56.1488 56.3567 59.3238 57.3628 57.3035 59.9766Z" fill="#ECD844" stroke="black" stroke-width="0.293061" stroke-miterlimit="10"/>
<path d="M16.3267 60.2598L13.5576 59.7344L14.1136 58.2086C14.8643 58.8681 15.5983 59.5574 16.3267 60.2598Z" fill="black" stroke="black" stroke-width="0.293061" stroke-miterlimit="10"/>
<path d="M14.1077 58.2086C12.4989 57.2547 11.094 59.2389 11.094 59.2389C10.6714 58.562 10.4473 57.779 10.4473 56.9799C10.4473 56.1808 10.6714 55.3978 11.094 54.7209V56.3008C11.0959 55.8928 14.0132 58.1248 14.1077 58.2086Z" fill="black" stroke="black" stroke-width="0.293061" stroke-miterlimit="10"/>
<path d="M16.826 55.9192L17.1785 56.1327L17.1123 55.383C17.3329 55.4085 17.5377 55.3194 17.6597 55.1158C17.8394 54.8158 17.7161 54.4725 17.3892 54.2746L16.7759 53.9033L15.9029 55.3604L16.1935 55.5363L16.4708 55.0735L16.7699 55.2546L16.826 55.9192ZM16.9047 54.3492L17.2167 54.5381C17.377 54.6351 17.4568 54.8032 17.3734 54.9425C17.2899 55.0817 17.1048 55.0894 16.9445 54.9924L16.6326 54.8035L16.9047 54.3492Z" fill="black"/>
<path d="M20.2544 56.7827L20.4615 56.5461L19.5269 55.7194L18.4091 56.9962L19.3437 57.8229L19.5509 57.5863L18.8705 56.9845L19.1105 56.7103L19.7161 57.246L19.9232 57.0095L19.3176 56.4738L19.574 56.1808L20.2544 56.7827Z" fill="black"/>
<path d="M21.0778 59.0846C20.8648 58.8597 20.871 58.5357 21.1129 58.3043C21.3547 58.0729 21.677 58.0826 21.8899 58.3075C22.0617 58.4889 22.0756 58.7106 21.9381 58.9287L22.1786 59.1826C22.4375 58.8276 22.4163 58.4019 22.1191 58.0882C21.7825 57.7327 21.2476 57.6983 20.8758 58.054C20.5041 58.4098 20.512 58.9485 20.8486 59.304C21.1457 59.6177 21.5676 59.66 21.9331 59.4175L21.6926 59.1635C21.4692 59.2909 21.2496 59.266 21.0778 59.0846Z" fill="black"/>
<path d="M24.5121 60.6329L23.4543 59.5696L23.2314 59.7936L23.6401 60.2044L22.6601 61.1894L22.9007 61.4312L23.8806 60.4462L24.2893 60.8569L24.5121 60.6329Z" fill="black"/>
<path d="M25.9811 62.4152L26.1823 62.1733L25.2262 61.3697L24.14 62.6755L25.0961 63.4791L25.2974 63.2372L24.6014 62.6522L24.8346 62.3718L25.4541 62.8925L25.6554 62.6505L25.0358 62.1298L25.285 61.8302L25.9811 62.4152Z" fill="black"/>
<path d="M28.2703 63.6524C27.9331 63.4621 27.6067 63.5189 27.4485 63.8025C27.3206 64.0315 27.3662 64.2522 27.6282 64.4746L27.842 64.6554C27.985 64.7733 27.9842 64.8618 27.9477 64.9272C27.8892 65.0319 27.7628 65.038 27.5996 64.946C27.3951 64.8306 27.3116 64.6573 27.3742 64.489L27.0804 64.3233C26.9244 64.654 27.0694 64.9939 27.4349 65.2001C27.783 65.3964 28.1159 65.3433 28.273 65.062C28.4093 64.8177 28.3061 64.6132 28.0496 64.3911L27.895 64.258C27.7694 64.1499 27.7167 64.0599 27.7764 63.953C27.8445 63.8309 27.9865 63.8278 28.1496 63.9198C28.3367 64.0254 28.3763 64.1595 28.3191 64.308L28.6129 64.4736C28.7899 64.0745 28.5205 63.7935 28.2703 63.6524Z" fill="black"/>
<path d="M30.2818 66.487L30.6263 66.5986L30.4459 64.7548L30.1441 64.6571L28.9248 66.0478L29.2717 66.1601L29.5085 65.8797L30.2523 66.1205L30.2818 66.487ZM29.7171 65.6295L30.1696 65.0934L30.2257 65.7942L29.7171 65.6295Z" fill="black"/>
<path d="M32.6739 65.2921L32.0214 65.2415L31.8914 66.9351L32.2301 66.9614L32.2665 66.4882L32.5304 66.5086C32.9663 66.5424 33.2743 66.3157 33.3033 65.9372C33.3306 65.581 33.0798 65.3236 32.6739 65.2921ZM32.5917 66.2002L32.2903 66.1768L32.3362 65.5791L32.6375 65.6025C32.8492 65.6189 32.9824 65.7444 32.9696 65.9113C32.9551 66.1006 32.8034 66.2166 32.5917 66.2002Z" fill="black"/>
<path d="M35.4098 65.5866L35.3763 65.2736L34.1346 65.4079L34.3154 67.0968L35.5571 66.9625L35.5236 66.6496L34.6196 66.7473L34.5808 66.3847L35.3854 66.2977L35.352 65.9848L34.5473 66.0718L34.5059 65.6843L35.4098 65.5866Z" fill="black"/>
<path d="M37.7403 66.4776L38.1358 66.3534L37.5303 65.9037C37.6969 65.7539 37.7671 65.5396 37.6962 65.3117C37.5918 64.9759 37.2523 64.8402 36.8856 64.9554L36.1977 65.1715L36.7049 66.8029L37.0309 66.7005L36.8698 66.1823L37.2053 66.0769L37.7403 66.4776ZM36.6177 65.3714L36.9676 65.2615C37.1474 65.205 37.3266 65.2567 37.375 65.4126C37.4235 65.5686 37.3055 65.7136 37.1257 65.7701L36.7758 65.88L36.6177 65.3714Z" fill="black"/>
<path d="M39.7033 64.1843L39.5546 63.9069L38.4563 64.5014L39.2583 65.9987L40.3567 65.4042L40.2081 65.1268L39.4085 65.5595L39.2362 65.2381L39.948 64.8528L39.7994 64.5754L39.0876 64.9606L38.9036 64.6171L39.7033 64.1843Z" fill="black"/>
<path d="M42.2022 62.3262L41.9951 62.0896L41.0736 62.9048L42.1914 64.1816L42.4456 63.9567L42.0297 63.4816L42.6129 62.9658L42.4058 62.7292L41.8226 63.2451L41.535 62.9165L42.2022 62.3262Z" fill="black"/>
<path d="M43.331 60.7776C42.9742 61.1129 42.952 61.6685 43.2854 62.027C43.6188 62.3855 44.1718 62.4006 44.5286 62.0654C44.8854 61.7301 44.9076 61.1745 44.5742 60.816C44.2408 60.4575 43.6878 60.4424 43.331 60.7776ZM44.3125 61.8331C44.0868 62.0452 43.7475 62.0178 43.5366 61.791C43.3257 61.5642 43.3213 61.222 43.5471 61.0099C43.7728 60.7978 44.1121 60.8252 44.323 61.052C44.5339 61.2788 44.5383 61.621 44.3125 61.8331Z" fill="black"/>
<path d="M46.3739 58.1678L47.0187 59.0547L45.625 58.7179L45.4217 58.8672L46.4205 60.2411L46.6943 60.04L46.0671 59.1773L47.4351 59.4958L47.6465 59.3405L46.6477 57.9666L46.3739 58.1678Z" fill="black"/>
<path d="M48.8073 56.5475C48.467 56.7341 48.3412 57.0429 48.4964 57.329C48.6218 57.5601 48.8326 57.6387 49.16 57.5335L49.4266 57.4473C49.6024 57.388 49.6768 57.4358 49.7126 57.5018C49.7699 57.6074 49.7077 57.7186 49.5431 57.8089C49.3367 57.922 49.1458 57.901 49.0369 57.758L48.7405 57.9205C48.9368 58.2298 49.3012 58.287 49.67 58.0848C50.0213 57.8922 50.1537 57.5797 49.9997 57.2958C49.8659 57.0493 49.6381 57.0286 49.3139 57.1293L49.1191 57.1904C48.9609 57.24 48.8568 57.2371 48.7983 57.1293C48.7314 57.006 48.8043 56.8832 48.969 56.793C49.1578 56.6894 49.2922 56.7271 49.3872 56.8549L49.6836 56.6924C49.4407 56.3287 49.0598 56.4091 48.8073 56.5475Z" fill="black"/>
<path d="M55.5916 57.9776C54.8743 58.4098 53.2136 60.1219 55.1579 61.0609H54.9873C53.1802 61.033 51.2805 59.8481 50.9209 59.6096C51.3435 59.1233 53.1061 57.1373 54.22 56.7125C54.5703 56.5784 54.8558 56.5989 55.017 56.8672C55.0652 56.951 55.1152 56.9957 55.1653 57.005C55.2542 57.0274 55.3395 56.9492 55.4192 56.8001C55.7176 57.1355 56.0716 57.6869 55.5916 57.9776Z" fill="black"/>
<path d="M56.2653 53.0405C56.1374 54.0286 55.958 55.0093 55.7278 55.9785C55.5398 55.8465 55.3136 55.7809 55.0846 55.7922C55.0846 55.7922 54.6398 55.7345 55.0031 54.4471C55.3663 53.1597 54.8604 53.2063 54.5879 52.8095C54.3154 52.4126 54.6138 51.5705 54.6138 51.5705C54.6138 51.5705 53.9466 51.3842 54.0226 50.4285C54.0356 49.9997 53.9559 49.5732 53.7891 49.1783C54.2835 49.1934 54.7623 49.3562 55.1643 49.646C56.5451 50.6781 56.2653 53.0405 56.2653 53.0405Z" fill="black" stroke="black" stroke-width="0.293061" stroke-miterlimit="10"/>
<path d="M13.54 46.4117C13.1261 46.5587 12.7446 46.7852 12.4168 47.0787C11.7384 47.7605 12.4001 48.707 12.4001 48.707C8.48006 45.3386 13.54 46.4117 13.54 46.4117L14.8522 44.1238L15.3285 45.3069L14.1071 47.332L13.54 46.4117Z" fill="black"/>
<path d="M13.54 46.4117C13.1261 46.5587 12.7446 46.7852 12.4168 47.0787C11.7384 47.7605 12.4001 48.707 12.4001 48.707C8.48006 45.3386 13.54 46.4117 13.54 46.4117ZM13.54 46.4117L14.8522 44.1238L15.3285 45.3069L14.1071 47.332L13.54 46.4117" stroke="black" stroke-width="0.293061" stroke-miterlimit="10"/>
<path d="M16.8095 48.312L16.0459 49.1746L16.8095 50.1825L17.5157 49.5081L16.8095 48.312Z" fill="black" stroke="black" stroke-width="0.293061" stroke-miterlimit="10"/>
<path d="M57.2284 46.7377C57.2034 46.8486 57.1725 46.9581 57.1357 47.0656C55.8383 41.6814 54.0534 47.768 54.0534 47.768L52.2871 44.7498C53.0012 42.9845 53.5509 41.1565 53.9293 39.2892C54.3741 39.183 56.3035 38.9483 55.8939 42.9278C55.8939 42.9184 57.6917 44.8281 57.2284 46.7377Z" fill="#ECD844" stroke="black" stroke-width="0.293061" stroke-miterlimit="10"/>
<path d="M56.288 48.312L55.4688 46.7657" stroke="black" stroke-width="0.293061" stroke-miterlimit="10"/>
<path d="M50.8722 47.7606L52.2864 48.312L51.356 49.169L50.0215 49.2473L50.8722 47.7606Z" fill="black" stroke="black" stroke-width="0.293061" stroke-miterlimit="10"/>
<path d="M47.5527 52.6958L48.9947 52.6306" stroke="black" stroke-width="0.293061" stroke-miterlimit="10"/>
<path d="M46.8691 53.6199H48.3945" stroke="black" stroke-width="0.293061" stroke-miterlimit="10"/>
<path d="M45.8496 54.6613H47.6864" stroke="black" stroke-width="0.293061" stroke-miterlimit="10"/>
<path d="M22.8411 55.9468L20.5576 55.6394" stroke="black" stroke-width="0.293061" stroke-miterlimit="10"/>
<path d="M21.0867 54.1937L19.0664 53.9347" stroke="black" stroke-width="0.293061" stroke-miterlimit="10"/>
<path d="M19.8887 52.8169L18.0186 52.6865" stroke="black" stroke-width="0.293061" stroke-miterlimit="10"/>
<path d="M54.6409 11.6414V34.8756C54.5443 36.2061 54.3635 37.5291 54.0997 38.8365C53.0445 43.9944 50.7003 48.7975 47.2882 52.7932C43.876 56.7889 39.5082 59.8457 34.596 61.6757C34.3828 61.754 34.1678 61.8285 33.9528 61.9049C33.7378 61.8285 33.5228 61.754 33.3116 61.6757C27.7616 59.6172 22.9193 55.9947 19.3644 51.2417C15.8094 46.4887 13.6923 40.8067 13.2666 34.8756V11.6414H54.6409Z" fill="white"/>
<path d="M54.9112 11.3154V34.8495C54.5062 40.4195 52.6297 45.7799 49.4755 50.3774C46.3212 54.9749 42.0036 58.6431 36.9681 61.0032V61.0032C36.1933 61.3646 35.4025 61.6962 34.5957 61.998C34.3807 62.0782 34.1638 62.1527 33.9451 62.2309C33.7264 62.1527 33.5114 62.0782 33.2946 61.998C32.3876 61.659 31.5004 61.2808 30.633 60.8634C25.6725 58.4741 21.4281 54.8097 18.3295 50.2411C15.231 45.6726 13.3884 40.3622 12.9883 34.8477V11.3154H54.9112Z" stroke="black" stroke-width="0.317102" stroke-miterlimit="10"/>
<path d="M31.1282 38.7601C31.397 40.1686 31.4451 41.4001 31.2709 42.1974C30.6871 44.8802 29.2914 45.9347 30.5518 48.7629C30.5889 48.8486 30.6278 48.9343 30.6704 49.02C30.6704 49.02 31.2709 50.231 30.2404 52.9939C30.2404 52.9939 29.7808 53.9254 30.815 56.6082C30.9052 57.4403 30.9275 58.2783 30.8817 59.114C26.2819 56.8982 22.3461 53.5 19.4728 49.2636C16.5996 45.0272 14.8908 40.1029 14.5195 34.9893V16.6661C16.3415 17.4765 19.1698 19.1514 18.6379 21.5697C18.2802 23.1998 18.6212 24.3903 19.5646 25.4374C20.6118 26.6092 22.4096 27.6041 24.808 28.8374L25.086 28.979C25.3284 29.1021 25.563 29.2403 25.7884 29.3926C26.7322 30.0416 27.5543 30.8533 28.2165 31.7904C28.2212 31.7963 28.2255 31.8025 28.2294 31.809C28.4778 32.1518 28.7113 32.5095 28.9319 32.8747C28.9504 32.9064 28.9689 32.938 28.9856 32.9697C29.171 33.292 29.3563 33.6255 29.5231 33.9627C29.5528 34.0279 29.5861 34.095 29.6195 34.1621C30.3139 35.6246 30.8215 37.1695 31.1301 38.7601H31.1282Z" fill="#090B0E" stroke="black" stroke-width="0.786458" stroke-miterlimit="10"/>
<path d="M36.1467 27.3396L35.726 27.85L35.131 28.5804L33.8651 30.1286L33.5278 30.5384C33.5278 30.5384 33.1942 29.9497 32.6493 29.1095L32.5529 28.9641C32.4714 28.8412 32.3861 28.7126 32.2953 28.5804C32.1618 28.381 32.0173 28.1723 31.8671 27.96C31.717 27.7476 31.5836 27.5613 31.4297 27.3601C31.1795 27.0266 30.9145 26.6893 30.6402 26.3577C29.5948 25.102 28.3975 23.9562 27.2854 23.5929C26.9009 23.4673 26.5363 23.2865 26.203 23.0564C24.4052 21.7988 24.294 19.4961 24.294 19.4961C24.1086 16.2078 21.2636 13.6908 19.7734 12.7537H48.2219C47.7103 13.0741 47.1524 13.9516 45.9978 14.5851C43.4345 15.9972 43.8014 17.5939 43.4345 20.1742C43.3615 20.7449 43.1658 21.2928 42.8612 21.7798C42.5565 22.2669 42.15 22.6815 41.67 22.9949C40.9064 23.5315 40.0297 23.8761 39.2846 24.2227C38.243 24.7033 37.3867 25.6889 36.9215 26.3093C36.6768 26.6353 36.5378 26.8682 36.5378 26.8682L36.1467 27.3396Z" fill="#090B0F" stroke="black" stroke-width="0.786458" stroke-miterlimit="10"/>
<path d="M53.3852 16.7332V34.9911C53.011 40.1554 51.2724 45.1257 48.3488 49.3889C45.4252 53.6522 41.4226 57.0538 36.7543 59.2426C36.7802 59.1271 36.8117 58.9873 36.8451 58.8234C37.1509 57.3516 36.4188 55.142 36.4188 55.142C36.2334 51.645 38.0665 51.645 36.7228 49.1299C36.4404 48.6162 36.2107 48.075 36.037 47.5146C35.6163 46.1341 35.9295 45.51 35.9295 45.51C36.8747 43.8112 37.1775 41.8262 36.7821 39.9208L36.8395 38.9706L37.0397 35.6898L37.0879 34.8905C37.0879 34.8905 37.3956 34.5589 37.9052 34.0298L38.1351 33.7895C38.376 33.5398 38.6466 33.2604 38.9487 32.9548L39.034 32.871C39.3398 32.5617 39.6697 32.2319 40.0182 31.891C40.6205 31.3004 41.2767 30.6744 41.9402 30.0708C42.3998 29.6497 42.8669 29.2399 43.321 28.8579C44.0335 28.2416 44.7919 27.6811 45.5896 27.1812C45.6656 27.1346 45.7397 27.0936 45.812 27.0526C48.8016 25.3964 49.2909 24.7201 49.2909 21.2865C49.2909 17.8529 53.3852 16.7332 53.3852 16.7332Z" fill="#090B0F" stroke="black" stroke-width="0.786458" stroke-miterlimit="10"/>
<path d="M24.5503 19.8724C25.9544 20.8272 27.1444 22.0666 28.044 23.5109C29.4119 25.7913 29.9104 25.456 29.9104 25.456C29.9104 25.456 26.6465 19.4756 27.2285 19.0489C27.8105 18.6223 30.0754 24.3419 30.4535 24.0326C30.8316 23.7233 30.5721 22.9408 30.5721 22.9408L30.6592 19.6656C30.6592 19.6656 29.7677 17.4579 29.9345 17.4821C30.1013 17.5063 31.6805 19.3563 31.6805 19.3563L32.0512 22.8216C32.0512 22.8216 32.4052 23.8183 32.5942 23.4159C32.7833 23.0135 33.3504 17.2213 33.3504 17.2213L34.4124 23.2967L34.7201 23.5109C34.7201 23.5109 35.404 23.2669 35.2632 21.3479L36.2788 19.6898L36.5383 17.3684L37.1759 20.3307L36.2788 21.7299L36.1361 23.3917L36.4679 23.701L40.197 17.8137L38.5289 23.8891L39.072 24.4592C39.3469 23.9042 39.5685 23.324 39.7337 22.7266C40.0395 21.6591 41.4796 20.8524 41.4796 20.8524L42.4712 19.0713L42.3767 21.1374L41.4166 23.2632L41.4351 24.5356C41.4351 24.5356 44.4414 22.3801 45.1661 21.1206C45.8908 19.8612 43.4035 24.8151 42.8993 25.1244C42.3952 25.4336 48.4597 23.2482 48.4597 23.2482L44.3172 26.2441C44.3172 26.2441 45.1198 27.9506 45.7036 27.9208C46.2874 27.891 49.3512 26.9688 49.3512 26.9688C49.3512 26.9688 48.4967 28.8747 45.37 29.4876C45.37 29.4876 44.5063 30.1323 45.4256 30.6632C46.3449 31.1942 49.9646 30.0764 49.9646 30.0764L47.8035 31.7084L45.1587 31.8481C45.1587 31.8481 44.7676 32.6045 45.1309 32.7443C45.4942 32.884 49.7256 33.4709 50.2816 34.367C50.8376 35.2631 45.9093 33.7801 45.2421 34.367C44.5748 34.9539 44.6008 35.2352 44.8807 35.4308C45.1605 35.6264 45.9649 34.8719 47.3587 36.2151C48.5091 36.1841 49.6333 36.5636 50.5318 37.2864C51.9515 38.4825 45.5275 36.9697 45.5275 36.9697C45.5275 36.9697 44.9993 37.1933 45.3885 37.6143C45.7777 38.0354 49.6755 40.0493 49.6755 40.0493C49.6755 40.0493 45.0085 38.5589 44.3358 39.5724C43.663 40.5859 47.6163 43.2985 47.6163 43.2985C47.6163 43.2985 43.1811 40.6511 42.4582 40.7945C41.7354 40.938 45.2977 45.6106 45.2977 45.6106C45.2977 45.6106 40.5084 40.5803 40.008 41.1895C39.5075 41.7987 40.9532 43.7643 40.9532 43.7643L41.0644 44.856L43.0699 47.2072C43.0699 47.2072 37.9766 42.0838 37.6411 42.2254C37.3057 42.367 40.5362 49.7261 40.5362 49.7261C40.5362 49.7261 39.5798 48.4536 38.5827 47.2202C37.5855 45.9869 36.5439 44.7983 36.3882 44.9399C36.0657 45.2361 38.5586 49.7261 38.5586 49.7261L35.9137 47.6767L34.1882 52.3567L34.0214 47.85L28.9263 49.7261L29.9549 45.6106L26.3351 49.5938C26.3351 49.5938 29.2877 42.8756 29.1153 42.7917C28.9429 42.7079 24.2964 47.6059 24.2964 47.6059C24.2964 47.6059 27.7493 42.3446 27.3026 41.8304C26.856 41.3162 21.7701 45.3087 21.7701 45.3087L25.4177 40.5784L18.56 43.4624L22.0815 39.3637C22.0815 39.3637 19.5145 39.1998 17.3701 39.8723C15.2256 40.5449 21.379 37.2771 21.379 37.2771C21.379 37.2771 18.2894 36.3456 16.6194 36.625C14.9495 36.9045 21.6867 35.0302 21.6867 35.0302C21.6867 35.0302 16.8678 33.1541 16.3525 33.1541C15.8373 33.1541 21.6033 32.5393 21.6033 32.5393C20.0223 31.2236 18.2372 30.1776 16.3192 29.4429C13.1868 28.258 21.3234 30.0969 21.3234 30.0969C21.3234 30.0969 21.6941 29.1653 17.8279 26.3707C13.9616 23.5761 23.9664 27.7196 23.9664 27.7196L21.203 22.6502L26.691 25.2585L24.5503 19.8724Z" fill="#EDD250"/>
<path d="M54.1161 12.1314V16.7331C54.1161 16.7331 49.2972 17.8379 49.2972 21.2753C49.2972 24.7126 48.8079 25.3852 45.8183 27.0414C45.746 27.0824 45.6718 27.1234 45.5958 27.17C44.7982 27.6699 44.0397 28.2304 43.3272 28.8468C42.8713 29.2194 42.4005 29.6385 41.9464 30.0596C41.2829 30.6632 40.6268 31.2892 40.0244 31.8798C39.676 32.2208 39.346 32.5505 39.0402 32.8598L38.955 32.9436C38.6529 33.2492 38.3823 33.5286 38.1413 33.7783L37.9115 34.0186C37.4018 34.5477 37.0941 34.8793 37.0941 34.8793L37.0459 35.6786L36.8402 38.9743L36.7827 39.9245C37.1782 41.83 36.8754 43.8149 35.9302 45.5137C35.9302 45.5137 35.6169 46.1378 36.0377 47.5183C36.2114 48.0787 36.4411 48.6199 36.7234 49.1336C38.0672 51.6487 36.236 51.6487 36.4195 55.1457C36.4195 55.1457 37.1516 57.3553 36.8458 58.8271C36.8124 58.9911 36.7902 59.6543 36.7642 59.7698L36.7401 60.1983C36.0228 60.5337 35.2907 60.8429 34.5419 61.1205C34.3418 61.1951 34.1416 61.264 33.9377 61.3366C33.7357 61.264 33.5355 61.1951 33.3353 61.1205C32.4939 60.8057 31.6672 60.4573 30.8666 60.0679C30.9537 58.8774 30.8147 56.6138 30.8147 56.6138C29.7804 53.9328 30.2401 52.9995 30.2401 52.9995C31.2706 50.2365 30.6701 49.0256 30.6701 49.0256C30.6275 48.9398 30.5885 48.8541 30.5515 48.7684C29.2911 45.9403 30.6868 44.8858 31.2706 42.203C31.4448 41.4056 31.3966 40.1742 31.1279 38.7657C30.8193 37.1751 30.3118 35.6301 29.6173 34.1676C29.584 34.1006 29.5506 34.0335 29.521 33.9683C29.3542 33.6311 29.1744 33.2976 28.9835 32.9753C28.9668 32.9436 28.9483 32.9119 28.9297 32.8803C28.7092 32.5077 28.4756 32.1574 28.2273 31.8146C28.2234 31.8081 28.219 31.8019 28.2143 31.796C27.5521 30.8589 26.7301 30.0471 25.7863 29.3982C25.5609 29.2458 25.3263 29.1077 25.0838 28.9846L24.8058 28.843C22.4075 27.6097 20.6096 26.6074 19.5624 25.4429C18.6209 24.3959 18.2798 23.2073 18.6357 21.5752C19.1676 19.1533 15.6999 17.4765 13.8779 16.6717V12.3195L19.1639 12.3922C20.6467 13.3237 24.1089 16.2078 24.2924 19.4961C24.2924 19.4961 24.4036 21.7988 26.2015 23.0564C26.5348 23.2865 26.8993 23.4672 27.2839 23.5929C28.3959 23.9562 29.5932 25.102 30.6386 26.3577C30.9129 26.6893 31.1779 27.0265 31.4282 27.36C31.582 27.5612 31.7266 27.7625 31.8656 27.9599C32.0046 28.1574 32.1603 28.381 32.2937 28.5803C32.3845 28.7126 32.4698 28.8412 32.5513 28.9641L32.6477 29.1094C33.1926 29.9497 33.5262 30.5384 33.5262 30.5384L33.8636 30.1285L35.1295 28.5803L35.7244 27.85L36.1452 27.3395L36.5381 26.857C36.5381 26.857 36.6771 26.6316 36.9217 26.2981C37.387 25.6777 38.2433 24.6921 39.2849 24.2115C40.0263 23.8649 40.9066 23.5203 41.6703 22.9837C42.1503 22.6703 42.5568 22.2557 42.8614 21.7686C43.1661 21.2816 43.3618 20.7337 43.4347 20.163C43.8054 17.5864 43.4347 15.9898 45.998 14.5738C47.1509 13.9404 48.0368 12.4872 48.5558 12.1668L54.1161 12.1314Z" fill="#0075B3" stroke="white" stroke-width="0.635348" stroke-miterlimit="10"/>
<path d="M54.0088 40.4052C54.0088 40.4052 54.3331 42.3129 54.6408 43.047C54.9485 43.781 55.827 44.8448 55.827 44.8448C55.827 44.8448 56.6036 44.6828 57.1355 47.0656C57.1355 47.0656 57.7768 45.4298 55.8937 42.9184C55.8937 42.9184 56.7241 39.4792 54.4258 39.2352L54.0088 40.4052Z" fill="#090B0F"/>
<path d="M12.7711 50.339V51.3097C12.7711 51.3097 12.2243 50.611 11.9519 51.3097C11.6794 52.0083 11.9519 55.0209 11.9519 55.0209L11.0938 55.9971V51.0973C11.0938 51.0973 11.622 49.7316 12.7711 50.339Z" fill="#03070E"/>
<path d="M12.7715 50.3372L13.2664 57.3888" stroke="black" stroke-width="0.131649" stroke-miterlimit="10"/>
<path d="M13.5576 40.3456L13.1221 41.8006L13.8801 41.9534L13.4019 44.4201L14.5029 43.1495L13.5576 40.3456Z" fill="black" stroke="black" stroke-width="0.131649" stroke-miterlimit="10"/>
<path d="M47.6643 30.0149V43.6152H37.0997L35.9876 42.1248C33.7635 44.3605 31.354 42.1248 31.354 42.1248L30.0566 43.6152H20.2334V31.319C20.9651 31.2246 21.6831 31.0432 22.3723 30.7787V41.9403L30.9852 41.3814C30.9852 41.3814 33.7654 43.2445 35.9895 41.5677L45.2567 41.9403V30.0764C45.6274 30.1677 45.6274 30.0149 45.6274 30.0149H47.6643Z" fill="#DABB7F" stroke="black" stroke-width="0.345721" stroke-miterlimit="10"/>
<path d="M45.2536 30.0764V41.9422L35.9864 41.5696C33.7622 43.2464 30.9821 41.3833 30.9821 41.3833L22.3691 41.9422V30.7769C23.6832 30.2702 24.3115 29.6404 24.3115 29.6404C24.3616 29.6013 24.4116 29.5566 24.4561 29.5212V38.8607C26.3896 39.1274 28.3527 38.6627 29.9645 37.5566C31.1174 36.7853 32.0126 36.7797 32.6669 37.0331C33.2535 37.2884 33.7383 37.7337 34.044 38.2981C34.044 38.2981 35.5267 35.6898 38.8629 37.9255C42.1991 40.1611 43.4965 39.6022 43.4965 39.6022V29.2268C44.0123 29.5616 44.5637 29.8372 45.1405 30.0484C45.1868 30.0596 45.2202 30.0708 45.2536 30.0764Z" fill="#F44B49" stroke="black" stroke-width="0.345721" stroke-miterlimit="10"/>
<path d="M45.2527 30.0428V30.0764C45.2193 30.0764 45.186 30.0596 45.1396 30.0484L45.2527 30.0428Z" fill="#F44B49" stroke="black" stroke-width="0.345721" stroke-miterlimit="10"/>
<path d="M43.4956 29.2287V39.6115C43.4956 39.6115 42.1982 40.1704 38.862 37.9348C35.5258 35.6991 34.043 38.3074 34.043 38.3074C33.7374 37.7432 33.2535 37.2974 32.6678 37.0405C32.0116 36.7871 31.1146 36.7946 29.9636 37.564C28.3524 38.67 26.3899 39.1348 24.457 38.8682V29.5193C30.4826 24.4779 33.9503 27.4103 33.9503 27.4103C33.9503 27.4103 37.4719 25.1747 41.5495 27.9693C42.3427 28.5133 42.9803 28.9232 43.4956 29.2287Z" fill="white" stroke="black" stroke-width="0.345721" stroke-miterlimit="10"/>
<path d="M39.1421 35.7233H35.3166H32.3029H28.4756" stroke="#020202" stroke-width="0.212928" stroke-miterlimit="10"/>
<path d="M31.5039 34.2608V35.7233" stroke="#020202" stroke-width="0.212928" stroke-miterlimit="10"/>
<path d="M33.0635 32.6418V35.7494" stroke="#020202" stroke-width="0.212928" stroke-miterlimit="10"/>
<path d="M34.5693 30.8663V35.7494" stroke="#020202" stroke-width="0.212928" stroke-miterlimit="10"/>
<path d="M36.1279 28.2543V35.7494" stroke="#020202" stroke-width="0.212928" stroke-miterlimit="10"/>
<path d="M36.6182 29.5771L37.8136 28.7704L38.5698 29.8715" stroke="#020202" stroke-width="0.212928" stroke-miterlimit="10"/>
<path d="M30.0303 34.1006C31.0211 34.3419 32.055 34.3419 33.0458 34.1006C33.568 33.9738 34.0714 33.779 34.5434 33.5212C35.4142 33.0508 36.1627 32.3811 36.7285 31.5661C37.2942 30.7512 37.6612 29.8139 37.7999 28.83" stroke="#020202" stroke-width="0.212928" stroke-miterlimit="10"/>
<path d="M85.0147 36.3718C87.8166 36.3718 89.1813 34.92 89.1813 31.9728V28.2127C89.1813 27.0077 89.5878 26.3108 89.9653 26.064V26.0349H86.481V26.064C86.8004 26.3108 87.2214 27.0222 87.2214 28.2127V32.1325C87.2214 33.9908 86.5826 34.8474 85.1744 34.8474C83.5919 34.8474 82.9966 34.107 82.9966 32.1325V28.2127C82.9966 27.0077 83.4032 26.3108 83.7371 26.064V26.0349H80.2092V26.064C80.5721 26.3108 80.9931 27.0222 80.9931 28.2127V31.9728C80.9931 34.9345 82.4304 36.3718 85.0147 36.3718ZM91.3466 36.125H94.7003V36.096C94.3228 35.8492 93.9598 35.1523 93.9598 33.9473V31.4792C93.9598 30.4339 93.9308 29.4902 93.6985 28.111H93.7566C94.1921 29.4467 94.5696 30.3033 95.2665 31.4211L97.3135 34.7458C97.6039 35.2104 97.8797 35.733 98.0394 36.125H101.103V36.096C100.725 35.8492 100.319 35.1378 100.319 33.9473V28.2127C100.319 27.0222 100.725 26.3108 101.103 26.064V26.0349H97.749V26.064C98.1265 26.3108 98.4895 27.0077 98.4895 28.2127V30.8259C98.4895 31.6389 98.5185 32.6552 98.7218 33.8166H98.6637C98.2281 32.6987 97.7636 31.668 97.328 30.942L95.2374 27.4287C94.7583 26.6302 94.6712 26.3253 94.6422 26.0349H91.3466V26.064C91.8837 26.4269 92.1306 27.3561 92.1306 28.1401V33.9473C92.1306 35.1378 91.7095 35.8492 91.3466 36.096V36.125ZM102.816 36.125H106.388V36.096C106.01 35.8492 105.604 35.1523 105.604 33.9473V28.2127C105.604 27.0222 106.025 26.3108 106.388 26.064V26.0349H102.816V26.064C103.194 26.3108 103.6 27.0077 103.6 28.2127V33.9473C103.6 35.1378 103.179 35.8492 102.816 36.096V36.125ZM110.515 36.125H114.217V36.096C113.941 35.8201 113.738 35.1087 114.086 34.0925L116.264 27.8787C116.554 27.0367 116.975 26.3689 117.483 26.064V26.0349H114.377V26.064C114.609 26.3398 114.638 26.906 114.449 27.4867L113.23 31.1308C112.997 31.8131 112.663 33.0472 112.475 34.1215H112.417C112.271 33.0617 111.894 31.8277 111.662 31.1453L110.384 27.4577C110.195 26.906 110.297 26.3398 110.529 26.064V26.0349H107.132V26.064C107.727 26.4995 108.192 27.2835 108.453 28.0094L110.645 34.0925C111.008 35.0942 110.791 35.8201 110.515 36.096V36.125ZM125.473 33.3375C124.849 34.2231 123.832 34.7022 122.555 34.7022H120.972V31.4357H122.308C123.121 31.4357 123.644 31.697 123.89 32.3503H123.919L124.34 29.9113C123.687 29.9984 123.281 30.0129 122.076 30.0129H120.972V27.4577H122.889C124.021 27.4577 124.82 27.8207 125.168 28.532L125.197 28.5175L124.95 25.9188C124.631 25.9914 123.992 26.0349 123.411 26.0349H118.199V26.064C118.577 26.3108 118.983 27.0077 118.983 28.2127V33.9473C118.983 35.1378 118.562 35.8492 118.199 36.096V36.125H123.324C124.181 36.125 124.558 36.154 125.095 36.2411L125.502 33.352L125.473 33.3375ZM134.076 34.1651L132.726 31.9728C133.946 31.5808 134.701 30.6372 134.701 29.0983C134.701 27.2109 133.351 26.0349 131.028 26.0349H126.905V26.064C127.282 26.3108 127.688 27.0077 127.688 28.1546V33.9473C127.688 35.1378 127.282 35.8492 126.905 36.096V36.125H130.403V36.096C130.084 35.8492 129.677 35.1523 129.677 34.0054V27.4722L130.694 27.4577C131.942 27.4432 132.639 28.111 132.639 29.1708C132.639 30.463 131.942 30.9711 130.694 30.9711H129.997L132.247 34.8184C132.567 35.3555 132.799 35.8637 132.988 36.4299L135.964 35.8927V35.8637C135.267 35.6314 134.628 35.0507 134.076 34.1651ZM139.409 36.3428C141.761 36.3137 142.952 34.9926 142.952 33.3811C142.952 31.2034 141.413 30.5646 140.121 30.0274C139.177 29.6354 138.364 29.3015 138.364 28.4595C138.364 27.719 138.93 27.3416 140.033 27.3416C140.876 27.3416 141.703 27.5739 142.327 28.532H142.356L142.168 26.1511C141.326 25.9333 140.643 25.8462 139.888 25.8462C137.638 25.8462 136.404 27.1673 136.404 28.6046C136.404 30.6227 137.812 31.2179 139.075 31.7405C140.063 32.147 140.948 32.5245 140.948 33.5263C140.948 34.3102 140.44 34.8039 139.264 34.8329C138.074 34.8619 137.13 34.4409 136.259 33.3085L136.23 33.323L136.477 35.762C137.13 36.154 138.233 36.3573 139.409 36.3428ZM144.343 36.125H147.915V36.096C147.537 35.8492 147.131 35.1523 147.131 33.9473V28.2127C147.131 27.0222 147.552 26.3108 147.915 26.064V26.0349H144.343V26.064C144.721 26.3108 145.127 27.0077 145.127 28.2127V33.9473C145.127 35.1378 144.706 35.8492 144.343 36.096V36.125ZM156.832 25.9188C156.165 26.0059 155.555 26.0349 154.844 26.0349H151.301C150.59 26.0349 149.98 26.0059 149.312 25.9188L149.065 28.5756L149.094 28.5901C149.428 28.0094 150.111 27.5158 150.982 27.5158H152.085V33.8311C152.085 35.0652 151.621 35.8492 151.199 36.096V36.125H154.96V36.096C154.481 35.8492 154.074 35.0797 154.074 33.8311V27.5158H155.163C156.034 27.5158 156.716 28.0094 157.05 28.5901L157.079 28.5756L156.832 25.9188ZM164.145 26.0349V26.064C164.29 26.456 164.101 27.0657 163.825 27.5448L162.722 29.4757C162.577 29.737 162.402 29.9984 162.257 30.4194H162.199C162.054 30.0129 161.909 29.737 161.749 29.4757L160.631 27.5448C160.355 27.0657 160.167 26.456 160.297 26.064V26.0349H157.205V26.064C157.568 26.3398 158.018 26.9496 158.381 27.5448L161.168 32.147V33.8311C161.168 35.0652 160.704 35.8492 160.283 36.096V36.125H164.043V36.096C163.564 35.8492 163.157 35.0797 163.157 33.8311V32.0745L165.901 27.5448C166.279 26.9351 166.7 26.3398 167.063 26.064V26.0349H164.145ZM176.218 36.4154C179.455 36.4154 181.618 34.2086 181.618 30.9711C181.618 27.8497 179.542 25.7446 176.435 25.7446C173.082 25.7446 171.049 27.9078 171.049 31.1743C171.049 34.1505 172.965 36.4154 176.218 36.4154ZM176.363 34.9055C174.287 34.9055 173.212 33.4101 173.212 31.0292C173.212 28.7643 174.374 27.2545 176.29 27.2545C178.265 27.2545 179.455 28.6627 179.455 31.1163C179.455 33.4392 178.148 34.9055 176.363 34.9055ZM189.87 25.9188C189.391 26.0059 188.869 26.0349 187.998 26.0349H183.134V26.064C183.541 26.2963 183.903 26.7899 183.903 28.2127V33.9473C183.903 35.1378 183.482 35.8492 183.12 36.096V36.125H186.676V36.096C186.299 35.8492 185.892 35.1523 185.892 33.9473V31.6389H187.272C187.998 31.6389 188.665 32.0599 188.854 32.6842H188.883L189.348 30.071C188.912 30.1581 188.215 30.1871 187.17 30.1871H185.892V27.4867H187.518C188.651 27.4867 189.58 27.7916 190.103 28.6482L190.132 28.6337L189.87 25.9188ZM195.114 36.125H198.685V36.096C198.308 35.8492 197.901 35.1523 197.901 33.9473V28.2127C197.901 27.0222 198.322 26.3108 198.685 26.064V26.0349H195.114V26.064C195.491 26.3108 195.898 27.0077 195.898 28.2127V33.9473C195.898 35.1378 195.477 35.8492 195.114 36.096V36.125ZM205.992 30.7533V30.7098C206.834 30.5791 207.661 29.679 207.661 28.5756C207.661 26.848 206.558 26.0349 204.38 26.0349H200.373V26.064C200.838 26.3834 201.23 27.0948 201.23 28.2852V33.8602C201.23 35.1668 200.736 35.8201 200.373 36.096V36.125H204.787C206.761 36.125 208.184 35.0361 208.184 33.1488C208.184 31.9728 207.197 30.8985 205.992 30.7533ZM204.264 27.4577C205.121 27.4577 205.614 27.8497 205.614 28.6772C205.614 29.6064 205.106 30.071 204.264 30.071H203.219V27.4577H204.264ZM204.496 34.7022H203.219V31.4792H204.496C205.585 31.4792 206.108 32.118 206.108 33.0762C206.108 34.0344 205.585 34.7022 204.496 34.7022ZM217.386 33.744L215.252 27.7626C214.947 26.906 215.237 26.3108 215.513 26.064V26.0349H211.666V26.064C211.941 26.2963 212.217 26.906 211.927 27.7626L209.851 33.744C209.459 34.8619 208.835 35.7475 208.443 36.096V36.125H211.491V36.096C211.288 35.9072 211.143 35.312 211.52 34.3102L211.651 33.9618H215.397L215.527 34.3102C215.89 35.312 215.774 35.9072 215.527 36.096V36.125H218.808V36.096C218.402 35.762 217.778 34.8619 217.386 33.744ZM213.48 27.9658H213.538C213.684 29.0837 214.047 30.0564 214.38 31.0001L214.918 32.539H212.13L212.667 31.0001C213.001 30.0564 213.35 29.0837 213.48 27.9658ZM219.401 36.125H223.378C226.964 36.125 228.663 34.2522 228.663 31.0727C228.663 27.9078 226.66 26.0349 223.611 26.0349H219.401V26.064C219.778 26.3108 220.184 27.1383 220.184 28.2127V33.9473C220.184 35.1378 219.763 35.8492 219.401 36.096V36.125ZM222.173 34.6877V27.4722H223.451C225.527 27.4722 226.514 28.6192 226.514 31.0727C226.514 33.4101 225.469 34.6877 223.524 34.6877H222.173ZM237.674 33.744L235.54 27.7626C235.235 26.906 235.525 26.3108 235.801 26.064V26.0349H231.954V26.064C232.23 26.2963 232.506 26.906 232.215 27.7626L230.139 33.744C229.747 34.8619 229.123 35.7475 228.731 36.096V36.125H231.78V36.096C231.577 35.9072 231.431 35.312 231.809 34.3102L231.939 33.9618H235.685L235.816 34.3102C236.179 35.312 236.063 35.9072 235.816 36.096V36.125H239.097V36.096C238.69 35.762 238.066 34.8619 237.674 33.744ZM233.769 27.9658H233.827C233.972 29.0837 234.335 30.0564 234.669 31.0001L235.206 32.539H232.419L232.956 31.0001C233.29 30.0564 233.638 29.0837 233.769 27.9658ZM239.689 36.125H243.043V36.096C242.665 35.8492 242.302 35.1523 242.302 33.9473V31.4792C242.302 30.4339 242.273 29.4902 242.041 28.111H242.099C242.534 29.4467 242.912 30.3033 243.609 31.4211L245.656 34.7458C245.946 35.2104 246.222 35.733 246.382 36.125H249.445V36.096C249.068 35.8492 248.661 35.1378 248.661 33.9473V28.2127C248.661 27.0222 249.068 26.3108 249.445 26.064V26.0349H246.091V26.064C246.469 26.3108 246.832 27.0077 246.832 28.2127V30.8259C246.832 31.6389 246.861 32.6552 247.064 33.8166H247.006C246.571 32.6987 246.106 31.668 245.67 30.942L243.58 27.4287C243.101 26.6302 243.014 26.3253 242.985 26.0349H239.689V26.064C240.226 26.4269 240.473 27.3561 240.473 28.1401V33.9473C240.473 35.1378 240.052 35.8492 239.689 36.096V36.125Z" fill="white"/>
<path d="M87.8166 51.3375C87.1924 52.2231 86.1761 52.7022 84.8985 52.7022H83.316V49.4357H84.6517C85.4647 49.4357 85.9874 49.697 86.2342 50.3503H86.2632L86.6842 47.9113C86.0309 47.9984 85.6244 48.0129 84.4194 48.0129H83.316V45.4577H85.2324C86.3648 45.4577 87.1633 45.8207 87.5118 46.532L87.5408 46.5175L87.294 43.9188C86.9746 43.9914 86.3358 44.0349 85.7551 44.0349H80.5431V44.064C80.9206 44.3108 81.3271 45.0077 81.3271 46.2127V51.9473C81.3271 53.1378 80.906 53.8492 80.5431 54.096V54.125H85.668C86.5245 54.125 86.902 54.154 87.4392 54.2411L87.8457 51.352L87.8166 51.3375ZM93.914 54.3428C95.1335 54.3428 96.2659 54.0524 97.0064 53.7911L97.3548 51.1923L97.3258 51.1778C96.5708 52.1651 95.6271 52.8039 94.0592 52.8039C92.0412 52.8039 90.9668 51.2214 90.9668 49.0001C90.9668 46.7643 92.2009 45.3561 94.2479 45.3561C95.3658 45.3561 96.4256 45.7916 97.0209 46.7208L97.0499 46.7063L96.8176 44.1946C95.9756 43.9478 95.1916 43.8317 94.2624 43.8317C90.9523 43.8317 88.8036 45.8787 88.8036 49.1453C88.8036 52.1215 90.7781 54.3428 93.914 54.3428ZM103.358 54.4154C106.595 54.4154 108.759 52.2086 108.759 48.9711C108.759 45.8497 106.682 43.7446 103.576 43.7446C100.222 43.7446 98.1894 45.9078 98.1894 49.1743C98.1894 52.1505 100.106 54.4154 103.358 54.4154ZM103.503 52.9055C101.427 52.9055 100.353 51.4101 100.353 49.0292C100.353 46.7643 101.514 45.2545 103.43 45.2545C105.405 45.2545 106.595 46.6627 106.595 49.1163C106.595 51.4392 105.289 52.9055 103.503 52.9055ZM110.26 54.125H113.613V54.096C113.236 53.8492 112.873 53.1523 112.873 51.9473V49.4792C112.873 48.4339 112.844 47.4902 112.612 46.111H112.67C113.105 47.4467 113.483 48.3033 114.18 49.4211L116.227 52.7458C116.517 53.2104 116.793 53.733 116.953 54.125H120.016V54.096C119.638 53.8492 119.232 53.1378 119.232 51.9473V46.2127C119.232 45.0222 119.638 44.3108 120.016 44.064V44.0349H116.662V44.064C117.04 44.3108 117.403 45.0077 117.403 46.2127V48.8259C117.403 49.6389 117.432 50.6552 117.635 51.8166H117.577C117.141 50.6987 116.677 49.668 116.241 48.942L114.151 45.4287C113.672 44.6302 113.584 44.3253 113.555 44.0349H110.26V44.064C110.797 44.4269 111.044 45.3561 111.044 46.1401V51.9473C111.044 53.1378 110.623 53.8492 110.26 54.096V54.125ZM126.68 54.4154C129.918 54.4154 132.081 52.2086 132.081 48.9711C132.081 45.8497 130.005 43.7446 126.898 43.7446C123.544 43.7446 121.512 45.9078 121.512 49.1743C121.512 52.1505 123.428 54.4154 126.68 54.4154ZM126.825 52.9055C124.749 52.9055 123.675 51.4101 123.675 49.0292C123.675 46.7643 124.836 45.2545 126.753 45.2545C128.727 45.2545 129.918 46.6627 129.918 49.1163C129.918 51.4392 128.611 52.9055 126.825 52.9055ZM133.134 54.125H136.328L136.342 54.096C136.067 53.8492 135.82 53.2104 135.863 52.2957L136.023 49.2905C136.052 48.6662 136.052 47.8822 135.936 46.7934H135.994C136.27 47.8096 136.575 48.492 137.039 49.2469L138.767 52.0054C139.304 52.8619 139.449 53.4427 139.493 53.7475H139.609C139.638 53.4427 139.769 52.8619 140.291 51.9908L141.903 49.2614C142.382 48.4484 142.716 47.7661 143.021 46.7934H143.079C142.948 47.8532 142.934 48.6081 142.992 49.2905L143.224 52.2957C143.297 53.2104 143.021 53.8492 142.745 54.096L142.759 54.125H146.084L146.099 54.096C145.576 53.5733 145.3 52.6877 145.242 51.9908L144.792 46.3578C144.734 45.5593 144.981 44.4269 145.634 44.064L145.619 44.0349H142.266C142.44 44.2527 142.411 44.6737 142.048 45.3125L140.625 47.8242C140.146 48.6662 139.769 49.334 139.551 50.2196H139.493C139.362 49.3921 139.043 48.6081 138.593 47.8242L137.155 45.3561C136.778 44.7028 136.749 44.2527 136.923 44.0349H133.598L133.584 44.064C134.237 44.456 134.426 45.5593 134.368 46.3578L133.99 51.9908C133.918 53.0071 133.584 53.5878 133.119 54.096L133.134 54.125ZM147.42 54.125H150.991V54.096C150.614 53.8492 150.207 53.1523 150.207 51.9473V46.2127C150.207 45.0222 150.628 44.3108 150.991 44.064V44.0349H147.42V44.064C147.797 44.3108 148.204 45.0077 148.204 46.2127V51.9473C148.204 53.1378 147.783 53.8492 147.42 54.096V54.125ZM157.601 54.3428C158.82 54.3428 159.953 54.0524 160.693 53.7911L161.041 51.1923L161.012 51.1778C160.258 52.1651 159.314 52.8039 157.746 52.8039C155.728 52.8039 154.654 51.2214 154.654 49.0001C154.654 46.7643 155.888 45.3561 157.935 45.3561C159.053 45.3561 160.112 45.7916 160.708 46.7208L160.737 46.7063L160.504 44.1946C159.662 43.9478 158.878 43.8317 157.949 43.8317C154.639 43.8317 152.49 45.8787 152.49 49.1453C152.49 52.1215 154.465 54.3428 157.601 54.3428ZM165.27 54.3428C167.621 54.3137 168.812 52.9926 168.812 51.3811C168.812 49.2034 167.273 48.5646 165.981 48.0274C165.037 47.6354 164.224 47.3015 164.224 46.4595C164.224 45.719 164.79 45.3416 165.894 45.3416C166.736 45.3416 167.563 45.5739 168.188 46.532H168.217L168.028 44.1511C167.186 43.9333 166.504 43.8462 165.749 43.8462C163.498 43.8462 162.264 45.1673 162.264 46.6046C162.264 48.6227 163.673 49.2179 164.936 49.7405C165.923 50.147 166.808 50.5245 166.808 51.5263C166.808 52.3102 166.3 52.8039 165.124 52.8329C163.934 52.8619 162.99 52.4409 162.119 51.3085L162.09 51.323L162.337 53.762C162.99 54.154 164.094 54.3573 165.27 54.3428ZM181.629 51.744L179.495 45.7626C179.19 44.906 179.481 44.3108 179.756 44.064V44.0349H175.909V44.064C176.185 44.2963 176.461 44.906 176.17 45.7626L174.094 51.744C173.702 52.8619 173.078 53.7475 172.686 54.096V54.125H175.735V54.096C175.532 53.9072 175.386 53.312 175.764 52.3102L175.895 51.9618H179.64L179.771 52.3102C180.134 53.312 180.018 53.9072 179.771 54.096V54.125H183.052V54.096C182.646 53.762 182.021 52.8619 181.629 51.744ZM177.724 45.9658H177.782C177.927 47.0837 178.29 48.0564 178.624 49.0001L179.161 50.539H176.374L176.911 49.0001C177.245 48.0564 177.593 47.0837 177.724 45.9658ZM190.41 54.2411L190.787 51.3811L190.758 51.3666C190.134 52.2377 189.117 52.6732 187.854 52.6732H186.417V46.2127C186.417 45.0222 186.838 44.3108 187.201 44.064V44.0349H183.644V44.064C184.022 44.3108 184.428 45.0077 184.428 46.1546V51.9473C184.428 53.1378 184.007 53.8492 183.644 54.096V54.125H188.798C189.466 54.125 189.858 54.1395 190.41 54.2411ZM195.999 54.3718C198.801 54.3718 200.165 52.92 200.165 49.9728V46.2127C200.165 45.0077 200.572 44.3108 200.949 44.064V44.0349H197.465V44.064C197.784 44.3108 198.205 45.0222 198.205 46.2127V50.1325C198.205 51.9908 197.566 52.8474 196.158 52.8474C194.576 52.8474 193.981 52.107 193.981 50.1325V46.2127C193.981 45.0077 194.387 44.3108 194.721 44.064V44.0349H191.193V44.064C191.556 44.3108 191.977 45.0222 191.977 46.2127V49.9728C191.977 52.9345 193.414 54.3718 195.999 54.3718ZM201.868 54.125H205.062L205.076 54.096C204.801 53.8492 204.554 53.2104 204.597 52.2957L204.757 49.2905C204.786 48.6662 204.786 47.8822 204.67 46.7934H204.728C205.004 47.8096 205.309 48.492 205.773 49.2469L207.501 52.0054C208.038 52.8619 208.183 53.4427 208.227 53.7475H208.343C208.372 53.4427 208.503 52.8619 209.025 51.9908L210.637 49.2614C211.116 48.4484 211.45 47.7661 211.755 46.7934H211.813C211.682 47.8532 211.668 48.6081 211.726 49.2905L211.958 52.2957C212.031 53.2104 211.755 53.8492 211.479 54.096L211.493 54.125H214.818L214.833 54.096C214.31 53.5733 214.034 52.6877 213.976 51.9908L213.526 46.3578C213.468 45.5593 213.715 44.4269 214.368 44.064L214.353 44.0349H211C211.174 44.2527 211.145 44.6737 210.782 45.3125L209.359 47.8242C208.88 48.6662 208.503 49.334 208.285 50.2196H208.227C208.096 49.3921 207.777 48.6081 207.327 47.8242L205.889 45.3561C205.512 44.7028 205.483 44.2527 205.657 44.0349H202.332L202.318 44.064C202.971 44.456 203.16 45.5593 203.102 46.3578L202.724 51.9908C202.652 53.0071 202.318 53.5878 201.853 54.096L201.868 54.125ZM216.154 54.125H219.507V54.096C219.13 53.8492 218.767 53.1523 218.767 51.9473V49.4792C218.767 48.4339 218.738 47.4902 218.506 46.111H218.564C218.999 47.4467 219.377 48.3033 220.074 49.4211L222.121 52.7458C222.411 53.2104 222.687 53.733 222.847 54.125H225.91V54.096C225.532 53.8492 225.126 53.1378 225.126 51.9473V46.2127C225.126 45.0222 225.532 44.3108 225.91 44.064V44.0349H222.556V44.064C222.934 44.3108 223.297 45.0077 223.297 46.2127V48.8259C223.297 49.6389 223.326 50.6552 223.529 51.8166H223.471C223.035 50.6987 222.571 49.668 222.135 48.942L220.045 45.4287C219.566 44.6302 219.478 44.3253 219.449 44.0349H216.154V44.064C216.691 44.4269 216.938 45.3561 216.938 46.1401V51.9473C216.938 53.1378 216.517 53.8492 216.154 54.096V54.125ZM227.624 54.125H231.195V54.096C230.818 53.8492 230.411 53.1523 230.411 51.9473V46.2127C230.411 45.0222 230.832 44.3108 231.195 44.064V44.0349H227.624V44.064C228.001 44.3108 228.408 45.0077 228.408 46.2127V51.9473C228.408 53.1378 227.987 53.8492 227.624 54.096V54.125Z" fill="white"/>
<rect x="0.5" y="0.5" width="270" height="79.25" rx="7.5" stroke="url(#paint1_linear_264_88)"/>
</g>
<defs>
<filter id="filter0_b_264_88" x="-30" y="-30" width="331" height="140.25" filterUnits="userSpaceOnUse" color-interpolation-filters="sRGB">
<feFlood flood-opacity="0" result="BackgroundImageFix"/>
<feGaussianBlur in="BackgroundImage" stdDeviation="15"/>
<feComposite in2="SourceAlpha" operator="in" result="effect1_backgroundBlur_264_88"/>
<feBlend mode="normal" in="SourceGraphic" in2="effect1_backgroundBlur_264_88" result="shape"/>
</filter>
<linearGradient id="paint0_linear_264_88" x1="-95.5249" y1="-37" x2="276.022" y2="88.2055" gradientUnits="userSpaceOnUse">
<stop stop-color="#0075B3"/>
<stop offset="1" stop-color="white" stop-opacity="0"/>
</linearGradient>
<linearGradient id="paint1_linear_264_88" x1="319.801" y1="88" x2="135.527" y2="79.646" gradientUnits="userSpaceOnUse">
<stop stop-color="#33B8FF"/>
<stop offset="1" stop-color="white" stop-opacity="0.33"/>
</linearGradient>
</defs>
</svg>
