<svg width="271" height="81" viewBox="0 0 271 81" fill="none" xmlns="http://www.w3.org/2000/svg">
<g filter="url(#filter0_b_371_86264)">
<rect width="271" height="80.25" fill="url(#paint0_linear_371_86264)"/>
<path d="M22.8396 55.9468L22.4244 57.5435C17.7 53.0721 16.6677 49.6627 13.5576 49.9701C13.6225 49.9534 14.184 49.7447 12.2083 48.6287C10.1232 47.4494 11.1759 45.8137 11.1759 45.8137C12.8051 42.2385 12.3566 42.2925 12.4047 40.7294C12.3981 40.3866 12.4896 40.0491 12.6683 39.7571C12.8471 39.4651 13.1056 39.2309 13.413 39.0824C14.6871 45.57 17.9898 51.4788 22.8396 55.9468Z" fill="#ECD844" stroke="black" stroke-width="0.293061" stroke-miterlimit="10"/>
<path d="M57.2276 46.7378C57.2026 46.8487 57.1717 46.9581 57.1349 47.0657C56.7695 48.1144 56.0789 49.0175 55.1647 49.6423C54.6735 49.2697 53.9711 49.0833 52.9702 49.2119C50.4662 49.5528 48.5998 53.7559 45.7066 57.3889L45.4082 55.1159C49.7444 50.8001 52.7112 45.2895 53.934 39.2799C54.3789 39.1737 56.3083 38.939 55.8987 42.9185C55.8931 42.9185 57.6909 44.8281 57.2276 46.7378Z" fill="#ECD844" stroke="black" stroke-width="0.293061" stroke-miterlimit="10"/>
<path d="M56.2656 53.0405C56.1377 54.0286 55.9583 55.0093 55.7281 55.9785C55.6873 56.1388 55.6428 56.2878 55.5983 56.4182C55.413 56.9324 55.2277 57.1988 55.0293 56.8709C54.3287 55.7009 51.2483 59.2519 50.8739 59.6804C49.0205 61.8081 47.6193 63.8742 45.2432 65.5062C39.9572 69.1373 32.8529 70.4638 26.7792 68.1611C22.5645 66.5644 19.5082 63.3171 16.3277 60.2543C15.5993 59.5537 14.8653 58.8644 14.1035 58.2049C14.009 58.1229 11.0936 55.8891 11.0898 56.2897V50.7657C12.0592 50.2962 12.8562 50.041 13.5531 49.972C16.6631 49.6646 17.6955 53.0647 22.4199 57.5435C28.2045 63.0246 33.3812 64.7405 40.0999 61.972C42.4037 61.0237 44.1923 59.2855 45.701 57.3889C48.5942 53.7559 50.4606 49.5528 52.9646 49.2119L53.0851 49.197C53.317 49.1706 53.5507 49.1631 53.7838 49.1746C54.2783 49.1897 54.7571 49.3525 55.1591 49.6423C56.5455 50.6781 56.2656 53.0405 56.2656 53.0405Z" fill="#ECD844" stroke="black" stroke-width="0.293061" stroke-miterlimit="10"/>
<path d="M57.3025 59.9767C57.048 60.3069 56.7231 60.5755 56.3516 60.7628C55.9802 60.9501 55.5717 61.0514 55.1563 61.0591H55.0339H54.9987C53.0155 61.0908 50.8711 59.6804 50.8711 59.6804L50.9304 59.6134C51.353 59.1271 53.1156 57.1411 54.2295 56.7163C54.5798 56.5822 54.8653 56.6027 55.0265 56.8709C55.0747 56.9548 55.1247 56.9995 55.1748 57.0088C55.2637 57.0312 55.349 56.9529 55.4287 56.8039C55.8846 55.9841 56.2627 53.0405 56.2627 53.0405C56.1478 56.3567 59.3228 57.3628 57.3025 59.9767Z" fill="#ECD844" stroke="black" stroke-width="0.293061" stroke-miterlimit="10"/>
<path d="M16.3276 60.2598L13.5586 59.7345L14.1146 58.2086C14.8653 58.8681 15.5992 59.5575 16.3276 60.2598Z" fill="black" stroke="black" stroke-width="0.293061" stroke-miterlimit="10"/>
<path d="M14.1077 58.2086C12.4989 57.2547 11.094 59.2389 11.094 59.2389C10.6714 58.562 10.4473 57.7791 10.4473 56.9799C10.4473 56.1808 10.6714 55.3979 11.094 54.721V56.3009C11.0959 55.8928 14.0132 58.1248 14.1077 58.2086Z" fill="black" stroke="black" stroke-width="0.293061" stroke-miterlimit="10"/>
<path d="M16.826 55.9193L17.1785 56.1327L17.1123 55.383C17.3329 55.4086 17.5377 55.3194 17.6597 55.1159C17.8394 54.8159 17.7161 54.4726 17.3892 54.2746L16.7759 53.9034L15.9029 55.3604L16.1935 55.5363L16.4708 55.0735L16.7699 55.2546L16.826 55.9193ZM16.9047 54.3493L17.2167 54.5381C17.377 54.6352 17.4568 54.8032 17.3734 54.9425C17.2899 55.0818 17.1048 55.0894 16.9445 54.9924L16.6326 54.8035L16.9047 54.3493Z" fill="black"/>
<path d="M20.2544 56.7827L20.4615 56.5461L19.5269 55.7194L18.4091 56.9962L19.3437 57.8229L19.5509 57.5863L18.8705 56.9845L19.1105 56.7104L19.7161 57.2461L19.9232 57.0095L19.3176 56.4738L19.574 56.1809L20.2544 56.7827Z" fill="black"/>
<path d="M21.0768 59.0847C20.8638 58.8598 20.8701 58.5358 21.1119 58.3044C21.3537 58.0729 21.676 58.0826 21.889 58.3075C22.0607 58.4889 22.0746 58.7107 21.9371 58.9287L22.1776 59.1826C22.4366 58.8276 22.4153 58.402 22.1182 58.0882C21.7815 57.7327 21.2466 57.6983 20.8749 58.0541C20.5031 58.4098 20.511 58.9485 20.8476 59.304C21.1448 59.6178 21.5667 59.66 21.9321 59.4175L21.6917 59.1636C21.4683 59.2909 21.2486 59.266 21.0768 59.0847Z" fill="black"/>
<path d="M24.5112 60.6329L23.4533 59.5696L23.2305 59.7937L23.6391 60.2044L22.6591 61.1895L22.8997 61.4313L23.8797 60.4462L24.2883 60.8569L24.5112 60.6329Z" fill="black"/>
<path d="M25.9811 62.4153L26.1823 62.1733L25.2262 61.3697L24.14 62.6756L25.0961 63.4791L25.2974 63.2372L24.6014 62.6522L24.8346 62.3718L25.4541 62.8925L25.6554 62.6506L25.0358 62.1298L25.285 61.8303L25.9811 62.4153Z" fill="black"/>
<path d="M28.2703 63.6524C27.9331 63.4622 27.6067 63.519 27.4485 63.8025C27.3206 64.0315 27.3662 64.2522 27.6282 64.4746L27.842 64.6554C27.985 64.7734 27.9842 64.8618 27.9477 64.9273C27.8892 65.0319 27.7628 65.0381 27.5996 64.946C27.3951 64.8307 27.3116 64.6574 27.3742 64.489L27.0804 64.3233C26.9244 64.6541 27.0694 64.9939 27.4349 65.2001C27.783 65.3965 28.1159 65.3433 28.273 65.062C28.4093 64.8177 28.3061 64.6132 28.0496 64.3911L27.895 64.258C27.7694 64.1499 27.7167 64.0599 27.7764 63.9531C27.8445 63.8309 27.9865 63.8278 28.1496 63.9198C28.3367 64.0254 28.3763 64.1595 28.3191 64.308L28.6129 64.4737C28.7899 64.0745 28.5205 63.7935 28.2703 63.6524Z" fill="black"/>
<path d="M30.2818 66.4871L30.6263 66.5986L30.4459 64.7549L30.1441 64.6572L28.9248 66.0478L29.2717 66.1601L29.5085 65.8797L30.2523 66.1205L30.2818 66.4871ZM29.7171 65.6296L30.1696 65.0934L30.2257 65.7942L29.7171 65.6296Z" fill="black"/>
<path d="M32.6729 65.2921L32.0204 65.2416L31.8905 66.9351L32.2292 66.9614L32.2655 66.4882L32.5295 66.5087C32.9653 66.5424 33.2733 66.3158 33.3023 65.9372C33.3297 65.5811 33.0788 65.3236 32.6729 65.2921ZM32.5907 66.2002L32.2894 66.1769L32.3352 65.5791L32.6366 65.6025C32.8482 65.6189 32.9814 65.7445 32.9686 65.9113C32.9541 66.1006 32.8024 66.2166 32.5907 66.2002Z" fill="black"/>
<path d="M35.4088 65.5866L35.3754 65.2736L34.1336 65.4079L34.3144 67.0968L35.5561 66.9626L35.5226 66.6496L34.6187 66.7474L34.5798 66.3847L35.3845 66.2977L35.351 65.9848L34.5464 66.0718L34.5049 65.6843L35.4088 65.5866Z" fill="black"/>
<path d="M37.7403 66.4776L38.1358 66.3534L37.5303 65.9037C37.6969 65.754 37.7671 65.5397 37.6962 65.3118C37.5918 64.9759 37.2523 64.8403 36.8856 64.9554L36.1977 65.1715L36.7049 66.8029L37.0309 66.7005L36.8698 66.1823L37.2053 66.0769L37.7403 66.4776ZM36.6177 65.3714L36.9676 65.2615C37.1474 65.205 37.3266 65.2567 37.375 65.4126C37.4235 65.5686 37.3055 65.7136 37.1257 65.7701L36.7758 65.88L36.6177 65.3714Z" fill="black"/>
<path d="M39.7033 64.1844L39.5546 63.9069L38.4563 64.5014L39.2583 65.9987L40.3567 65.4042L40.2081 65.1268L39.4085 65.5596L39.2362 65.2381L39.948 64.8529L39.7994 64.5754L39.0876 64.9607L38.9036 64.6172L39.7033 64.1844Z" fill="black"/>
<path d="M42.2013 62.3262L41.9942 62.0897L41.0726 62.9048L42.1904 64.1816L42.4446 63.9567L42.0288 63.4817L42.6119 62.9658L42.4048 62.7292L41.8216 63.2451L41.534 62.9165L42.2013 62.3262Z" fill="black"/>
<path d="M43.33 60.7777C42.9733 61.1129 42.951 61.6685 43.2844 62.027C43.6178 62.3856 44.1708 62.4007 44.5276 62.0654C44.8844 61.7301 44.9066 61.1745 44.5732 60.816C44.2398 60.4575 43.6868 60.4424 43.33 60.7777ZM44.3116 61.8331C44.0858 62.0452 43.7466 62.0178 43.5356 61.791C43.3247 61.5642 43.3204 61.2221 43.5461 61.01C43.7718 60.7979 44.1111 60.8252 44.322 61.0521C44.5329 61.2789 44.5373 61.621 44.3116 61.8331Z" fill="black"/>
<path d="M46.3739 58.1678L47.0187 59.0547L45.625 58.7179L45.4217 58.8673L46.4205 60.2411L46.6943 60.04L46.0671 59.1773L47.4351 59.4958L47.6465 59.3405L46.6477 57.9667L46.3739 58.1678Z" fill="black"/>
<path d="M48.8064 56.5475C48.466 56.7341 48.3402 57.043 48.4955 57.3291C48.6209 57.5602 48.8316 57.6388 49.159 57.5335L49.4256 57.4473C49.6014 57.388 49.6758 57.4358 49.7116 57.5018C49.7689 57.6074 49.7068 57.7186 49.5421 57.8089C49.3357 57.9221 49.1449 57.9011 49.0359 57.7581L48.7395 57.9206C48.9358 58.2298 49.3002 58.2871 49.669 58.0848C50.0203 57.8922 50.1527 57.5798 49.9987 57.2959C49.8649 57.0494 49.6372 57.0286 49.3129 57.1293L49.1182 57.1904C48.9599 57.24 48.8558 57.2372 48.7973 57.1293C48.7304 57.0061 48.8034 56.8833 48.968 56.793C49.1568 56.6895 49.2912 56.7271 49.3862 56.855L49.6826 56.6924C49.4397 56.3288 49.0588 56.4091 48.8064 56.5475Z" fill="black"/>
<path d="M55.5925 57.9776C54.8753 58.4098 53.2146 60.122 55.1588 61.061H54.9883C53.1812 61.033 51.2814 59.8481 50.9219 59.6096C51.3445 59.1234 53.1071 57.1374 54.221 56.7126C54.5713 56.5784 54.8567 56.5989 55.018 56.8672C55.0662 56.951 55.1162 56.9958 55.1663 57.0051C55.2552 57.0274 55.3405 56.9492 55.4202 56.8001C55.7186 57.1355 56.0726 57.687 55.5925 57.9776Z" fill="black"/>
<path d="M56.2653 53.0405C56.1374 54.0286 55.958 55.0093 55.7278 55.9785C55.5398 55.8465 55.3136 55.781 55.0846 55.7922C55.0846 55.7922 54.6398 55.7345 55.0031 54.4471C55.3663 53.1597 54.8604 53.2063 54.5879 52.8095C54.3154 52.4127 54.6138 51.5705 54.6138 51.5705C54.6138 51.5705 53.9466 51.3842 54.0226 50.4285C54.0356 49.9997 53.9559 49.5732 53.7891 49.1784C54.2835 49.1934 54.7623 49.3562 55.1643 49.646C56.5451 50.6781 56.2653 53.0405 56.2653 53.0405Z" fill="black" stroke="black" stroke-width="0.293061" stroke-miterlimit="10"/>
<path d="M13.539 46.4117C13.1251 46.5588 12.7436 46.7853 12.4158 47.0787C11.7374 47.7606 12.3991 48.707 12.3991 48.707C8.47909 45.3386 13.539 46.4117 13.539 46.4117L14.8512 44.1239L15.3275 45.3069L14.1061 47.3321L13.539 46.4117Z" fill="black"/>
<path d="M13.539 46.4117C13.1251 46.5588 12.7436 46.7853 12.4158 47.0787C11.7374 47.7606 12.3991 48.707 12.3991 48.707C8.47909 45.3386 13.539 46.4117 13.539 46.4117ZM13.539 46.4117L14.8512 44.1239L15.3275 45.3069L14.1061 47.3321L13.539 46.4117" stroke="black" stroke-width="0.293061" stroke-miterlimit="10"/>
<path d="M16.8105 48.312L16.0469 49.1746L16.8105 50.1826L17.5167 49.5081L16.8105 48.312Z" fill="black" stroke="black" stroke-width="0.293061" stroke-miterlimit="10"/>
<path d="M57.2284 46.7378C57.2034 46.8486 57.1725 46.9581 57.1357 47.0656C55.8383 41.6814 54.0534 47.768 54.0534 47.768L52.2871 44.7499C53.0012 42.9846 53.5509 41.1565 53.9293 39.2892C54.3741 39.183 56.3035 38.9483 55.8939 42.9278C55.8939 42.9185 57.6917 44.8281 57.2284 46.7378Z" fill="#ECD844" stroke="black" stroke-width="0.293061" stroke-miterlimit="10"/>
<path d="M56.288 48.312L55.4688 46.7657" stroke="black" stroke-width="0.293061" stroke-miterlimit="10"/>
<path d="M50.8722 47.7606L52.2864 48.3121L51.356 49.1691L50.0215 49.2473L50.8722 47.7606Z" fill="black" stroke="black" stroke-width="0.293061" stroke-miterlimit="10"/>
<path d="M47.5527 52.6958L48.9947 52.6306" stroke="black" stroke-width="0.293061" stroke-miterlimit="10"/>
<path d="M46.8691 53.6199H48.3945" stroke="black" stroke-width="0.293061" stroke-miterlimit="10"/>
<path d="M45.8496 54.6613H47.6864" stroke="black" stroke-width="0.293061" stroke-miterlimit="10"/>
<path d="M22.8401 55.9469L20.5566 55.6395" stroke="black" stroke-width="0.293061" stroke-miterlimit="10"/>
<path d="M21.0867 54.1937L19.0664 53.9348" stroke="black" stroke-width="0.293061" stroke-miterlimit="10"/>
<path d="M19.8897 52.8169L18.0195 52.6865" stroke="black" stroke-width="0.293061" stroke-miterlimit="10"/>
<path d="M54.64 11.6414V34.8757C54.5433 36.2062 54.3625 37.5291 54.0988 38.8365C53.0435 43.9945 50.6994 48.7975 47.2872 52.7932C43.8751 56.7889 39.5072 59.8457 34.595 61.6758C34.3819 61.754 34.1669 61.8285 33.9519 61.9049C33.7369 61.8285 33.5219 61.754 33.3106 61.6758C27.7606 59.6173 22.9184 55.9947 19.3634 51.2417C15.8084 46.4887 13.6914 40.8067 13.2656 34.8757V11.6414H54.64Z" fill="white"/>
<path d="M54.9112 11.3154V34.8496C54.5062 40.4195 52.6297 45.7799 49.4755 50.3774C46.3212 54.975 42.0036 58.6431 36.9681 61.0032V61.0032C36.1933 61.3646 35.4025 61.6963 34.5957 61.9981C34.3807 62.0782 34.1638 62.1527 33.9451 62.231C33.7264 62.1527 33.5114 62.0782 33.2946 61.9981C32.3876 61.659 31.5004 61.2808 30.633 60.8635C25.6725 58.4741 21.4281 54.8097 18.3295 50.2412C15.231 45.6726 13.3884 40.3623 12.9883 34.8477V11.3154H54.9112Z" stroke="black" stroke-width="0.317102" stroke-miterlimit="10"/>
<path d="M31.1282 38.7601C31.397 40.1686 31.4451 41.4001 31.2709 42.1975C30.6871 44.8803 29.2914 45.9348 30.5518 48.7629C30.5889 48.8486 30.6278 48.9343 30.6704 49.02C30.6704 49.02 31.2709 50.231 30.2404 52.9939C30.2404 52.9939 29.7808 53.9254 30.815 56.6082C30.9052 57.4403 30.9275 58.2784 30.8817 59.1141C26.2819 56.8982 22.3461 53.5 19.4728 49.2636C16.5996 45.0272 14.8908 40.103 14.5195 34.9893V16.6661C16.3415 17.4765 19.1698 19.1514 18.6379 21.5697C18.2802 23.1999 18.6212 24.3904 19.5646 25.4374C20.6118 26.6093 22.4096 27.6041 24.808 28.8375L25.086 28.9791C25.3284 29.1022 25.563 29.2403 25.7884 29.3927C26.7322 30.0416 27.5543 30.8534 28.2165 31.7904C28.2212 31.7963 28.2255 31.8025 28.2294 31.8091C28.4778 32.1519 28.7113 32.5096 28.9319 32.8747C28.9504 32.9064 28.9689 32.9381 28.9856 32.9697C29.171 33.2921 29.3563 33.6255 29.5231 33.9628C29.5528 34.028 29.5861 34.095 29.6195 34.1621C30.3139 35.6246 30.8215 37.1695 31.1301 38.7601H31.1282Z" fill="#090B0E" stroke="black" stroke-width="0.786458" stroke-miterlimit="10"/>
<path d="M36.1467 27.3396L35.726 27.8501L35.131 28.5804L33.8651 30.1286L33.5278 30.5385C33.5278 30.5385 33.1942 29.9497 32.6493 29.1095L32.5529 28.9642C32.4714 28.8412 32.3861 28.7127 32.2953 28.5804C32.1618 28.381 32.0173 28.1724 31.8671 27.96C31.717 27.7476 31.5836 27.5613 31.4297 27.3601C31.1795 27.0266 30.9145 26.6894 30.6402 26.3578C29.5948 25.1021 28.3975 23.9563 27.2854 23.593C26.9009 23.4673 26.5363 23.2866 26.203 23.0564C24.4052 21.7988 24.294 19.4961 24.294 19.4961C24.1086 16.2078 21.2636 13.6908 19.7734 12.7537H48.2219C47.7103 13.0741 47.1524 13.9516 45.9978 14.5851C43.4345 15.9973 43.8014 17.5939 43.4345 20.1743C43.3615 20.7449 43.1658 21.2928 42.8612 21.7799C42.5565 22.2669 42.15 22.6815 41.67 22.9949C40.9064 23.5315 40.0297 23.8762 39.2846 24.2227C38.243 24.7034 37.3867 25.6889 36.9215 26.3093C36.6768 26.6354 36.5378 26.8682 36.5378 26.8682L36.1467 27.3396Z" fill="#090B0F" stroke="black" stroke-width="0.786458" stroke-miterlimit="10"/>
<path d="M53.3842 16.7332V34.9912C53.01 40.1555 51.2714 45.1258 48.3478 49.389C45.4242 53.6522 41.4216 57.0538 36.7533 59.2426C36.7792 59.1271 36.8107 58.9874 36.8441 58.8234C37.1499 57.3516 36.4178 55.142 36.4178 55.142C36.2325 51.6451 38.0655 51.6451 36.7218 49.1299C36.4395 48.6162 36.2097 48.075 36.036 47.5147C35.6153 46.1341 35.9285 45.51 35.9285 45.51C36.8738 43.8112 37.1765 41.8263 36.7811 39.9208L36.8385 38.9707L37.0387 35.6898L37.0869 34.8906C37.0869 34.8906 37.3946 34.5589 37.9043 34.0298L38.1341 33.7895C38.375 33.5398 38.6456 33.2604 38.9478 32.9548L39.033 32.871C39.3388 32.5617 39.6687 32.232 40.0172 31.891C40.6196 31.3004 41.2757 30.6745 41.9392 30.0708C42.3989 29.6498 42.8659 29.2399 43.32 28.858C44.0325 28.2417 44.7909 27.6811 45.5886 27.1812C45.6646 27.1346 45.7388 27.0937 45.811 27.0527C48.8006 25.3964 49.2899 24.7201 49.2899 21.2865C49.2899 17.8529 53.3842 16.7332 53.3842 16.7332Z" fill="#090B0F" stroke="black" stroke-width="0.786458" stroke-miterlimit="10"/>
<path d="M24.5503 19.8724C25.9544 20.8273 27.1444 22.0666 28.044 23.511C29.4119 25.7914 29.9104 25.456 29.9104 25.456C29.9104 25.456 26.6465 19.4756 27.2285 19.0489C27.8105 18.6223 30.0754 24.3419 30.4535 24.0326C30.8316 23.7234 30.5721 22.9409 30.5721 22.9409L30.6592 19.6656C30.6592 19.6656 29.7677 17.4579 29.9345 17.4821C30.1013 17.5063 31.6805 19.3563 31.6805 19.3563L32.0512 22.8216C32.0512 22.8216 32.4052 23.8184 32.5942 23.416C32.7833 23.0135 33.3504 17.2213 33.3504 17.2213L34.4124 23.2967L34.7201 23.511C34.7201 23.511 35.404 23.2669 35.2632 21.348L36.2788 19.6898L36.5383 17.3685L37.1759 20.3307L36.2788 21.7299L36.1361 23.3917L36.4679 23.701L40.197 17.8137L38.5289 23.8892L39.072 24.4593C39.3469 23.9042 39.5685 23.324 39.7337 22.7266C40.0395 21.6591 41.4796 20.8524 41.4796 20.8524L42.4712 19.0713L42.3767 21.1374L41.4166 23.2632L41.4351 24.5357C41.4351 24.5357 44.4414 22.3801 45.1661 21.1207C45.8908 19.8612 43.4035 24.8151 42.8993 25.1244C42.3952 25.4337 48.4597 23.2483 48.4597 23.2483L44.3172 26.2441C44.3172 26.2441 45.1198 27.9506 45.7036 27.9208C46.2874 27.891 49.3512 26.9688 49.3512 26.9688C49.3512 26.9688 48.4967 28.8747 45.37 29.4877C45.37 29.4877 44.5063 30.1323 45.4256 30.6633C46.3449 31.1942 49.9646 30.0764 49.9646 30.0764L47.8035 31.7084L45.1587 31.8482C45.1587 31.8482 44.7676 32.6046 45.1309 32.7443C45.4942 32.884 49.7256 33.4709 50.2816 34.367C50.8376 35.2632 45.9093 33.7802 45.2421 34.367C44.5748 34.9539 44.6008 35.2352 44.8807 35.4308C45.1605 35.6265 45.9649 34.8719 47.3587 36.2152C48.5091 36.1841 49.6333 36.5636 50.5318 37.2864C51.9515 38.4825 45.5275 36.9697 45.5275 36.9697C45.5275 36.9697 44.9993 37.1933 45.3885 37.6143C45.7777 38.0354 49.6755 40.0494 49.6755 40.0494C49.6755 40.0494 45.0085 38.5589 44.3358 39.5724C43.663 40.5859 47.6163 43.2985 47.6163 43.2985C47.6163 43.2985 43.1811 40.6511 42.4582 40.7946C41.7354 40.938 45.2977 45.6106 45.2977 45.6106C45.2977 45.6106 40.5084 40.5803 40.008 41.1896C39.5075 41.7988 40.9532 43.7643 40.9532 43.7643L41.0644 44.8561L43.0699 47.2072C43.0699 47.2072 37.9766 42.0838 37.6411 42.2254C37.3057 42.367 40.5362 49.7261 40.5362 49.7261C40.5362 49.7261 39.5798 48.4536 38.5827 47.2203C37.5855 45.9869 36.5439 44.7983 36.3882 44.9399C36.0657 45.2361 38.5586 49.7261 38.5586 49.7261L35.9137 47.6767L34.1882 52.3567L34.0214 47.85L28.9263 49.7261L29.9549 45.6106L26.3351 49.5938C26.3351 49.5938 29.2877 42.8756 29.1153 42.7918C28.9429 42.7079 24.2964 47.6059 24.2964 47.6059C24.2964 47.6059 27.7493 42.3446 27.3026 41.8304C26.856 41.3162 21.7701 45.3088 21.7701 45.3088L25.4177 40.5785L18.56 43.4625L22.0815 39.3637C22.0815 39.3637 19.5145 39.1998 17.3701 39.8724C15.2256 40.5449 21.379 37.2771 21.379 37.2771C21.379 37.2771 18.2894 36.3456 16.6194 36.6251C14.9495 36.9045 21.6867 35.0303 21.6867 35.0303C21.6867 35.0303 16.8678 33.1542 16.3525 33.1542C15.8373 33.1542 21.6033 32.5394 21.6033 32.5394C20.0223 31.2236 18.2372 30.1776 16.3192 29.443C13.1868 28.258 21.3234 30.0969 21.3234 30.0969C21.3234 30.0969 21.6941 29.1654 17.8279 26.3708C13.9616 23.5762 23.9664 27.7196 23.9664 27.7196L21.203 22.6502L26.691 25.2585L24.5503 19.8724Z" fill="#EDD250"/>
<path d="M54.1171 12.1314V16.7332C54.1171 16.7332 49.2981 17.838 49.2981 21.2753C49.2981 24.7127 48.8088 25.3852 45.8192 27.0415C45.747 27.0825 45.6728 27.1235 45.5968 27.17C44.7991 27.6699 44.0407 28.2305 43.3282 28.8468C42.8723 29.2194 42.4015 29.6386 41.9474 30.0596C41.2839 30.6633 40.6278 31.2893 40.0254 31.8798C39.6769 32.2208 39.347 32.5505 39.0412 32.8598L38.9559 32.9436C38.6538 33.2492 38.3832 33.5287 38.1423 33.7783L37.9125 34.0186C37.4028 34.5477 37.0951 34.8794 37.0951 34.8794L37.0469 35.6786L36.8412 38.9744L36.7837 39.9245C37.1792 41.83 36.8764 43.8149 35.9311 45.5137C35.9311 45.5137 35.6179 46.1378 36.0386 47.5184C36.2123 48.0787 36.4421 48.6199 36.7244 49.1336C38.0681 51.6488 36.237 51.6488 36.4204 55.1457C36.4204 55.1457 37.1526 57.3553 36.8467 58.8271C36.8134 58.9911 36.7911 59.6543 36.7652 59.7698L36.7411 60.1983C36.0238 60.5337 35.2917 60.843 34.5429 61.1206C34.3427 61.1951 34.1426 61.264 33.9387 61.3367C33.7367 61.264 33.5365 61.1951 33.3363 61.1206C32.4949 60.8057 31.6682 60.4573 30.8675 60.0679C30.9546 58.8774 30.8156 56.6138 30.8156 56.6138C29.7814 53.9329 30.2411 52.9995 30.2411 52.9995C31.2716 50.2366 30.6711 49.0256 30.6711 49.0256C30.6284 48.9399 30.5895 48.8542 30.5525 48.7685C29.2921 45.9404 30.6878 44.8859 31.2716 42.2031C31.4458 41.4057 31.3976 40.1742 31.1289 38.7657C30.8203 37.1751 30.3128 35.6302 29.6183 34.1677C29.585 34.1006 29.5516 34.0335 29.5219 33.9683C29.3551 33.6311 29.1753 33.2976 28.9844 32.9753C28.9678 32.9436 28.9492 32.912 28.9307 32.8803C28.7101 32.5077 28.4766 32.1574 28.2282 31.8146C28.2244 31.8081 28.22 31.8019 28.2153 31.796C27.5531 30.859 26.731 30.0472 25.7873 29.3982C25.5619 29.2459 25.3273 29.1077 25.0848 28.9846L24.8068 28.8431C22.4084 27.6097 20.6106 26.6074 19.5634 25.443C18.6219 24.3959 18.2808 23.2073 18.6367 21.5753C19.1686 19.1533 15.7008 17.4765 13.8789 16.6717V12.3196L19.1649 12.3922C20.6477 13.3238 24.1099 16.2078 24.2934 19.4961C24.2934 19.4961 24.4046 21.7988 26.2024 23.0564C26.5357 23.2866 26.9003 23.4673 27.2848 23.593C28.3969 23.9562 29.5942 25.102 30.6396 26.3577C30.9139 26.6894 31.1789 27.0266 31.4291 27.3601C31.583 27.5613 31.7275 27.7625 31.8665 27.96C32.0056 28.1574 32.1612 28.381 32.2947 28.5804C32.3855 28.7126 32.4708 28.8412 32.5523 28.9642L32.6487 29.1095C33.1936 29.9497 33.5272 30.5384 33.5272 30.5384L33.8645 30.1286L35.1304 28.5804L35.7254 27.85L36.1461 27.3396L36.5391 26.857C36.5391 26.857 36.6781 26.6316 36.9227 26.2981C37.3879 25.6777 38.2442 24.6922 39.2859 24.2115C40.0272 23.865 40.9076 23.5203 41.6712 22.9837C42.1513 22.6703 42.5577 22.2557 42.8624 21.7687C43.1671 21.2816 43.3627 20.7337 43.4357 20.1631C43.8064 17.5864 43.4357 15.9898 45.999 14.5739C47.1519 13.9404 48.0378 12.4873 48.5568 12.1668L54.1171 12.1314Z" fill="#0075B3" stroke="white" stroke-width="0.635348" stroke-miterlimit="10"/>
<path d="M54.0078 40.4052C54.0078 40.4052 54.3322 42.313 54.6398 43.047C54.9475 43.7811 55.826 44.8449 55.826 44.8449C55.826 44.8449 56.6026 44.6828 57.1346 47.0656C57.1346 47.0656 57.7759 45.4299 55.8928 42.9185C55.8928 42.9185 56.7231 39.4793 54.4248 39.2352L54.0078 40.4052Z" fill="#090B0F"/>
<path d="M12.7711 50.339V51.3097C12.7711 51.3097 12.2243 50.611 11.9519 51.3097C11.6794 52.0083 11.9519 55.0209 11.9519 55.0209L11.0938 55.9971V51.0973C11.0938 51.0973 11.622 49.7317 12.7711 50.339Z" fill="#03070E"/>
<path d="M12.7715 50.3372L13.2664 57.3889" stroke="black" stroke-width="0.131649" stroke-miterlimit="10"/>
<path d="M13.5567 40.3456L13.1211 41.8006L13.8791 41.9534L13.401 44.4201L14.5019 43.1495L13.5567 40.3456Z" fill="black" stroke="black" stroke-width="0.131649" stroke-miterlimit="10"/>
<path d="M47.6653 30.0149V43.6153H37.1007L35.9886 42.1248C33.7645 44.3605 31.355 42.1248 31.355 42.1248L30.0576 43.6153H20.2344V31.3191C20.9661 31.2246 21.6841 31.0433 22.3732 30.7788V41.9404L30.9862 41.3815C30.9862 41.3815 33.7663 43.2445 35.9905 41.5678L45.2577 41.9404V30.0764C45.6284 30.1677 45.6284 30.0149 45.6284 30.0149H47.6653Z" fill="#DABB7F" stroke="black" stroke-width="0.345721" stroke-miterlimit="10"/>
<path d="M45.2536 30.0764V41.9423L35.9864 41.5696C33.7622 43.2464 30.9821 41.3833 30.9821 41.3833L22.3691 41.9423V30.7769C23.6832 30.2702 24.3115 29.6405 24.3115 29.6405C24.3616 29.6013 24.4116 29.5566 24.4561 29.5212V38.8608C26.3896 39.1275 28.3527 38.6627 29.9645 37.5566C31.1174 36.7853 32.0126 36.7797 32.6669 37.0331C33.2535 37.2884 33.7383 37.7337 34.044 38.2981C34.044 38.2981 35.5267 35.6898 38.8629 37.9255C42.1991 40.1612 43.4965 39.6022 43.4965 39.6022V29.2269C44.0123 29.5616 44.5637 29.8372 45.1405 30.0485C45.1868 30.0597 45.2202 30.0708 45.2536 30.0764Z" fill="#F44B49" stroke="black" stroke-width="0.345721" stroke-miterlimit="10"/>
<path d="M45.2517 30.0429V30.0764C45.2184 30.0764 45.185 30.0596 45.1387 30.0485L45.2517 30.0429Z" fill="#F44B49" stroke="black" stroke-width="0.345721" stroke-miterlimit="10"/>
<path d="M43.4956 29.2287V39.6116C43.4956 39.6116 42.1982 40.1705 38.862 37.9348C35.5258 35.6991 34.043 38.3074 34.043 38.3074C33.7374 37.7432 33.2535 37.2974 32.6678 37.0405C32.0116 36.7872 31.1146 36.7946 29.9636 37.5641C28.3524 38.67 26.3899 39.1348 24.457 38.8682V29.5194C30.4826 24.4779 33.9503 27.4104 33.9503 27.4104C33.9503 27.4104 37.4719 25.1747 41.5495 27.9693C42.3427 28.5133 42.9803 28.9232 43.4956 29.2287Z" fill="white" stroke="black" stroke-width="0.345721" stroke-miterlimit="10"/>
<path d="M39.1431 35.7234H35.3176H32.3039H28.4766" stroke="#020202" stroke-width="0.212928" stroke-miterlimit="10"/>
<path d="M31.5039 34.2608V35.7233" stroke="#020202" stroke-width="0.212928" stroke-miterlimit="10"/>
<path d="M33.0625 32.6418V35.7494" stroke="#020202" stroke-width="0.212928" stroke-miterlimit="10"/>
<path d="M34.5703 30.8663V35.7494" stroke="#020202" stroke-width="0.212928" stroke-miterlimit="10"/>
<path d="M36.1289 28.2543V35.7494" stroke="#020202" stroke-width="0.212928" stroke-miterlimit="10"/>
<path d="M36.6172 29.5771L37.8127 28.7704L38.5689 29.8715" stroke="#020202" stroke-width="0.212928" stroke-miterlimit="10"/>
<path d="M30.0312 34.1006C31.0221 34.3419 32.0559 34.3419 33.0468 34.1006C33.569 33.9738 34.0724 33.779 34.5444 33.5212C35.4152 33.0508 36.1637 32.3811 36.7294 31.5662C37.2951 30.7512 37.6622 29.8139 37.8009 28.83" stroke="#020202" stroke-width="0.212928" stroke-miterlimit="10"/>
<path d="M85.0156 36.3718C87.8176 36.3718 89.1823 34.92 89.1823 31.9728V28.2127C89.1823 27.0077 89.5888 26.3108 89.9663 26.064V26.0349H86.482V26.064C86.8014 26.3108 87.2224 27.0222 87.2224 28.2127V32.1325C87.2224 33.9908 86.5836 34.8474 85.1753 34.8474C83.5929 34.8474 82.9976 34.107 82.9976 32.1325V28.2127C82.9976 27.0077 83.4041 26.3108 83.738 26.064V26.0349H80.2102V26.064C80.5731 26.3108 80.9941 27.0222 80.9941 28.2127V31.9728C80.9941 34.9345 82.4314 36.3718 85.0156 36.3718ZM91.3476 36.125H94.7012V36.096C94.3238 35.8492 93.9608 35.1523 93.9608 33.9473V31.4792C93.9608 30.4339 93.9318 29.4902 93.6995 28.111H93.7576C94.1931 29.4467 94.5706 30.3033 95.2674 31.4211L97.3145 34.7458C97.6048 35.2104 97.8807 35.733 98.0404 36.125H101.104V36.096C100.726 35.8492 100.32 35.1378 100.32 33.9473V28.2127C100.32 27.0222 100.726 26.3108 101.104 26.064V26.0349H97.75V26.064C98.1275 26.3108 98.4904 27.0077 98.4904 28.2127V30.8259C98.4904 31.6389 98.5195 32.6552 98.7227 33.8166H98.6647C98.2291 32.6987 97.7645 31.668 97.329 30.942L95.2384 27.4287C94.7593 26.6302 94.6722 26.3253 94.6432 26.0349H91.3476V26.064C91.8847 26.4269 92.1315 27.3561 92.1315 28.1401V33.9473C92.1315 35.1378 91.7105 35.8492 91.3476 36.096V36.125ZM102.817 36.125H106.389V36.096C106.011 35.8492 105.605 35.1523 105.605 33.9473V28.2127C105.605 27.0222 106.026 26.3108 106.389 26.064V26.0349H102.817V26.064C103.195 26.3108 103.601 27.0077 103.601 28.2127V33.9473C103.601 35.1378 103.18 35.8492 102.817 36.096V36.125ZM110.516 36.125H114.218V36.096C113.942 35.8201 113.739 35.1087 114.087 34.0925L116.265 27.8787C116.555 27.0367 116.976 26.3689 117.484 26.064V26.0349H114.378V26.064C114.61 26.3398 114.639 26.906 114.45 27.4867L113.231 31.1308C112.998 31.8131 112.664 33.0472 112.476 34.1215H112.418C112.272 33.0617 111.895 31.8277 111.663 31.1453L110.385 27.4577C110.196 26.906 110.298 26.3398 110.53 26.064V26.0349H107.133V26.064C107.728 26.4995 108.193 27.2835 108.454 28.0094L110.646 34.0925C111.009 35.0942 110.792 35.8201 110.516 36.096V36.125ZM125.474 33.3375C124.85 34.2231 123.833 34.7022 122.556 34.7022H120.973V31.4357H122.309C123.122 31.4357 123.645 31.697 123.891 32.3503H123.92L124.341 29.9113C123.688 29.9984 123.282 30.0129 122.077 30.0129H120.973V27.4577H122.89C124.022 27.4577 124.821 27.8207 125.169 28.532L125.198 28.5175L124.951 25.9188C124.632 25.9914 123.993 26.0349 123.412 26.0349H118.2V26.064C118.578 26.3108 118.984 27.0077 118.984 28.2127V33.9473C118.984 35.1378 118.563 35.8492 118.2 36.096V36.125H123.325C124.182 36.125 124.559 36.154 125.096 36.2411L125.503 33.352L125.474 33.3375ZM134.077 34.1651L132.727 31.9728C133.947 31.5808 134.702 30.6372 134.702 29.0983C134.702 27.2109 133.352 26.0349 131.029 26.0349H126.905V26.064C127.283 26.3108 127.689 27.0077 127.689 28.1546V33.9473C127.689 35.1378 127.283 35.8492 126.905 36.096V36.125H130.404V36.096C130.085 35.8492 129.678 35.1523 129.678 34.0054V27.4722L130.695 27.4577C131.943 27.4432 132.64 28.111 132.64 29.1708C132.64 30.463 131.943 30.9711 130.695 30.9711H129.998L132.248 34.8184C132.568 35.3555 132.8 35.8637 132.989 36.4299L135.965 35.8927V35.8637C135.268 35.6314 134.629 35.0507 134.077 34.1651ZM139.41 36.3428C141.762 36.3137 142.953 34.9926 142.953 33.3811C142.953 31.2034 141.414 30.5646 140.122 30.0274C139.178 29.6354 138.365 29.3015 138.365 28.4595C138.365 27.719 138.931 27.3416 140.034 27.3416C140.877 27.3416 141.704 27.5739 142.328 28.532H142.357L142.169 26.1511C141.327 25.9333 140.644 25.8462 139.889 25.8462C137.639 25.8462 136.405 27.1673 136.405 28.6046C136.405 30.6227 137.813 31.2179 139.076 31.7405C140.064 32.147 140.949 32.5245 140.949 33.5263C140.949 34.3102 140.441 34.8039 139.265 34.8329C138.075 34.8619 137.131 34.4409 136.26 33.3085L136.231 33.323L136.478 35.762C137.131 36.154 138.234 36.3573 139.41 36.3428ZM144.344 36.125H147.916V36.096C147.538 35.8492 147.132 35.1523 147.132 33.9473V28.2127C147.132 27.0222 147.553 26.3108 147.916 26.064V26.0349H144.344V26.064C144.722 26.3108 145.128 27.0077 145.128 28.2127V33.9473C145.128 35.1378 144.707 35.8492 144.344 36.096V36.125ZM156.833 25.9188C156.166 26.0059 155.556 26.0349 154.844 26.0349H151.302C150.591 26.0349 149.981 26.0059 149.313 25.9188L149.066 28.5756L149.095 28.5901C149.429 28.0094 150.112 27.5158 150.983 27.5158H152.086V33.8311C152.086 35.0652 151.621 35.8492 151.2 36.096V36.125H154.961V36.096C154.482 35.8492 154.075 35.0797 154.075 33.8311V27.5158H155.164C156.035 27.5158 156.717 28.0094 157.051 28.5901L157.08 28.5756L156.833 25.9188ZM164.146 26.0349V26.064C164.291 26.456 164.102 27.0657 163.826 27.5448L162.723 29.4757C162.578 29.737 162.403 29.9984 162.258 30.4194H162.2C162.055 30.0129 161.91 29.737 161.75 29.4757L160.632 27.5448C160.356 27.0657 160.168 26.456 160.298 26.064V26.0349H157.206V26.064C157.569 26.3398 158.019 26.9496 158.382 27.5448L161.169 32.147V33.8311C161.169 35.0652 160.705 35.8492 160.284 36.096V36.125H164.044V36.096C163.565 35.8492 163.158 35.0797 163.158 33.8311V32.0745L165.902 27.5448C166.28 26.9351 166.701 26.3398 167.064 26.064V26.0349H164.146ZM176.218 36.4154C179.456 36.4154 181.619 34.2086 181.619 30.9711C181.619 27.8497 179.543 25.7446 176.436 25.7446C173.083 25.7446 171.05 27.9078 171.05 31.1743C171.05 34.1505 172.966 36.4154 176.218 36.4154ZM176.364 34.9055C174.288 34.9055 173.213 33.4101 173.213 31.0292C173.213 28.7643 174.375 27.2545 176.291 27.2545C178.266 27.2545 179.456 28.6627 179.456 31.1163C179.456 33.4392 178.149 34.9055 176.364 34.9055ZM189.871 25.9188C189.392 26.0059 188.87 26.0349 187.999 26.0349H183.135V26.064C183.542 26.2963 183.904 26.7899 183.904 28.2127V33.9473C183.904 35.1378 183.483 35.8492 183.12 36.096V36.125H186.677V36.096C186.3 35.8492 185.893 35.1523 185.893 33.9473V31.6389H187.273C187.999 31.6389 188.666 32.0599 188.855 32.6842H188.884L189.349 30.071C188.913 30.1581 188.216 30.1871 187.171 30.1871H185.893V27.4867H187.519C188.652 27.4867 189.581 27.7916 190.104 28.6482L190.133 28.6337L189.871 25.9188ZM195.115 36.125H198.686V36.096C198.309 35.8492 197.902 35.1523 197.902 33.9473V28.2127C197.902 27.0222 198.323 26.3108 198.686 26.064V26.0349H195.115V26.064C195.492 26.3108 195.899 27.0077 195.899 28.2127V33.9473C195.899 35.1378 195.478 35.8492 195.115 36.096V36.125ZM205.993 30.7533V30.7098C206.835 30.5791 207.662 29.679 207.662 28.5756C207.662 26.848 206.559 26.0349 204.381 26.0349H200.374V26.064C200.839 26.3834 201.231 27.0948 201.231 28.2852V33.8602C201.231 35.1668 200.737 35.8201 200.374 36.096V36.125H204.788C206.762 36.125 208.185 35.0361 208.185 33.1488C208.185 31.9728 207.198 30.8985 205.993 30.7533ZM204.265 27.4577C205.122 27.4577 205.615 27.8497 205.615 28.6772C205.615 29.6064 205.107 30.071 204.265 30.071H203.22V27.4577H204.265ZM204.497 34.7022H203.22V31.4792H204.497C205.586 31.4792 206.109 32.118 206.109 33.0762C206.109 34.0344 205.586 34.7022 204.497 34.7022ZM217.387 33.744L215.252 27.7626C214.948 26.906 215.238 26.3108 215.514 26.064V26.0349H211.667V26.064C211.942 26.2963 212.218 26.906 211.928 27.7626L209.852 33.744C209.46 34.8619 208.835 35.7475 208.444 36.096V36.125H211.492V36.096C211.289 35.9072 211.144 35.312 211.521 34.3102L211.652 33.9618H215.398L215.528 34.3102C215.891 35.312 215.775 35.9072 215.528 36.096V36.125H218.809V36.096C218.403 35.762 217.779 34.8619 217.387 33.744ZM213.481 27.9658H213.539C213.685 29.0837 214.047 30.0564 214.381 31.0001L214.919 32.539H212.131L212.668 31.0001C213.002 30.0564 213.351 29.0837 213.481 27.9658ZM219.401 36.125H223.379C226.965 36.125 228.664 34.2522 228.664 31.0727C228.664 27.9078 226.661 26.0349 223.612 26.0349H219.401V26.064C219.779 26.3108 220.185 27.1383 220.185 28.2127V33.9473C220.185 35.1378 219.764 35.8492 219.401 36.096V36.125ZM222.174 34.6877V27.4722H223.452C225.528 27.4722 226.515 28.6192 226.515 31.0727C226.515 33.4101 225.47 34.6877 223.525 34.6877H222.174ZM237.675 33.744L235.541 27.7626C235.236 26.906 235.526 26.3108 235.802 26.064V26.0349H231.955V26.064C232.231 26.2963 232.507 26.906 232.216 27.7626L230.14 33.744C229.748 34.8619 229.124 35.7475 228.732 36.096V36.125H231.781V36.096C231.578 35.9072 231.432 35.312 231.81 34.3102L231.94 33.9618H235.686L235.817 34.3102C236.18 35.312 236.064 35.9072 235.817 36.096V36.125H239.098V36.096C238.691 35.762 238.067 34.8619 237.675 33.744ZM233.77 27.9658H233.828C233.973 29.0837 234.336 30.0564 234.67 31.0001L235.207 32.539H232.42L232.957 31.0001C233.291 30.0564 233.639 29.0837 233.77 27.9658ZM239.69 36.125H243.044V36.096C242.666 35.8492 242.303 35.1523 242.303 33.9473V31.4792C242.303 30.4339 242.274 29.4902 242.042 28.111H242.1C242.535 29.4467 242.913 30.3033 243.61 31.4211L245.657 34.7458C245.947 35.2104 246.223 35.733 246.383 36.125H249.446V36.096C249.069 35.8492 248.662 35.1378 248.662 33.9473V28.2127C248.662 27.0222 249.069 26.3108 249.446 26.064V26.0349H246.092V26.064C246.47 26.3108 246.833 27.0077 246.833 28.2127V30.8259C246.833 31.6389 246.862 32.6552 247.065 33.8166H247.007C246.571 32.6987 246.107 31.668 245.671 30.942L243.581 27.4287C243.102 26.6302 243.015 26.3253 242.986 26.0349H239.69V26.064C240.227 26.4269 240.474 27.3561 240.474 28.1401V33.9473C240.474 35.1378 240.053 35.8492 239.69 36.096V36.125Z" fill="white"/>
<path d="M87.8176 51.3375C87.1933 52.2231 86.1771 52.7022 84.8995 52.7022H83.317V49.4357H84.6527C85.4657 49.4357 85.9883 49.697 86.2352 50.3503H86.2642L86.6852 47.9113C86.0319 47.9984 85.6254 48.0129 84.4204 48.0129H83.317V45.4577H85.2334C86.3658 45.4577 87.1643 45.8207 87.5127 46.532L87.5418 46.5175L87.295 43.9188C86.9756 43.9914 86.3368 44.0349 85.7561 44.0349H80.5441V44.064C80.9215 44.3108 81.328 45.0077 81.328 46.2127V51.9473C81.328 53.1378 80.907 53.8492 80.5441 54.096V54.125H85.6689C86.5255 54.125 86.903 54.154 87.4402 54.2411L87.8467 51.352L87.8176 51.3375ZM93.915 54.3428C95.1345 54.3428 96.2669 54.0524 97.0073 53.7911L97.3558 51.1923L97.3267 51.1778C96.5718 52.1651 95.6281 52.8039 94.0602 52.8039C92.0422 52.8039 90.9678 51.2214 90.9678 49.0001C90.9678 46.7643 92.2019 45.3561 94.2489 45.3561C95.3668 45.3561 96.4266 45.7916 97.0219 46.7208L97.0509 46.7063L96.8186 44.1946C95.9766 43.9478 95.1926 43.8317 94.2634 43.8317C90.9533 43.8317 88.8046 45.8787 88.8046 49.1453C88.8046 52.1215 90.7791 54.3428 93.915 54.3428ZM103.359 54.4154C106.596 54.4154 108.759 52.2086 108.759 48.9711C108.759 45.8497 106.683 43.7446 103.577 43.7446C100.223 43.7446 98.1903 45.9078 98.1903 49.1743C98.1903 52.1505 100.107 54.4154 103.359 54.4154ZM103.504 52.9055C101.428 52.9055 100.354 51.4101 100.354 49.0292C100.354 46.7643 101.515 45.2545 103.431 45.2545C105.406 45.2545 106.596 46.6627 106.596 49.1163C106.596 51.4392 105.29 52.9055 103.504 52.9055ZM110.261 54.125H113.614V54.096C113.237 53.8492 112.874 53.1523 112.874 51.9473V49.4792C112.874 48.4339 112.845 47.4902 112.613 46.111H112.671C113.106 47.4467 113.484 48.3033 114.181 49.4211L116.228 52.7458C116.518 53.2104 116.794 53.733 116.954 54.125H120.017V54.096C119.639 53.8492 119.233 53.1378 119.233 51.9473V46.2127C119.233 45.0222 119.639 44.3108 120.017 44.064V44.0349H116.663V44.064C117.041 44.3108 117.404 45.0077 117.404 46.2127V48.8259C117.404 49.6389 117.433 50.6552 117.636 51.8166H117.578C117.142 50.6987 116.678 49.668 116.242 48.942L114.152 45.4287C113.672 44.6302 113.585 44.3253 113.556 44.0349H110.261V44.064C110.798 44.4269 111.045 45.3561 111.045 46.1401V51.9473C111.045 53.1378 110.624 53.8492 110.261 54.096V54.125ZM126.681 54.4154C129.919 54.4154 132.082 52.2086 132.082 48.9711C132.082 45.8497 130.006 43.7446 126.899 43.7446C123.545 43.7446 121.513 45.9078 121.513 49.1743C121.513 52.1505 123.429 54.4154 126.681 54.4154ZM126.826 52.9055C124.75 52.9055 123.676 51.4101 123.676 49.0292C123.676 46.7643 124.837 45.2545 126.754 45.2545C128.728 45.2545 129.919 46.6627 129.919 49.1163C129.919 51.4392 128.612 52.9055 126.826 52.9055ZM133.135 54.125H136.329L136.343 54.096C136.068 53.8492 135.821 53.2104 135.864 52.2957L136.024 49.2905C136.053 48.6662 136.053 47.8822 135.937 46.7934H135.995C136.271 47.8096 136.576 48.492 137.04 49.2469L138.768 52.0054C139.305 52.8619 139.45 53.4427 139.494 53.7475H139.61C139.639 53.4427 139.77 52.8619 140.292 51.9908L141.904 49.2614C142.383 48.4484 142.717 47.7661 143.022 46.7934H143.08C142.949 47.8532 142.935 48.6081 142.993 49.2905L143.225 52.2957C143.298 53.2104 143.022 53.8492 142.746 54.096L142.76 54.125H146.085L146.1 54.096C145.577 53.5733 145.301 52.6877 145.243 51.9908L144.793 46.3578C144.735 45.5593 144.982 44.4269 145.635 44.064L145.62 44.0349H142.267C142.441 44.2527 142.412 44.6737 142.049 45.3125L140.626 47.8242C140.147 48.6662 139.77 49.334 139.552 50.2196H139.494C139.363 49.3921 139.044 48.6081 138.594 47.8242L137.156 45.3561C136.779 44.7028 136.75 44.2527 136.924 44.0349H133.599L133.585 44.064C134.238 44.456 134.427 45.5593 134.369 46.3578L133.991 51.9908C133.919 53.0071 133.585 53.5878 133.12 54.096L133.135 54.125ZM147.421 54.125H150.992V54.096C150.615 53.8492 150.208 53.1523 150.208 51.9473V46.2127C150.208 45.0222 150.629 44.3108 150.992 44.064V44.0349H147.421V44.064C147.798 44.3108 148.205 45.0077 148.205 46.2127V51.9473C148.205 53.1378 147.784 53.8492 147.421 54.096V54.125ZM157.602 54.3428C158.821 54.3428 159.954 54.0524 160.694 53.7911L161.042 51.1923L161.013 51.1778C160.258 52.1651 159.315 52.8039 157.747 52.8039C155.729 52.8039 154.655 51.2214 154.655 49.0001C154.655 46.7643 155.889 45.3561 157.936 45.3561C159.053 45.3561 160.113 45.7916 160.709 46.7208L160.738 46.7063L160.505 44.1946C159.663 43.9478 158.879 43.8317 157.95 43.8317C154.64 43.8317 152.491 45.8787 152.491 49.1453C152.491 52.1215 154.466 54.3428 157.602 54.3428ZM165.271 54.3428C167.622 54.3137 168.813 52.9926 168.813 51.3811C168.813 49.2034 167.274 48.5646 165.982 48.0274C165.038 47.6354 164.225 47.3015 164.225 46.4595C164.225 45.719 164.791 45.3416 165.895 45.3416C166.737 45.3416 167.564 45.5739 168.189 46.532H168.218L168.029 44.1511C167.187 43.9333 166.505 43.8462 165.75 43.8462C163.499 43.8462 162.265 45.1673 162.265 46.6046C162.265 48.6227 163.674 49.2179 164.937 49.7405C165.924 50.147 166.809 50.5245 166.809 51.5263C166.809 52.3102 166.301 52.8039 165.125 52.8329C163.935 52.8619 162.991 52.4409 162.12 51.3085L162.091 51.323L162.338 53.762C162.991 54.154 164.095 54.3573 165.271 54.3428ZM181.63 51.744L179.496 45.7626C179.191 44.906 179.482 44.3108 179.757 44.064V44.0349H175.91V44.064C176.186 44.2963 176.462 44.906 176.171 45.7626L174.095 51.744C173.703 52.8619 173.079 53.7475 172.687 54.096V54.125H175.736V54.096C175.533 53.9072 175.387 53.312 175.765 52.3102L175.896 51.9618H179.641L179.772 52.3102C180.135 53.312 180.019 53.9072 179.772 54.096V54.125H183.053V54.096C182.646 53.762 182.022 52.8619 181.63 51.744ZM177.725 45.9658H177.783C177.928 47.0837 178.291 48.0564 178.625 49.0001L179.162 50.539H176.375L176.912 49.0001C177.246 48.0564 177.594 47.0837 177.725 45.9658ZM190.41 54.2411L190.788 51.3811L190.759 51.3666C190.135 52.2377 189.118 52.6732 187.855 52.6732H186.418V46.2127C186.418 45.0222 186.839 44.3108 187.202 44.064V44.0349H183.645V44.064C184.023 44.3108 184.429 45.0077 184.429 46.1546V51.9473C184.429 53.1378 184.008 53.8492 183.645 54.096V54.125H188.799C189.467 54.125 189.859 54.1395 190.41 54.2411ZM195.999 54.3718C198.801 54.3718 200.166 52.92 200.166 49.9728V46.2127C200.166 45.0077 200.573 44.3108 200.95 44.064V44.0349H197.466V44.064C197.785 44.3108 198.206 45.0222 198.206 46.2127V50.1325C198.206 51.9908 197.567 52.8474 196.159 52.8474C194.577 52.8474 193.981 52.107 193.981 50.1325V46.2127C193.981 45.0077 194.388 44.3108 194.722 44.064V44.0349H191.194V44.064C191.557 44.3108 191.978 45.0222 191.978 46.2127V49.9728C191.978 52.9345 193.415 54.3718 195.999 54.3718ZM201.869 54.125H205.063L205.077 54.096C204.802 53.8492 204.555 53.2104 204.598 52.2957L204.758 49.2905C204.787 48.6662 204.787 47.8822 204.671 46.7934H204.729C205.005 47.8096 205.31 48.492 205.774 49.2469L207.502 52.0054C208.039 52.8619 208.184 53.4427 208.228 53.7475H208.344C208.373 53.4427 208.504 52.8619 209.026 51.9908L210.638 49.2614C211.117 48.4484 211.451 47.7661 211.756 46.7934H211.814C211.683 47.8532 211.669 48.6081 211.727 49.2905L211.959 52.2957C212.032 53.2104 211.756 53.8492 211.48 54.096L211.494 54.125H214.819L214.834 54.096C214.311 53.5733 214.035 52.6877 213.977 51.9908L213.527 46.3578C213.469 45.5593 213.716 44.4269 214.369 44.064L214.354 44.0349H211.001C211.175 44.2527 211.146 44.6737 210.783 45.3125L209.36 47.8242C208.881 48.6662 208.504 49.334 208.286 50.2196H208.228C208.097 49.3921 207.778 48.6081 207.328 47.8242L205.89 45.3561C205.513 44.7028 205.484 44.2527 205.658 44.0349H202.333L202.319 44.064C202.972 44.456 203.161 45.5593 203.103 46.3578L202.725 51.9908C202.653 53.0071 202.319 53.5878 201.854 54.096L201.869 54.125ZM216.155 54.125H219.508V54.096C219.131 53.8492 218.768 53.1523 218.768 51.9473V49.4792C218.768 48.4339 218.739 47.4902 218.507 46.111H218.565C219 47.4467 219.378 48.3033 220.075 49.4211L222.122 52.7458C222.412 53.2104 222.688 53.733 222.848 54.125H225.911V54.096C225.533 53.8492 225.127 53.1378 225.127 51.9473V46.2127C225.127 45.0222 225.533 44.3108 225.911 44.064V44.0349H222.557V44.064C222.935 44.3108 223.298 45.0077 223.298 46.2127V48.8259C223.298 49.6389 223.327 50.6552 223.53 51.8166H223.472C223.036 50.6987 222.572 49.668 222.136 48.942L220.046 45.4287C219.567 44.6302 219.479 44.3253 219.45 44.0349H216.155V44.064C216.692 44.4269 216.939 45.3561 216.939 46.1401V51.9473C216.939 53.1378 216.518 53.8492 216.155 54.096V54.125ZM227.625 54.125H231.196V54.096C230.819 53.8492 230.412 53.1523 230.412 51.9473V46.2127C230.412 45.0222 230.833 44.3108 231.196 44.064V44.0349H227.625V44.064C228.002 44.3108 228.409 45.0077 228.409 46.2127V51.9473C228.409 53.1378 227.988 53.8492 227.625 54.096V54.125Z" fill="white"/>
<rect x="0.5" y="0.5" width="270" height="79.25" stroke="url(#paint1_linear_371_86264)"/>
</g>
<defs>
<filter id="filter0_b_371_86264" x="-30" y="-30" width="331" height="140.25" filterUnits="userSpaceOnUse" color-interpolation-filters="sRGB">
<feFlood flood-opacity="0" result="BackgroundImageFix"/>
<feGaussianBlur in="BackgroundImage" stdDeviation="15"/>
<feComposite in2="SourceAlpha" operator="in" result="effect1_backgroundBlur_371_86264"/>
<feBlend mode="normal" in="SourceGraphic" in2="effect1_backgroundBlur_371_86264" result="shape"/>
</filter>
<linearGradient id="paint0_linear_371_86264" x1="-95.5249" y1="-37" x2="307.477" y2="99.9002" gradientUnits="userSpaceOnUse">
<stop stop-color="#006AA2"/>
<stop offset="1" stop-color="#3EBCFF"/>
</linearGradient>
<linearGradient id="paint1_linear_371_86264" x1="319.801" y1="88" x2="135.527" y2="79.646" gradientUnits="userSpaceOnUse">
<stop stop-color="white"/>
<stop offset="1" stop-color="white" stop-opacity="0.33"/>
</linearGradient>
</defs>
</svg>
