<?xml version="1.0" encoding="utf-8"?>
<!-- Generator: Adobe Illustrator 26.3.1, SVG Export Plug-In . SVG Version: 6.00 Build 0)  -->
<svg version="1.1" id="Layer_1" xmlns="http://www.w3.org/2000/svg" xmlns:xlink="http://www.w3.org/1999/xlink" x="0px" y="0px"
	 viewBox="0 0 271 81" style="enable-background:new 0 0 271 81;" xml:space="preserve">
<style type="text/css">
	.st0{fill:url(#SVGID_1_);}
	.st1{fill:#ECD844;stroke:#000000;stroke-width:0.2931;stroke-miterlimit:10;}
	.st2{stroke:#000000;stroke-width:0.2931;stroke-miterlimit:10;}
	.st3{fill:none;stroke:#000000;stroke-width:0.2931;stroke-miterlimit:10;}
	.st4{fill:#FFFFFF;}
	.st5{fill:none;stroke:#000000;stroke-width:0.3171;stroke-miterlimit:10;}
	.st6{fill:#090B0E;stroke:#000000;stroke-width:0.7865;stroke-miterlimit:10;}
	.st7{fill:#090B0F;stroke:#000000;stroke-width:0.7865;stroke-miterlimit:10;}
	.st8{fill:#EDD250;}
	.st9{fill:#0075B3;stroke:#FFFFFF;stroke-width:0.6353;stroke-miterlimit:10;}
	.st10{fill:#090B0F;}
	.st11{fill:#03070E;}
	.st12{fill:none;stroke:#000000;stroke-width:0.1316;stroke-miterlimit:10;}
	.st13{stroke:#000000;stroke-width:0.1316;stroke-miterlimit:10;}
	.st14{fill:#DABB7F;stroke:#000000;stroke-width:0.3457;stroke-miterlimit:10;}
	.st15{fill:#F44B49;stroke:#000000;stroke-width:0.3457;stroke-miterlimit:10;}
	.st16{fill:#FFFFFF;stroke:#000000;stroke-width:0.3457;stroke-miterlimit:10;}
	.st17{fill:none;stroke:#020202;stroke-width:0.2129;stroke-miterlimit:10;}
	.st18{fill:none;stroke:url(#SVGID_00000152226810083745877280000015018105373401100935_);}
</style>
<g>
	
		<linearGradient id="SVGID_1_" gradientUnits="userSpaceOnUse" x1="-95.305" y1="119.6527" x2="276.2419" y2="-5.5528" gradientTransform="matrix(1 0 0 -1 0 82)">
		<stop  offset="0" style="stop-color:#0075B3"/>
		<stop  offset="1" style="stop-color:#FFFFFF;stop-opacity:0"/>
	</linearGradient>
	<rect class="st0" width="271" height="80.2"/>
	<path class="st1" d="M22.8,55.9l-0.4,1.6c-4.7-4.5-5.8-7.9-8.9-7.6c0.1,0,0.6-0.2-1.3-1.3c-2.1-1.2-1-2.8-1-2.8
		c1.6-3.6,1.2-3.5,1.2-5.1c0-0.3,0.1-0.7,0.3-1c0.2-0.3,0.4-0.5,0.7-0.7C14.7,45.6,18,51.5,22.8,55.9z"/>
	<path class="st1" d="M57.2,46.7c0,0.1-0.1,0.2-0.1,0.3c-0.4,1-1.1,2-2,2.6c-0.5-0.4-1.2-0.6-2.2-0.4c-2.5,0.3-4.4,4.5-7.3,8.2
		l-0.3-2.3c4.3-4.3,7.3-9.8,8.5-15.8c0.4-0.1,2.4-0.3,2,3.6C55.9,42.9,57.7,44.8,57.2,46.7z"/>
	<path class="st1" d="M56.3,53c-0.1,1-0.3,2-0.5,2.9c0,0.2-0.1,0.3-0.1,0.4c-0.2,0.5-0.4,0.8-0.6,0.5c-0.7-1.2-3.8,2.4-4.2,2.8
		c-1.9,2.1-3.3,4.2-5.6,5.8c-5.3,3.6-12.4,5-18.5,2.7c-4.2-1.6-7.3-4.8-10.5-7.9c-0.7-0.7-1.5-1.4-2.2-2c-0.1-0.1-3-2.3-3-1.9v-5.5
		c1-0.5,1.8-0.7,2.5-0.8c3.1-0.3,4.1,3.1,8.9,7.6c5.8,5.5,11,7.2,17.7,4.4c2.3-0.9,4.1-2.7,5.6-4.6c2.9-3.6,4.8-7.8,7.3-8.2l0.1,0
		c0.2,0,0.5,0,0.7,0c0.5,0,1,0.2,1.4,0.5C56.5,50.7,56.3,53,56.3,53z"/>
	<path class="st1" d="M57.3,60c-0.3,0.3-0.6,0.6-1,0.8c-0.4,0.2-0.8,0.3-1.2,0.3H55h0c-2,0-4.1-1.4-4.1-1.4l0.1-0.1
		c0.4-0.5,2.2-2.5,3.3-2.9c0.4-0.1,0.6-0.1,0.8,0.2c0,0.1,0.1,0.1,0.1,0.1c0.1,0,0.2-0.1,0.3-0.2c0.5-0.8,0.8-3.8,0.8-3.8
		C56.1,56.4,59.3,57.4,57.3,60z"/>
	<path class="st2" d="M16.3,60.3l-2.8-0.5l0.6-1.5C14.9,58.9,15.6,59.6,16.3,60.3z"/>
	<path class="st2" d="M14.1,58.2c-1.6-1-3,1-3,1c-0.4-0.7-0.6-1.5-0.6-2.3c0-0.8,0.2-1.6,0.6-2.3v1.6C11.1,55.9,14,58.1,14.1,58.2z"
		/>
	<path d="M16.8,55.9l0.4,0.2l-0.1-0.7c0.2,0,0.4-0.1,0.5-0.3c0.2-0.3,0.1-0.6-0.3-0.8l-0.6-0.4l-0.9,1.5l0.3,0.2l0.3-0.5l0.3,0.2
		L16.8,55.9z M16.9,54.3l0.3,0.2c0.2,0.1,0.2,0.3,0.2,0.4c-0.1,0.1-0.3,0.1-0.4,0l-0.3-0.2L16.9,54.3z"/>
	<path d="M20.3,56.8l0.2-0.2l-0.9-0.8L18.4,57l0.9,0.8l0.2-0.2L18.9,57l0.2-0.3l0.6,0.5l0.2-0.2l-0.6-0.5l0.3-0.3L20.3,56.8z"/>
	<path d="M21.1,59.1c-0.2-0.2-0.2-0.5,0-0.8c0.2-0.2,0.6-0.2,0.8,0c0.2,0.2,0.2,0.4,0,0.6l0.2,0.3c0.3-0.4,0.2-0.8-0.1-1.1
		c-0.3-0.4-0.9-0.4-1.2,0c-0.4,0.4-0.4,0.9,0,1.2c0.3,0.3,0.7,0.4,1.1,0.1l-0.2-0.3C21.5,59.3,21.2,59.3,21.1,59.1z"/>
	<path d="M24.5,60.6l-1.1-1.1l-0.2,0.2l0.4,0.4l-1,1l0.2,0.2l1-1l0.4,0.4L24.5,60.6z"/>
	<path d="M26,62.4l0.2-0.2l-1-0.8l-1.1,1.3l1,0.8l0.2-0.2l-0.7-0.6l0.2-0.3l0.6,0.5l0.2-0.2L25,62.1l0.2-0.3L26,62.4z"/>
	<path d="M28.3,63.7c-0.3-0.2-0.7-0.1-0.8,0.2c-0.1,0.2-0.1,0.4,0.2,0.7l0.2,0.2c0.1,0.1,0.1,0.2,0.1,0.3c-0.1,0.1-0.2,0.1-0.3,0
		c-0.2-0.1-0.3-0.3-0.2-0.5l-0.3-0.2c-0.2,0.3,0,0.7,0.4,0.9c0.3,0.2,0.7,0.1,0.8-0.1c0.1-0.2,0-0.4-0.2-0.7l-0.2-0.1
		c-0.1-0.1-0.2-0.2-0.1-0.3c0.1-0.1,0.2-0.1,0.4,0c0.2,0.1,0.2,0.2,0.2,0.4l0.3,0.2C28.8,64.1,28.5,63.8,28.3,63.7z"/>
	<path d="M30.3,66.5l0.3,0.1l-0.2-1.8l-0.3-0.1L28.9,66l0.3,0.1l0.2-0.3l0.7,0.2L30.3,66.5z M29.7,65.6l0.5-0.5l0.1,0.7L29.7,65.6z"
		/>
	<path d="M32.7,65.3L32,65.2l-0.1,1.7l0.3,0l0-0.5l0.3,0c0.4,0,0.7-0.2,0.8-0.6C33.3,65.6,33.1,65.3,32.7,65.3z M32.6,66.2l-0.3,0
		l0-0.6l0.3,0c0.2,0,0.3,0.1,0.3,0.3C33,66.1,32.8,66.2,32.6,66.2z"/>
	<path d="M35.4,65.6l0-0.3l-1.2,0.1l0.2,1.7l1.2-0.1l0-0.3l-0.9,0.1l0-0.4l0.8-0.1l0-0.3l-0.8,0.1l0-0.4L35.4,65.6z"/>
	<path d="M37.7,66.5l0.4-0.1l-0.6-0.4c0.2-0.1,0.2-0.4,0.2-0.6c-0.1-0.3-0.4-0.5-0.8-0.4l-0.7,0.2l0.5,1.6l0.3-0.1l-0.2-0.5l0.3-0.1
		L37.7,66.5z M36.6,65.4l0.3-0.1c0.2-0.1,0.4,0,0.4,0.2c0,0.2-0.1,0.3-0.2,0.4l-0.3,0.1L36.6,65.4z"/>
	<path d="M39.7,64.2l-0.1-0.3l-1.1,0.6l0.8,1.5l1.1-0.6l-0.1-0.3l-0.8,0.4l-0.2-0.3l0.7-0.4l-0.1-0.3L39.1,65l-0.2-0.3L39.7,64.2z"
		/>
	<path d="M42.2,62.3L42,62.1l-0.9,0.8l1.1,1.3l0.3-0.2L42,63.5l0.6-0.5l-0.2-0.2l-0.6,0.5l-0.3-0.3L42.2,62.3z"/>
	<path d="M43.3,60.8c-0.4,0.3-0.4,0.9,0,1.2c0.3,0.4,0.9,0.4,1.2,0s0.4-0.9,0-1.2C44.2,60.5,43.7,60.4,43.3,60.8z M44.3,61.8
		c-0.2,0.2-0.6,0.2-0.8,0c-0.2-0.2-0.2-0.6,0-0.8c0.2-0.2,0.6-0.2,0.8,0C44.5,61.3,44.5,61.6,44.3,61.8z"/>
	<path d="M46.4,58.2l0.6,0.9l-1.4-0.3l-0.2,0.1l1,1.4l0.3-0.2l-0.6-0.9l1.4,0.3l0.2-0.2l-1-1.4L46.4,58.2z"/>
	<path d="M48.8,56.5c-0.3,0.2-0.5,0.5-0.3,0.8c0.1,0.2,0.3,0.3,0.7,0.2l0.3-0.1c0.2-0.1,0.3,0,0.3,0.1c0.1,0.1,0,0.2-0.2,0.3
		c-0.2,0.1-0.4,0.1-0.5-0.1l-0.3,0.2c0.2,0.3,0.6,0.4,0.9,0.2c0.4-0.2,0.5-0.5,0.3-0.8c-0.1-0.2-0.4-0.3-0.7-0.2l-0.2,0.1
		c-0.2,0-0.3,0-0.3-0.1c-0.1-0.1,0-0.2,0.2-0.3c0.2-0.1,0.3-0.1,0.4,0.1l0.3-0.2C49.4,56.3,49.1,56.4,48.8,56.5z"/>
	<path d="M55.6,58c-0.7,0.4-2.4,2.1-0.4,3.1H55c-1.8,0-3.7-1.2-4.1-1.5c0.4-0.5,2.2-2.5,3.3-2.9c0.4-0.1,0.6-0.1,0.8,0.2
		c0,0.1,0.1,0.1,0.1,0.1c0.1,0,0.2-0.1,0.3-0.2C55.7,57.1,56.1,57.7,55.6,58z"/>
	<path class="st2" d="M56.3,53c-0.1,1-0.3,2-0.5,2.9c-0.2-0.1-0.4-0.2-0.6-0.2c0,0-0.4-0.1-0.1-1.3c0.4-1.3-0.1-1.2-0.4-1.6
		c-0.3-0.4,0-1.2,0-1.2s-0.7-0.2-0.6-1.1c0-0.4-0.1-0.9-0.2-1.3c0.5,0,1,0.2,1.4,0.5C56.5,50.7,56.3,53,56.3,53z"/>
	<path d="M13.5,46.4c-0.4,0.1-0.8,0.4-1.1,0.7c-0.7,0.7,0,1.6,0,1.6C8.5,45.3,13.5,46.4,13.5,46.4l1.3-2.3l0.5,1.2l-1.2,2L13.5,46.4
		z"/>
	<path class="st3" d="M13.5,46.4c-0.4,0.1-0.8,0.4-1.1,0.7c-0.7,0.7,0,1.6,0,1.6C8.5,45.3,13.5,46.4,13.5,46.4z M13.5,46.4l1.3-2.3
		l0.5,1.2l-1.2,2L13.5,46.4"/>
	<path class="st2" d="M16.8,48.3L16,49.2l0.8,1l0.7-0.7L16.8,48.3z"/>
	<path class="st1" d="M57.2,46.7c0,0.1-0.1,0.2-0.1,0.3c-1.3-5.4-3.1,0.7-3.1,0.7l-1.8-3c0.7-1.8,1.3-3.6,1.6-5.5
		c0.4-0.1,2.4-0.3,2,3.6C55.9,42.9,57.7,44.8,57.2,46.7z"/>
	<path class="st3" d="M56.3,48.3l-0.8-1.5"/>
	<path class="st2" d="M50.9,47.8l1.4,0.6l-0.9,0.9L50,49.2L50.9,47.8z"/>
	<path class="st3" d="M47.6,52.7l1.4-0.1"/>
	<path class="st3" d="M46.9,53.6h1.5"/>
	<path class="st3" d="M45.8,54.7h1.8"/>
	<path class="st3" d="M22.8,55.9l-2.3-0.3"/>
	<path class="st3" d="M21.1,54.2l-2-0.3"/>
	<path class="st3" d="M19.9,52.8L18,52.7"/>
	<path class="st4" d="M54.6,11.6v23.2c-0.1,1.3-0.3,2.7-0.5,4c-1.1,5.2-3.4,10-6.8,14c-3.4,4-7.8,7.1-12.7,8.9
		c-0.2,0.1-0.4,0.2-0.6,0.2c-0.2-0.1-0.4-0.2-0.6-0.2c-5.6-2.1-10.4-5.7-13.9-10.4s-5.7-10.4-6.1-16.4V11.6H54.6z"/>
	<path class="st5" d="M54.9,11.3v23.5c-0.4,5.6-2.3,10.9-5.4,15.5C46.3,55,42,58.6,37,61l0,0c-0.8,0.4-1.6,0.7-2.4,1
		c-0.2,0.1-0.4,0.2-0.7,0.2c-0.2-0.1-0.4-0.2-0.7-0.2c-0.9-0.3-1.8-0.7-2.7-1.1c-5-2.4-9.2-6.1-12.3-10.6c-3.1-4.6-4.9-9.9-5.3-15.4
		V11.3H54.9z"/>
	<path class="st6" d="M31.1,38.8c0.3,1.4,0.3,2.6,0.1,3.4c-0.6,2.7-2,3.7-0.7,6.6c0,0.1,0.1,0.2,0.1,0.3c0,0,0.6,1.2-0.4,4
		c0,0-0.5,0.9,0.6,3.6c0.1,0.8,0.1,1.7,0.1,2.5c-4.6-2.2-8.5-5.6-11.4-9.9c-2.9-4.2-4.6-9.2-5-14.3V16.7c1.8,0.8,4.7,2.5,4.1,4.9
		c-0.4,1.6,0,2.8,0.9,3.9c1,1.2,2.8,2.2,5.2,3.4l0.3,0.1c0.2,0.1,0.5,0.3,0.7,0.4c0.9,0.6,1.8,1.5,2.4,2.4c0,0,0,0,0,0
		c0.2,0.3,0.5,0.7,0.7,1.1c0,0,0,0.1,0.1,0.1c0.2,0.3,0.4,0.7,0.5,1c0,0.1,0.1,0.1,0.1,0.2C30.3,35.6,30.8,37.2,31.1,38.8L31.1,38.8
		z"/>
	<path class="st7" d="M36.1,27.3l-0.4,0.5l-0.6,0.7l-1.3,1.5l-0.3,0.4c0,0-0.3-0.6-0.9-1.4L32.6,29c-0.1-0.1-0.2-0.3-0.3-0.4
		c-0.1-0.2-0.3-0.4-0.4-0.6c-0.2-0.2-0.3-0.4-0.4-0.6c-0.3-0.3-0.5-0.7-0.8-1c-1-1.3-2.2-2.4-3.4-2.8c-0.4-0.1-0.7-0.3-1.1-0.5
		c-1.8-1.3-1.9-3.6-1.9-3.6c-0.2-3.3-3-5.8-4.5-6.7h28.4c-0.5,0.3-1.1,1.2-2.2,1.8c-2.6,1.4-2.2,3-2.6,5.6c-0.1,0.6-0.3,1.1-0.6,1.6
		c-0.3,0.5-0.7,0.9-1.2,1.2c-0.8,0.5-1.6,0.9-2.4,1.2c-1,0.5-1.9,1.5-2.4,2.1c-0.2,0.3-0.4,0.6-0.4,0.6L36.1,27.3z"/>
	<path class="st7" d="M53.4,16.7V35c-0.4,5.2-2.1,10.1-5,14.4c-2.9,4.3-6.9,7.7-11.6,9.9c0-0.1,0.1-0.3,0.1-0.4
		c0.3-1.5-0.4-3.7-0.4-3.7c-0.2-3.5,1.6-3.5,0.3-6c-0.3-0.5-0.5-1.1-0.7-1.6c-0.4-1.4-0.1-2-0.1-2c0.9-1.7,1.2-3.7,0.9-5.6l0.1-1
		l0.2-3.3l0-0.8c0,0,0.3-0.3,0.8-0.9l0.2-0.2c0.2-0.2,0.5-0.5,0.8-0.8l0.1-0.1c0.3-0.3,0.6-0.6,1-1c0.6-0.6,1.3-1.2,1.9-1.8
		c0.5-0.4,0.9-0.8,1.4-1.2c0.7-0.6,1.5-1.2,2.3-1.7c0.1,0,0.2-0.1,0.2-0.1c3-1.7,3.5-2.3,3.5-5.8S53.4,16.7,53.4,16.7z"/>
	<path class="st8" d="M24.6,19.9c1.4,1,2.6,2.2,3.5,3.6c1.4,2.3,1.9,1.9,1.9,1.9s-3.3-6-2.7-6.4c0.6-0.4,2.8,5.3,3.2,5
		c0.4-0.3,0.1-1.1,0.1-1.1l0.1-3.3c0,0-0.9-2.2-0.7-2.2s1.7,1.9,1.7,1.9l0.4,3.5c0,0,0.4,1,0.5,0.6c0.2-0.4,0.8-6.2,0.8-6.2l1.1,6.1
		l0.3,0.2c0,0,0.7-0.2,0.5-2.2l1-1.7l0.3-2.3l0.6,3l-0.9,1.4l-0.1,1.7l0.3,0.3l3.7-5.9l-1.7,6.1l0.5,0.6c0.3-0.6,0.5-1.1,0.7-1.7
		c0.3-1.1,1.7-1.9,1.7-1.9l1-1.8l-0.1,2.1l-1,2.1l0,1.3c0,0,3-2.2,3.7-3.4c0.7-1.3-1.8,3.7-2.3,4c-0.5,0.3,5.6-1.9,5.6-1.9l-4.1,3
		c0,0,0.8,1.7,1.4,1.7c0.6,0,3.6-1,3.6-1s-0.9,1.9-4,2.5c0,0-0.9,0.6,0.1,1.2c0.9,0.5,4.5-0.6,4.5-0.6l-2.2,1.6l-2.6,0.1
		c0,0-0.4,0.8,0,0.9c0.4,0.1,4.6,0.7,5.2,1.6c0.6,0.9-4.4-0.6-5,0c-0.7,0.6-0.6,0.9-0.4,1.1c0.3,0.2,1.1-0.6,2.5,0.8
		c1.2,0,2.3,0.3,3.2,1.1c1.4,1.2-5-0.3-5-0.3s-0.5,0.2-0.1,0.6c0.4,0.4,4.3,2.4,4.3,2.4s-4.7-1.5-5.3-0.5c-0.7,1,3.3,3.7,3.3,3.7
		s-4.4-2.6-5.2-2.5c-0.7,0.1,2.8,4.8,2.8,4.8s-4.8-5-5.3-4.4c-0.5,0.6,0.9,2.6,0.9,2.6l0.1,1.1l2,2.4c0,0-5.1-5.1-5.4-5
		c-0.3,0.1,2.9,7.5,2.9,7.5s-1-1.3-2-2.5c-1-1.2-2-2.4-2.2-2.3c-0.3,0.3,2.2,4.8,2.2,4.8l-2.6-2l-1.7,4.7L34,47.8l-5.1,1.9l1-4.1
		l-3.6,4c0,0,3-6.7,2.8-6.8c-0.2-0.1-4.8,4.8-4.8,4.8s3.5-5.3,3-5.8c-0.4-0.5-5.5,3.5-5.5,3.5l3.6-4.7l-6.9,2.9l3.5-4.1
		c0,0-2.6-0.2-4.7,0.5c-2.1,0.7,4-2.6,4-2.6s-3.1-0.9-4.8-0.7c-1.7,0.3,5.1-1.6,5.1-1.6s-4.8-1.9-5.3-1.9c-0.5,0,5.3-0.6,5.3-0.6
		c-1.6-1.3-3.4-2.4-5.3-3.1c-3.1-1.2,5,0.7,5,0.7s0.4-0.9-3.5-3.7C14,23.6,24,27.7,24,27.7l-2.8-5.1l5.5,2.6L24.6,19.9z"/>
	<path class="st9" d="M54.1,12.1v4.6c0,0-4.8,1.1-4.8,4.5c0,3.4-0.5,4.1-3.5,5.8c-0.1,0-0.1,0.1-0.2,0.1c-0.8,0.5-1.6,1.1-2.3,1.7
		c-0.5,0.4-0.9,0.8-1.4,1.2c-0.7,0.6-1.3,1.2-1.9,1.8c-0.3,0.3-0.7,0.7-1,1L39,32.9c-0.3,0.3-0.6,0.6-0.8,0.8L37.9,34
		c-0.5,0.5-0.8,0.9-0.8,0.9l0,0.8L36.8,39l-0.1,1c0.4,1.9,0.1,3.9-0.9,5.6c0,0-0.3,0.6,0.1,2c0.2,0.6,0.4,1.1,0.7,1.6
		c1.3,2.5-0.5,2.5-0.3,6c0,0,0.7,2.2,0.4,3.7c0,0.2-0.1,0.8-0.1,0.9l0,0.4c-0.7,0.3-1.4,0.6-2.2,0.9c-0.2,0.1-0.4,0.1-0.6,0.2
		c-0.2-0.1-0.4-0.1-0.6-0.2c-0.8-0.3-1.7-0.7-2.5-1.1c0.1-1.2-0.1-3.5-0.1-3.5c-1-2.7-0.6-3.6-0.6-3.6c1-2.8,0.4-4,0.4-4
		c0-0.1-0.1-0.2-0.1-0.3c-1.3-2.8,0.1-3.9,0.7-6.6c0.2-0.8,0.1-2-0.1-3.4c-0.3-1.6-0.8-3.1-1.5-4.6c0-0.1-0.1-0.1-0.1-0.2
		c-0.2-0.3-0.3-0.7-0.5-1c0,0,0-0.1-0.1-0.1c-0.2-0.4-0.5-0.7-0.7-1.1c0,0,0,0,0,0c-0.7-0.9-1.5-1.7-2.4-2.4
		c-0.2-0.2-0.5-0.3-0.7-0.4l-0.3-0.1c-2.4-1.2-4.2-2.2-5.2-3.4c-0.9-1-1.3-2.2-0.9-3.9c0.5-2.4-2.9-4.1-4.8-4.9v-4.4l5.3,0.1
		c1.5,0.9,4.9,3.8,5.1,7.1c0,0,0.1,2.3,1.9,3.6c0.3,0.2,0.7,0.4,1.1,0.5c1.1,0.4,2.3,1.5,3.4,2.8c0.3,0.3,0.5,0.7,0.8,1
		c0.2,0.2,0.3,0.4,0.4,0.6c0.1,0.2,0.3,0.4,0.4,0.6c0.1,0.1,0.2,0.3,0.3,0.4l0.1,0.1c0.5,0.8,0.9,1.4,0.9,1.4l0.3-0.4l1.3-1.5
		l0.6-0.7l0.4-0.5l0.4-0.5c0,0,0.1-0.2,0.4-0.6c0.5-0.6,1.3-1.6,2.4-2.1c0.7-0.3,1.6-0.7,2.4-1.2c0.5-0.3,0.9-0.7,1.2-1.2
		c0.3-0.5,0.5-1,0.6-1.6c0.4-2.6,0-4.2,2.6-5.6c1.2-0.6,2-2.1,2.6-2.4L54.1,12.1z"/>
	<path class="st10" d="M54,40.4c0,0,0.3,1.9,0.6,2.6c0.3,0.7,1.2,1.8,1.2,1.8s0.8-0.2,1.3,2.2c0,0,0.6-1.6-1.2-4.1
		c0,0,0.8-3.4-1.5-3.7L54,40.4z"/>
	<path class="st11" d="M12.8,50.3v1c0,0-0.5-0.7-0.8,0C11.7,52,12,55,12,55l-0.9,1v-4.9C11.1,51.1,11.6,49.7,12.8,50.3z"/>
	<path class="st12" d="M12.8,50.3l0.5,7.1"/>
	<path class="st13" d="M13.6,40.3l-0.4,1.5l0.8,0.2l-0.5,2.5l1.1-1.3L13.6,40.3z"/>
	<path class="st14" d="M47.7,30v13.6H37.1L36,42.1c-2.2,2.2-4.6,0-4.6,0l-1.3,1.5h-9.8V31.3c0.7-0.1,1.4-0.3,2.1-0.5v11.2l8.6-0.6
		c0,0,2.8,1.9,5,0.2l9.3,0.4V30.1c0.4,0.1,0.4-0.1,0.4-0.1H47.7z"/>
	<path class="st15" d="M45.3,30.1v11.9L36,41.6c-2.2,1.7-5-0.2-5-0.2l-8.6,0.6V30.8c1.3-0.5,1.9-1.1,1.9-1.1c0.1,0,0.1-0.1,0.1-0.1
		v9.3c1.9,0.3,3.9-0.2,5.5-1.3c1.2-0.8,2-0.8,2.7-0.5c0.6,0.3,1.1,0.7,1.4,1.3c0,0,1.5-2.6,4.8-0.4c3.3,2.2,4.6,1.7,4.6,1.7V29.2
		c0.5,0.3,1.1,0.6,1.6,0.8C45.2,30.1,45.2,30.1,45.3,30.1z"/>
	<path class="st15" d="M45.3,30L45.3,30c0,0-0.1,0-0.1,0L45.3,30z"/>
	<path class="st16" d="M43.5,29.2v10.4c0,0-1.3,0.6-4.6-1.7c-3.3-2.2-4.8,0.4-4.8,0.4c-0.3-0.6-0.8-1-1.4-1.3
		c-0.7-0.3-1.6-0.2-2.7,0.5c-1.6,1.1-3.6,1.6-5.5,1.3v-9.3c6-5,9.5-2.1,9.5-2.1s3.5-2.2,7.6,0.6C42.3,28.5,43,28.9,43.5,29.2z"/>
	<path class="st17" d="M39.1,35.7h-3.8h-3h-3.8"/>
	<path class="st17" d="M31.5,34.3v1.5"/>
	<path class="st17" d="M33.1,32.6v3.1"/>
	<path class="st17" d="M34.6,30.9v4.9"/>
	<path class="st17" d="M36.1,28.3v7.5"/>
	<path class="st17" d="M36.6,29.6l1.2-0.8l0.8,1.1"/>
	<path class="st17" d="M30,34.1c1,0.2,2,0.2,3,0c0.5-0.1,1-0.3,1.5-0.6c0.9-0.5,1.6-1.1,2.2-2c0.6-0.8,0.9-1.8,1.1-2.7"/>
	<path class="st4" d="M85,36.4c2.8,0,4.2-1.5,4.2-4.4v-3.8c0-1.2,0.4-1.9,0.8-2.1v0h-3.5v0c0.3,0.2,0.7,1,0.7,2.1v3.9
		c0,1.9-0.6,2.7-2,2.7c-1.6,0-2.2-0.7-2.2-2.7v-3.9c0-1.2,0.4-1.9,0.7-2.1v0h-3.5v0c0.4,0.2,0.8,1,0.8,2.1V32
		C81,34.9,82.4,36.4,85,36.4z M91.3,36.1h3.4v0c-0.4-0.2-0.7-0.9-0.7-2.1v-2.5c0-1,0-2-0.3-3.4h0.1c0.4,1.3,0.8,2.2,1.5,3.3l2,3.3
		c0.3,0.5,0.6,1,0.7,1.4h3.1v0c-0.4-0.2-0.8-1-0.8-2.1v-5.7c0-1.2,0.4-1.9,0.8-2.1v0h-3.4v0c0.4,0.2,0.7,0.9,0.7,2.1v2.6
		c0,0.8,0,1.8,0.2,3h-0.1c-0.4-1.1-0.9-2.1-1.3-2.9l-2.1-3.5c-0.5-0.8-0.6-1.1-0.6-1.4h-3.3v0c0.5,0.4,0.8,1.3,0.8,2.1v5.8
		C92.1,35.1,91.7,35.8,91.3,36.1L91.3,36.1z M102.8,36.1h3.6v0c-0.4-0.2-0.8-0.9-0.8-2.1v-5.7c0-1.2,0.4-1.9,0.8-2.1v0h-3.6v0
		c0.4,0.2,0.8,0.9,0.8,2.1v5.7C103.6,35.1,103.2,35.8,102.8,36.1L102.8,36.1z M110.5,36.1h3.7v0c-0.3-0.3-0.5-1-0.1-2l2.2-6.2
		c0.3-0.8,0.7-1.5,1.2-1.8v0h-3.1v0c0.2,0.3,0.3,0.8,0.1,1.4l-1.2,3.6c-0.2,0.7-0.6,1.9-0.8,3h-0.1c-0.1-1.1-0.5-2.3-0.8-3l-1.3-3.7
		c-0.2-0.6-0.1-1.1,0.1-1.4v0h-3.4v0c0.6,0.4,1.1,1.2,1.3,1.9l2.2,6.1C111,35.1,110.8,35.8,110.5,36.1L110.5,36.1z M125.5,33.3
		c-0.6,0.9-1.6,1.4-2.9,1.4H121v-3.3h1.3c0.8,0,1.3,0.3,1.6,0.9h0l0.4-2.4c-0.7,0.1-1.1,0.1-2.3,0.1H121v-2.6h1.9
		c1.1,0,1.9,0.4,2.3,1.1l0,0l-0.2-2.6c-0.3,0.1-1,0.1-1.5,0.1h-5.2v0c0.4,0.2,0.8,0.9,0.8,2.1v5.7c0,1.2-0.4,1.9-0.8,2.1v0h5.1
		c0.9,0,1.2,0,1.8,0.1L125.5,33.3L125.5,33.3z M134.1,34.2l-1.3-2.2c1.2-0.4,2-1.3,2-2.9c0-1.9-1.3-3.1-3.7-3.1h-4.1v0
		c0.4,0.2,0.8,0.9,0.8,2.1v5.8c0,1.2-0.4,1.9-0.8,2.1v0h3.5v0c-0.3-0.2-0.7-0.9-0.7-2.1v-6.5l1,0c1.2,0,1.9,0.7,1.9,1.7
		c0,1.3-0.7,1.8-1.9,1.8H130l2.2,3.8c0.3,0.5,0.6,1,0.7,1.6l3-0.5v0C135.3,35.6,134.6,35.1,134.1,34.2z M139.4,36.3
		c2.4,0,3.5-1.4,3.5-3c0-2.2-1.5-2.8-2.8-3.4c-0.9-0.4-1.8-0.7-1.8-1.6c0-0.7,0.6-1.1,1.7-1.1c0.8,0,1.7,0.2,2.3,1.2h0l-0.2-2.4
		c-0.8-0.2-1.5-0.3-2.3-0.3c-2.2,0-3.5,1.3-3.5,2.8c0,2,1.4,2.6,2.7,3.1c1,0.4,1.9,0.8,1.9,1.8c0,0.8-0.5,1.3-1.7,1.3
		c-1.2,0-2.1-0.4-3-1.5l0,0l0.2,2.4C137.1,36.2,138.2,36.4,139.4,36.3z M144.3,36.1h3.6v0c-0.4-0.2-0.8-0.9-0.8-2.1v-5.7
		c0-1.2,0.4-1.9,0.8-2.1v0h-3.6v0c0.4,0.2,0.8,0.9,0.8,2.1v5.7C145.1,35.1,144.7,35.8,144.3,36.1L144.3,36.1z M156.8,25.9
		c-0.7,0.1-1.3,0.1-2,0.1h-3.5c-0.7,0-1.3,0-2-0.1l-0.2,2.7l0,0c0.3-0.6,1-1.1,1.9-1.1h1.1v6.3c0,1.2-0.5,2-0.9,2.3v0h3.8v0
		c-0.5-0.2-0.9-1-0.9-2.3v-6.3h1.1c0.9,0,1.6,0.5,1.9,1.1l0,0L156.8,25.9z M164.1,26L164.1,26c0.1,0.4,0,1-0.3,1.5l-1.1,1.9
		c-0.1,0.3-0.3,0.5-0.5,0.9h-0.1c-0.1-0.4-0.3-0.7-0.4-0.9l-1.1-1.9c-0.3-0.5-0.5-1.1-0.3-1.5v0h-3.1v0c0.4,0.3,0.8,0.9,1.2,1.5
		l2.8,4.6v1.7c0,1.2-0.5,2-0.9,2.3v0h3.8v0c-0.5-0.2-0.9-1-0.9-2.3v-1.8l2.7-4.5c0.4-0.6,0.8-1.2,1.2-1.5v0H164.1z M176.2,36.4
		c3.2,0,5.4-2.2,5.4-5.4c0-3.1-2.1-5.2-5.2-5.2c-3.4,0-5.4,2.2-5.4,5.4C171.1,34.2,173,36.4,176.2,36.4z M176.4,34.9
		c-2.1,0-3.2-1.5-3.2-3.9c0-2.3,1.2-3.8,3.1-3.8c2,0,3.2,1.4,3.2,3.9C179.5,33.4,178.1,34.9,176.4,34.9z M189.9,25.9
		c-0.5,0.1-1,0.1-1.9,0.1h-4.9v0c0.4,0.2,0.8,0.7,0.8,2.1v5.7c0,1.2-0.4,1.9-0.8,2.1v0h3.6v0c-0.4-0.2-0.8-0.9-0.8-2.1v-2.3h1.4
		c0.7,0,1.4,0.4,1.6,1h0l0.5-2.6c-0.4,0.1-1.1,0.1-2.2,0.1h-1.3v-2.7h1.6c1.1,0,2.1,0.3,2.6,1.2l0,0L189.9,25.9z M195.1,36.1h3.6v0
		c-0.4-0.2-0.8-0.9-0.8-2.1v-5.7c0-1.2,0.4-1.9,0.8-2.1v0h-3.6v0c0.4,0.2,0.8,0.9,0.8,2.1v5.7C195.9,35.1,195.5,35.8,195.1,36.1
		L195.1,36.1z M206,30.8L206,30.8c0.8-0.2,1.7-1.1,1.7-2.2c0-1.7-1.1-2.5-3.3-2.5h-4v0c0.5,0.3,0.9,1,0.9,2.2v5.6
		c0,1.3-0.5,2-0.9,2.2v0h4.4c2,0,3.4-1.1,3.4-3C208.2,32,207.2,30.9,206,30.8z M204.3,27.5c0.9,0,1.4,0.4,1.4,1.2
		c0,0.9-0.5,1.4-1.4,1.4h-1v-2.6H204.3z M204.5,34.7h-1.3v-3.2h1.3c1.1,0,1.6,0.6,1.6,1.6C206.1,34,205.6,34.7,204.5,34.7z
		 M217.4,33.7l-2.1-6c-0.3-0.9,0-1.5,0.3-1.7v0h-3.8v0c0.3,0.2,0.6,0.8,0.3,1.7l-2.1,6c-0.4,1.1-1,2-1.4,2.4v0h3v0
		c-0.2-0.2-0.3-0.8,0-1.8l0.1-0.3h3.7l0.1,0.3c0.4,1,0.2,1.6,0,1.8v0h3.3v0C218.4,35.8,217.8,34.9,217.4,33.7z M213.5,28L213.5,28
		c0.2,1.1,0.6,2.1,0.9,3l0.5,1.5h-2.8l0.5-1.5C213,30.1,213.4,29.1,213.5,28z M219.4,36.1h4c3.6,0,5.3-1.9,5.3-5.1c0-3.2-2-5-5.1-5
		h-4.2v0c0.4,0.2,0.8,1.1,0.8,2.1v5.7C220.2,35.1,219.8,35.8,219.4,36.1L219.4,36.1z M222.2,34.7v-7.2h1.3c2.1,0,3.1,1.1,3.1,3.6
		c0,2.3-1,3.6-3,3.6H222.2z M237.7,33.7l-2.1-6c-0.3-0.9,0-1.5,0.3-1.7v0H232v0c0.3,0.2,0.6,0.8,0.3,1.7l-2.1,6
		c-0.4,1.1-1,2-1.4,2.4v0h3v0c-0.2-0.2-0.3-0.8,0-1.8l0.1-0.3h3.7l0.1,0.3c0.4,1,0.2,1.6,0,1.8v0h3.3v0
		C238.7,35.8,238.1,34.9,237.7,33.7z M233.8,28L233.8,28c0.2,1.1,0.6,2.1,0.9,3l0.5,1.5h-2.8L233,31C233.3,30.1,233.6,29.1,233.8,28
		z M239.7,36.1h3.4v0c-0.4-0.2-0.7-0.9-0.7-2.1v-2.5c0-1,0-2-0.3-3.4h0.1c0.4,1.3,0.8,2.2,1.5,3.3l2,3.3c0.3,0.5,0.6,1,0.7,1.4h3.1
		v0c-0.4-0.2-0.8-1-0.8-2.1v-5.7c0-1.2,0.4-1.9,0.8-2.1v0h-3.4v0c0.4,0.2,0.7,0.9,0.7,2.1v2.6c0,0.8,0,1.8,0.2,3H247
		c-0.4-1.1-0.9-2.1-1.3-2.9l-2.1-3.5c-0.5-0.8-0.6-1.1-0.6-1.4h-3.3v0c0.5,0.4,0.8,1.3,0.8,2.1v5.8
		C240.5,35.1,240.1,35.8,239.7,36.1L239.7,36.1z"/>
	<path class="st4" d="M87.8,51.3c-0.6,0.9-1.6,1.4-2.9,1.4h-1.6v-3.3h1.3c0.8,0,1.3,0.3,1.6,0.9h0l0.4-2.4C86,48,85.6,48,84.4,48
		h-1.1v-2.6h1.9c1.1,0,1.9,0.4,2.3,1.1l0,0l-0.2-2.6C87,44,86.3,44,85.8,44h-5.2v0c0.4,0.2,0.8,0.9,0.8,2.1v5.7
		c0,1.2-0.4,1.9-0.8,2.1v0h5.1c0.9,0,1.2,0,1.8,0.1L87.8,51.3L87.8,51.3z M93.9,54.3c1.2,0,2.4-0.3,3.1-0.6l0.3-2.6l0,0
		c-0.8,1-1.7,1.6-3.3,1.6c-2,0-3.1-1.6-3.1-3.8c0-2.2,1.2-3.6,3.3-3.6c1.1,0,2.2,0.4,2.8,1.4l0,0l-0.2-2.5c-0.8-0.2-1.6-0.4-2.6-0.4
		c-3.3,0-5.5,2-5.5,5.3C88.8,52.1,90.8,54.3,93.9,54.3z M103.4,54.4c3.2,0,5.4-2.2,5.4-5.4c0-3.1-2.1-5.2-5.2-5.2
		c-3.4,0-5.4,2.2-5.4,5.4C98.2,52.2,100.1,54.4,103.4,54.4z M103.5,52.9c-2.1,0-3.2-1.5-3.2-3.9c0-2.3,1.2-3.8,3.1-3.8
		c2,0,3.2,1.4,3.2,3.9C106.6,51.4,105.3,52.9,103.5,52.9z M110.3,54.1h3.4v0c-0.4-0.2-0.7-0.9-0.7-2.1v-2.5c0-1,0-2-0.3-3.4h0.1
		c0.4,1.3,0.8,2.2,1.5,3.3l2,3.3c0.3,0.5,0.6,1,0.7,1.4h3.1v0c-0.4-0.2-0.8-1-0.8-2.1v-5.7c0-1.2,0.4-1.9,0.8-2.1v0h-3.4v0
		c0.4,0.2,0.7,0.9,0.7,2.1v2.6c0,0.8,0,1.8,0.2,3h-0.1c-0.4-1.1-0.9-2.1-1.3-2.9l-2.1-3.5c-0.5-0.8-0.6-1.1-0.6-1.4h-3.3v0
		c0.5,0.4,0.8,1.3,0.8,2.1v5.8C111,53.1,110.6,53.8,110.3,54.1L110.3,54.1z M126.7,54.4c3.2,0,5.4-2.2,5.4-5.4
		c0-3.1-2.1-5.2-5.2-5.2c-3.4,0-5.4,2.2-5.4,5.4C121.5,52.2,123.4,54.4,126.7,54.4z M126.8,52.9c-2.1,0-3.1-1.5-3.1-3.9
		c0-2.3,1.2-3.8,3.1-3.8c2,0,3.2,1.4,3.2,3.9C129.9,51.4,128.6,52.9,126.8,52.9z M133.1,54.1h3.2l0,0c-0.3-0.2-0.5-0.9-0.5-1.8
		l0.2-3c0-0.6,0-1.4-0.1-2.5h0.1c0.3,1,0.6,1.7,1,2.5l1.7,2.8c0.5,0.9,0.7,1.4,0.7,1.7h0.1c0-0.3,0.2-0.9,0.7-1.8l1.6-2.7
		c0.5-0.8,0.8-1.5,1.1-2.5h0.1c-0.1,1.1-0.1,1.8-0.1,2.5l0.2,3c0.1,0.9-0.2,1.6-0.5,1.8l0,0h3.3l0,0c-0.5-0.5-0.8-1.4-0.9-2.1
		l-0.4-5.6c-0.1-0.8,0.2-1.9,0.8-2.3l0,0h-3.4c0.2,0.2,0.1,0.6-0.2,1.3l-1.4,2.5c-0.5,0.8-0.9,1.5-1.1,2.4h-0.1
		c-0.1-0.8-0.4-1.6-0.9-2.4l-1.4-2.5c-0.4-0.7-0.4-1.1-0.2-1.3h-3.3l0,0c0.7,0.4,0.8,1.5,0.8,2.3L134,52
		C133.9,53,133.6,53.6,133.1,54.1L133.1,54.1z M147.4,54.1h3.6v0c-0.4-0.2-0.8-0.9-0.8-2.1v-5.7c0-1.2,0.4-1.9,0.8-2.1v0h-3.6v0
		c0.4,0.2,0.8,0.9,0.8,2.1v5.7C148.2,53.1,147.8,53.8,147.4,54.1L147.4,54.1z M157.6,54.3c1.2,0,2.4-0.3,3.1-0.6l0.3-2.6l0,0
		c-0.8,1-1.7,1.6-3.3,1.6c-2,0-3.1-1.6-3.1-3.8c0-2.2,1.2-3.6,3.3-3.6c1.1,0,2.2,0.4,2.8,1.4l0,0l-0.2-2.5c-0.8-0.2-1.6-0.4-2.6-0.4
		c-3.3,0-5.5,2-5.5,5.3C152.5,52.1,154.5,54.3,157.6,54.3z M165.3,54.3c2.4,0,3.5-1.4,3.5-3c0-2.2-1.5-2.8-2.8-3.4
		c-0.9-0.4-1.8-0.7-1.8-1.6c0-0.7,0.6-1.1,1.7-1.1c0.8,0,1.7,0.2,2.3,1.2h0l-0.2-2.4c-0.8-0.2-1.5-0.3-2.3-0.3
		c-2.3,0-3.5,1.3-3.5,2.8c0,2,1.4,2.6,2.7,3.1c1,0.4,1.9,0.8,1.9,1.8c0,0.8-0.5,1.3-1.7,1.3c-1.2,0-2.1-0.4-3-1.5l0,0l0.2,2.4
		C163,54.2,164.1,54.4,165.3,54.3z M181.6,51.7l-2.1-6c-0.3-0.9,0-1.5,0.3-1.7v0h-3.8v0c0.3,0.2,0.6,0.8,0.3,1.7l-2.1,6
		c-0.4,1.1-1,2-1.4,2.4v0h3v0c-0.2-0.2-0.3-0.8,0-1.8l0.1-0.3h3.7l0.1,0.3c0.4,1,0.2,1.6,0,1.8v0h3.3v0
		C182.6,53.8,182,52.9,181.6,51.7z M177.7,46L177.7,46c0.2,1.1,0.6,2.1,0.9,3l0.5,1.5h-2.8l0.5-1.5C177.2,48.1,177.6,47.1,177.7,46z
		 M190.4,54.2l0.4-2.9l0,0c-0.6,0.9-1.6,1.3-2.9,1.3h-1.4v-6.5c0-1.2,0.4-1.9,0.8-2.1v0h-3.6v0c0.4,0.2,0.8,0.9,0.8,2.1v5.8
		c0,1.2-0.4,1.9-0.8,2.1v0h5.2C189.5,54.1,189.9,54.1,190.4,54.2z M196,54.4c2.8,0,4.2-1.5,4.2-4.4v-3.8c0-1.2,0.4-1.9,0.8-2.1v0
		h-3.5v0c0.3,0.2,0.7,1,0.7,2.1v3.9c0,1.9-0.6,2.7-2,2.7c-1.6,0-2.2-0.7-2.2-2.7v-3.9c0-1.2,0.4-1.9,0.7-2.1v0h-3.5v0
		c0.4,0.2,0.8,1,0.8,2.1V50C192,52.9,193.4,54.4,196,54.4z M201.9,54.1h3.2l0,0c-0.3-0.2-0.5-0.9-0.5-1.8l0.2-3c0-0.6,0-1.4-0.1-2.5
		h0.1c0.3,1,0.6,1.7,1,2.5l1.7,2.8c0.5,0.9,0.7,1.4,0.7,1.7h0.1c0-0.3,0.2-0.9,0.7-1.8l1.6-2.7c0.5-0.8,0.8-1.5,1.1-2.5h0.1
		c-0.1,1.1-0.1,1.8-0.1,2.5l0.2,3c0.1,0.9-0.2,1.6-0.5,1.8l0,0h3.3l0,0c-0.5-0.5-0.8-1.4-0.9-2.1l-0.5-5.6c-0.1-0.8,0.2-1.9,0.8-2.3
		l0,0H211c0.2,0.2,0.1,0.6-0.2,1.3l-1.4,2.5c-0.5,0.8-0.9,1.5-1.1,2.4h-0.1c-0.1-0.8-0.4-1.6-0.9-2.4l-1.4-2.5
		c-0.4-0.7-0.4-1.1-0.2-1.3h-3.3l0,0c0.7,0.4,0.8,1.5,0.8,2.3l-0.4,5.6C202.7,53,202.3,53.6,201.9,54.1L201.9,54.1z M216.2,54.1h3.4
		v0c-0.4-0.2-0.7-0.9-0.7-2.1v-2.5c0-1,0-2-0.3-3.4h0.1c0.4,1.3,0.8,2.2,1.5,3.3l2,3.3c0.3,0.5,0.6,1,0.7,1.4h3.1v0
		c-0.4-0.2-0.8-1-0.8-2.1v-5.7c0-1.2,0.4-1.9,0.8-2.1v0h-3.4v0c0.4,0.2,0.7,0.9,0.7,2.1v2.6c0,0.8,0,1.8,0.2,3h-0.1
		c-0.4-1.1-0.9-2.1-1.3-2.9l-2.1-3.5c-0.5-0.8-0.6-1.1-0.6-1.4h-3.3v0c0.5,0.4,0.8,1.3,0.8,2.1v5.8
		C216.9,53.1,216.5,53.8,216.2,54.1L216.2,54.1z M227.6,54.1h3.6v0c-0.4-0.2-0.8-0.9-0.8-2.1v-5.7c0-1.2,0.4-1.9,0.8-2.1v0h-3.6v0
		c0.4,0.2,0.8,0.9,0.8,2.1v5.7C228.4,53.1,228,53.8,227.6,54.1L227.6,54.1z"/>
	
		<linearGradient id="SVGID_00000090284136519640222890000007559317424481549236_" gradientUnits="userSpaceOnUse" x1="321.5889" y1="33.4387" x2="137.3149" y2="41.7927" gradientTransform="matrix(1 0 0 -1 0 82)">
		<stop  offset="0" style="stop-color:#33B8FF"/>
		<stop  offset="1" style="stop-color:#FFFFFF;stop-opacity:0.33"/>
	</linearGradient>
	
		<rect x="0.5" y="0.5" style="fill:none;stroke:url(#SVGID_00000090284136519640222890000007559317424481549236_);" width="270" height="79.2"/>
</g>
</svg>
