<?xml version="1.0" encoding="utf-8"?>
<!-- Generator: Adobe Illustrator 26.3.1, SVG Export Plug-In . SVG Version: 6.00 Build 0)  -->
<svg version="1.1" id="Layer_1" xmlns="http://www.w3.org/2000/svg" xmlns:xlink="http://www.w3.org/1999/xlink" x="0px" y="0px"
	 viewBox="0 0 636 448.6" style="enable-background:new 0 0 636 448.6;" xml:space="preserve">
<style type="text/css">
	.st0{fill:none;stroke:url(#SVGID_1_);}
	.st1{fill:none;stroke:url(#SVGID_00000044877557942512328730000015785765561238057135_);}
	.st2{fill:none;stroke:url(#SVGID_00000114782295054877619280000012508561630311158951_);}
	.st3{fill:none;stroke:url(#SVGID_00000139271201055053990030000001465732404023341974_);}
	.st4{fill:none;stroke:url(#SVGID_00000009567764468215382250000002974479158421318536_);}
	.st5{fill:none;stroke:url(#SVGID_00000159458053940871849560000018058106654939089297_);}
	.st6{fill:none;stroke:url(#SVGID_00000098901052134517033040000000274821988342369202_);}
	.st7{fill:none;stroke:url(#SVGID_00000047745819515547014110000009101763176933529785_);}
	.st8{fill:none;stroke:url(#SVGID_00000169540578242708138400000009767195674905583284_);}
	.st9{fill:none;stroke:url(#SVGID_00000080925001984837986580000015119834131096498350_);}
	.st10{clip-path:url(#SVGID_00000117642738111162810820000009186707118815863741_);}
	.st11{fill:#FFFFFF;}
	.st12{fill:#F3F3F3;}
	.st13{fill:#D9D9D9;filter:url(#Adobe_OpacityMaskFilter);}
	.st14{mask:url(#mask0_577_65119_00000012449585896420404270000015241449768973951641_);}
	.st15{fill:#F44B49;}
	.st16{fill:#D9D9D9;filter:url(#Adobe_OpacityMaskFilter_00000142872502124601990620000002809028269450556815_);}
	.st17{mask:url(#mask1_577_65119_00000159454428761421051770000001655923102059147452_);}
	.st18{fill:#FB9700;}
	.st19{fill:#D9D9D9;filter:url(#Adobe_OpacityMaskFilter_00000113335806524427771700000001828640223916022687_);}
	.st20{mask:url(#mask2_577_65119_00000024707049073683580300000003076609822368826503_);}
	.st21{fill:#64B300;}
	.st22{fill:#D9D9D9;filter:url(#Adobe_OpacityMaskFilter_00000041270399843282293860000017685450141976575154_);}
	.st23{mask:url(#mask3_577_65119_00000103979726682899519450000004769506291282577065_);}
	.st24{fill:#EB70DE;}
	.st25{fill:#D9D9D9;filter:url(#Adobe_OpacityMaskFilter_00000042695115669123616600000002871660307307113633_);}
	.st26{mask:url(#mask4_577_65119_00000160876940435934266220000009400775156204173191_);}
	.st27{fill:#9747FF;}
	.st28{fill:#D9D9D9;filter:url(#Adobe_OpacityMaskFilter_00000075855107603953877890000011624994055410387135_);}
	.st29{mask:url(#mask5_577_65119_00000150082978522911325740000001139869544108591789_);}
	.st30{fill:#0075B3;}
	.st31{fill:#F1F1F1;}
</style>
<linearGradient id="SVGID_1_" gradientUnits="userSpaceOnUse" x1="312.4995" y1="120" x2="312.5005" y2="568" gradientTransform="matrix(1 0 0 -1 0 586)">
	<stop  offset="0" style="stop-color:#E0D8D8;stop-opacity:0.83"/>
	<stop  offset="1" style="stop-color:#776C6C;stop-opacity:0"/>
</linearGradient>
<line class="st0" x1="312.5" y1="466" x2="312.5" y2="18"/>
<linearGradient id="SVGID_00000057830468267215663680000005017742309604532359_" gradientUnits="userSpaceOnUse" x1="223.4995" y1="120" x2="223.5005" y2="568" gradientTransform="matrix(1 0 0 -1 0 586)">
	<stop  offset="0" style="stop-color:#E0D8D8;stop-opacity:0.83"/>
	<stop  offset="1" style="stop-color:#776C6C;stop-opacity:0"/>
</linearGradient>
<line style="fill:none;stroke:url(#SVGID_00000057830468267215663680000005017742309604532359_);" x1="223.5" y1="466" x2="223.5" y2="18"/>
<linearGradient id="SVGID_00000041986289798095698860000016273079092548435871_" gradientUnits="userSpaceOnUse" x1="134.4995" y1="120" x2="134.5005" y2="568" gradientTransform="matrix(1 0 0 -1 0 586)">
	<stop  offset="0" style="stop-color:#E0D8D8;stop-opacity:0.83"/>
	<stop  offset="1" style="stop-color:#776C6C;stop-opacity:0"/>
</linearGradient>
<line style="fill:none;stroke:url(#SVGID_00000041986289798095698860000016273079092548435871_);" x1="134.5" y1="466" x2="134.5" y2="18"/>
<linearGradient id="SVGID_00000124849271118473335580000016170316032334498960_" gradientUnits="userSpaceOnUse" x1="45.4995" y1="120" x2="45.5005" y2="568" gradientTransform="matrix(1 0 0 -1 0 586)">
	<stop  offset="0" style="stop-color:#E0D8D8;stop-opacity:0.83"/>
	<stop  offset="1" style="stop-color:#776C6C;stop-opacity:0"/>
</linearGradient>
<line style="fill:none;stroke:url(#SVGID_00000124849271118473335580000016170316032334498960_);" x1="45.5" y1="466" x2="45.5" y2="18"/>
<linearGradient id="SVGID_00000046327179849875327960000010174662417336320947_" gradientUnits="userSpaceOnUse" x1="401.4995" y1="120" x2="401.5005" y2="568" gradientTransform="matrix(1 0 0 -1 0 586)">
	<stop  offset="0" style="stop-color:#E0D8D8;stop-opacity:0.83"/>
	<stop  offset="1" style="stop-color:#776C6C;stop-opacity:0"/>
</linearGradient>
<line style="fill:none;stroke:url(#SVGID_00000046327179849875327960000010174662417336320947_);" x1="401.5" y1="466" x2="401.5" y2="18"/>
<linearGradient id="SVGID_00000174560285286842162070000002080731920608799143_" gradientUnits="userSpaceOnUse" x1="2.554274e-02" y1="166.4751" x2="636.0255" y2="166.4731" gradientTransform="matrix(1 0 0 -1 0 586)">
	<stop  offset="0" style="stop-color:#E0D8D8;stop-opacity:0.83"/>
	<stop  offset="1" style="stop-color:#776C6C;stop-opacity:0"/>
</linearGradient>
<line style="fill:none;stroke:url(#SVGID_00000174560285286842162070000002080731920608799143_);" x1="0" y1="419.5" x2="636" y2="419.5"/>
<linearGradient id="SVGID_00000139986922926026152920000005931892027078189444_" gradientUnits="userSpaceOnUse" x1="2.582460e-02" y1="255.4751" x2="636.0258" y2="255.4731" gradientTransform="matrix(1 0 0 -1 0 586)">
	<stop  offset="0" style="stop-color:#E0D8D8;stop-opacity:0.83"/>
	<stop  offset="1" style="stop-color:#776C6C;stop-opacity:0"/>
</linearGradient>
<line style="fill:none;stroke:url(#SVGID_00000139986922926026152920000005931892027078189444_);" x1="0" y1="330.5" x2="636" y2="330.5"/>
<linearGradient id="SVGID_00000024000856977170944730000003079190312862588566_" gradientUnits="userSpaceOnUse" x1="2.590868e-02" y1="344.4753" x2="636.0259" y2="344.4733" gradientTransform="matrix(1 0 0 -1 0 586)">
	<stop  offset="0" style="stop-color:#E0D8D8;stop-opacity:0.83"/>
	<stop  offset="1" style="stop-color:#776C6C;stop-opacity:0"/>
</linearGradient>
<line style="fill:none;stroke:url(#SVGID_00000024000856977170944730000003079190312862588566_);" x1="0" y1="241.5" x2="636" y2="241.5"/>
<linearGradient id="SVGID_00000057148834821119910340000007753585719222381740_" gradientUnits="userSpaceOnUse" x1="2.618840e-02" y1="433.4753" x2="636.0262" y2="433.4733" gradientTransform="matrix(1 0 0 -1 0 586)">
	<stop  offset="0" style="stop-color:#E0D8D8;stop-opacity:0.83"/>
	<stop  offset="1" style="stop-color:#776C6C;stop-opacity:0"/>
</linearGradient>
<line style="fill:none;stroke:url(#SVGID_00000057148834821119910340000007753585719222381740_);" x1="0" y1="152.5" x2="636" y2="152.5"/>
<linearGradient id="SVGID_00000070091297885443561050000017349644344755568816_" gradientUnits="userSpaceOnUse" x1="2.778142e-02" y1="522.474" x2="636.0278" y2="522.4719" gradientTransform="matrix(1 0 0 -1 0 586)">
	<stop  offset="0" style="stop-color:#E0D8D8;stop-opacity:0.83"/>
	<stop  offset="1" style="stop-color:#776C6C;stop-opacity:0"/>
</linearGradient>
<line style="fill:none;stroke:url(#SVGID_00000070091297885443561050000017349644344755568816_);" x1="0" y1="63.5" x2="636" y2="63.5"/>
<g>
	<defs>
		<rect id="SVGID_00000030455622351553200610000018052230647189543299_" x="239" y="90" width="262" height="384"/>
	</defs>
	<clipPath id="SVGID_00000052787059823533116980000017406171667377907864_">
		<use xlink:href="#SVGID_00000030455622351553200610000018052230647189543299_"  style="overflow:visible;"/>
	</clipPath>
	<g style="clip-path:url(#SVGID_00000052787059823533116980000017406171667377907864_);">
		<rect x="239" y="90" class="st11" width="262" height="384"/>
		<g>
			<path class="st12" d="M298,124L298,124c16.1,0,29.2,13.1,29.2,29.2l0,0c0,16.1-13.1,29.2-29.2,29.2h0
				c-16.1,0-29.2-13.1-29.2-29.2l0,0C268.8,137.1,281.9,124,298,124z"/>
			<defs>
				<filter id="Adobe_OpacityMaskFilter" filterUnits="userSpaceOnUse" x="282.6" y="141.6" width="31.8" height="24.2">
					<feColorMatrix  type="matrix" values="1 0 0 0 0  0 1 0 0 0  0 0 1 0 0  0 0 0 1 0"/>
				</filter>
			</defs>
			
				<mask maskUnits="userSpaceOnUse" x="282.6" y="141.6" width="31.8" height="24.2" id="mask0_577_65119_00000012449585896420404270000015241449768973951641_">
				<rect x="279.5" y="134.6" class="st13" width="38.2" height="38.2"/>
			</mask>
			<g class="st14">
				<path class="st15" d="M309.7,155.3c-0.5,0-0.8-0.2-1.1-0.5c-0.3-0.3-0.5-0.7-0.5-1.1s0.2-0.8,0.5-1.1c0.3-0.3,0.7-0.5,1.1-0.5
					h3.2c0.5,0,0.8,0.2,1.1,0.5c0.3,0.3,0.5,0.7,0.5,1.1s-0.2,0.8-0.5,1.1c-0.3,0.3-0.7,0.5-1.1,0.5H309.7z M308.8,165.5l-2.5-1.9
					c-0.4-0.3-0.6-0.6-0.6-1c-0.1-0.4,0.1-0.8,0.3-1.2c0.3-0.4,0.6-0.6,1-0.6c0.4-0.1,0.8,0.1,1.2,0.3l2.5,1.9
					c0.4,0.3,0.6,0.6,0.6,1c0.1,0.4-0.1,0.8-0.3,1.2c-0.3,0.4-0.6,0.6-1,0.6C309.5,165.9,309.1,165.8,308.8,165.5z M308.1,146.4
					c-0.4,0.3-0.8,0.4-1.2,0.3c-0.4-0.1-0.8-0.3-1-0.6c-0.3-0.4-0.4-0.8-0.3-1.2c0.1-0.4,0.3-0.8,0.6-1l2.5-1.9
					c0.4-0.3,0.8-0.4,1.2-0.3c0.4,0.1,0.8,0.3,1,0.6c0.3,0.4,0.4,0.8,0.3,1.2c-0.1,0.4-0.3,0.8-0.6,1L308.1,146.4z M287.4,164.9
					v-6.4h-1.6c-0.9,0-1.6-0.3-2.2-0.9c-0.6-0.6-0.9-1.4-0.9-2.2v-3.2c0-0.9,0.3-1.6,0.9-2.2c0.6-0.6,1.4-0.9,2.2-0.9h6.4l5.5-3.3
					c0.5-0.3,1.1-0.3,1.6,0c0.5,0.3,0.8,0.8,0.8,1.4v13.5c0,0.6-0.3,1.1-0.8,1.4c-0.5,0.3-1.1,0.3-1.6,0l-5.5-3.3h-1.6v6.4H287.4z
					 M301.7,159.1v-10.7c0.7,0.6,1.3,1.4,1.7,2.3c0.4,0.9,0.7,1.9,0.7,3s-0.2,2.1-0.7,3C303,157.6,302.5,158.4,301.7,159.1z"/>
			</g>
		</g>
		<g>
			<path class="st12" d="M297.6,212.4L297.6,212.4c16.1,0,29.2,13.1,29.2,29.2l0,0c0,16.1-13.1,29.2-29.2,29.2h0
				c-16.1,0-29.2-13.1-29.2-29.2l0,0C268.4,225.4,281.5,212.4,297.6,212.4z"/>
			<defs>
				
					<filter id="Adobe_OpacityMaskFilter_00000183958381489149507950000011690245707163558054_" filterUnits="userSpaceOnUse" x="282.2" y="228.4" width="31.8" height="28">
					<feColorMatrix  type="matrix" values="1 0 0 0 0  0 1 0 0 0  0 0 1 0 0  0 0 0 1 0"/>
				</filter>
			</defs>
			
				<mask maskUnits="userSpaceOnUse" x="282.2" y="228.4" width="31.8" height="28" id="mask1_577_65119_00000159454428761421051770000001655923102059147452_">
				
					<rect x="279.1" y="223" style="fill:#D9D9D9;filter:url(#Adobe_OpacityMaskFilter_00000183958381489149507950000011690245707163558054_);" width="38.2" height="38.2"/>
			</mask>
			<g class="st17">
				<path class="st18" d="M285.4,256.4c-0.9,0-1.6-0.3-2.2-0.9c-0.6-0.6-0.9-1.4-0.9-2.2v-23.9c0-0.5,0.1-0.7,0.3-0.8
					c0.2-0.1,0.5,0,0.8,0.3l1.6,1.6l1.5-1.5c0.2-0.2,0.3-0.3,0.5-0.4c0.2-0.1,0.4-0.1,0.6-0.1s0.4,0,0.6,0.1
					c0.2,0.1,0.4,0.2,0.5,0.3l1.6,1.6l1.6-1.6c0.2-0.2,0.3-0.3,0.5-0.3c0.2-0.1,0.4-0.1,0.6-0.1s0.4,0,0.6,0.1
					c0.2,0.1,0.4,0.2,0.5,0.4l1.5,1.5l1.6-1.6c0.2-0.2,0.3-0.3,0.5-0.3c0.2-0.1,0.4-0.1,0.6-0.1c0.2,0,0.4,0,0.6,0.1
					c0.2,0.1,0.4,0.2,0.5,0.3l1.6,1.6l1.5-1.5c0.2-0.2,0.3-0.3,0.5-0.4c0.2-0.1,0.4-0.1,0.6-0.1c0.2,0,0.4,0,0.6,0.1
					c0.2,0.1,0.4,0.2,0.5,0.3l1.6,1.6l1.6-1.6c0.2-0.2,0.3-0.3,0.5-0.3c0.2-0.1,0.4-0.1,0.6-0.1c0.2,0,0.4,0,0.6,0.1
					c0.2,0.1,0.4,0.2,0.5,0.4l1.5,1.5l1.6-1.6c0.3-0.3,0.6-0.4,0.8-0.3c0.2,0.1,0.3,0.4,0.3,0.8v23.9c0,0.9-0.3,1.6-0.9,2.2
					c-0.6,0.6-1.4,0.9-2.2,0.9H285.4z M285.4,253.2h11.1v-9.6h-11.1V253.2z M299.8,253.2h11.1v-3.2h-11.1V253.2z M299.8,246.9h11.1
					v-3.2h-11.1V246.9z M285.4,240.5h25.5v-4.8h-25.5V240.5z"/>
			</g>
		</g>
		<g>
			<path class="st12" d="M370.4,212.4L370.4,212.4c16.1,0,29.2,13.1,29.2,29.2l0,0c0,16.1-13.1,29.2-29.2,29.2h0
				c-16.1,0-29.2-13.1-29.2-29.2l0,0C341.2,225.4,354.3,212.4,370.4,212.4z"/>
			<defs>
				
					<filter id="Adobe_OpacityMaskFilter_00000081648971812369802110000012513702757335393674_" filterUnits="userSpaceOnUse" x="351.8" y="232.5" width="38.2" height="19.1">
					<feColorMatrix  type="matrix" values="1 0 0 0 0  0 1 0 0 0  0 0 1 0 0  0 0 0 1 0"/>
				</filter>
			</defs>
			
				<mask maskUnits="userSpaceOnUse" x="351.8" y="232.5" width="38.2" height="19.1" id="mask2_577_65119_00000024707049073683580300000003076609822368826503_">
				
					<rect x="351.8" y="223" style="fill:#D9D9D9;filter:url(#Adobe_OpacityMaskFilter_00000081648971812369802110000012513702757335393674_);" width="38.2" height="38.2"/>
			</mask>
			<g class="st20">
				<path class="st21" d="M353.4,251.6c-0.5,0-0.8-0.2-1.1-0.5c-0.3-0.3-0.5-0.7-0.5-1.1v-0.9c0-1.2,0.6-2.1,1.8-2.8
					c1.2-0.7,2.7-1.1,4.6-1.1c0.3,0,0.7,0,1,0c0.3,0,0.6,0.1,0.9,0.1c-0.4,0.5-0.6,1.1-0.8,1.7c-0.2,0.6-0.3,1.3-0.3,2v2.5H353.4z
					 M363,251.6c-0.5,0-0.8-0.2-1.1-0.5c-0.3-0.3-0.5-0.7-0.5-1.1v-1c0-1.7,0.9-3.1,2.6-4.2c1.8-1.1,4.1-1.6,6.9-1.6
					c2.9,0,5.2,0.5,6.9,1.6c1.8,1.1,2.6,2.5,2.6,4.2v1c0,0.5-0.2,0.8-0.5,1.1c-0.3,0.3-0.7,0.5-1.1,0.5H363z M382.9,251.6v-2.5
					c0-0.7-0.1-1.3-0.3-2c-0.2-0.6-0.5-1.2-0.8-1.7c0.3-0.1,0.6-0.1,0.9-0.1c0.3,0,0.6,0,1,0c1.9,0,3.4,0.4,4.6,1.1
					c1.2,0.7,1.8,1.6,1.8,2.8v0.9c0,0.5-0.2,0.8-0.5,1.1c-0.3,0.3-0.7,0.5-1.1,0.5H382.9z M358.2,243.7c-0.9,0-1.6-0.3-2.2-0.9
					c-0.6-0.6-0.9-1.4-0.9-2.2c0-0.9,0.3-1.6,0.9-2.2c0.6-0.6,1.4-0.9,2.2-0.9s1.6,0.3,2.2,0.9c0.6,0.6,0.9,1.4,0.9,2.2
					c0,0.9-0.3,1.6-0.9,2.2C359.8,243.4,359.1,243.7,358.2,243.7z M383.7,243.7c-0.9,0-1.6-0.3-2.2-0.9c-0.6-0.6-0.9-1.4-0.9-2.2
					c0-0.9,0.3-1.6,0.9-2.2c0.6-0.6,1.4-0.9,2.2-0.9c0.9,0,1.6,0.3,2.2,0.9c0.6,0.6,0.9,1.4,0.9,2.2c0,0.9-0.3,1.6-0.9,2.2
					C385.3,243.4,384.6,243.7,383.7,243.7z M370.9,242.1c-1.3,0-2.5-0.5-3.4-1.4c-0.9-0.9-1.4-2.1-1.4-3.4c0-1.3,0.5-2.5,1.4-3.4
					c0.9-0.9,2.1-1.4,3.4-1.4c1.3,0,2.5,0.5,3.4,1.4c0.9,0.9,1.4,2.1,1.4,3.4c0,1.3-0.5,2.5-1.4,3.4
					C373.4,241.6,372.3,242.1,370.9,242.1z"/>
			</g>
		</g>
		<g>
			<path class="st12" d="M443.2,212.4L443.2,212.4c16.1,0,29.2,13.1,29.2,29.2l0,0c0,16.1-13.1,29.2-29.2,29.2h0
				c-16.1,0-29.2-13.1-29.2-29.2l0,0C414,225.4,427.1,212.4,443.2,212.4z"/>
			<defs>
				
					<filter id="Adobe_OpacityMaskFilter_00000079464741528719320830000009907271599655196337_" filterUnits="userSpaceOnUse" x="427.8" y="229.4" width="31.8" height="25.5">
					<feColorMatrix  type="matrix" values="1 0 0 0 0  0 1 0 0 0  0 0 1 0 0  0 0 0 1 0"/>
				</filter>
			</defs>
			
				<mask maskUnits="userSpaceOnUse" x="427.8" y="229.4" width="31.8" height="25.5" id="mask3_577_65119_00000103979726682899519450000004769506291282577065_">
				
					<rect x="424.6" y="223" style="fill:#D9D9D9;filter:url(#Adobe_OpacityMaskFilter_00000079464741528719320830000009907271599655196337_);" width="38.2" height="38.2"/>
			</mask>
			<g class="st23">
				<path class="st24" d="M431,254.8c-0.9,0-1.6-0.3-2.2-0.9c-0.6-0.6-0.9-1.4-0.9-2.2v-19.1c0-0.9,0.3-1.6,0.9-2.2
					c0.6-0.6,1.4-0.9,2.2-0.9h25.5c0.9,0,1.6,0.3,2.2,0.9c0.6,0.6,0.9,1.4,0.9,2.2v19.1c0,0.9-0.3,1.6-0.9,2.2
					c-0.6,0.6-1.4,0.9-2.2,0.9H431z M443.7,243.4c0.1,0,0.3,0,0.4-0.1c0.1,0,0.3-0.1,0.4-0.2l11.3-7c0.2-0.1,0.4-0.3,0.5-0.5
					c0.1-0.2,0.2-0.4,0.2-0.7c0-0.5-0.2-0.9-0.7-1.2c-0.5-0.3-0.9-0.3-1.4,0l-10.7,6.7l-10.7-6.7c-0.5-0.3-0.9-0.3-1.4,0
					c-0.5,0.3-0.7,0.7-0.7,1.2c0,0.3,0.1,0.5,0.2,0.7c0.1,0.2,0.3,0.4,0.5,0.5l11.3,7c0.1,0.1,0.3,0.1,0.4,0.2
					C443.4,243.4,443.6,243.4,443.7,243.4z"/>
			</g>
		</g>
		<g>
			<path class="st12" d="M370.8,124L370.8,124c16.1,0,29.2,13.1,29.2,29.2l0,0c0,16.1-13.1,29.2-29.2,29.2h0
				c-16.1,0-29.2-13.1-29.2-29.2l0,0C341.6,137.1,354.7,124,370.8,124z"/>
			<defs>
				
					<filter id="Adobe_OpacityMaskFilter_00000164488946508359639200000000914754071171370655_" filterUnits="userSpaceOnUse" x="355.5" y="139.8" width="33.3" height="27.8">
					<feColorMatrix  type="matrix" values="1 0 0 0 0  0 1 0 0 0  0 0 1 0 0  0 0 0 1 0"/>
				</filter>
			</defs>
			
				<mask maskUnits="userSpaceOnUse" x="355.5" y="139.8" width="33.3" height="27.8" id="mask4_577_65119_00000160876940435934266220000009400775156204173191_">
				
					<rect x="352.2" y="134.6" style="fill:#D9D9D9;filter:url(#Adobe_OpacityMaskFilter_00000164488946508359639200000000914754071171370655_);" width="38.2" height="38.2"/>
			</mask>
			<g class="st26">
				<path class="st27" d="M387.3,161.7c-0.5,0-0.8-0.2-1.1-0.5c-0.3-0.3-0.5-0.7-0.5-1.1v-9.4l-12.8,7c-0.2,0.1-0.5,0.2-0.7,0.3
					c-0.3,0.1-0.5,0.1-0.8,0.1c-0.3,0-0.6,0-0.8-0.1c-0.3-0.1-0.5-0.2-0.7-0.3l-13.4-7.3c-0.3-0.1-0.5-0.3-0.6-0.6
					c-0.1-0.3-0.2-0.5-0.2-0.8c0-0.3,0.1-0.6,0.2-0.8c0.1-0.3,0.3-0.4,0.6-0.6l13.5-7.3c0.2-0.1,0.5-0.2,0.7-0.3
					c0.3-0.1,0.5-0.1,0.8-0.1c0.3,0,0.5,0,0.8,0.1c0.3,0.1,0.5,0.2,0.7,0.3l15.2,8.3c0.3,0.1,0.5,0.3,0.6,0.6
					c0.1,0.3,0.2,0.5,0.2,0.8v10.2c0,0.5-0.2,0.8-0.5,1.1C388.1,161.5,387.7,161.7,387.3,161.7z M371.3,167.6c-0.3,0-0.5,0-0.8-0.1
					c-0.3-0.1-0.5-0.2-0.7-0.3l-8-4.3c-0.5-0.3-0.9-0.7-1.2-1.2c-0.3-0.5-0.4-1-0.4-1.7V154l9,4.9c0.3,0.2,0.7,0.4,1,0.5
					c0.3,0.1,0.7,0.2,1.1,0.2c0.4,0,0.7-0.1,1.1-0.2s0.7-0.3,1.1-0.5l9-4.9v6.1c0,0.6-0.1,1.2-0.4,1.7c-0.3,0.5-0.7,0.9-1.2,1.2
					l-8,4.3c-0.2,0.1-0.5,0.2-0.7,0.3C371.9,167.6,371.6,167.6,371.3,167.6z"/>
			</g>
		</g>
		<g>
			<path class="st12" d="M443.6,124L443.6,124c16.1,0,29.2,13.1,29.2,29.2l0,0c0,16.1-13.1,29.2-29.2,29.2h0
				c-16.1,0-29.2-13.1-29.2-29.2l0,0C414.4,137.1,427.5,124,443.6,124z"/>
			<defs>
				
					<filter id="Adobe_OpacityMaskFilter_00000163064453487939329010000000482601477037154436_" filterUnits="userSpaceOnUse" x="429.8" y="139.4" width="28.7" height="28.7">
					<feColorMatrix  type="matrix" values="1 0 0 0 0  0 1 0 0 0  0 0 1 0 0  0 0 0 1 0"/>
				</filter>
			</defs>
			
				<mask maskUnits="userSpaceOnUse" x="429.8" y="139.4" width="28.7" height="28.7" id="mask5_577_65119_00000150082978522911325740000001139869544108591789_">
				
					<rect x="425" y="134.6" style="fill:#D9D9D9;filter:url(#Adobe_OpacityMaskFilter_00000163064453487939329010000000482601477037154436_);" width="38.2" height="38.2"/>
			</mask>
			<g class="st29">
				<path class="st30" d="M433,168c-0.9,0-1.6-0.3-2.2-0.9c-0.6-0.6-0.9-1.4-0.9-2.2v-15.9c0-0.9,0.3-1.6,0.9-2.2
					c0.6-0.6,1.4-0.9,2.2-0.9h3.2v-3.2c0-0.9,0.3-1.6,0.9-2.2c0.6-0.6,1.4-0.9,2.2-0.9h9.6c0.9,0,1.6,0.3,2.2,0.9
					c0.6,0.6,0.9,1.4,0.9,2.2v9.6h3.2c0.9,0,1.6,0.3,2.2,0.9c0.6,0.6,0.9,1.4,0.9,2.2v9.6c0,0.9-0.3,1.6-0.9,2.2
					c-0.6,0.6-1.4,0.9-2.2,0.9h-9.6v-6.4h-3.2v6.4H433z M433,164.9h3.2v-3.2H433V164.9z M433,158.5h3.2v-3.2H433V158.5z M433,152.1
					h3.2v-3.2H433V152.1z M439.3,158.5h3.2v-3.2h-3.2V158.5z M439.3,152.1h3.2v-3.2h-3.2V152.1z M439.3,145.8h3.2v-3.2h-3.2V145.8z
					 M445.7,158.5h3.2v-3.2h-3.2V158.5z M445.7,152.1h3.2v-3.2h-3.2V152.1z M445.7,145.8h3.2v-3.2h-3.2V145.8z M452.1,164.9h3.2
					v-3.2h-3.2V164.9z M452.1,158.5h3.2v-3.2h-3.2V158.5z"/>
			</g>
		</g>
		<path class="st31" d="M274.5,301h191c4.1,0,7.5,3.4,7.5,7.5l0,0c0,4.1-3.4,7.5-7.5,7.5h-191c-4.1,0-7.5-3.4-7.5-7.5l0,0
			C267,304.4,270.4,301,274.5,301z"/>
		<path class="st31" d="M274.5,332h191c4.1,0,7.5,3.4,7.5,7.5l0,0c0,4.1-3.4,7.5-7.5,7.5h-191c-4.1,0-7.5-3.4-7.5-7.5l0,0
			C267,335.4,270.4,332,274.5,332z"/>
		<path class="st31" d="M274.5,363h125c4.1,0,7.5,3.4,7.5,7.5l0,0c0,4.1-3.4,7.5-7.5,7.5h-125c-4.1,0-7.5-3.4-7.5-7.5l0,0
			C267,366.4,270.4,363,274.5,363z"/>
	</g>
</g>
</svg>
