<svg width="636" height="584" viewBox="0 0 636 584" fill="none" xmlns="http://www.w3.org/2000/svg">
<line x1="312.5" y1="457" x2="312.5" y2="9" stroke="url(#paint0_linear_330_45)"/>
<line x1="223.5" y1="457" x2="223.5" y2="9" stroke="url(#paint1_linear_330_45)"/>
<line x1="134.5" y1="457" x2="134.5" y2="9" stroke="url(#paint2_linear_330_45)"/>
<line x1="45.5" y1="457" x2="45.5" y2="9" stroke="url(#paint3_linear_330_45)"/>
<line x1="401.5" y1="457" x2="401.5" y2="9" stroke="url(#paint4_linear_330_45)"/>
<line y1="410.5" x2="636" y2="410.5" stroke="url(#paint5_linear_330_45)"/>
<line y1="321.5" x2="636" y2="321.5" stroke="url(#paint6_linear_330_45)"/>
<line y1="232.5" x2="636" y2="232.5" stroke="url(#paint7_linear_330_45)"/>
<line y1="143.5" x2="636" y2="143.5" stroke="url(#paint8_linear_330_45)"/>
<line y1="54.5" x2="636" y2="54.5" stroke="url(#paint9_linear_330_45)"/>
<g filter="url(#filter0_d_330_45)">
<g clip-path="url(#clip0_330_45)">
<rect x="239" y="81" width="262" height="384" rx="10" fill="white"/>
<g filter="url(#filter1_d_330_45)">
<rect x="268.847" y="115" width="58.3749" height="58.3749" rx="29.1875" fill="#F3F3F3"/>
<mask id="mask0_330_45" style="mask-type:alpha" maskUnits="userSpaceOnUse" x="279" y="125" width="39" height="39">
<rect x="279.461" y="125.613" width="38.209" height="38.209" fill="#D9D9D9"/>
</mask>
<g mask="url(#mask0_330_45)">
<path d="M309.709 146.309C309.258 146.309 308.88 146.156 308.576 145.851C308.27 145.546 308.117 145.168 308.117 144.717C308.117 144.266 308.27 143.888 308.576 143.582C308.88 143.278 309.258 143.125 309.709 143.125H312.893C313.344 143.125 313.722 143.278 314.027 143.582C314.333 143.888 314.485 144.266 314.485 144.717C314.485 145.168 314.333 145.546 314.027 145.851C313.722 146.156 313.344 146.309 312.893 146.309H309.709ZM308.754 156.498L306.207 154.588C305.835 154.323 305.623 153.978 305.57 153.553C305.517 153.129 305.623 152.731 305.888 152.359C306.154 151.988 306.499 151.775 306.923 151.722C307.348 151.669 307.746 151.775 308.117 152.041L310.664 153.951C311.036 154.216 311.248 154.561 311.301 154.986C311.354 155.411 311.248 155.809 310.983 156.18C310.718 156.551 310.373 156.764 309.948 156.817C309.524 156.87 309.126 156.764 308.754 156.498ZM308.117 137.394C307.746 137.659 307.348 137.765 306.923 137.712C306.499 137.659 306.154 137.447 305.888 137.075C305.623 136.704 305.517 136.306 305.57 135.881C305.623 135.457 305.835 135.112 306.207 134.847L308.754 132.936C309.126 132.671 309.524 132.565 309.948 132.618C310.373 132.671 310.718 132.883 310.983 133.255C311.248 133.626 311.354 134.024 311.301 134.449C311.248 134.873 311.036 135.218 310.664 135.483L308.117 137.394ZM287.421 155.862V149.493H285.829C284.953 149.493 284.204 149.181 283.581 148.557C282.957 147.934 282.645 147.185 282.645 146.309V143.125C282.645 142.25 282.957 141.5 283.581 140.876C284.204 140.253 284.953 139.941 285.829 139.941H292.197L297.729 136.598C298.26 136.279 298.797 136.279 299.342 136.598C299.885 136.916 300.157 137.381 300.157 137.991V151.444C300.157 152.054 299.885 152.518 299.342 152.837C298.797 153.155 298.26 153.155 297.729 152.837L292.197 149.493H290.605V155.862H287.421ZM301.749 150.051V139.384C302.465 140.021 303.043 140.797 303.481 141.713C303.918 142.628 304.137 143.629 304.137 144.717C304.137 145.805 303.918 146.807 303.481 147.721C303.043 148.637 302.465 149.414 301.749 150.051Z" fill="#F44B49"/>
</g>
</g>
<g filter="url(#filter2_d_330_45)">
<rect x="268.443" y="203.375" width="58.3749" height="58.3749" rx="29.1875" fill="#F3F3F3"/>
<mask id="mask1_330_45" style="mask-type:alpha" maskUnits="userSpaceOnUse" x="279" y="213" width="39" height="40">
<rect x="279.058" y="213.989" width="38.209" height="38.209" fill="#D9D9D9"/>
</mask>
<g mask="url(#mask1_330_45)">
<path d="M285.425 247.422C284.55 247.422 283.8 247.11 283.177 246.487C282.553 245.863 282.241 245.113 282.241 244.237V220.357C282.241 219.906 282.347 219.634 282.56 219.54C282.772 219.448 283.037 219.561 283.356 219.879L284.908 221.431L286.42 219.919C286.58 219.76 286.752 219.64 286.938 219.561C287.123 219.481 287.322 219.441 287.535 219.441C287.747 219.441 287.946 219.474 288.132 219.54C288.318 219.607 288.49 219.72 288.649 219.879L290.201 221.431L291.754 219.879C291.913 219.72 292.085 219.607 292.271 219.54C292.457 219.474 292.656 219.441 292.868 219.441C293.08 219.441 293.279 219.481 293.465 219.561C293.651 219.64 293.823 219.76 293.983 219.919L295.495 221.431L297.047 219.879C297.206 219.72 297.379 219.607 297.565 219.54C297.75 219.474 297.949 219.441 298.162 219.441C298.374 219.441 298.573 219.474 298.759 219.54C298.944 219.607 299.117 219.72 299.276 219.879L300.828 221.431L302.341 219.919C302.5 219.76 302.672 219.64 302.858 219.561C303.044 219.481 303.243 219.441 303.455 219.441C303.667 219.441 303.866 219.474 304.052 219.54C304.238 219.607 304.41 219.72 304.57 219.879L306.122 221.431L307.674 219.879C307.833 219.72 308.006 219.607 308.192 219.54C308.377 219.474 308.576 219.441 308.789 219.441C309.001 219.441 309.2 219.481 309.386 219.561C309.571 219.64 309.744 219.76 309.903 219.919L311.415 221.431L312.968 219.879C313.286 219.561 313.551 219.448 313.764 219.54C313.976 219.634 314.082 219.906 314.082 220.357V244.237C314.082 245.113 313.771 245.863 313.148 246.487C312.523 247.11 311.774 247.422 310.898 247.422H285.425ZM285.425 244.237H296.57V234.685H285.425V244.237ZM299.754 244.237H310.898V241.053H299.754V244.237ZM299.754 237.869H310.898V234.685H299.754V237.869ZM285.425 231.501H310.898V226.725H285.425V231.501Z" fill="#FB9700"/>
</g>
</g>
<g filter="url(#filter3_d_330_45)">
<rect x="341.222" y="203.375" width="58.3749" height="58.3749" rx="29.1875" fill="#F3F3F3"/>
<mask id="mask2_330_45" style="mask-type:alpha" maskUnits="userSpaceOnUse" x="351" y="213" width="40" height="40">
<rect x="351.837" y="213.988" width="38.209" height="38.209" fill="#D9D9D9"/>
</mask>
<g mask="url(#mask2_330_45)">
<path d="M353.429 242.645C352.978 242.645 352.6 242.492 352.295 242.186C351.99 241.881 351.837 241.504 351.837 241.053V240.137C351.837 238.97 352.421 238.034 353.588 237.33C354.756 236.628 356.295 236.276 358.205 236.276C358.55 236.276 358.875 236.29 359.181 236.316C359.486 236.343 359.784 236.383 360.076 236.436C359.704 236.966 359.432 237.537 359.259 238.147C359.087 238.757 359.001 239.407 359.001 240.097V242.645H353.429ZM362.981 242.645C362.53 242.645 362.152 242.492 361.846 242.186C361.541 241.881 361.389 241.504 361.389 241.053V240.097C361.389 238.373 362.272 236.973 364.037 235.897C365.801 234.823 368.102 234.286 370.941 234.286C373.807 234.286 376.116 234.823 377.867 235.897C379.618 236.973 380.494 238.373 380.494 240.097V241.053C380.494 241.504 380.341 241.881 380.035 242.186C379.731 242.492 379.353 242.645 378.902 242.645H362.981ZM382.882 242.645V240.097C382.882 239.407 382.789 238.757 382.603 238.147C382.417 237.537 382.152 236.966 381.807 236.436C382.099 236.383 382.398 236.343 382.703 236.316C383.008 236.29 383.333 236.276 383.678 236.276C385.588 236.276 387.127 236.628 388.295 237.33C389.462 238.034 390.046 238.97 390.046 240.137V241.053C390.046 241.504 389.893 241.881 389.587 242.186C389.283 242.492 388.905 242.645 388.454 242.645H382.882ZM358.205 234.684C357.329 234.684 356.58 234.372 355.957 233.748C355.333 233.125 355.021 232.376 355.021 231.5C355.021 230.625 355.333 229.875 355.957 229.251C356.58 228.628 357.329 228.316 358.205 228.316C359.081 228.316 359.83 228.628 360.453 229.251C361.077 229.875 361.389 230.625 361.389 231.5C361.389 232.376 361.077 233.125 360.453 233.748C359.83 234.372 359.081 234.684 358.205 234.684ZM383.678 234.684C382.802 234.684 382.052 234.372 381.428 233.748C380.805 233.125 380.494 232.376 380.494 231.5C380.494 230.625 380.805 229.875 381.428 229.251C382.052 228.628 382.802 228.316 383.678 228.316C384.553 228.316 385.303 228.628 385.927 229.251C386.55 229.875 386.862 230.625 386.862 231.5C386.862 232.376 386.55 233.125 385.927 233.748C385.303 234.372 384.553 234.684 383.678 234.684ZM370.941 233.092C369.615 233.092 368.487 232.628 367.558 231.699C366.63 230.771 366.165 229.643 366.165 228.316C366.165 226.989 366.63 225.862 367.558 224.933C368.487 224.004 369.615 223.54 370.941 223.54C372.268 223.54 373.396 224.004 374.325 224.933C375.253 225.862 375.718 226.989 375.718 228.316C375.718 229.643 375.253 230.771 374.325 231.699C373.396 232.628 372.268 233.092 370.941 233.092Z" fill="#64B300"/>
</g>
</g>
<g filter="url(#filter4_d_330_45)">
<rect x="414" y="203.375" width="58.3749" height="58.3749" rx="29.1875" fill="#F3F3F3"/>
<mask id="mask3_330_45" style="mask-type:alpha" maskUnits="userSpaceOnUse" x="424" y="213" width="39" height="40">
<rect x="424.614" y="213.988" width="38.209" height="38.209" fill="#D9D9D9"/>
</mask>
<g mask="url(#mask3_330_45)">
<path d="M430.982 245.829C430.106 245.829 429.357 245.518 428.734 244.895C428.11 244.271 427.798 243.521 427.798 242.645V223.541C427.798 222.665 428.11 221.916 428.734 221.293C429.357 220.668 430.106 220.356 430.982 220.356H456.455C457.33 220.356 458.08 220.668 458.704 221.293C459.327 221.916 459.639 222.665 459.639 223.541V242.645C459.639 243.521 459.327 244.271 458.704 244.895C458.08 245.518 457.33 245.829 456.455 245.829H430.982ZM443.718 234.406C443.851 234.406 443.99 234.386 444.135 234.346C444.282 234.306 444.421 234.247 444.554 234.167L455.818 227.123C456.03 226.99 456.189 226.824 456.295 226.626C456.402 226.426 456.455 226.207 456.455 225.968C456.455 225.438 456.229 225.04 455.778 224.774C455.327 224.509 454.863 224.522 454.385 224.814L443.718 231.501L433.052 224.814C432.574 224.522 432.11 224.515 431.659 224.793C431.207 225.073 430.982 225.464 430.982 225.968C430.982 226.234 431.035 226.466 431.141 226.664C431.247 226.864 431.406 227.016 431.619 227.123L442.882 234.167C443.015 234.247 443.155 234.306 443.301 234.346C443.447 234.386 443.586 234.406 443.718 234.406Z" fill="#EB70DE"/>
</g>
</g>
<g filter="url(#filter5_d_330_45)">
<rect x="341.625" y="115" width="58.3749" height="58.3749" rx="29.1875" fill="#F3F3F3"/>
<mask id="mask4_330_45" style="mask-type:alpha" maskUnits="userSpaceOnUse" x="352" y="125" width="39" height="39">
<rect x="352.24" y="125.613" width="38.209" height="38.209" fill="#D9D9D9"/>
</mask>
<g mask="url(#mask4_330_45)">
<path d="M387.266 152.678C386.815 152.678 386.437 152.525 386.133 152.219C385.827 151.915 385.674 151.537 385.674 151.086V141.693L372.898 148.658C372.659 148.791 372.414 148.89 372.161 148.956C371.91 149.023 371.638 149.056 371.346 149.056C371.054 149.056 370.782 149.023 370.531 148.956C370.278 148.89 370.033 148.791 369.794 148.658L356.381 141.335C356.115 141.202 355.91 141.009 355.765 140.757C355.618 140.505 355.545 140.233 355.545 139.942C355.545 139.65 355.618 139.378 355.765 139.126C355.91 138.874 356.115 138.681 356.381 138.549L369.834 131.225C370.072 131.092 370.317 130.993 370.569 130.926C370.822 130.86 371.081 130.827 371.346 130.827C371.611 130.827 371.87 130.86 372.123 130.926C372.374 130.993 372.62 131.092 372.858 131.225L388.023 139.504C388.288 139.636 388.494 139.829 388.64 140.08C388.786 140.333 388.858 140.605 388.858 140.897V151.086C388.858 151.537 388.706 151.915 388.4 152.219C388.095 152.525 387.717 152.678 387.266 152.678ZM371.346 158.608C371.081 158.608 370.822 158.575 370.569 158.51C370.317 158.443 370.072 158.343 369.834 158.21L361.873 153.912C361.343 153.62 360.931 153.229 360.639 152.738C360.348 152.247 360.202 151.696 360.202 151.086V145.036L369.236 149.932C369.581 150.117 369.926 150.283 370.271 150.428C370.616 150.575 370.974 150.648 371.346 150.648C371.717 150.648 372.083 150.568 372.441 150.409C372.799 150.25 373.15 150.078 373.495 149.892L382.49 145.036V151.086C382.49 151.696 382.344 152.247 382.052 152.738C381.761 153.229 381.349 153.62 380.819 153.912L372.858 158.21C372.62 158.343 372.374 158.443 372.123 158.51C371.87 158.575 371.611 158.608 371.346 158.608Z" fill="#9747FF"/>
</g>
</g>
<g filter="url(#filter6_d_330_45)">
<rect x="414.403" y="115" width="58.3749" height="58.3749" rx="29.1875" fill="#F3F3F3"/>
<mask id="mask5_330_45" style="mask-type:alpha" maskUnits="userSpaceOnUse" x="425" y="125" width="39" height="39">
<rect x="425.018" y="125.613" width="38.209" height="38.209" fill="#D9D9D9"/>
</mask>
<g mask="url(#mask5_330_45)">
<path d="M432.978 159.046C432.102 159.046 431.353 158.735 430.728 158.112C430.105 157.488 429.794 156.738 429.794 155.862V139.942C429.794 139.066 430.105 138.316 430.728 137.692C431.353 137.069 432.102 136.758 432.978 136.758H436.162V133.574C436.162 132.698 436.474 131.948 437.098 131.324C437.721 130.701 438.471 130.39 439.346 130.39H448.898C449.774 130.39 450.524 130.701 451.148 131.324C451.771 131.948 452.083 132.698 452.083 133.574V143.126H455.267C456.142 143.126 456.892 143.438 457.516 144.061C458.139 144.685 458.451 145.434 458.451 146.31V155.862C458.451 156.738 458.139 157.488 457.516 158.112C456.892 158.735 456.142 159.046 455.267 159.046H445.714V152.678H442.53V159.046H432.978ZM432.978 155.862H436.162V152.678H432.978V155.862ZM432.978 149.494H436.162V146.31H432.978V149.494ZM432.978 143.126H436.162V139.942H432.978V143.126ZM439.346 149.494H442.53V146.31H439.346V149.494ZM439.346 143.126H442.53V139.942H439.346V143.126ZM439.346 136.758H442.53V133.574H439.346V136.758ZM445.714 149.494H448.898V146.31H445.714V149.494ZM445.714 143.126H448.898V139.942H445.714V143.126ZM445.714 136.758H448.898V133.574H445.714V136.758ZM452.083 155.862H455.267V152.678H452.083V155.862ZM452.083 149.494H455.267V146.31H452.083V149.494Z" fill="#0075B3"/>
</g>
</g>
<rect x="267" y="292" width="206" height="15" rx="7.5" fill="#F1F1F1"/>
<rect x="267" y="323" width="206" height="15" rx="7.5" fill="#F1F1F1"/>
<rect x="267" y="354" width="140" height="15" rx="7.5" fill="#F1F1F1"/>
</g>
</g>
<defs>
<filter id="filter0_d_330_45" x="139" y="0" width="462" height="584" filterUnits="userSpaceOnUse" color-interpolation-filters="sRGB">
<feFlood flood-opacity="0" result="BackgroundImageFix"/>
<feColorMatrix in="SourceAlpha" type="matrix" values="0 0 0 0 0 0 0 0 0 0 0 0 0 0 0 0 0 0 127 0" result="hardAlpha"/>
<feOffset dy="19"/>
<feGaussianBlur stdDeviation="50"/>
<feComposite in2="hardAlpha" operator="out"/>
<feColorMatrix type="matrix" values="0 0 0 0 0 0 0 0 0 0 0 0 0 0 0 0 0 0 0.05 0"/>
<feBlend mode="normal" in2="BackgroundImageFix" result="effect1_dropShadow_330_45"/>
<feBlend mode="normal" in="SourceGraphic" in2="effect1_dropShadow_330_45" result="shape"/>
</filter>
<filter id="filter1_d_330_45" x="168.847" y="34" width="258.375" height="258.375" filterUnits="userSpaceOnUse" color-interpolation-filters="sRGB">
<feFlood flood-opacity="0" result="BackgroundImageFix"/>
<feColorMatrix in="SourceAlpha" type="matrix" values="0 0 0 0 0 0 0 0 0 0 0 0 0 0 0 0 0 0 127 0" result="hardAlpha"/>
<feOffset dy="19"/>
<feGaussianBlur stdDeviation="50"/>
<feComposite in2="hardAlpha" operator="out"/>
<feColorMatrix type="matrix" values="0 0 0 0 0 0 0 0 0 0 0 0 0 0 0 0 0 0 0.05 0"/>
<feBlend mode="normal" in2="BackgroundImageFix" result="effect1_dropShadow_330_45"/>
<feBlend mode="normal" in="SourceGraphic" in2="effect1_dropShadow_330_45" result="shape"/>
</filter>
<filter id="filter2_d_330_45" x="168.443" y="122.375" width="258.375" height="258.375" filterUnits="userSpaceOnUse" color-interpolation-filters="sRGB">
<feFlood flood-opacity="0" result="BackgroundImageFix"/>
<feColorMatrix in="SourceAlpha" type="matrix" values="0 0 0 0 0 0 0 0 0 0 0 0 0 0 0 0 0 0 127 0" result="hardAlpha"/>
<feOffset dy="19"/>
<feGaussianBlur stdDeviation="50"/>
<feComposite in2="hardAlpha" operator="out"/>
<feColorMatrix type="matrix" values="0 0 0 0 0 0 0 0 0 0 0 0 0 0 0 0 0 0 0.05 0"/>
<feBlend mode="normal" in2="BackgroundImageFix" result="effect1_dropShadow_330_45"/>
<feBlend mode="normal" in="SourceGraphic" in2="effect1_dropShadow_330_45" result="shape"/>
</filter>
<filter id="filter3_d_330_45" x="241.222" y="122.375" width="258.375" height="258.375" filterUnits="userSpaceOnUse" color-interpolation-filters="sRGB">
<feFlood flood-opacity="0" result="BackgroundImageFix"/>
<feColorMatrix in="SourceAlpha" type="matrix" values="0 0 0 0 0 0 0 0 0 0 0 0 0 0 0 0 0 0 127 0" result="hardAlpha"/>
<feOffset dy="19"/>
<feGaussianBlur stdDeviation="50"/>
<feComposite in2="hardAlpha" operator="out"/>
<feColorMatrix type="matrix" values="0 0 0 0 0 0 0 0 0 0 0 0 0 0 0 0 0 0 0.05 0"/>
<feBlend mode="normal" in2="BackgroundImageFix" result="effect1_dropShadow_330_45"/>
<feBlend mode="normal" in="SourceGraphic" in2="effect1_dropShadow_330_45" result="shape"/>
</filter>
<filter id="filter4_d_330_45" x="314" y="122.375" width="258.375" height="258.375" filterUnits="userSpaceOnUse" color-interpolation-filters="sRGB">
<feFlood flood-opacity="0" result="BackgroundImageFix"/>
<feColorMatrix in="SourceAlpha" type="matrix" values="0 0 0 0 0 0 0 0 0 0 0 0 0 0 0 0 0 0 127 0" result="hardAlpha"/>
<feOffset dy="19"/>
<feGaussianBlur stdDeviation="50"/>
<feComposite in2="hardAlpha" operator="out"/>
<feColorMatrix type="matrix" values="0 0 0 0 0 0 0 0 0 0 0 0 0 0 0 0 0 0 0.05 0"/>
<feBlend mode="normal" in2="BackgroundImageFix" result="effect1_dropShadow_330_45"/>
<feBlend mode="normal" in="SourceGraphic" in2="effect1_dropShadow_330_45" result="shape"/>
</filter>
<filter id="filter5_d_330_45" x="241.625" y="34" width="258.375" height="258.375" filterUnits="userSpaceOnUse" color-interpolation-filters="sRGB">
<feFlood flood-opacity="0" result="BackgroundImageFix"/>
<feColorMatrix in="SourceAlpha" type="matrix" values="0 0 0 0 0 0 0 0 0 0 0 0 0 0 0 0 0 0 127 0" result="hardAlpha"/>
<feOffset dy="19"/>
<feGaussianBlur stdDeviation="50"/>
<feComposite in2="hardAlpha" operator="out"/>
<feColorMatrix type="matrix" values="0 0 0 0 0 0 0 0 0 0 0 0 0 0 0 0 0 0 0.05 0"/>
<feBlend mode="normal" in2="BackgroundImageFix" result="effect1_dropShadow_330_45"/>
<feBlend mode="normal" in="SourceGraphic" in2="effect1_dropShadow_330_45" result="shape"/>
</filter>
<filter id="filter6_d_330_45" x="314.403" y="34" width="258.375" height="258.375" filterUnits="userSpaceOnUse" color-interpolation-filters="sRGB">
<feFlood flood-opacity="0" result="BackgroundImageFix"/>
<feColorMatrix in="SourceAlpha" type="matrix" values="0 0 0 0 0 0 0 0 0 0 0 0 0 0 0 0 0 0 127 0" result="hardAlpha"/>
<feOffset dy="19"/>
<feGaussianBlur stdDeviation="50"/>
<feComposite in2="hardAlpha" operator="out"/>
<feColorMatrix type="matrix" values="0 0 0 0 0 0 0 0 0 0 0 0 0 0 0 0 0 0 0.05 0"/>
<feBlend mode="normal" in2="BackgroundImageFix" result="effect1_dropShadow_330_45"/>
<feBlend mode="normal" in="SourceGraphic" in2="effect1_dropShadow_330_45" result="shape"/>
</filter>
<linearGradient id="paint0_linear_330_45" x1="313" y1="457" x2="313.001" y2="8.99976" gradientUnits="userSpaceOnUse">
<stop stop-color="#E0D8D8" stop-opacity="0.83"/>
<stop offset="1" stop-color="#776C6C" stop-opacity="0"/>
</linearGradient>
<linearGradient id="paint1_linear_330_45" x1="224" y1="457" x2="224.001" y2="8.99976" gradientUnits="userSpaceOnUse">
<stop stop-color="#E0D8D8" stop-opacity="0.83"/>
<stop offset="1" stop-color="#776C6C" stop-opacity="0"/>
</linearGradient>
<linearGradient id="paint2_linear_330_45" x1="135" y1="457" x2="135.001" y2="8.99976" gradientUnits="userSpaceOnUse">
<stop stop-color="#E0D8D8" stop-opacity="0.83"/>
<stop offset="1" stop-color="#776C6C" stop-opacity="0"/>
</linearGradient>
<linearGradient id="paint3_linear_330_45" x1="46" y1="457" x2="46.001" y2="8.99976" gradientUnits="userSpaceOnUse">
<stop stop-color="#E0D8D8" stop-opacity="0.83"/>
<stop offset="1" stop-color="#776C6C" stop-opacity="0"/>
</linearGradient>
<linearGradient id="paint4_linear_330_45" x1="402" y1="457" x2="402.001" y2="8.99976" gradientUnits="userSpaceOnUse">
<stop stop-color="#E0D8D8" stop-opacity="0.83"/>
<stop offset="1" stop-color="#776C6C" stop-opacity="0"/>
</linearGradient>
<linearGradient id="paint5_linear_330_45" x1="0" y1="411" x2="636" y2="411.002" gradientUnits="userSpaceOnUse">
<stop stop-color="#E0D8D8" stop-opacity="0.83"/>
<stop offset="1" stop-color="#776C6C" stop-opacity="0"/>
</linearGradient>
<linearGradient id="paint6_linear_330_45" x1="0" y1="322" x2="636" y2="322.002" gradientUnits="userSpaceOnUse">
<stop stop-color="#E0D8D8" stop-opacity="0.83"/>
<stop offset="1" stop-color="#776C6C" stop-opacity="0"/>
</linearGradient>
<linearGradient id="paint7_linear_330_45" x1="0" y1="233" x2="636" y2="233.002" gradientUnits="userSpaceOnUse">
<stop stop-color="#E0D8D8" stop-opacity="0.83"/>
<stop offset="1" stop-color="#776C6C" stop-opacity="0"/>
</linearGradient>
<linearGradient id="paint8_linear_330_45" x1="0" y1="144" x2="636" y2="144.002" gradientUnits="userSpaceOnUse">
<stop stop-color="#E0D8D8" stop-opacity="0.83"/>
<stop offset="1" stop-color="#776C6C" stop-opacity="0"/>
</linearGradient>
<linearGradient id="paint9_linear_330_45" x1="0" y1="55" x2="636" y2="55.0021" gradientUnits="userSpaceOnUse">
<stop stop-color="#E0D8D8" stop-opacity="0.83"/>
<stop offset="1" stop-color="#776C6C" stop-opacity="0"/>
</linearGradient>
<clipPath id="clip0_330_45">
<rect x="239" y="81" width="262" height="384" rx="10" fill="white"/>
</clipPath>
</defs>
</svg>
