<svg width="459" height="448" viewBox="0 0 459 448" fill="none" xmlns="http://www.w3.org/2000/svg">
<line x1="142.5" y1="2.18557e-08" x2="142.5" y2="448" stroke="url(#paint0_linear_577_65150)" stroke-opacity="0.2"/>
<line x1="231.5" y1="2.18557e-08" x2="231.5" y2="448" stroke="url(#paint1_linear_577_65150)" stroke-opacity="0.2"/>
<line x1="320.5" y1="2.18557e-08" x2="320.5" y2="448" stroke="url(#paint2_linear_577_65150)" stroke-opacity="0.2"/>
<line x1="409.5" y1="2.18557e-08" x2="409.5" y2="448" stroke="url(#paint3_linear_577_65150)" stroke-opacity="0.2"/>
<line x1="53.5" y1="2.18557e-08" x2="53.5" y2="448" stroke="url(#paint4_linear_577_65150)" stroke-opacity="0.2"/>
<line x1="455" y1="46.5" x2="-4.37114e-08" y2="46.5" stroke="url(#paint5_linear_577_65150)" stroke-opacity="0.2"/>
<line x1="455" y1="135.5" x2="-4.37114e-08" y2="135.5" stroke="url(#paint6_linear_577_65150)" stroke-opacity="0.2"/>
<line x1="455" y1="224.5" x2="-4.37114e-08" y2="224.5" stroke="url(#paint7_linear_577_65150)" stroke-opacity="0.2"/>
<line x1="455" y1="313.5" x2="-4.37114e-08" y2="313.5" stroke="url(#paint8_linear_577_65150)" stroke-opacity="0.2"/>
<line x1="455" y1="402.5" x2="-4.37114e-08" y2="402.5" stroke="url(#paint9_linear_577_65150)" stroke-opacity="0.2"/>
<rect width="173" height="170" transform="translate(143 181)" fill="white" fill-opacity="0.8"/>
<rect width="209" height="170" transform="translate(125 163)" fill="white"/>
<g filter="url(#filter0_d_577_65150)">
<rect width="259" height="170" transform="translate(100 144)" fill="white"/>
<rect x="118.5" y="176.5" width="222" height="43" fill="#F2F2F2"/>
<rect x="118.5" y="176.5" width="222" height="43" stroke="#CDCDCD"/>
<rect x="128" y="166" width="73" height="21" rx="8" fill="white"/>
<path d="M134.959 181V172.273H140.371V173.406H136.276V176.065H139.983V177.195H136.276V181H134.959ZM141.888 181V174.455H143.162V181H141.888ZM142.531 173.445C142.31 173.445 142.119 173.371 141.96 173.223C141.804 173.072 141.726 172.893 141.726 172.686C141.726 172.476 141.804 172.297 141.96 172.149C142.119 171.999 142.31 171.923 142.531 171.923C142.753 171.923 142.942 171.999 143.098 172.149C143.257 172.297 143.337 172.476 143.337 172.686C143.337 172.893 143.257 173.072 143.098 173.223C142.942 173.371 142.753 173.445 142.531 173.445ZM144.876 181V174.455H146.108V175.494H146.176C146.295 175.142 146.505 174.865 146.806 174.663C147.11 174.459 147.454 174.357 147.838 174.357C147.917 174.357 148.011 174.359 148.119 174.365C148.23 174.371 148.316 174.378 148.379 174.386V175.605C148.328 175.591 148.237 175.575 148.106 175.558C147.975 175.538 147.845 175.528 147.714 175.528C147.413 175.528 147.145 175.592 146.909 175.72C146.676 175.845 146.491 176.02 146.355 176.244C146.218 176.466 146.15 176.719 146.15 177.003V181H144.876ZM154.386 176.053L153.232 176.257C153.183 176.109 153.107 175.969 153.001 175.835C152.899 175.702 152.76 175.592 152.584 175.507C152.408 175.422 152.188 175.379 151.923 175.379C151.563 175.379 151.261 175.46 151.02 175.622C150.778 175.781 150.658 175.987 150.658 176.24C150.658 176.459 150.739 176.635 150.901 176.768C151.063 176.902 151.324 177.011 151.685 177.097L152.724 177.335C153.327 177.474 153.776 177.689 154.071 177.979C154.366 178.268 154.514 178.645 154.514 179.108C154.514 179.5 154.401 179.849 154.173 180.156C153.949 180.46 153.635 180.699 153.232 180.872C152.831 181.045 152.366 181.132 151.838 181.132C151.105 181.132 150.507 180.976 150.044 180.663C149.581 180.348 149.297 179.901 149.192 179.321L150.423 179.134C150.5 179.455 150.658 179.697 150.896 179.862C151.135 180.024 151.446 180.105 151.83 180.105C152.247 180.105 152.581 180.018 152.831 179.845C153.081 179.669 153.206 179.455 153.206 179.202C153.206 178.997 153.129 178.825 152.976 178.686C152.825 178.547 152.594 178.442 152.281 178.371L151.173 178.128C150.563 177.989 150.111 177.767 149.818 177.463C149.528 177.159 149.384 176.774 149.384 176.308C149.384 175.922 149.491 175.584 149.707 175.294C149.923 175.004 150.222 174.778 150.602 174.616C150.983 174.452 151.419 174.369 151.911 174.369C152.618 174.369 153.175 174.523 153.581 174.83C153.987 175.134 154.256 175.541 154.386 176.053ZM158.971 174.455V175.477H155.395V174.455H158.971ZM156.354 172.886H157.628V179.078C157.628 179.325 157.665 179.511 157.739 179.636C157.813 179.759 157.908 179.842 158.025 179.888C158.144 179.93 158.273 179.952 158.412 179.952C158.515 179.952 158.604 179.945 158.681 179.93C158.757 179.916 158.817 179.905 158.86 179.896L159.09 180.949C159.016 180.977 158.911 181.006 158.775 181.034C158.638 181.065 158.468 181.082 158.263 181.085C157.928 181.091 157.615 181.031 157.326 180.906C157.036 180.781 156.801 180.588 156.623 180.327C156.444 180.065 156.354 179.737 156.354 179.342V172.886ZM164.83 177.114V181H163.556V174.455H164.779V175.52H164.86C165.01 175.173 165.246 174.895 165.567 174.685C165.891 174.474 166.299 174.369 166.79 174.369C167.236 174.369 167.627 174.463 167.962 174.651C168.297 174.835 168.557 175.111 168.742 175.477C168.926 175.844 169.019 176.297 169.019 176.837V181H167.745V176.99C167.745 176.516 167.621 176.145 167.374 175.878C167.127 175.608 166.787 175.473 166.355 175.473C166.06 175.473 165.797 175.537 165.567 175.665C165.34 175.793 165.159 175.98 165.026 176.227C164.895 176.472 164.83 176.767 164.83 177.114ZM172.632 181.145C172.218 181.145 171.843 181.068 171.507 180.915C171.172 180.759 170.907 180.533 170.711 180.237C170.517 179.942 170.421 179.58 170.421 179.151C170.421 178.781 170.492 178.477 170.634 178.239C170.776 178 170.968 177.811 171.209 177.672C171.451 177.533 171.721 177.428 172.019 177.357C172.317 177.286 172.621 177.232 172.931 177.195C173.323 177.149 173.641 177.112 173.885 177.084C174.13 177.053 174.307 177.003 174.418 176.935C174.529 176.866 174.584 176.756 174.584 176.602V176.572C174.584 176.2 174.479 175.912 174.269 175.707C174.061 175.503 173.752 175.401 173.34 175.401C172.911 175.401 172.573 175.496 172.326 175.686C172.081 175.874 171.912 176.082 171.819 176.312L170.621 176.04C170.763 175.642 170.971 175.321 171.243 175.077C171.519 174.83 171.836 174.651 172.194 174.54C172.551 174.426 172.928 174.369 173.323 174.369C173.584 174.369 173.861 174.401 174.154 174.463C174.449 174.523 174.725 174.634 174.98 174.795C175.239 174.957 175.451 175.189 175.615 175.49C175.78 175.788 175.863 176.176 175.863 176.653V181H174.618V180.105H174.567C174.485 180.27 174.361 180.432 174.196 180.591C174.032 180.75 173.82 180.882 173.561 180.987C173.303 181.092 172.993 181.145 172.632 181.145ZM172.909 180.122C173.262 180.122 173.563 180.053 173.813 179.913C174.066 179.774 174.257 179.592 174.388 179.368C174.522 179.141 174.588 178.898 174.588 178.639V177.795C174.543 177.841 174.455 177.884 174.324 177.923C174.196 177.96 174.05 177.993 173.885 178.021C173.721 178.047 173.56 178.071 173.404 178.094C173.248 178.114 173.117 178.131 173.012 178.145C172.765 178.176 172.539 178.229 172.334 178.303C172.132 178.376 171.971 178.483 171.848 178.622C171.729 178.759 171.669 178.94 171.669 179.168C171.669 179.483 171.786 179.722 172.019 179.884C172.252 180.043 172.549 180.122 172.909 180.122ZM177.56 181V174.455H178.783V175.52H178.864C179 175.159 179.223 174.878 179.533 174.676C179.842 174.472 180.213 174.369 180.645 174.369C181.082 174.369 181.449 174.472 181.744 174.676C182.043 174.881 182.263 175.162 182.405 175.52H182.473C182.629 175.17 182.878 174.892 183.219 174.685C183.56 174.474 183.966 174.369 184.438 174.369C185.031 174.369 185.516 174.555 185.891 174.928C186.268 175.3 186.457 175.861 186.457 176.611V181H185.183V176.73C185.183 176.287 185.063 175.966 184.821 175.767C184.58 175.568 184.291 175.469 183.956 175.469C183.541 175.469 183.219 175.597 182.989 175.852C182.759 176.105 182.643 176.43 182.643 176.828V181H181.374V176.649C181.374 176.294 181.263 176.009 181.041 175.793C180.82 175.577 180.531 175.469 180.176 175.469C179.935 175.469 179.712 175.533 179.507 175.661C179.305 175.786 179.142 175.96 179.017 176.185C178.895 176.409 178.834 176.669 178.834 176.964V181H177.56ZM190.986 181.132C190.341 181.132 189.786 180.994 189.32 180.719C188.857 180.44 188.499 180.05 188.246 179.547C187.996 179.041 187.871 178.449 187.871 177.77C187.871 177.099 187.996 176.509 188.246 175.997C188.499 175.486 188.851 175.087 189.303 174.8C189.757 174.513 190.289 174.369 190.897 174.369C191.266 174.369 191.624 174.43 191.971 174.553C192.317 174.675 192.628 174.866 192.904 175.128C193.179 175.389 193.397 175.729 193.556 176.146C193.715 176.561 193.794 177.065 193.794 177.659V178.111H188.591V177.156H192.546C192.546 176.821 192.478 176.524 192.341 176.266C192.205 176.004 192.013 175.798 191.766 175.648C191.522 175.497 191.235 175.422 190.905 175.422C190.547 175.422 190.235 175.51 189.968 175.686C189.703 175.859 189.499 176.087 189.354 176.368C189.212 176.646 189.141 176.949 189.141 177.276V178.021C189.141 178.459 189.218 178.831 189.371 179.138C189.527 179.445 189.745 179.679 190.023 179.841C190.301 180 190.627 180.08 190.999 180.08C191.24 180.08 191.461 180.045 191.659 179.977C191.858 179.906 192.03 179.801 192.175 179.662C192.32 179.523 192.431 179.351 192.507 179.146L193.713 179.364C193.617 179.719 193.444 180.03 193.194 180.297C192.946 180.561 192.635 180.767 192.26 180.915C191.888 181.06 191.463 181.132 190.986 181.132Z" fill="#0075B3" fill-opacity="0.94"/>
<rect x="118.5" y="237.5" width="222" height="43" fill="#F2F2F2"/>
<rect x="118.5" y="237.5" width="222" height="43" stroke="#CDCDCD"/>
<rect x="128" y="227" width="109" height="21" rx="8" fill="white"/>
<path d="M142.207 236.111H140.878C140.827 235.827 140.732 235.577 140.592 235.361C140.453 235.145 140.283 234.962 140.081 234.811C139.879 234.661 139.653 234.547 139.403 234.47C139.156 234.393 138.893 234.355 138.615 234.355C138.112 234.355 137.662 234.482 137.264 234.734C136.869 234.987 136.557 235.358 136.327 235.847C136.099 236.335 135.986 236.932 135.986 237.636C135.986 238.347 136.099 238.946 136.327 239.435C136.557 239.923 136.871 240.293 137.268 240.543C137.666 240.793 138.114 240.918 138.611 240.918C138.886 240.918 139.148 240.881 139.395 240.807C139.645 240.73 139.871 240.618 140.072 240.47C140.274 240.322 140.445 240.142 140.584 239.929C140.726 239.713 140.824 239.466 140.878 239.188L142.207 239.192C142.136 239.621 141.999 240.016 141.794 240.376C141.592 240.734 141.332 241.044 141.014 241.305C140.699 241.564 140.338 241.764 139.932 241.906C139.526 242.048 139.082 242.119 138.602 242.119C137.847 242.119 137.173 241.94 136.582 241.582C135.991 241.222 135.526 240.706 135.185 240.036C134.847 239.365 134.678 238.565 134.678 237.636C134.678 236.705 134.848 235.905 135.189 235.237C135.53 234.567 135.996 234.053 136.587 233.695C137.178 233.334 137.849 233.153 138.602 233.153C139.065 233.153 139.497 233.22 139.898 233.354C140.301 233.484 140.663 233.678 140.984 233.933C141.305 234.186 141.571 234.496 141.781 234.862C141.991 235.226 142.134 235.642 142.207 236.111ZM146.438 242.132C145.824 242.132 145.289 241.991 144.831 241.71C144.374 241.429 144.019 241.036 143.766 240.53C143.513 240.024 143.387 239.433 143.387 238.757C143.387 238.078 143.513 237.484 143.766 236.976C144.019 236.467 144.374 236.072 144.831 235.791C145.289 235.51 145.824 235.369 146.438 235.369C147.051 235.369 147.587 235.51 148.044 235.791C148.502 236.072 148.857 236.467 149.11 236.976C149.363 237.484 149.489 238.078 149.489 238.757C149.489 239.433 149.363 240.024 149.11 240.53C148.857 241.036 148.502 241.429 148.044 241.71C147.587 241.991 147.051 242.132 146.438 242.132ZM146.442 241.062C146.84 241.062 147.169 240.957 147.431 240.747C147.692 240.537 147.885 240.257 148.01 239.908C148.138 239.558 148.202 239.173 148.202 238.753C148.202 238.335 148.138 237.952 148.01 237.602C147.885 237.25 147.692 236.967 147.431 236.754C147.169 236.541 146.84 236.435 146.442 236.435C146.042 236.435 145.709 236.541 145.445 236.754C145.184 236.967 144.989 237.25 144.861 237.602C144.736 237.952 144.674 238.335 144.674 238.753C144.674 239.173 144.736 239.558 144.861 239.908C144.989 240.257 145.184 240.537 145.445 240.747C145.709 240.957 146.042 241.062 146.442 241.062ZM152.185 238.114V242H150.911V235.455H152.134V236.52H152.215C152.366 236.173 152.602 235.895 152.923 235.685C153.246 235.474 153.654 235.369 154.146 235.369C154.592 235.369 154.982 235.463 155.317 235.651C155.653 235.835 155.913 236.111 156.097 236.477C156.282 236.844 156.374 237.297 156.374 237.837V242H155.1V237.99C155.1 237.516 154.977 237.145 154.729 236.878C154.482 236.608 154.143 236.473 153.711 236.473C153.415 236.473 153.153 236.537 152.923 236.665C152.695 236.793 152.515 236.98 152.381 237.227C152.251 237.472 152.185 237.767 152.185 238.114ZM161.138 235.455V236.477H157.563V235.455H161.138ZM158.522 233.886H159.796V240.078C159.796 240.325 159.833 240.511 159.907 240.636C159.981 240.759 160.076 240.842 160.192 240.888C160.312 240.93 160.441 240.952 160.58 240.952C160.683 240.952 160.772 240.945 160.849 240.93C160.925 240.916 160.985 240.905 161.028 240.896L161.258 241.949C161.184 241.977 161.079 242.006 160.942 242.034C160.806 242.065 160.636 242.082 160.431 242.085C160.096 242.091 159.783 242.031 159.494 241.906C159.204 241.781 158.969 241.588 158.79 241.327C158.612 241.065 158.522 240.737 158.522 240.342V233.886ZM164.453 242.145C164.038 242.145 163.663 242.068 163.328 241.915C162.993 241.759 162.727 241.533 162.531 241.237C162.338 240.942 162.241 240.58 162.241 240.151C162.241 239.781 162.312 239.477 162.454 239.239C162.596 239 162.788 238.811 163.029 238.672C163.271 238.533 163.541 238.428 163.839 238.357C164.137 238.286 164.441 238.232 164.751 238.195C165.143 238.149 165.461 238.112 165.706 238.084C165.95 238.053 166.127 238.003 166.238 237.935C166.349 237.866 166.404 237.756 166.404 237.602V237.572C166.404 237.2 166.299 236.912 166.089 236.707C165.882 236.503 165.572 236.401 165.16 236.401C164.731 236.401 164.393 236.496 164.146 236.686C163.902 236.874 163.733 237.082 163.639 237.312L162.441 237.04C162.583 236.642 162.791 236.321 163.064 236.077C163.339 235.83 163.656 235.651 164.014 235.54C164.372 235.426 164.748 235.369 165.143 235.369C165.404 235.369 165.681 235.401 165.974 235.463C166.27 235.523 166.545 235.634 166.801 235.795C167.059 235.957 167.271 236.189 167.436 236.49C167.6 236.788 167.683 237.176 167.683 237.653V242H166.439V241.105H166.387C166.305 241.27 166.181 241.432 166.017 241.591C165.852 241.75 165.64 241.882 165.382 241.987C165.123 242.092 164.814 242.145 164.453 242.145ZM164.73 241.122C165.082 241.122 165.383 241.053 165.633 240.913C165.886 240.774 166.078 240.592 166.208 240.368C166.342 240.141 166.409 239.898 166.409 239.639V238.795C166.363 238.841 166.275 238.884 166.145 238.923C166.017 238.96 165.87 238.993 165.706 239.021C165.541 239.047 165.38 239.071 165.224 239.094C165.068 239.114 164.937 239.131 164.832 239.145C164.585 239.176 164.359 239.229 164.154 239.303C163.953 239.376 163.791 239.483 163.669 239.622C163.549 239.759 163.49 239.94 163.49 240.168C163.49 240.483 163.606 240.722 163.839 240.884C164.072 241.043 164.369 241.122 164.73 241.122ZM172.137 242.132C171.504 242.132 170.958 241.989 170.501 241.702C170.046 241.412 169.697 241.013 169.452 240.504C169.208 239.996 169.086 239.413 169.086 238.757C169.086 238.092 169.211 237.506 169.461 236.997C169.711 236.486 170.063 236.087 170.518 235.8C170.972 235.513 171.508 235.369 172.124 235.369C172.621 235.369 173.065 235.462 173.454 235.646C173.843 235.828 174.157 236.084 174.396 236.413C174.637 236.743 174.781 237.128 174.826 237.568H173.586C173.518 237.261 173.362 236.997 173.117 236.776C172.876 236.554 172.552 236.443 172.146 236.443C171.79 236.443 171.479 236.537 171.212 236.724C170.948 236.909 170.742 237.173 170.594 237.517C170.447 237.858 170.373 238.261 170.373 238.727C170.373 239.205 170.445 239.616 170.59 239.963C170.735 240.31 170.94 240.578 171.204 240.768C171.471 240.959 171.785 241.054 172.146 241.054C172.387 241.054 172.606 241.01 172.802 240.922C173.001 240.831 173.167 240.702 173.3 240.534C173.437 240.366 173.532 240.165 173.586 239.929H174.826C174.781 240.352 174.643 240.73 174.413 241.062C174.183 241.395 173.874 241.656 173.488 241.847C173.104 242.037 172.654 242.132 172.137 242.132ZM179.244 235.455V236.477H175.669V235.455H179.244ZM176.627 233.886H177.902V240.078C177.902 240.325 177.939 240.511 178.012 240.636C178.086 240.759 178.181 240.842 178.298 240.888C178.417 240.93 178.547 240.952 178.686 240.952C178.788 240.952 178.877 240.945 178.954 240.93C179.031 240.916 179.091 240.905 179.133 240.896L179.363 241.949C179.289 241.977 179.184 242.006 179.048 242.034C178.912 242.065 178.741 242.082 178.537 242.085C178.201 242.091 177.889 242.031 177.599 241.906C177.309 241.781 177.075 241.588 176.896 241.327C176.717 241.065 176.627 240.737 176.627 240.342V233.886ZM184.669 242H183.271L186.412 233.273H187.933L191.074 242H189.676L187.208 234.858H187.14L184.669 242ZM184.903 238.582H189.437V239.69H184.903V238.582ZM194.576 242.128C194.048 242.128 193.576 241.993 193.162 241.723C192.75 241.45 192.426 241.062 192.19 240.56C191.957 240.054 191.841 239.447 191.841 238.74C191.841 238.033 191.958 237.428 192.194 236.925C192.433 236.422 192.76 236.037 193.174 235.77C193.589 235.503 194.059 235.369 194.585 235.369C194.991 235.369 195.318 235.438 195.565 235.574C195.815 235.707 196.008 235.864 196.145 236.043C196.284 236.222 196.392 236.379 196.468 236.516H196.545V233.273H197.819V242H196.575V240.982H196.468C196.392 241.121 196.281 241.28 196.136 241.459C195.994 241.638 195.798 241.794 195.548 241.928C195.298 242.061 194.974 242.128 194.576 242.128ZM194.858 241.041C195.224 241.041 195.534 240.945 195.787 240.751C196.042 240.555 196.235 240.284 196.366 239.938C196.5 239.591 196.566 239.187 196.566 238.727C196.566 238.273 196.501 237.875 196.37 237.534C196.24 237.193 196.048 236.928 195.795 236.737C195.542 236.547 195.23 236.452 194.858 236.452C194.474 236.452 194.154 236.551 193.899 236.75C193.643 236.949 193.45 237.22 193.319 237.564C193.191 237.908 193.127 238.295 193.127 238.727C193.127 239.165 193.193 239.558 193.324 239.908C193.454 240.257 193.647 240.534 193.903 240.739C194.162 240.94 194.48 241.041 194.858 241.041ZM202.088 242.128C201.56 242.128 201.088 241.993 200.673 241.723C200.261 241.45 199.938 241.062 199.702 240.56C199.469 240.054 199.352 239.447 199.352 238.74C199.352 238.033 199.47 237.428 199.706 236.925C199.945 236.422 200.271 236.037 200.686 235.77C201.101 235.503 201.571 235.369 202.097 235.369C202.503 235.369 202.83 235.438 203.077 235.574C203.327 235.707 203.52 235.864 203.656 236.043C203.795 236.222 203.903 236.379 203.98 236.516H204.057V233.273H205.331V242H204.087V240.982H203.98C203.903 241.121 203.793 241.28 203.648 241.459C203.506 241.638 203.31 241.794 203.06 241.928C202.81 242.061 202.486 242.128 202.088 242.128ZM202.369 241.041C202.736 241.041 203.045 240.945 203.298 240.751C203.554 240.555 203.747 240.284 203.878 239.938C204.011 239.591 204.078 239.187 204.078 238.727C204.078 238.273 204.013 237.875 203.882 237.534C203.751 237.193 203.56 236.928 203.307 236.737C203.054 236.547 202.741 236.452 202.369 236.452C201.986 236.452 201.666 236.551 201.411 236.75C201.155 236.949 200.962 237.22 200.831 237.564C200.703 237.908 200.639 238.295 200.639 238.727C200.639 239.165 200.705 239.558 200.835 239.908C200.966 240.257 201.159 240.534 201.415 240.739C201.673 240.94 201.991 241.041 202.369 241.041ZM207.15 242V235.455H208.381V236.494H208.449C208.569 236.142 208.779 235.865 209.08 235.663C209.384 235.459 209.728 235.357 210.111 235.357C210.191 235.357 210.284 235.359 210.392 235.365C210.503 235.371 210.59 235.378 210.652 235.386V236.605C210.601 236.591 210.51 236.575 210.38 236.558C210.249 236.538 210.118 236.528 209.988 236.528C209.686 236.528 209.418 236.592 209.182 236.72C208.949 236.845 208.765 237.02 208.628 237.244C208.492 237.466 208.424 237.719 208.424 238.003V242H207.15ZM214.342 242.132C213.697 242.132 213.141 241.994 212.675 241.719C212.212 241.44 211.854 241.05 211.602 240.547C211.352 240.041 211.227 239.449 211.227 238.77C211.227 238.099 211.352 237.509 211.602 236.997C211.854 236.486 212.207 236.087 212.658 235.8C213.113 235.513 213.644 235.369 214.252 235.369C214.621 235.369 214.979 235.43 215.326 235.553C215.673 235.675 215.984 235.866 216.259 236.128C216.535 236.389 216.752 236.729 216.911 237.146C217.07 237.561 217.15 238.065 217.15 238.659V239.111H211.947V238.156H215.901C215.901 237.821 215.833 237.524 215.697 237.266C215.56 237.004 215.369 236.798 215.121 236.648C214.877 236.497 214.59 236.422 214.261 236.422C213.903 236.422 213.59 236.51 213.323 236.686C213.059 236.859 212.854 237.087 212.71 237.368C212.567 237.646 212.496 237.949 212.496 238.276V239.021C212.496 239.459 212.573 239.831 212.727 240.138C212.883 240.445 213.1 240.679 213.379 240.841C213.657 241 213.982 241.08 214.354 241.08C214.596 241.08 214.816 241.045 215.015 240.977C215.214 240.906 215.386 240.801 215.531 240.662C215.675 240.523 215.786 240.351 215.863 240.146L217.069 240.364C216.972 240.719 216.799 241.03 216.549 241.297C216.302 241.561 215.991 241.767 215.616 241.915C215.244 242.06 214.819 242.132 214.342 242.132ZM223.468 237.053L222.314 237.257C222.265 237.109 222.189 236.969 222.083 236.835C221.981 236.702 221.842 236.592 221.666 236.507C221.49 236.422 221.27 236.379 221.005 236.379C220.645 236.379 220.343 236.46 220.102 236.622C219.86 236.781 219.74 236.987 219.74 237.24C219.74 237.459 219.821 237.635 219.983 237.768C220.145 237.902 220.406 238.011 220.767 238.097L221.806 238.335C222.409 238.474 222.858 238.689 223.153 238.979C223.449 239.268 223.596 239.645 223.596 240.108C223.596 240.5 223.483 240.849 223.255 241.156C223.031 241.46 222.717 241.699 222.314 241.872C221.913 242.045 221.449 242.132 220.92 242.132C220.187 242.132 219.589 241.976 219.126 241.663C218.663 241.348 218.379 240.901 218.274 240.321L219.505 240.134C219.582 240.455 219.74 240.697 219.978 240.862C220.217 241.024 220.528 241.105 220.912 241.105C221.329 241.105 221.663 241.018 221.913 240.845C222.163 240.669 222.288 240.455 222.288 240.202C222.288 239.997 222.211 239.825 222.058 239.686C221.907 239.547 221.676 239.442 221.363 239.371L220.255 239.128C219.645 238.989 219.193 238.767 218.9 238.463C218.61 238.159 218.466 237.774 218.466 237.308C218.466 236.922 218.574 236.584 218.789 236.294C219.005 236.004 219.304 235.778 219.684 235.616C220.065 235.452 220.501 235.369 220.993 235.369C221.7 235.369 222.257 235.523 222.663 235.83C223.069 236.134 223.338 236.541 223.468 237.053ZM229.902 237.053L228.747 237.257C228.699 237.109 228.622 236.969 228.517 236.835C228.415 236.702 228.276 236.592 228.099 236.507C227.923 236.422 227.703 236.379 227.439 236.379C227.078 236.379 226.777 236.46 226.536 236.622C226.294 236.781 226.173 236.987 226.173 237.24C226.173 237.459 226.254 237.635 226.416 237.768C226.578 237.902 226.839 238.011 227.2 238.097L228.24 238.335C228.842 238.474 229.291 238.689 229.587 238.979C229.882 239.268 230.03 239.645 230.03 240.108C230.03 240.5 229.916 240.849 229.689 241.156C229.464 241.46 229.151 241.699 228.747 241.872C228.347 242.045 227.882 242.132 227.354 242.132C226.621 242.132 226.023 241.976 225.56 241.663C225.097 241.348 224.813 240.901 224.707 240.321L225.939 240.134C226.016 240.455 226.173 240.697 226.412 240.862C226.651 241.024 226.962 241.105 227.345 241.105C227.763 241.105 228.097 241.018 228.347 240.845C228.597 240.669 228.722 240.455 228.722 240.202C228.722 239.997 228.645 239.825 228.491 239.686C228.341 239.547 228.109 239.442 227.797 239.371L226.689 239.128C226.078 238.989 225.626 238.767 225.334 238.463C225.044 238.159 224.899 237.774 224.899 237.308C224.899 236.922 225.007 236.584 225.223 236.294C225.439 236.004 225.737 235.778 226.118 235.616C226.499 235.452 226.935 235.369 227.426 235.369C228.134 235.369 228.69 235.523 229.097 235.83C229.503 236.134 229.771 236.541 229.902 237.053Z" fill="#0075B3" fill-opacity="0.94"/>
</g>
<defs>
<filter id="filter0_d_577_65150" x="0" y="63" width="459" height="370" filterUnits="userSpaceOnUse" color-interpolation-filters="sRGB">
<feFlood flood-opacity="0" result="BackgroundImageFix"/>
<feColorMatrix in="SourceAlpha" type="matrix" values="0 0 0 0 0 0 0 0 0 0 0 0 0 0 0 0 0 0 127 0" result="hardAlpha"/>
<feOffset dy="19"/>
<feGaussianBlur stdDeviation="50"/>
<feComposite in2="hardAlpha" operator="out"/>
<feColorMatrix type="matrix" values="0 0 0 0 0 0 0 0 0 0 0 0 0 0 0 0 0 0 0.1 0"/>
<feBlend mode="normal" in2="BackgroundImageFix" result="effect1_dropShadow_577_65150"/>
<feBlend mode="normal" in="SourceGraphic" in2="effect1_dropShadow_577_65150" result="shape"/>
</filter>
<linearGradient id="paint0_linear_577_65150" x1="142" y1="0" x2="141.999" y2="448" gradientUnits="userSpaceOnUse">
<stop stop-color="white" stop-opacity="0.83"/>
<stop offset="1" stop-color="#7D7D7D" stop-opacity="0"/>
</linearGradient>
<linearGradient id="paint1_linear_577_65150" x1="231" y1="0" x2="230.999" y2="448" gradientUnits="userSpaceOnUse">
<stop stop-color="white" stop-opacity="0.83"/>
<stop offset="1" stop-color="#7D7D7D" stop-opacity="0"/>
</linearGradient>
<linearGradient id="paint2_linear_577_65150" x1="320" y1="0" x2="319.999" y2="448" gradientUnits="userSpaceOnUse">
<stop stop-color="white" stop-opacity="0.83"/>
<stop offset="1" stop-color="#7D7D7D" stop-opacity="0"/>
</linearGradient>
<linearGradient id="paint3_linear_577_65150" x1="409" y1="0" x2="408.999" y2="448" gradientUnits="userSpaceOnUse">
<stop stop-color="white" stop-opacity="0.83"/>
<stop offset="1" stop-color="#7D7D7D" stop-opacity="0"/>
</linearGradient>
<linearGradient id="paint4_linear_577_65150" x1="53" y1="0" x2="52.9989" y2="448" gradientUnits="userSpaceOnUse">
<stop stop-color="white" stop-opacity="0.83"/>
<stop offset="1" stop-color="#7D7D7D" stop-opacity="0"/>
</linearGradient>
<linearGradient id="paint5_linear_577_65150" x1="455" y1="46" x2="-0.000244079" y2="45.9989" gradientUnits="userSpaceOnUse">
<stop stop-color="white" stop-opacity="0.83"/>
<stop offset="1" stop-color="#7D7D7D" stop-opacity="0"/>
</linearGradient>
<linearGradient id="paint6_linear_577_65150" x1="455" y1="135" x2="-0.000244079" y2="134.999" gradientUnits="userSpaceOnUse">
<stop stop-color="white" stop-opacity="0.83"/>
<stop offset="1" stop-color="#7D7D7D" stop-opacity="0"/>
</linearGradient>
<linearGradient id="paint7_linear_577_65150" x1="455" y1="224" x2="-0.000244079" y2="223.999" gradientUnits="userSpaceOnUse">
<stop stop-color="white" stop-opacity="0.83"/>
<stop offset="1" stop-color="#7D7D7D" stop-opacity="0"/>
</linearGradient>
<linearGradient id="paint8_linear_577_65150" x1="455" y1="313" x2="-0.000244079" y2="312.999" gradientUnits="userSpaceOnUse">
<stop stop-color="white" stop-opacity="0.83"/>
<stop offset="1" stop-color="#7D7D7D" stop-opacity="0"/>
</linearGradient>
<linearGradient id="paint9_linear_577_65150" x1="455" y1="402" x2="-0.000244079" y2="401.999" gradientUnits="userSpaceOnUse">
<stop stop-color="white" stop-opacity="0.83"/>
<stop offset="1" stop-color="#7D7D7D" stop-opacity="0"/>
</linearGradient>
</defs>
</svg>
