<svg width="1344" height="1209" viewBox="0 0 1344 1209" fill="none" xmlns="http://www.w3.org/2000/svg">
<g clip-path="url(#clip0_148_45)">
<path fill-rule="evenodd" clip-rule="evenodd" d="M672 104.105L776.16 0H871.92L672 198.135V104.105ZM1344 198.135L1145.76 0H1241.52L1344 104.105V198.135ZM776.16 201.493L977.76 0H1039.92L1241.52 201.493H1145.76L1008 63.8061L870.24 201.493H776.16ZM977.76 201.493L1008 171.269L1038.24 201.493H977.76Z" fill="#F2DD77"/>
</g>
<g clip-path="url(#clip1_148_45)">
<path fill-rule="evenodd" clip-rule="evenodd" d="M672 305.597L776.16 201.493H871.92L672 399.627V305.597ZM1344 399.627L1145.76 201.493H1241.52L1344 305.597V399.627ZM776.16 402.986L977.76 201.493H1039.92L1241.52 402.986H1145.76L1008 265.299L870.24 402.986H776.16ZM977.76 402.986L1008 372.762L1038.24 402.986H977.76Z" fill="#F2DD77"/>
</g>
<g clip-path="url(#clip2_148_45)">
<path fill-rule="evenodd" clip-rule="evenodd" d="M672 507.09L776.16 402.986H871.92L672 601.12V507.09ZM1344 601.12L1145.76 402.986H1241.52L1344 507.09V601.12ZM776.16 604.478L977.76 402.986H1039.92L1241.52 604.478H1145.76L1008 466.792L870.24 604.478H776.16ZM977.76 604.478L1008 574.254L1038.24 604.478H977.76Z" fill="#F2DD77"/>
</g>
<g clip-path="url(#clip3_148_45)">
<path fill-rule="evenodd" clip-rule="evenodd" d="M672 708.583L776.16 604.479H871.92L672 802.613V708.583ZM1344 802.613L1145.76 604.479H1241.52L1344 708.583V802.613ZM776.16 805.971L977.76 604.479H1039.92L1241.52 805.971H1145.76L1008 668.285L870.24 805.971H776.16ZM977.76 805.971L1008 775.747L1038.24 805.971H977.76Z" fill="#F2DD77"/>
</g>
<g clip-path="url(#clip4_148_45)">
<path fill-rule="evenodd" clip-rule="evenodd" d="M672 910.076L776.16 805.971H871.92L672 1004.11V910.076ZM1344 1004.11L1145.76 805.971H1241.52L1344 910.076V1004.11ZM776.16 1007.46L977.76 805.971H1039.92L1241.52 1007.46H1145.76L1008 869.777L870.24 1007.46H776.16ZM977.76 1007.46L1008 977.24L1038.24 1007.46H977.76Z" fill="#F2DD77"/>
</g>
<g clip-path="url(#clip5_148_45)">
<path fill-rule="evenodd" clip-rule="evenodd" d="M672 1111.57L776.16 1007.46H871.92L672 1205.6V1111.57ZM1344 1205.6L1145.76 1007.46H1241.52L1344 1111.57V1205.6ZM776.16 1208.96L977.76 1007.46H1039.92L1241.52 1208.96H1145.76L1008 1071.27L870.24 1208.96H776.16ZM977.76 1208.96L1008 1178.73L1038.24 1208.96H977.76Z" fill="#F2DD77"/>
</g>
<g clip-path="url(#clip6_148_45)">
<path fill-rule="evenodd" clip-rule="evenodd" d="M0 104.105L104.16 0H199.92L0 198.135V104.105ZM672 198.135L473.76 0H569.52L672 104.105V198.135ZM104.16 201.493L305.76 0H367.92L569.52 201.493H473.76L336 63.8061L198.24 201.493H104.16ZM305.76 201.493L336 171.269L366.24 201.493H305.76Z" fill="#F2DD77"/>
</g>
<g clip-path="url(#clip7_148_45)">
<path fill-rule="evenodd" clip-rule="evenodd" d="M0 305.597L104.16 201.493H199.92L0 399.627V305.597ZM672 399.627L473.76 201.493H569.52L672 305.597V399.627ZM104.16 402.986L305.76 201.493H367.92L569.52 402.986H473.76L336 265.299L198.24 402.986H104.16ZM305.76 402.986L336 372.762L366.24 402.986H305.76Z" fill="#F2DD77"/>
</g>
<g clip-path="url(#clip8_148_45)">
<path fill-rule="evenodd" clip-rule="evenodd" d="M0 507.09L104.16 402.986H199.92L0 601.12V507.09ZM672 601.12L473.76 402.986H569.52L672 507.09V601.12ZM104.16 604.478L305.76 402.986H367.92L569.52 604.478H473.76L336 466.792L198.24 604.478H104.16ZM305.76 604.478L336 574.254L366.24 604.478H305.76Z" fill="#F2DD77"/>
</g>
<g clip-path="url(#clip9_148_45)">
<path fill-rule="evenodd" clip-rule="evenodd" d="M0 708.583L104.16 604.479H199.92L0 802.613V708.583ZM672 802.613L473.76 604.479H569.52L672 708.583V802.613ZM104.16 805.971L305.76 604.479H367.92L569.52 805.971H473.76L336 668.285L198.24 805.971H104.16ZM305.76 805.971L336 775.747L366.24 805.971H305.76Z" fill="#F2DD77"/>
</g>
<g clip-path="url(#clip10_148_45)">
<path fill-rule="evenodd" clip-rule="evenodd" d="M0 910.076L104.16 805.971H199.92L0 1004.11V910.076ZM672 1004.11L473.76 805.971H569.52L672 910.076V1004.11ZM104.16 1007.46L305.76 805.971H367.92L569.52 1007.46H473.76L336 869.777L198.24 1007.46H104.16ZM305.76 1007.46L336 977.24L366.24 1007.46H305.76Z" fill="#F2DD77"/>
</g>
<g clip-path="url(#clip11_148_45)">
<path fill-rule="evenodd" clip-rule="evenodd" d="M0 1111.57L104.16 1007.46H199.92L0 1205.6V1111.57ZM672 1205.6L473.76 1007.46H569.52L672 1111.57V1205.6ZM104.16 1208.96L305.76 1007.46H367.92L569.52 1208.96H473.76L336 1071.27L198.24 1208.96H104.16ZM305.76 1208.96L336 1178.73L366.24 1208.96H305.76Z" fill="#F2DD77"/>
</g>
<defs>
<clipPath id="clip0_148_45">
<rect width="672" height="201.493" fill="white" transform="translate(672)"/>
</clipPath>
<clipPath id="clip1_148_45">
<rect width="672" height="201.493" fill="white" transform="translate(672 201.493)"/>
</clipPath>
<clipPath id="clip2_148_45">
<rect width="672" height="201.493" fill="white" transform="translate(672 402.986)"/>
</clipPath>
<clipPath id="clip3_148_45">
<rect width="672" height="201.493" fill="white" transform="translate(672 604.479)"/>
</clipPath>
<clipPath id="clip4_148_45">
<rect width="672" height="201.493" fill="white" transform="translate(672 805.971)"/>
</clipPath>
<clipPath id="clip5_148_45">
<rect width="672" height="201.493" fill="white" transform="translate(672 1007.46)"/>
</clipPath>
<clipPath id="clip6_148_45">
<rect width="672" height="201.493" fill="white"/>
</clipPath>
<clipPath id="clip7_148_45">
<rect width="672" height="201.493" fill="white" transform="translate(0 201.493)"/>
</clipPath>
<clipPath id="clip8_148_45">
<rect width="672" height="201.493" fill="white" transform="translate(0 402.986)"/>
</clipPath>
<clipPath id="clip9_148_45">
<rect width="672" height="201.493" fill="white" transform="translate(0 604.479)"/>
</clipPath>
<clipPath id="clip10_148_45">
<rect width="672" height="201.493" fill="white" transform="translate(0 805.971)"/>
</clipPath>
<clipPath id="clip11_148_45">
<rect width="672" height="201.493" fill="white" transform="translate(0 1007.46)"/>
</clipPath>
</defs>
</svg>
