<svg width="86" height="86" viewBox="0 0 86 86" fill="none" xmlns="http://www.w3.org/2000/svg">
<path d="M58.9558 61.2523L41.3078 43.6044V21.9675H44.6924V42.3956L61.2524 58.9557L58.9558 61.2523ZM5.64924 62.3402C4.19873 59.6003 3.0915 56.7396 2.32756 53.758C1.56039 50.7764 1.09623 47.7545 0.935059 44.6922H4.3196C4.48077 47.5127 4.92399 50.2526 5.64924 52.9118C6.3745 55.5711 7.38181 58.1498 8.67116 60.6479L5.64924 62.3402ZM0.935059 41.3077C1.09623 38.2455 1.57973 35.2236 2.38558 32.242C3.19142 29.2603 4.3196 26.3593 5.77012 23.5389L8.67116 25.2311C7.30122 27.7292 6.27458 30.3289 5.59122 33.0301C4.90464 35.728 4.48077 38.4872 4.3196 41.3077H0.935059ZM20.6379 78.5377C17.9786 76.8454 15.5208 74.8904 13.2645 72.6727C11.0081 70.4583 9.03379 68.0214 7.34152 65.3621L10.2426 63.549C11.7737 65.9665 13.5675 68.2019 15.624 70.2552C17.6773 72.3117 19.9127 74.1055 22.3302 75.6366L20.6379 78.5377ZM10.3634 22.3301L7.34152 20.6378C9.03379 17.9785 11.0081 15.5417 13.2645 13.3272C15.5208 11.1095 17.9786 9.15454 20.6379 7.46227L22.3302 10.3633C19.9127 11.8944 17.6966 13.6673 15.682 15.6819C13.6674 17.6965 11.8945 19.9126 10.3634 22.3301ZM41.3078 85.065C38.2456 84.9038 35.2237 84.4203 32.2421 83.6145C29.2605 82.8086 26.3594 81.6805 23.539 80.2299L25.2312 77.3289C27.7294 78.6988 30.329 79.7255 33.0302 80.4088C35.7282 81.0954 38.4874 81.5193 41.3078 81.6805V85.065ZM25.2312 8.67104L23.539 5.77C26.3594 4.31948 29.2605 3.1913 32.2421 2.38545C35.2237 1.57961 38.2456 1.09611 41.3078 0.934937V4.31948C38.4874 4.48065 35.7282 4.90291 33.0302 5.58627C30.329 6.27285 27.7294 7.3011 25.2312 8.67104ZM44.6924 85.065V81.6805C47.5128 81.5193 50.272 81.0954 52.97 80.4088C55.6712 79.7255 58.2708 78.6988 60.7689 77.3289L62.4612 80.2299C59.6408 81.6805 56.7397 82.8086 53.7581 83.6145C50.7765 84.4203 47.7546 84.9038 44.6924 85.065ZM60.7689 8.67104C58.2708 7.3011 55.6712 6.27285 52.97 5.58627C50.272 4.90291 47.5128 4.48065 44.6924 4.31948V0.934937C47.7546 1.09611 50.7765 1.57961 53.7581 2.38545C56.7397 3.1913 59.6408 4.31948 62.4612 5.77L60.7689 8.67104ZM65.3623 78.5377L63.67 75.6366C66.0875 74.1055 68.3036 72.3327 70.3182 70.3181C72.3328 68.3035 74.1057 66.0874 75.6368 63.6699L78.5378 65.3621C76.8455 68.0214 74.8905 70.4583 72.6729 72.6727C70.4584 74.8904 68.0215 76.8454 65.3623 78.5377ZM75.6368 22.2092C74.1057 19.7917 72.3328 17.5949 70.3182 15.619C68.3036 13.6463 66.0875 11.8944 63.67 10.3633L65.3623 7.46227C68.0215 9.15454 70.4584 11.0886 72.6729 13.2643C74.8905 15.4401 76.8455 17.8577 78.5378 20.5169L75.6368 22.2092ZM81.6806 41.3077C81.5194 38.4872 81.0762 35.728 80.351 33.0301C79.6257 30.3289 78.5781 27.6889 77.2082 25.1102L80.2301 23.418C81.6806 26.2384 82.8088 29.1395 83.6146 32.1211C84.4205 35.1027 84.904 38.1649 85.0651 41.3077H81.6806ZM80.2301 62.4611L77.329 60.7688C78.699 58.2707 79.7272 55.6711 80.4138 52.9699C81.0972 50.2719 81.5194 47.5127 81.6806 44.6922H85.0651C84.904 47.7545 84.4205 50.7764 83.6146 53.758C82.8088 56.7396 81.6806 59.6406 80.2301 62.4611Z" fill="#D7D7D7"/>
</svg>
