<svg width="37" height="45" viewBox="0 0 37 45" fill="none" xmlns="http://www.w3.org/2000/svg">
<path d="M10.0243 34.202L9.71486 35.3921C6.19334 32.0592 5.42383 29.5179 3.10562 29.747C3.15397 29.7345 3.57258 29.579 2.09987 28.7472C0.545644 27.8681 1.33035 26.6488 1.33035 26.6488C2.54472 23.9839 2.21039 24.0242 2.24631 22.8591C2.24135 22.6036 2.30955 22.352 2.4428 22.1344C2.57604 21.9167 2.76871 21.7422 2.99786 21.6315C3.94753 26.4672 6.40937 30.8715 10.0243 34.202Z" fill="#ECD844" stroke="black" stroke-width="0.218444" stroke-miterlimit="10"/>
<path d="M35.6568 27.3377C35.6381 27.4204 35.6151 27.502 35.5877 27.5822C35.3153 28.3639 34.8005 29.0371 34.1191 29.5027C33.753 29.225 33.2294 29.0861 32.4834 29.1819C30.6169 29.4361 29.2257 32.569 27.0692 35.277L26.8467 33.5827C30.0789 30.3657 32.2903 26.2582 33.2018 21.7788C33.5333 21.6996 34.9715 21.5246 34.6662 24.4909C34.6621 24.4909 36.0021 25.9143 35.6568 27.3377Z" fill="#ECD844" stroke="black" stroke-width="0.218444" stroke-miterlimit="10"/>
<path d="M34.9396 32.0356C34.8443 32.7722 34.7106 33.5032 34.539 34.2256C34.5086 34.345 34.4754 34.4561 34.4423 34.5533C34.3041 34.9366 34.166 35.1352 34.0181 34.8908C33.4959 34.0187 31.1998 36.6656 30.9207 36.985C29.5392 38.5709 28.4948 40.1109 26.7236 41.3274C22.7835 44.034 17.4881 45.0228 12.9608 43.3063C9.81923 42.1162 7.54109 39.6957 5.17038 37.4127C4.62744 36.8905 4.08035 36.3767 3.51254 35.8851C3.44208 35.824 1.26894 34.159 1.26617 34.4575V30.34C1.98871 29.9901 2.58277 29.7998 3.10223 29.7484C5.42044 29.5193 6.18995 32.0537 9.71147 35.3921C14.0232 39.4777 17.8818 40.7567 22.8899 38.6931C24.6071 37.9862 25.9403 36.6906 27.0649 35.2769C29.2214 32.5689 30.6126 29.436 32.4791 29.1819L32.5689 29.1707C32.7418 29.151 32.916 29.1455 33.0897 29.1541C33.4583 29.1653 33.8152 29.2866 34.1148 29.5026C35.1482 30.2748 34.9396 32.0356 34.9396 32.0356Z" fill="#ECD844" stroke="black" stroke-width="0.218444" stroke-miterlimit="10"/>
<path d="M35.7126 37.2058C35.5228 37.4519 35.2806 37.6521 35.0038 37.7918C34.7269 37.9314 34.4224 38.0069 34.1127 38.0126H34.0216H33.9953C32.5171 38.0362 30.9186 36.985 30.9186 36.985L30.9629 36.935C31.2778 36.5725 32.5917 35.0922 33.422 34.7756C33.6831 34.6756 33.8958 34.6908 34.016 34.8908C34.052 34.9533 34.0893 34.9866 34.1266 34.9936C34.1929 35.0102 34.2564 34.9519 34.3158 34.8408C34.6557 34.2298 34.9375 32.0356 34.9375 32.0356C34.8519 34.5075 37.2184 35.2574 35.7126 37.2058Z" fill="#ECD844" stroke="black" stroke-width="0.218444" stroke-miterlimit="10"/>
<path d="M5.17036 37.4169L3.10635 37.0253L3.52081 35.8879C4.08033 36.3795 4.62742 36.8934 5.17036 37.4169Z" fill="black" stroke="black" stroke-width="0.218444" stroke-miterlimit="10"/>
<path d="M3.51566 35.888C2.31649 35.177 1.26929 36.6559 1.26929 36.6559C0.95429 36.1514 0.787201 35.5678 0.787201 34.9721C0.787201 34.3765 0.95429 33.7929 1.26929 33.2883V34.466C1.27067 34.1618 3.4452 35.8255 3.51566 35.888Z" fill="black" stroke="black" stroke-width="0.218444" stroke-miterlimit="10"/>
<path d="M5.79407 33.7604L6.05687 33.9196L6.0075 33.3608C6.17192 33.3798 6.3246 33.3133 6.41551 33.1616C6.54949 32.938 6.45755 32.6821 6.21386 32.5346L5.75674 32.2578L5.106 33.3439L5.32261 33.475L5.52932 33.13L5.7523 33.265L5.79407 33.7604ZM5.85278 32.5902L6.08532 32.731C6.20477 32.8033 6.26429 32.9286 6.20208 33.0324C6.13988 33.1362 6.00189 33.1419 5.88244 33.0696L5.6499 32.9288L5.85278 32.5902Z" fill="black"/>
<path d="M8.42061 34.4558L8.57499 34.2794L7.87836 33.6632L7.04518 34.6149L7.74181 35.2311L7.8962 35.0548L7.38905 34.6062L7.56794 34.4018L8.01936 34.8012L8.17374 34.6248L7.72232 34.2255L7.91346 34.0072L8.42061 34.4558Z" fill="black"/>
<path d="M9.06496 36.2016C8.90621 36.0339 8.91084 35.7924 9.0911 35.6199C9.27136 35.4474 9.51156 35.4547 9.67032 35.6223C9.79834 35.7575 9.80872 35.9228 9.70621 36.0853L9.88545 36.2746C10.0785 36.01 10.0626 35.6927 9.84116 35.4588C9.59023 35.1939 9.19154 35.1682 8.91442 35.4334C8.6373 35.6986 8.64318 36.1001 8.89412 36.3651C9.1156 36.5989 9.43008 36.6304 9.70249 36.4496L9.52326 36.2604C9.35673 36.3553 9.19299 36.3368 9.06496 36.2016Z" fill="black"/>
<path d="M11.6164 37.347L10.8279 36.5544L10.6618 36.7214L10.9664 37.0276L10.2359 37.7618L10.4152 37.9421L11.1457 37.2078L11.4503 37.514L11.6164 37.347Z" fill="black"/>
<path d="M12.6798 38.6462L12.8298 38.4658L12.1171 37.8668L11.3075 38.8402L12.0201 39.4392L12.1702 39.2588L11.6513 38.8228L11.8252 38.6138L12.287 39.0019L12.437 38.8216L11.9752 38.4334L12.161 38.2101L12.6798 38.6462Z" fill="black"/>
<path d="M14.3115 39.5171C14.0602 39.3753 13.8169 39.4177 13.6989 39.629C13.6036 39.7997 13.6376 39.9642 13.8329 40.13L13.9922 40.2648C14.0988 40.3527 14.0983 40.4186 14.071 40.4674C14.0275 40.5454 13.9332 40.55 13.8116 40.4814C13.6592 40.3954 13.5969 40.2662 13.6435 40.1407L13.4246 40.0173C13.3083 40.2638 13.4164 40.5171 13.6888 40.6708C13.9483 40.8171 14.1964 40.7775 14.3135 40.5678C14.4152 40.3857 14.3382 40.2333 14.147 40.0678L14.0318 39.9686C13.9382 39.888 13.8989 39.8209 13.9433 39.7412C13.9942 39.6502 14.1 39.6479 14.2216 39.7165C14.361 39.7952 14.3905 39.8951 14.3479 40.0058L14.5669 40.1293C14.6988 39.8318 14.498 39.6223 14.3115 39.5171Z" fill="black"/>
<path d="M15.7213 41.5912L15.9782 41.6743L15.8437 40.3L15.6187 40.2272L14.7099 41.2638L14.9685 41.3475L15.1449 41.1385L15.6994 41.3179L15.7213 41.5912ZM15.3005 40.952L15.6377 40.5524L15.6795 41.0747L15.3005 40.952Z" fill="black"/>
<path d="M17.3915 40.6786L16.9051 40.6409L16.8083 41.9033L17.0607 41.9228L17.0878 41.5701L17.2846 41.5854C17.6094 41.6105 17.839 41.4416 17.8606 41.1594C17.881 40.8939 17.6941 40.702 17.3915 40.6786ZM17.3302 41.3555L17.1056 41.3381L17.1398 40.8925L17.3644 40.9099C17.5222 40.9222 17.6214 41.0158 17.6119 41.1401C17.6011 41.2812 17.488 41.3677 17.3302 41.3555Z" fill="black"/>
<path d="M19.3411 40.8994L19.3161 40.6661L18.3905 40.7662L18.5253 42.0251L19.4508 41.925L19.4259 41.6918L18.7521 41.7646L18.7231 41.4943L19.3229 41.4295L19.2979 41.1962L18.6982 41.2611L18.6673 40.9723L19.3411 40.8994Z" fill="black"/>
<path d="M20.9854 41.5829L21.2802 41.4903L20.8289 41.1551C20.953 41.0434 21.0054 40.8837 20.9525 40.7138C20.8747 40.4635 20.6217 40.3624 20.3483 40.4482L19.8356 40.6093L20.2136 41.8253L20.4566 41.749L20.3365 41.3627L20.5866 41.2841L20.9854 41.5829ZM20.1486 40.7583L20.4094 40.6764C20.5434 40.6343 20.677 40.6728 20.7131 40.789C20.7493 40.9053 20.6613 41.0134 20.5273 41.0555L20.2665 41.1374L20.1486 40.7583Z" fill="black"/>
<path d="M22.3625 39.9096L22.2518 39.7028L21.433 40.1459L22.0309 41.262L22.8496 40.8188L22.7388 40.612L22.1428 40.9346L22.0144 40.695L22.545 40.4079L22.4342 40.2011L21.9037 40.4882L21.7665 40.2322L22.3625 39.9096Z" fill="black"/>
<path d="M24.133 38.5879L23.9786 38.4115L23.2917 39.0191L24.1249 39.9708L24.3144 39.8032L24.0044 39.4491L24.4391 39.0646L24.2847 38.8883L23.85 39.2728L23.6356 39.0278L24.133 38.5879Z" fill="black"/>
<path d="M24.9634 37.4435C24.6974 37.6933 24.6809 38.1075 24.9294 38.3747C25.1779 38.642 25.5901 38.6532 25.856 38.4033C26.122 38.1534 26.1386 37.7393 25.89 37.472C25.6415 37.2048 25.2293 37.1936 24.9634 37.4435ZM25.695 38.2302C25.5268 38.3883 25.2739 38.3678 25.1166 38.1988C24.9594 38.0297 24.9562 37.7747 25.1244 37.6166C25.2927 37.4585 25.5456 37.4789 25.7028 37.648C25.86 37.817 25.8633 38.0721 25.695 38.2302Z" fill="black"/>
<path d="M27.2778 35.4605L27.7585 36.1216L26.7197 35.8706L26.5681 35.9819L27.3126 37.006L27.5167 36.856L27.0492 36.213L28.0689 36.4504L28.2264 36.3347L27.4819 35.3106L27.2778 35.4605Z" fill="black"/>
<path d="M29.1455 34.2185C28.8919 34.3575 28.7981 34.5877 28.9138 34.801C29.0073 34.9732 29.1643 35.0318 29.4084 34.9534L29.6071 34.8891C29.7382 34.8449 29.7936 34.8805 29.8203 34.9297C29.863 35.0085 29.8167 35.0914 29.6939 35.1587C29.5401 35.243 29.3978 35.2274 29.3166 35.1208L29.0957 35.2419C29.242 35.4724 29.5136 35.5151 29.7886 35.3643C30.0504 35.2208 30.1491 34.9879 30.0343 34.7762C29.9346 34.5925 29.7648 34.5771 29.5231 34.6521L29.3779 34.6976C29.26 34.7346 29.1824 34.7325 29.1388 34.6521C29.0889 34.5602 29.1433 34.4687 29.266 34.4014C29.4068 34.3242 29.507 34.3523 29.5778 34.4476L29.7987 34.3265C29.6176 34.0554 29.3337 34.1153 29.1455 34.2185Z" fill="black"/>
<path d="M34.4379 35.7157C33.9033 36.0379 32.6654 37.3141 34.1147 38.014H33.9876C32.6406 37.9932 31.2245 37.11 30.9565 36.9322C31.2715 36.5698 32.5853 35.0894 33.4156 34.7728C33.6767 34.6728 33.8895 34.6881 34.0097 34.8881C34.0456 34.9506 34.0829 34.9839 34.1202 34.9908C34.1865 35.0075 34.25 34.9492 34.3095 34.8381C34.5319 35.088 34.7958 35.4991 34.4379 35.7157Z" fill="black"/>
<path d="M34.9394 32.0356C34.8441 32.7722 34.7103 33.5032 34.5387 34.2256C34.3987 34.1272 34.23 34.0783 34.0593 34.0867C34.0593 34.0867 33.7278 34.0437 33.9986 33.0841C34.2693 32.1245 33.8922 32.1592 33.6891 31.8634C33.486 31.5676 33.7084 30.94 33.7084 30.94C33.7084 30.94 33.2111 30.8011 33.2677 30.0887C33.2774 29.7691 33.218 29.4512 33.0937 29.1569C33.4622 29.1681 33.8191 29.2894 34.1188 29.5054C35.148 30.2748 34.9394 32.0356 34.9394 32.0356Z" fill="black" stroke="black" stroke-width="0.218444" stroke-miterlimit="10"/>
<path d="M3.09175 27.0947C2.78327 27.2043 2.49892 27.3732 2.25455 27.5919C1.74891 28.1001 2.24211 28.8056 2.24211 28.8056C-0.679825 26.2948 3.09175 27.0947 3.09175 27.0947L4.06988 25.3894L4.42493 26.2712L3.5145 27.7807L3.09175 27.0947Z" fill="black"/>
<path d="M3.09175 27.0947C2.78327 27.2043 2.49892 27.3732 2.25455 27.5919C1.74891 28.1001 2.24211 28.8056 2.24211 28.8056C-0.679825 26.2948 3.09175 27.0947 3.09175 27.0947ZM3.09175 27.0947L4.06988 25.3894L4.42493 26.2712L3.5145 27.7807L3.09175 27.0947" stroke="black" stroke-width="0.218444" stroke-miterlimit="10"/>
<path d="M5.53028 28.5111L4.96109 29.1541L5.53028 29.9054L6.05665 29.4027L5.53028 28.5111Z" fill="black" stroke="black" stroke-width="0.218444" stroke-miterlimit="10"/>
<path d="M35.6573 27.3376C35.6387 27.4203 35.6156 27.5019 35.5882 27.5821C34.6211 23.5687 33.2907 28.1056 33.2907 28.1056L31.9741 25.8559C32.5064 24.5401 32.9161 23.1775 33.1982 21.7856C33.5297 21.7065 34.9679 21.5315 34.6626 24.4977C34.6626 24.4908 36.0027 25.9142 35.6573 27.3376Z" fill="#ECD844" stroke="black" stroke-width="0.218444" stroke-miterlimit="10"/>
<path d="M34.9564 28.5111L34.3458 27.3585" stroke="black" stroke-width="0.218444" stroke-miterlimit="10"/>
<path d="M30.9195 28.1001L31.9736 28.5112L31.28 29.15L30.2853 29.2083L30.9195 28.1001Z" fill="black" stroke="black" stroke-width="0.218444" stroke-miterlimit="10"/>
<path d="M28.4452 31.7788L29.52 31.7302" stroke="black" stroke-width="0.218444" stroke-miterlimit="10"/>
<path d="M27.9358 32.4675H29.0728" stroke="black" stroke-width="0.218444" stroke-miterlimit="10"/>
<path d="M27.1757 33.2439H28.5448" stroke="black" stroke-width="0.218444" stroke-miterlimit="10"/>
<path d="M10.0247 34.202L8.32263 33.9729" stroke="black" stroke-width="0.218444" stroke-miterlimit="10"/>
<path d="M8.71769 32.8953L7.21182 32.7023" stroke="black" stroke-width="0.218444" stroke-miterlimit="10"/>
<path d="M7.82545 31.8691L6.43149 31.7719" stroke="black" stroke-width="0.218444" stroke-miterlimit="10"/>
<path d="M33.7279 1.17737V18.4959C33.6558 19.4876 33.5211 20.4737 33.3245 21.4482C32.5379 25.2929 30.7906 28.873 28.2472 31.8514C25.7039 34.8297 22.4481 37.1082 18.7866 38.4723C18.6278 38.5307 18.4675 38.5862 18.3072 38.6431C18.147 38.5862 17.9867 38.5307 17.8292 38.4723C13.6923 36.9379 10.083 34.2377 7.43317 30.6949C4.78334 27.1521 3.20532 22.9168 2.88797 18.4959V1.17737H33.7279Z" fill="white"/>
<path d="M33.9301 0.934326V18.4764C33.6282 22.6282 32.2294 26.6237 29.8783 30.0507C27.5272 33.4776 24.3089 36.2118 20.5555 37.971V37.971C19.978 38.2404 19.3886 38.4876 18.7871 38.7126C18.6269 38.7723 18.4652 38.8278 18.3022 38.8861C18.1392 38.8278 17.9789 38.7723 17.8173 38.7126C17.1413 38.4598 16.48 38.1779 15.8334 37.8668C12.1359 36.0859 8.97215 33.3544 6.66255 29.9491C4.35295 26.5438 2.9795 22.5855 2.68124 18.475V0.934326H33.9301Z" stroke="black" stroke-width="0.236364" stroke-miterlimit="10"/>
<path d="M16.2025 21.3913C16.4029 22.4412 16.4388 23.3591 16.3089 23.9535C15.8737 25.9532 14.8334 26.7392 15.7729 28.8473C15.8005 28.9112 15.8295 28.975 15.8613 29.0389C15.8613 29.0389 16.3089 29.9416 15.5408 32.001C15.5408 32.001 15.1982 32.6954 15.9691 34.6951C16.0363 35.3153 16.0529 35.94 16.0188 36.5629C12.5901 34.9112 9.65646 32.3783 7.51477 29.2205C5.37307 26.0628 4.09938 22.3923 3.82263 18.5806V4.92273C5.18068 5.52681 7.28889 6.77526 6.89239 8.57779C6.62576 9.79291 6.87996 10.6803 7.58316 11.4607C8.36372 12.3342 9.70381 13.0758 11.4915 13.9951L11.6987 14.1007C11.8795 14.1924 12.0543 14.2954 12.2223 14.4089C12.9258 14.8927 13.5386 15.4977 14.0321 16.1962C14.0357 16.2006 14.0389 16.2052 14.0418 16.2101C14.2269 16.4656 14.401 16.7322 14.5654 17.0044C14.5792 17.028 14.593 17.0516 14.6055 17.0753C14.7436 17.3155 14.8818 17.5641 15.0061 17.8154C15.0282 17.864 15.0531 17.914 15.078 17.964C15.5956 19.0541 15.9739 20.2057 16.2039 21.3913H16.2025Z" fill="#090B0E" stroke="black" stroke-width="0.586216" stroke-miterlimit="10"/>
<path d="M19.9433 12.8786L19.6297 13.2591L19.1862 13.8035L18.2426 14.9575L17.9912 15.263C17.9912 15.263 17.7425 14.8242 17.3363 14.1979L17.2645 14.0896C17.2037 13.9979 17.1401 13.9021 17.0725 13.8035C16.973 13.6549 16.8652 13.4994 16.7533 13.3411C16.6414 13.1827 16.5419 13.0439 16.4273 12.8939C16.2408 12.6453 16.0432 12.394 15.8387 12.1468C15.0596 11.2108 14.1671 10.3567 13.3382 10.0859C13.0515 9.99225 12.7798 9.85755 12.5314 9.68599C11.1913 8.74862 11.1084 7.03218 11.1084 7.03218C10.9702 4.58112 8.84958 2.70499 7.73883 2.00647H28.9439C28.5626 2.24533 28.1468 2.8994 27.2861 3.37156C25.3755 4.4242 25.649 5.61432 25.3755 7.53767C25.321 7.96303 25.1752 8.37141 24.9481 8.73447C24.721 9.09752 24.418 9.40657 24.0602 9.64016C23.491 10.0401 22.8376 10.297 22.2822 10.5553C21.5058 10.9136 20.8675 11.6482 20.5208 12.1107C20.3384 12.3537 20.2348 12.5273 20.2348 12.5273L19.9433 12.8786Z" fill="#090B0F" stroke="black" stroke-width="0.586216" stroke-miterlimit="10"/>
<path d="M32.7919 4.97266V18.5819C32.513 22.4313 31.217 26.1361 29.0378 29.3139C26.8586 32.4916 23.8751 35.0271 20.3954 36.6587C20.4147 36.5726 20.4382 36.4684 20.4631 36.3462C20.691 35.2491 20.1453 33.6021 20.1453 33.6021C20.0072 30.9955 21.3735 30.9955 20.3719 29.1208C20.1615 28.7378 19.9902 28.3344 19.8607 27.9168C19.5471 26.8878 19.7806 26.4225 19.7806 26.4225C20.4852 25.1563 20.7109 23.6767 20.4161 22.2564L20.4589 21.5482L20.6081 19.1027L20.6441 18.5069C20.6441 18.5069 20.8734 18.2598 21.2533 17.8654L21.4246 17.6862C21.6042 17.5001 21.8059 17.2918 22.0311 17.0641L22.0947 17.0016C22.3226 16.7711 22.5685 16.5253 22.8283 16.2711C23.2773 15.8309 23.7663 15.3643 24.2609 14.9144C24.6035 14.6005 24.9517 14.295 25.2902 14.0103C25.8212 13.5509 26.3866 13.1331 26.9811 12.7605C27.0378 12.7258 27.0931 12.6952 27.1469 12.6647C29.3753 11.4301 29.7401 10.926 29.7401 8.36664C29.7401 5.80727 32.7919 4.97266 32.7919 4.97266Z" fill="#090B0F" stroke="black" stroke-width="0.586216" stroke-miterlimit="10"/>
<path d="M11.2995 7.31267C12.3461 8.0244 13.2331 8.9482 13.9037 10.0248C14.9232 11.7246 15.2949 11.4746 15.2949 11.4746C15.2949 11.4746 12.862 7.01688 13.2958 6.69886C13.7296 6.38085 15.4178 10.6442 15.6996 10.4136C15.9815 10.1831 15.7881 9.59986 15.7881 9.59986L15.853 7.15852C15.853 7.15852 15.1885 5.51291 15.3128 5.53097C15.4372 5.54902 16.6142 6.928 16.6142 6.928L16.8905 9.51098C16.8905 9.51098 17.1544 10.2539 17.2953 9.95398C17.4362 9.65402 17.859 5.33655 17.859 5.33655L18.6506 9.8651L18.8799 10.0248C18.8799 10.0248 19.3897 9.84288 19.2847 8.41252L20.0418 7.17658L20.2352 5.44625L20.7105 7.65429L20.0418 8.6972L19.9354 9.93593L20.1827 10.1665L22.9624 5.77815L21.719 10.3067L22.1238 10.7317C22.3287 10.3179 22.4939 9.88547 22.617 9.44016C22.8449 8.64443 23.9184 8.04313 23.9184 8.04313L24.6575 6.71553L24.587 8.2556L23.8714 9.84011L23.8852 10.7886C23.8852 10.7886 26.1261 9.18186 26.6662 8.2431C27.2064 7.30434 25.3524 10.9969 24.9766 11.2274C24.6009 11.4579 29.1212 9.829 29.1212 9.829L26.0335 12.062C26.0335 12.062 26.6317 13.3341 27.0669 13.3119C27.5021 13.2896 29.7857 12.6022 29.7857 12.6022C29.7857 12.6022 29.1488 14.0229 26.8182 14.4798C26.8182 14.4798 26.1744 14.9602 26.8597 15.356C27.5449 15.7518 30.243 14.9186 30.243 14.9186L28.6322 16.1351L26.6607 16.2392C26.6607 16.2392 26.3692 16.8031 26.64 16.9072C26.9108 17.0114 30.0648 17.4488 30.4793 18.1168C30.8937 18.7847 27.2202 17.6793 26.7229 18.1168C26.2255 18.5542 26.2449 18.7639 26.4535 18.9097C26.6621 19.0555 27.2617 18.4931 28.3006 19.4944C29.1581 19.4712 29.996 19.7541 30.6658 20.2929C31.724 21.1844 26.9356 20.0568 26.9356 20.0568C26.9356 20.0568 26.5419 20.2234 26.832 20.5373C27.1221 20.8511 30.0275 22.3523 30.0275 22.3523C30.0275 22.3523 26.5488 21.2413 26.0473 21.9968C25.5458 22.7522 28.4926 24.7742 28.4926 24.7742C28.4926 24.7742 25.1866 22.8009 24.6478 22.9078C24.109 23.0147 26.7643 26.4976 26.7643 26.4976C26.7643 26.4976 23.1945 22.7481 22.8214 23.2022C22.4484 23.6563 23.526 25.1214 23.526 25.1214L23.6089 25.9352L25.1037 27.6877C25.1037 27.6877 21.3073 23.8688 21.0572 23.9743C20.8072 24.0799 23.2152 29.5652 23.2152 29.5652C23.2152 29.5652 22.5023 28.6167 21.759 27.6974C21.0158 26.7781 20.2394 25.8921 20.1233 25.9976C19.8829 26.2184 21.7411 29.5652 21.7411 29.5652L19.7696 28.0376L18.4834 31.5261L18.3591 28.1668L14.5613 29.5652L15.328 26.4976L12.6299 29.4666C12.6299 29.4666 14.8307 24.459 14.7022 24.3965C14.5737 24.334 11.1102 27.9849 11.1102 27.9849C11.1102 27.9849 13.684 24.0632 13.351 23.6799C13.0181 23.2966 9.22718 26.2726 9.22718 26.2726L11.946 22.7467L6.83437 24.8964L9.45927 21.8413C9.45927 21.8413 7.54585 21.7191 5.94742 22.2204C4.34899 22.7217 8.93567 20.2859 8.93567 20.2859C8.93567 20.2859 6.63266 19.5916 5.3879 19.7999C4.14315 20.0082 9.16501 18.6111 9.16501 18.6111C9.16501 18.6111 5.57303 17.2127 5.18896 17.2127C4.8049 17.2127 9.10284 16.7545 9.10284 16.7545C7.92436 15.7737 6.59377 14.994 5.1641 14.4464C2.82931 13.5632 8.89423 14.9339 8.89423 14.9339C8.89423 14.9339 9.17053 14.2395 6.28866 12.1565C3.40679 10.0734 10.8643 13.1619 10.8643 13.1619L8.80443 9.38322L12.8951 11.3274L11.2995 7.31267Z" fill="#EDD250"/>
<path d="M33.3382 1.5426V4.97269C33.3382 4.97269 29.7462 5.7962 29.7462 8.35835C29.7462 10.9205 29.3815 11.4218 27.153 12.6564C27.0992 12.6869 27.0439 12.7175 26.9873 12.7522C26.3927 13.1248 25.8274 13.5426 25.2963 14.002C24.9564 14.2798 24.6055 14.5922 24.267 14.9061C23.7724 15.356 23.2834 15.8226 22.8344 16.2628C22.5746 16.517 22.3287 16.7628 22.1008 16.9933L22.0372 17.0558C21.812 17.2835 21.6103 17.4918 21.4307 17.6779L21.2594 17.8571C20.8795 18.2515 20.6502 18.4986 20.6502 18.4986L20.6143 19.0944L20.4609 21.551L20.4181 22.2593C20.7128 23.6796 20.4872 25.1591 19.7826 26.4254C19.7826 26.4254 19.5491 26.8906 19.8627 27.9196C19.9922 28.3373 20.1634 28.7407 20.3739 29.1236C21.3755 30.9983 20.0105 30.9983 20.1473 33.6049C20.1473 33.6049 20.693 35.2519 20.4651 36.349C20.4402 36.4712 20.4236 36.9656 20.4043 37.0517L20.3863 37.3711C19.8517 37.6211 19.3059 37.8516 18.7478 38.0585C18.5986 38.1141 18.4494 38.1654 18.2974 38.2196C18.1468 38.1654 17.9976 38.1141 17.8484 38.0585C17.2212 37.8238 16.6051 37.5641 16.0082 37.2739C16.0732 36.3865 15.9696 34.6992 15.9696 34.6992C15.1987 32.7009 15.5413 32.0052 15.5413 32.0052C16.3094 29.9457 15.8618 29.0431 15.8618 29.0431C15.83 28.9792 15.801 28.9153 15.7734 28.8514C14.8339 26.7434 15.8742 25.9574 16.3094 23.9576C16.4393 23.3633 16.4034 22.4453 16.203 21.3955C15.973 20.2099 15.5947 19.0583 15.0771 17.9682C15.0522 17.9182 15.0273 17.8682 15.0052 17.8196C14.8809 17.5682 14.7469 17.3196 14.6046 17.0794C14.5922 17.0558 14.5784 17.0322 14.5645 17.0086C14.4001 16.7308 14.2261 16.4698 14.0409 16.2142C14.038 16.2094 14.0348 16.2047 14.0313 16.2003C13.5377 15.5019 12.9249 14.8968 12.2215 14.4131C12.0535 14.2995 11.8786 14.1966 11.6979 14.1048L11.4906 13.9993C9.70293 13.0799 8.36284 12.3328 7.58228 11.4649C6.88046 10.6844 6.62626 9.79843 6.89151 8.58193C7.28801 6.77662 4.70317 5.52679 3.34512 4.92687V1.68286L7.28525 1.73702C8.39047 2.43137 10.9712 4.58108 11.1079 7.03214C11.1079 7.03214 11.1908 8.74857 12.5309 9.68595C12.7794 9.85751 13.0511 9.99221 13.3377 10.0859C14.1667 10.3567 15.0591 11.2107 15.8383 12.1467C16.0428 12.3939 16.2403 12.6453 16.4268 12.8938C16.5415 13.0438 16.6493 13.1938 16.7529 13.341C16.8565 13.4882 16.9725 13.6549 17.072 13.8034C17.1397 13.902 17.2033 13.9979 17.264 14.0895L17.3359 14.1978C17.7421 14.8241 17.9907 15.263 17.9907 15.263L18.2422 14.9575L19.1858 13.8034L19.6292 13.2591L19.9428 12.8786L20.2357 12.5189C20.2357 12.5189 20.3393 12.3509 20.5217 12.1023C20.8685 11.6399 21.5067 10.9052 22.2831 10.5469C22.8358 10.2886 23.492 10.0317 24.0612 9.63179C24.419 9.39819 24.722 9.08915 24.9491 8.72609C25.1762 8.36303 25.322 7.95466 25.3764 7.52929C25.6527 5.60872 25.3764 4.4186 27.2871 3.36319C28.1464 2.89103 28.8067 1.80784 29.1936 1.56899L33.3382 1.5426Z" fill="#0075B3" stroke="white" stroke-width="0.473581" stroke-miterlimit="10"/>
<path d="M33.2567 22.6175C33.2567 22.6175 33.4985 24.0395 33.7278 24.5866C33.9572 25.1338 34.612 25.9267 34.612 25.9267C34.612 25.9267 35.1909 25.8059 35.5874 27.5821C35.5874 27.5821 36.0654 26.3628 34.6617 24.4908C34.6617 24.4908 35.2807 21.9273 33.5676 21.7454L33.2567 22.6175Z" fill="#090B0F"/>
<path d="M2.51939 30.0221V30.7456C2.51939 30.7456 2.11184 30.2248 1.90875 30.7456C1.70567 31.2663 1.90875 33.5119 1.90875 33.5119L1.2691 34.2395V30.5873C1.2691 30.5873 1.66284 29.5693 2.51939 30.0221Z" fill="#03070E"/>
<path d="M2.51965 30.0206L2.88852 35.2769" stroke="black" stroke-width="0.0981293" stroke-miterlimit="10"/>
<path d="M3.1049 22.573L2.78024 23.6576L3.34529 23.7714L2.98886 25.6101L3.80948 24.663L3.1049 22.573Z" fill="black" stroke="black" stroke-width="0.0981293" stroke-miterlimit="10"/>
<path d="M28.5291 14.8727V25.0102H20.6543L19.8254 23.8992C18.1676 25.5657 16.3716 23.8992 16.3716 23.8992L15.4045 25.0102H8.0824V15.8448C8.6278 15.7744 9.16297 15.6392 9.67668 15.442V23.7618L16.0967 23.3451C16.0967 23.3451 18.169 24.7338 19.8268 23.484L26.7344 23.7618V14.9185C27.0107 14.9866 27.0107 14.8727 27.0107 14.8727H28.5291Z" fill="#DABB7F" stroke="black" stroke-width="0.257696" stroke-miterlimit="10"/>
<path d="M26.7314 14.9185V23.7632L19.8238 23.4854C18.1659 24.7353 16.0936 23.3466 16.0936 23.3466L9.67365 23.7632V15.4407C10.6532 15.063 11.1215 14.5936 11.1215 14.5936C11.1588 14.5644 11.1961 14.5311 11.2292 14.5047V21.4663C12.6704 21.6651 14.1337 21.3186 15.3352 20.4942C16.1945 19.9192 16.8618 19.9151 17.3494 20.1039C17.7867 20.2943 18.148 20.6262 18.3759 21.0469C18.3759 21.0469 19.4811 19.1027 21.9679 20.7691C24.4546 22.4356 25.4217 22.019 25.4217 22.019V14.2853C25.8061 14.5348 26.2172 14.7402 26.6471 14.8977C26.6817 14.906 26.7065 14.9144 26.7314 14.9185Z" fill="#F44B49" stroke="black" stroke-width="0.257696" stroke-miterlimit="10"/>
<path d="M26.73 14.8936V14.9186C26.7052 14.9186 26.6803 14.9061 26.6458 14.8977L26.73 14.8936Z" fill="#F44B49" stroke="black" stroke-width="0.257696" stroke-miterlimit="10"/>
<path d="M25.421 14.2867V22.0259C25.421 22.0259 24.454 22.4425 21.9672 20.7761C19.4805 19.1096 18.3752 21.0538 18.3752 21.0538C18.1475 20.6332 17.7868 20.301 17.3501 20.1095C16.8611 19.9206 16.1924 19.9262 15.3345 20.4997C14.1335 21.3241 12.6707 21.6705 11.2299 21.4718V14.5033C15.7213 10.7455 18.3061 12.9313 18.3061 12.9313C18.3061 12.9313 20.9311 11.2648 23.9704 13.3479C24.5617 13.7534 25.037 14.0589 25.421 14.2867Z" fill="white" stroke="black" stroke-width="0.257696" stroke-miterlimit="10"/>
<path d="M22.1767 19.1277H19.3252H17.0789H14.226" stroke="#020202" stroke-width="0.158713" stroke-miterlimit="10"/>
<path d="M16.4828 18.0376V19.1277" stroke="#020202" stroke-width="0.158713" stroke-miterlimit="10"/>
<path d="M17.6443 16.8308V19.1472" stroke="#020202" stroke-width="0.158713" stroke-miterlimit="10"/>
<path d="M18.7682 15.5073V19.1471" stroke="#020202" stroke-width="0.158713" stroke-miterlimit="10"/>
<path d="M19.93 13.5604V19.1472" stroke="#020202" stroke-width="0.158713" stroke-miterlimit="10"/>
<path d="M20.2939 14.5464L21.185 13.9451L21.7487 14.7658" stroke="#020202" stroke-width="0.158713" stroke-miterlimit="10"/>
<path d="M15.3849 17.9181C16.1234 18.098 16.894 18.098 17.6326 17.9181C18.0218 17.8236 18.3971 17.6784 18.7489 17.4863C19.398 17.1356 19.9559 16.6364 20.3776 16.029C20.7993 15.4215 21.0729 14.7229 21.1762 13.9895" stroke="#020202" stroke-width="0.158713" stroke-miterlimit="10"/>
</svg>
